<svg id="Capa_1" data-name="Capa 1" xmlns="http://www.w3.org/2000/svg" viewBox="0 0 750 1334">
    <defs>
        <linearGradient id="Degradado_sin_nombre_20" x1="375" y1="1358.41" x2="375" y2="16.43"
            gradientUnits="userSpaceOnUse">
            <stop offset="0" stop-color="#662d91" />
            <stop offset=".98" stop-color="#0ff" />
        </linearGradient>
        <style>
            .cls-17,
            .cls-2 {
                fill: none;
                stroke-miterlimit: 10
            }

            .cls-2 {
                stroke: #fff;
                stroke-width: 4px
            }

            .cls-3 {
                font-size: 31.8px
            }

            .cls-10,
            .cls-21,
            .cls-3 {
                fill: #fff
            }

            .cls-3 {
                font-family: Seravek-Medium, Seravek;
                font-weight: 500
            }

            .cls-17 {
                stroke: #000;
                stroke-width: 2px
            }

            .cls-21 {
                font-size: 28px;
                font-family: Seravek
            }

            .cls-22,
            .cls-31,
            .cls-32 {
                letter-spacing: 0
            }
        </style>
    </defs>
    <path style="fill:url(#Degradado_sin_nombre_20)" d="M-10-3.5h770v1354H-10z" />
    <path class="cls-2"
        d="M494.25 1127h-238.5a43.43 43.43 0 0 1-43.43-43.43 43.44 43.44 0 0 1 43.43-43.43h238.5a43.44 43.44 0 0 1 43.43 43.43 43.43 43.43 0 0 1-43.43 43.43Z" />
    <text class="cls-3" transform="translate(317.72 1093.29)">Ing<tspan x="44.04" y="0" style="letter-spacing:-.01em">r
        </tspan>
        <tspan x="55.83" y="0" style="letter-spacing:0">e</tspan>
        <tspan x="72.05" y="0">sar</tspan>
    </text>
    <path class="cls-2"
        d="M493.94 1232.85H256.06a43.31 43.31 0 0 1-43.31-43.32 43.31 43.31 0 0 1 43.31-43.31h237.88a43.31 43.31 0 0 1 43.31 43.31 43.31 43.31 0 0 1-43.31 43.32Z" />
    <text class="cls-3" transform="translate(295.33 1201.17)">
        <tspan style="letter-spacing:0">R</tspan>
        <tspan x="19.62" y="0">egi</tspan>
        <tspan x="60.76" y="0" style="letter-spacing:0">s</tspan>
        <tspan x="74.43" y="0">t</tspan>
        <tspan x="87.18" y="0" style="letter-spacing:-.01em">r</tspan>
        <tspan x="98.92" y="0">arse</tspan>
    </text>
    <g style="opacity:.15">
        <path class="cls-10"
            d="M755.81 430.07a147.56 147.56 0 0 1-63.62 14.35c-81.83 0-148.4-66.57-148.4-148.4s66.57-148.39 148.4-148.39A147.42 147.42 0 0 1 755.81 162v-38.8a183.43 183.43 0 0 0-63.62-11.33C590.65 111.87 508 194.48 508 296s82.61 184.16 184.15 184.16a183.21 183.21 0 0 0 63.62-11.34ZM48 284.7a60.79 60.79 0 1 0-60.78-60.79A60.86 60.86 0 0 0 48 284.7Zm0-85.82a25 25 0 1 1-25 25 25.06 25.06 0 0 1 25-25ZM5.64 1002.94a115.22 115.22 0 0 0-28 3.45v23.3a93.08 93.08 0 1 1 0 177.52v23.3a115.72 115.72 0 0 0 28 3.45 115.51 115.51 0 1 0 0-231ZM219.59 102.34h11.92v11.92h-11.92zM250.58 102.34h11.92v11.92h-11.92zM281.57 102.34h11.92v11.92h-11.92zM312.56 102.34h11.92v11.92h-11.92zM219.59 132.73h11.92v11.92h-11.92zM250.58 132.73h11.92v11.92h-11.92zM281.57 132.73h11.92v11.92h-11.92zM312.56 132.73h11.92v11.92h-11.92zM219.59 163.12h11.92v11.92h-11.92zM250.58 163.12h11.92v11.92h-11.92zM281.57 163.12h11.92v11.92h-11.92zM312.56 163.12h11.92v11.92h-11.92zM219.59 193.52h11.92v11.92h-11.92zM250.58 193.52h11.92v11.92h-11.92zM281.57 193.52h11.92v11.92h-11.92zM312.56 193.52h11.92v11.92h-11.92zM643.91 648.83h11.92v11.92h-11.92zM674.9 648.83h11.92v11.92H674.9zM705.89 648.83h11.92v11.92h-11.92zM736.88 648.83h11.92v11.92h-11.92zM643.91 679.23h11.92v11.92h-11.92zM674.9 679.23h11.92v11.92H674.9zM705.89 679.23h11.92v11.92h-11.92zM736.88 679.23h11.92v11.92h-11.92zM643.91 709.62h11.92v11.92h-11.92zM674.9 709.62h11.92v11.92H674.9zM705.89 709.62h11.92v11.92h-11.92zM736.88 709.62h11.92v11.92h-11.92zM643.91 740.01h11.92v11.92h-11.92zM674.9 740.01h11.92v11.92H674.9zM705.89 740.01h11.92v11.92h-11.92zM736.88 740.01h11.92v11.92h-11.92zM155.23 340.72h30.99v30.99h-30.99zM534.26 843.71h30.99v30.99h-30.99zM56.3 653a82.26 82.26 0 0 0-78.7 58.34v47.81A82.25 82.25 0 1 0 56.3 653Z" />
        <circle class="cls-10" cx="697.55" cy="552.88" r="41.72" transform="rotate(-21.49 697.562 552.886)" />
        <path class="cls-10"
            d="M222 787.69a15.5 15.5 0 1 1-15.49-15.49A15.49 15.49 0 0 1 222 787.69ZM348.32 269.2h104.89v9.54H348.32z" />
        <path class="cls-10" transform="rotate(90 610.54 293.04)" d="M558.1 288.28h104.89v9.54H558.1z" />
        <path class="cls-10"
            d="M753.77 996.27a260.52 260.52 0 0 0-92-16.68c-144.16 0-261 116.87-261 261A259.86 259.86 0 0 0 429 1358.85h324.77Z" />
    </g><text transform="translate(303.69 598.88)"
        style="font-size:53.28px;font-family:Seravek-Bold,Seravek;font-weight:700;fill:#fff">
        <tspan style="letter-spacing:-.01em">L<tspan x="25.68" y="0" style="letter-spacing:0">O</tspan>
            <tspan x="65.79" y="0" style="letter-spacing:0">GO</tspan>
        </tspan>
        <tspan x="-32.05" y="50">S</tspan>
        <tspan x="-3.81" y="50" style="letter-spacing:-.01em">L</tspan>
        <tspan x="21.87" y="50" style="letter-spacing:0">O</tspan>
        <tspan x="61.99" y="50">GAN</tspan>
    </text>
    <path class="cls-10"
        d="M474.5 481.16a37.43 37.43 0 0 1-17.85 4.57l-45.71.06a38.11 38.11 0 0 1-6.13-.49 87.6 87.6 0 0 1-16.69 17.36 104.71 104.71 0 0 1-14.45 9.55c-17.43 9.54-38 14.39-61.12 14.42-32.54 0-59.3-9-79.53-27-21.19-18.81-32.41-45-32.45-75.84A100 100 0 0 1 218.69 366a141.08 141.08 0 0 1 37.53-37.1c.1-1.09.2-2.69.19-4.84a37.38 37.38 0 0 1 2.08-12.3 37.9 37.9 0 0 1-2.42-13.2l-.07-38.87a37.37 37.37 0 0 1 37.33-37.42l45.71-.06a39 39 0 0 1 6.12.49 87.94 87.94 0 0 1 16.7-17.36c20.09-15.86 45.52-23.93 75.57-24 32.53 0 59.27 9 79.5 27l.06.05c21.17 18.81 32.38 45 32.42 75.82a100.09 100.09 0 0 1-18.1 57.79 141.08 141.08 0 0 1-37.53 37.1c-.1 1.09-.2 2.69-.19 4.84a37.43 37.43 0 0 1-2.08 12.3 37.9 37.9 0 0 1 2.42 13.2l.05 38.87a37.39 37.39 0 0 1-19.48 32.85Zm-71.29.18 1.15.22a33.67 33.67 0 0 0 6.58.64l45.71-.06a33.79 33.79 0 0 0 33.73-33.83l-.05-38.87a34.14 34.14 0 0 0-2.4-12.51l-.26-.64.24-.65A33.94 33.94 0 0 0 490 384a51.7 51.7 0 0 1 .3-6l.08-.69.52-.45.45-.38.14-.11A137.29 137.29 0 0 0 528.35 340a96.53 96.53 0 0 0 17.49-55.74c0-29.74-10.84-55-31.22-73.14l-.07-.05C495 193.7 469.07 184.93 437.46 185c-29.23 0-53.91 7.84-73.35 23.19a83.58 83.58 0 0 0-16.65 17.55l-.68.95-1.14-.22a33.58 33.58 0 0 0-6.58-.63l-45.71.05a33.78 33.78 0 0 0-33.73 33.83v38.87a34.36 34.36 0 0 0 2.41 12.51l.26.64-.24.64a34 34 0 0 0-2.08 11.7 51.7 51.7 0 0 1-.3 6l-.08.69-.52.45-.44.38-.15.1a137.62 137.62 0 0 0-36.83 36.3 96.53 96.53 0 0 0-17.49 55.74c0 29.74 10.84 55 31.24 73.16 19.6 17.39 45.51 26.17 77.14 26.1 22.52 0 42.5-4.73 59.4-14a100.81 100.81 0 0 0 13.95-9.22 83.82 83.82 0 0 0 16.65-17.55Z" />
    <path class="cls-10"
        d="M470.36 473.59a28.66 28.66 0 0 1-13.72 3.51l-45.71.06a28.56 28.56 0 0 1-9.89-1.73 78.27 78.27 0 0 1-18.27 20.46 94.49 94.49 0 0 1-13.24 8.75c-16.15 8.84-35.33 13.33-57 13.36-30.37 0-55.2-8.31-73.8-24.83-19.28-17.17-29.5-41.17-29.53-69.4a91.52 91.52 0 0 1 16.6-52.88 132.53 132.53 0 0 1 35.79-35.21 20.93 20.93 0 0 0 2.7-2.52 40.65 40.65 0 0 0 .75-9.11 28.57 28.57 0 0 1 2.81-12.42 28.49 28.49 0 0 1-3.15-13.08l-.05-38.87a28.75 28.75 0 0 1 28.71-28.79h45.71a28.56 28.56 0 0 1 9.89 1.73 78.09 78.09 0 0 1 18.27-20.46c18.54-14.69 42.16-22.16 70.23-22.16 30.35 0 55.17 8.31 73.77 24.8 19.32 17.2 29.54 41.2 29.57 69.43a91.52 91.52 0 0 1-16.6 52.88 132.49 132.49 0 0 1-35.79 35.2 20.76 20.76 0 0 0-2.7 2.53A40 40 0 0 0 485 384a28.61 28.61 0 0 1-2.81 12.42 28.61 28.61 0 0 1 3.15 13.08l.05 38.87a28.74 28.74 0 0 1-15.03 25.22Zm-73.64-12.74 4.9 3a17.79 17.79 0 0 0 9.3 2.57l45.7-.06a18 18 0 0 0 17.95-18l-.05-38.87a17.84 17.84 0 0 0-3-10l-2-2.92 1.88-3a17.87 17.87 0 0 0 2.79-9.6c0-8 1-11.86 1.58-13.44l.15-.41.21-.37c.56-1 2-3 5.73-6l.38-.28A121.63 121.63 0 0 0 515.32 331 81 81 0 0 0 530 284.24c0-25.09-9-46.3-25.9-61.33-16.57-14.71-39-22.14-66.62-22.11-25.59 0-47 6.69-63.57 19.79a67.12 67.12 0 0 0-18 21.52l-2.66 5.06-4.9-3a17.89 17.89 0 0 0-9.3-2.57l-45.71.06a18 18 0 0 0-17.94 18l.05 38.87a17.76 17.76 0 0 0 3 10l2 2.92-1.89 3a18 18 0 0 0-2.78 9.6c0 8-1 11.86-1.58 13.45l-.15.4-.21.37c-.56 1-2 3-5.73 6l-.38.28A121.76 121.76 0 0 0 234.68 377 80.94 80.94 0 0 0 220 423.76c0 25.1 9 46.32 25.92 61.35 16.57 14.71 39 22.14 66.62 22.11 19.84 0 37.28-4.08 51.83-12a83.92 83.92 0 0 0 11.74-7.75 67.25 67.25 0 0 0 18-21.52Zm-132.15-128Z" />
    <rect class="cls-10" x="287.67" y="253.87" width="57.21" height="50.37" rx="5.75"
        transform="rotate(-.07 327.23 286.679)" />
    <path class="cls-10"
        d="M384.24 420.91h-44.15a5.77 5.77 0 0 0-5.75 5.69c-.07 7.13-2.07 12.28-6.12 15.75-4.3 3.68-9.46 5.48-15.77 5.49-7.73 0-13.4-2-17.34-6.24s-6-10.36-6-18.46a36.67 36.67 0 0 1 5.67-20.14 76.8 76.8 0 0 1 16.34-18c13.17-10.15 21.8-18.68 26.39-26.06 4.8-7.74 7.18-19.15 7.27-34.88a5.75 5.75 0 0 0-5.78-5.86l-45.25.06A5.75 5.75 0 0 0 288 324c0 7.83-.84 13.93-2.52 18.15-1.53 3.85-5 7.89-10.23 12a3.28 3.28 0 0 1-.38.27 109.68 109.68 0 0 0-30.16 29.48 68.9 68.9 0 0 0-12.55 39.81c0 21.83 7.37 39.4 21.81 52.23 14.26 12.66 33.94 19.06 58.5 19 17.82 0 33.23-3.56 46-10.54a71.48 71.48 0 0 0 10-6.62c14.83-11.71 22.17-28.65 21.8-50.35a5.66 5.66 0 0 0-.3-1.72l-.31-.93a5.74 5.74 0 0 0-5.42-3.87ZM496 232c-14.25-12.66-33.93-19.06-58.49-19-22.78 0-41.62 5.8-56 17.16-14.82 11.71-22.16 28.65-21.79 50.35a5.6 5.6 0 0 0 .3 1.72l.31.94a5.76 5.76 0 0 0 5.46 3.92h44.15a5.76 5.76 0 0 0 5.74-5.7c.08-7.13 2.08-12.28 6.13-15.75 4.3-3.68 9.46-5.48 15.77-5.49 7.73 0 13.4 2 17.33 6.24s6 10.36 6 18.46a36.67 36.67 0 0 1-5.69 20.15 76.8 76.8 0 0 1-16.34 18c-13.16 10.15-21.79 18.68-26.39 26.06-4.8 7.74-7.18 19.15-7.27 34.88a5.75 5.75 0 0 0 5.78 5.86l45.25-.06A5.75 5.75 0 0 0 462 384c0-7.83.84-13.93 2.52-18.15 1.53-3.85 5-7.89 10.23-12a3.28 3.28 0 0 1 .38-.27 109.68 109.68 0 0 0 30.16-29.48 68.92 68.92 0 0 0 12.55-39.81c-.07-21.86-7.41-39.43-21.84-52.29Z" />
    <rect class="cls-10" x="405.12" y="403.76" width="57.21" height="50.37" rx="5.75"
        transform="rotate(-.07 449.906 450.456)" />
    <path class="cls-10" d="M101.13 774.99h550v70h-550z" />
    <path class="cls-17" d="M101.13 844.99h550" /><text transform="translate(119.25 818.93)"
        style="font-size:28.26px;font-family:Seravek-Medium,Seravek;font-weight:500">P<tspan x="15.54" y="0"
            style="letter-spacing:0">a</tspan>
        <tspan x="30.24" y="0">tricio Ba</tspan>
        <tspan x="133.68" y="0" style="letter-spacing:0">l</tspan>
        <tspan x="141.99" y="0">deón</tspan>
    </text><text class="cls-21" transform="translate(98.12 739.24)">Nomb<tspan class="cls-22" x="74.4" y="0">r</tspan>
        <tspan x="84.42" y="0">e de Usuario</tspan>
    </text><text class="cls-21" transform="translate(101.17 890.24)">
        <tspan style="letter-spacing:-.02em">C</tspan>
        <tspan x="16.52" y="0">o</tspan>
        <tspan x="31.81" y="0" style="letter-spacing:-.01em">n</tspan>
        <tspan x="47.1" y="0">t</tspan>
        <tspan x="57.99" y="0" style="letter-spacing:-.01em">r</tspan>
        <tspan x="67.93" y="0" style="letter-spacing:0">a</tspan>
        <tspan class="cls-22" x="81.96" y="0">s</tspan>
        <tspan x="93.58" y="0">eña</tspan>
    </text>
    <path class="cls-10" d="M100.13 908.41h550v70h-550z" />
    <path class="cls-17" d="M100.13 978.41h550" /><text transform="translate(117.5 949.81)"
        style="fill:#999;font-family:Seravek-ExtraLight,Seravek;font-weight:200;font-size:28.26px">***********</text><text
        transform="translate(236.78 1284.17)" style="font-size:25px;font-family:Seravek;fill:#fff">¿O<tspan x="29.92"
            y="0" style="letter-spacing:0">l</tspan>
        <tspan x="36.7" y="0">vida</tspan>
        <tspan x="80.57" y="0" style="letter-spacing:-.01em">st</tspan>
        <tspan class="cls-31" x="100.5" y="0">e </tspan>
        <tspan class="cls-32" x="117.97" y="0">t</tspan>
        <tspan x="127.65" y="0">u </tspan>
        <tspan class="cls-32" x="146.65" y="0">c</tspan>
        <tspan x="157.75" y="0">o</tspan>
        <tspan x="171.4" y="0" style="letter-spacing:-.01em">n</tspan>
        <tspan class="cls-31" x="185.05" y="0">t</tspan>
        <tspan x="194.77" y="0" style="letter-spacing:-.01em">r</tspan>
        <tspan x="203.65" y="0" style="letter-spacing:0">a</tspan>
        <tspan x="216.17" y="0" style="letter-spacing:0">s</tspan>
        <tspan x="226.55" y="0">eña?</tspan>
    </text>
</svg>