<svg id="Capa_1" data-name="Capa 1" xmlns="http://www.w3.org/2000/svg" xmlns:xlink="http://www.w3.org/1999/xlink" viewBox="0 0 750 1334"><defs><style>.cls-1{fill:url(#Degradado_sin_nombre_20);}.cls-2{font-size:30px;font-family:Poppins-SemiBold, Poppins;font-weight:600;}.cls-17,.cls-2,.cls-3{fill:#fff;}.cls-4{fill:#fafafa;}.cls-11,.cls-14,.cls-15,.cls-5,.cls-6,.cls-8{fill:none;stroke-miterlimit:10;stroke-width:2px;}.cls-5{stroke:url(#Degradado_sin_nombre_20-2);}.cls-6{stroke:url(#Degradado_sin_nombre_20-3);}.cls-7{font-size:28.26px;fill:#999;font-family:Seravek-ExtraLight, Seravek;font-weight:200;}.cls-8{stroke:url(#Degradado_sin_nombre_20-4);}.cls-9{letter-spacing:-0.01em;}.cls-10{letter-spacing:0em;}.cls-11{stroke:url(#Degradado_sin_nombre_20-5);}.cls-12{letter-spacing:0em;}.cls-13{letter-spacing:0em;}.cls-14{stroke:url(#Degradado_sin_nombre_20-6);}.cls-15{stroke:url(#Degradado_sin_nombre_20-7);}.cls-16{fill:url(#Degradado_sin_nombre_20-8);}.cls-17{font-size:24px;font-family:Seravek;}</style><linearGradient id="Degradado_sin_nombre_20" x1="374.91" y1="201.1" x2="374.91" y2="-1.09" gradientUnits="userSpaceOnUse"><stop offset="0" stop-color="#662d91"/><stop offset="0.98" stop-color="aqua"/></linearGradient><linearGradient id="Degradado_sin_nombre_20-2" x1="98.95" y1="394.33" x2="648.95" y2="394.33" xlink:href="#Degradado_sin_nombre_20"/><linearGradient id="Degradado_sin_nombre_20-3" x1="98.95" y1="488.33" x2="648.95" y2="488.33" xlink:href="#Degradado_sin_nombre_20"/><linearGradient id="Degradado_sin_nombre_20-4" x1="98.95" y1="300.33" x2="648.95" y2="300.33" xlink:href="#Degradado_sin_nombre_20"/><linearGradient id="Degradado_sin_nombre_20-5" x1="98.95" y1="582.33" x2="648.95" y2="582.33" xlink:href="#Degradado_sin_nombre_20"/><linearGradient id="Degradado_sin_nombre_20-6" x1="98.95" y1="680.33" x2="648.95" y2="680.33" xlink:href="#Degradado_sin_nombre_20"/><linearGradient id="Degradado_sin_nombre_20-7" x1="98.95" y1="1028.33" x2="648.95" y2="1028.33" xlink:href="#Degradado_sin_nombre_20"/><linearGradient id="Degradado_sin_nombre_20-8" x1="98.91" y1="1199.9" x2="647.91" y2="1199.9" xlink:href="#Degradado_sin_nombre_20"/></defs><path class="cls-1" d="M759.91-4.1h-770v204h3.87A74.7,74.7,0,0,1,64.58,149H685.24A74.68,74.68,0,0,1,756,199.9h3.88Z"/><text class="cls-2" transform="translate(98.81 83.99)">Contacto</text><path class="cls-3" d="M82.43,72.93H58L68.71,62.16a1.47,1.47,0,0,0,0-2.09,1.49,1.49,0,0,0-2.09,0L53.34,73.36a1.39,1.39,0,0,0-.32.48A1.48,1.48,0,0,0,53,75a1.39,1.39,0,0,0,.32.48L66.62,88.73a1.49,1.49,0,0,0,1,.44,1.48,1.48,0,0,0,1-2.52L58,75.88H82.43a1.48,1.48,0,1,0,0-2.95Z"/><path class="cls-3" d="M634.33,137.87a14.15,14.15,0,0,1-6.73-1.72l-15.12-8.25a14,14,0,0,1-1.93-1.27,32.92,32.92,0,0,1-8.67,2.72,39.05,39.05,0,0,1-6.5.54,47.48,47.48,0,0,1-22.81-6.29c-10.77-5.87-18-13.71-21.41-23.31-3.6-10.05-2.57-20.75,3-30.94a37.69,37.69,0,0,1,16.44-15.82,53.21,53.21,0,0,1,19.12-5.48c.23-.34.55-.85.94-1.56a14.09,14.09,0,0,1,2.91-3.7A14,14,0,0,1,595.15,38l7-12.86a14.08,14.08,0,0,1,19.11-5.62l15.12,8.25A13.77,13.77,0,0,1,638.33,29,32.6,32.6,0,0,1,647,26.32c9.51-1.62,19.37.32,29.31,5.74,10.76,5.87,18,13.71,21.41,23.3v0c3.59,10.05,2.56,20.75-3,30.93a37.77,37.77,0,0,1-16.44,15.83,53.2,53.2,0,0,1-19.12,5.47c-.23.35-.55.86-.94,1.57a14,14,0,0,1-2.91,3.69,14.28,14.28,0,0,1-1.58,4.8l-7,12.86A14.1,14.1,0,0,1,634.33,137.87ZM610.73,125l.34.28a13.11,13.11,0,0,0,2.06,1.4L628.25,135a12.74,12.74,0,0,0,17.27-5.08l7-12.86a12.88,12.88,0,0,0,1.46-4.57l0-.26.19-.17a12.56,12.56,0,0,0,2.8-3.49,19.23,19.23,0,0,1,1.19-1.93l.15-.21.26-.06.21,0h.07a51.85,51.85,0,0,0,18.76-5.35,36.35,36.35,0,0,0,15.86-15.27c5.37-9.84,6.37-20.15,2.91-29.82v0c-3.32-9.26-10.31-16.86-20.77-22.56-9.67-5.27-19.24-7.16-28.45-5.6a32,32,0,0,0-8.68,2.79l-.39.19-.34-.28a12.24,12.24,0,0,0-2.06-1.4l-15.12-8.24a12.72,12.72,0,0,0-17.27,5.08l-7,12.85a12.83,12.83,0,0,0-1.47,4.57l0,.26-.2.17a13.08,13.08,0,0,0-2.8,3.49,21.72,21.72,0,0,1-1.18,1.94l-.16.21-.25,0-.22.05H590a51.91,51.91,0,0,0-18.77,5.35A36.33,36.33,0,0,0,555.34,70c-5.37,9.84-6.37,20.16-2.9,29.84,3.32,9.27,10.31,16.87,20.78,22.58,7.45,4.06,14.9,6.12,22.16,6.12a37.58,37.58,0,0,0,6.28-.53,31.47,31.47,0,0,0,8.68-2.78Z"/><path class="cls-3" d="M634.33,134.62a10.75,10.75,0,0,1-5.17-1.33L614,125.05a11.16,11.16,0,0,1-3-2.36,29.64,29.64,0,0,1-9.74,3.45,34.83,34.83,0,0,1-6,.5,44.32,44.32,0,0,1-21.25-5.89c-10-5.48-16.75-12.73-19.91-21.55C550.94,90,551.9,80.26,557,70.91a34.48,34.48,0,0,1,15-14.48,49.85,49.85,0,0,1,18.2-5.16,7.83,7.83,0,0,0,1.35-.35A15.8,15.8,0,0,0,593.5,48a10.76,10.76,0,0,1,3.18-3.59,10.72,10.72,0,0,1,1.32-4.9l7-12.86a10.85,10.85,0,0,1,14.7-4.32l15.12,8.25a10.63,10.63,0,0,1,3,2.36,29.43,29.43,0,0,1,9.74-3.46c8.78-1.49,17.93.33,27.22,5.39,10,5.48,16.73,12.73,19.9,21.54h0v0h0c3.28,9.15,2.32,18.93-2.78,28.29a34.51,34.51,0,0,1-15,14.47,49.87,49.87,0,0,1-18.2,5.17,7.31,7.31,0,0,0-1.35.35,15,15,0,0,0-1.9,2.87,10.86,10.86,0,0,1-3.17,3.6,10.85,10.85,0,0,1-1.33,4.89l-7,12.86A10.85,10.85,0,0,1,634.33,134.62Zm-22-17.54,1.09,1.87a6.66,6.66,0,0,0,2.6,2.53l15.13,8.25a6.7,6.7,0,0,0,3.22.82,6.79,6.79,0,0,0,6-3.52l7-12.86a6.83,6.83,0,0,0,.8-3.86L648,109l1.17-.64a6.8,6.8,0,0,0,2.65-2.67,15.07,15.07,0,0,1,3-4.16l.12-.11.14-.08a8.66,8.66,0,0,1,3-1l.17,0A45.83,45.83,0,0,0,675,95.61a30.47,30.47,0,0,0,13.32-12.8c4.53-8.3,5.4-16.93,2.53-25h0C688,50,682,43.47,672.8,38.48c-8.46-4.62-16.74-6.28-24.59-4.95a25.13,25.13,0,0,0-9.83,3.86l-1.8,1.19-1.08-1.86a6.75,6.75,0,0,0-2.61-2.53l-15.12-8.25a6.78,6.78,0,0,0-9.19,2.7l-7,12.86a6.65,6.65,0,0,0-.8,3.85l.12,1.32-1.16.65A6.64,6.64,0,0,0,597.07,50a15,15,0,0,1-3,4.16l-.12.1-.13.08a8.52,8.52,0,0,1-3,1l-.18,0a45.88,45.88,0,0,0-16.81,4.75,30.52,30.52,0,0,0-13.32,12.8c-4.53,8.3-5.4,16.93-2.52,25,2.81,7.85,8.88,14.37,18,19.35a40.38,40.38,0,0,0,19.31,5.4,32,32,0,0,0,5.28-.44,25.48,25.48,0,0,0,9.84-3.86ZM591.76,50.85Z"/><rect class="cls-3" x="609.09" y="31.66" width="18.98" height="21.56" rx="2.17" transform="translate(285.11 565.16) rotate(-61.39)"/><path class="cls-3" d="M615.39,101.62l-14.61-8a2.15,2.15,0,0,0-2.92.84h0c-1.32,2.34-2.91,3.68-4.88,4.1a8.73,8.73,0,0,1-6.2-1c-2.56-1.4-4.07-3.1-4.61-5.2s-.11-4.51,1.35-7.19a13.86,13.86,0,0,1,5.54-5.66,29.07,29.07,0,0,1,8.67-3c6.18-1,10.58-2.23,13.43-3.84s5.84-5,8.72-10.21h0a2.17,2.17,0,0,0-.86-2.95l-15-8.16a2.17,2.17,0,0,0-2.94.86h0A19.18,19.18,0,0,1,597,57.74a11.75,11.75,0,0,1-5.55,2.12l-.17,0A41.29,41.29,0,0,0,576,64.17a26,26,0,0,0-11.35,10.89c-3.93,7.22-4.69,14.36-2.23,21.21s7.77,12.44,15.9,16.87a35.69,35.69,0,0,0,17.1,4.83,27,27,0,0,0,4.51-.37c7-1.19,12.51-5.46,16.31-12.7h0a2.34,2.34,0,0,0,.21-.63l.06-.36A2.16,2.16,0,0,0,615.39,101.62Z"/><path class="cls-3" d="M686.49,59.39c-2.42-6.76-7.77-12.44-15.89-16.87-7.54-4.11-14.81-5.61-21.62-4.45-7,1.19-12.51,5.46-16.31,12.7h0a2.18,2.18,0,0,0-.22.62l-.06.37A2.14,2.14,0,0,0,633.48,54l14.61,8a2.17,2.17,0,0,0,2.93-.84h0c1.31-2.35,2.91-3.69,4.87-4.1a8.77,8.77,0,0,1,6.21,1c2.55,1.39,4.06,3.09,4.6,5.19s.11,4.51-1.35,7.19a13.83,13.83,0,0,1-5.54,5.67,28.72,28.72,0,0,1-8.66,3c-6.19,1-10.58,2.23-13.44,3.85s-5.84,5-8.71,10.21h0a2.16,2.16,0,0,0,.85,3l15,8.17a2.17,2.17,0,0,0,2.94-.87h0a19.11,19.11,0,0,1,4.12-5.54,11.69,11.69,0,0,1,5.55-2.12l.18,0a41.43,41.43,0,0,0,15.3-4.29,26,26,0,0,0,11.35-10.9C688.2,73.38,689,66.25,686.49,59.39Z"/><rect class="cls-3" x="620.8" y="102.45" width="18.98" height="21.56" rx="2.17" transform="translate(229.07 612.34) rotate(-61.39)"/><path class="cls-3" d="M662.76-10.55,641.7,27.54a.54.54,0,0,0,.21.74.58.58,0,0,0,.26.06.55.55,0,0,0,.48-.28L664-10.55Z"/><path class="cls-3" d="M659.2-10.55l-22.11,40a.54.54,0,0,0,.22.73.48.48,0,0,0,.26.07A.53.53,0,0,0,638,30l22.4-40.51Z"/><path class="cls-3" d="M638.79-10.55,622,19.86a.53.53,0,0,0,.21.73.48.48,0,0,0,.26.07.55.55,0,0,0,.48-.28L640-10.55Z"/><path class="cls-3" d="M693.35-10.55l-17,30.9a.54.54,0,0,0,.21.74.59.59,0,0,0,.26.07.57.57,0,0,0,.48-.28l17.3-31.43Z"/><path class="cls-3" d="M594,149.55,605.81,128a.54.54,0,0,0-.95-.52l-12.14,22.06Z"/><path class="cls-3" d="M599.91,149.55,611.77,128a.54.54,0,0,0-.95-.52l-12.14,22.06Z"/><path class="cls-3" d="M627.22,149.55l6.49-11.78a.54.54,0,0,0-1-.53L626,149.55Z"/><path class="cls-3" d="M649.57,146.13a.58.58,0,0,0,.26.06.52.52,0,0,0,.47-.28l17.37-31.54a.54.54,0,0,0-.21-.74.55.55,0,0,0-.74.21l-17.36,31.55A.54.54,0,0,0,649.57,146.13Z"/><path class="cls-3" d="M701.56-10.55l-23.9,43.16a1.63,1.63,0,0,0,2.85,1.57l24.76-44.73Z"/><path class="cls-3" d="M698.55-10.55l-23.4,42.18a.55.55,0,0,0,.21.74.68.68,0,0,0,.27.07.53.53,0,0,0,.47-.28l23.69-42.71Z"/><path class="cls-3" d="M707.06-10.55l-25.3,45.62a.54.54,0,0,0,.21.73.54.54,0,0,0,.27.07.53.53,0,0,0,.47-.28L708.3-10.55Z"/><path class="cls-3" d="M549.28,149.55l16.58-30A1.63,1.63,0,1,0,563,118l-17.45,31.52Z"/><path class="cls-3" d="M543.89,149.55l18.85-34a.54.54,0,0,0-1-.53l-19.14,34.52Z"/><path class="cls-3" d="M552.34,149.55l16.2-29.21a.54.54,0,0,0-.95-.52L551.1,149.55Z"/><path class="cls-3" d="M709.91-3.79,698.53,16.89a.53.53,0,0,0,.21.73.48.48,0,0,0,.26.07.55.55,0,0,0,.48-.28L709.91-1.54Z"/><path class="cls-3" d="M577.15,52.05a.48.48,0,0,1-.26-.07.54.54,0,0,1-.22-.73L594,19.7a.54.54,0,0,1,.74-.21.53.53,0,0,1,.21.73L577.62,51.77A.53.53,0,0,1,577.15,52.05Z"/><path class="cls-3" d="M586.36,49.34a.48.48,0,0,1-.26-.07.54.54,0,0,1-.22-.73L603.25,17a.54.54,0,0,1,.74-.21.53.53,0,0,1,.21.73L586.83,49.06A.53.53,0,0,1,586.36,49.34Z"/><path class="cls-3" d="M539.33,149.55l9.61-17.46a.53.53,0,0,0-.21-.73.54.54,0,0,0-.74.21l-9.89,18Z"/><path class="cls-3" d="M596.65,16.3a.48.48,0,0,1-.26-.07.54.54,0,0,1-.22-.74l6.25-11.25a.55.55,0,0,1,.74-.21.54.54,0,0,1,.21.74L597.12,16A.53.53,0,0,1,596.65,16.3Z"/><path class="cls-3" d="M618.49-10.55,608.71,7.26a.55.55,0,0,0,.22.74.58.58,0,0,0,.26.06.53.53,0,0,0,.47-.28l10.07-18.33Z"/><path class="cls-3" d="M558.72,149.55l12.42-22.62a.54.54,0,1,0-.95-.52l-12.7,23.14Z"/><rect class="cls-4" x="98.95" y="324.33" width="550" height="70"/><line class="cls-5" x1="98.95" y1="394.33" x2="648.95" y2="394.33"/><rect class="cls-4" x="98.95" y="418.33" width="550" height="70"/><line class="cls-6" x1="98.95" y1="488.33" x2="648.95" y2="488.33"/><text class="cls-7" transform="translate(130.16 365.74)">Edad</text><rect class="cls-4" x="98.95" y="230.33" width="550" height="70"/><line class="cls-8" x1="98.95" y1="300.33" x2="648.95" y2="300.33"/><text class="cls-7" transform="translate(134.14 271.74)">Nomb<tspan class="cls-9" x="72.07" y="0">r</tspan><tspan x="81.42" y="0">e de Usuario</tspan></text><text class="cls-7" transform="translate(134.14 460.25)"><tspan class="cls-10">E</tspan><tspan x="14.13" y="0">-mail</tspan></text><rect class="cls-4" x="98.95" y="512.33" width="550" height="70"/><line class="cls-11" x1="98.95" y1="582.33" x2="648.95" y2="582.33"/><text class="cls-7" transform="translate(134.14 554.25)">Núme<tspan class="cls-12" x="70.8" y="0">r</tspan><tspan class="cls-13" x="80.15" y="0">o</tspan></text><rect class="cls-4" x="98.95" y="610.33" width="550" height="70"/><line class="cls-14" x1="98.95" y1="680.33" x2="648.95" y2="680.33"/><text class="cls-7" transform="translate(134.14 652.25)">Ciudad</text><rect class="cls-4" x="98.95" y="708.4" width="550" height="319.93"/><line class="cls-15" x1="98.95" y1="1028.33" x2="648.95" y2="1028.33"/><text class="cls-7" transform="translate(134.14 752.25)">Mensaje</text><rect class="cls-16" x="98.91" y="1164.4" width="549" height="71" rx="12"/><text class="cls-17" transform="translate(336.98 1205.5)">Submit</text></svg>