<svg id="Capa_1" data-name="Capa 1" xmlns="http://www.w3.org/2000/svg" xmlns:xlink="http://www.w3.org/1999/xlink" viewBox="0 0 750 1334"><defs><style>.cls-1{fill:#f2f2f2;}.cls-2{fill:url(#Degradado_sin_nombre_20);}.cls-3{font-size:30px;font-family:Poppins-SemiBold, Poppins;font-weight:600;}.cls-3,.cls-4{fill:#fff;}.cls-38,.cls-39,.cls-40,.cls-41,.cls-5,.cls-6{fill:none;stroke-miterlimit:10;stroke-width:2px;}.cls-5{stroke:url(#Degradado_sin_nombre_20-2);}.cls-6{stroke:url(#Degradado_sin_nombre_20-3);}.cls-7{font-size:40px;fill:#333;font-family:Poppins-ExtraBold, Poppins;font-weight:800;}.cls-8{opacity:0.15;}.cls-9{fill:url(#Degradado_sin_nombre_20-4);}.cls-10{fill:url(#Degradado_sin_nombre_20-5);}.cls-11{fill:url(#Degradado_sin_nombre_20-6);}.cls-12{fill:url(#Degradado_sin_nombre_20-7);}.cls-13{fill:url(#Degradado_sin_nombre_20-8);}.cls-14{fill:url(#Degradado_sin_nombre_20-9);}.cls-15{fill:url(#Degradado_sin_nombre_20-10);}.cls-16{fill:url(#Degradado_sin_nombre_20-11);}.cls-17{fill:url(#Degradado_sin_nombre_20-12);}.cls-18{fill:url(#Degradado_sin_nombre_20-13);}.cls-19{fill:url(#Degradado_sin_nombre_20-14);}.cls-20{fill:url(#Degradado_sin_nombre_20-15);}.cls-21{fill:url(#Degradado_sin_nombre_20-16);}.cls-22{fill:url(#Degradado_sin_nombre_20-17);}.cls-23{fill:url(#Degradado_sin_nombre_20-18);}.cls-24{fill:url(#Degradado_sin_nombre_20-19);}.cls-25{fill:url(#Degradado_sin_nombre_20-20);}.cls-26{fill:url(#Degradado_sin_nombre_20-21);}.cls-27{fill:url(#Degradado_sin_nombre_20-22);}.cls-28{fill:url(#Degradado_sin_nombre_20-23);}.cls-29{fill:url(#Degradado_sin_nombre_20-24);}.cls-30{fill:url(#Degradado_sin_nombre_20-25);}.cls-31{fill:url(#Degradado_sin_nombre_20-26);}.cls-32{fill:url(#Degradado_sin_nombre_20-27);}.cls-33{fill:url(#Degradado_sin_nombre_20-28);}.cls-34{fill:url(#Degradado_sin_nombre_20-29);}.cls-35{fill:url(#Degradado_sin_nombre_20-30);}.cls-36{fill:url(#Degradado_sin_nombre_20-31);}.cls-37{fill:url(#Degradado_sin_nombre_20-32);}.cls-38{stroke:url(#Degradado_sin_nombre_20-33);}.cls-39{stroke:url(#Degradado_sin_nombre_20-34);}.cls-40{stroke:url(#Degradado_sin_nombre_20-35);}.cls-41{stroke:url(#Degradado_sin_nombre_20-36);}.cls-42{fill:url(#Degradado_sin_nombre_20-37);}.cls-43{fill:url(#Degradado_sin_nombre_20-38);}.cls-44{fill:url(#Degradado_sin_nombre_20-39);}.cls-45{fill:url(#Degradado_sin_nombre_20-40);}.cls-46{fill:url(#Degradado_sin_nombre_20-41);}.cls-47{fill:url(#Degradado_sin_nombre_20-42);}.cls-48{fill:url(#Degradado_sin_nombre_20-43);}.cls-49{fill:url(#Degradado_sin_nombre_20-44);}.cls-50{fill:url(#Degradado_sin_nombre_20-45);}.cls-51{fill:url(#Degradado_sin_nombre_20-46);}.cls-52{fill:url(#Degradado_sin_nombre_20-47);}.cls-53{fill:url(#Degradado_sin_nombre_20-48);}.cls-54{fill:url(#Degradado_sin_nombre_20-49);}.cls-55{fill:url(#Degradado_sin_nombre_20-50);}.cls-56{fill:url(#Degradado_sin_nombre_20-51);}.cls-57{fill:url(#Degradado_sin_nombre_20-52);}.cls-58{fill:url(#Degradado_sin_nombre_20-53);}.cls-59{fill:url(#Degradado_sin_nombre_20-54);}.cls-60{fill:url(#Degradado_sin_nombre_20-55);}.cls-61{fill:url(#Degradado_sin_nombre_20-56);}.cls-62{fill:url(#Degradado_sin_nombre_20-57);}</style><linearGradient id="Degradado_sin_nombre_20" x1="376" y1="201.69" x2="376" y2="-0.5" gradientUnits="userSpaceOnUse"><stop offset="0" stop-color="#662d91"/><stop offset="0.98" stop-color="aqua"/></linearGradient><linearGradient id="Degradado_sin_nombre_20-2" x1="27.92" y1="476.13" x2="722.08" y2="476.13" xlink:href="#Degradado_sin_nombre_20"/><linearGradient id="Degradado_sin_nombre_20-3" x1="27.92" y1="1217.12" x2="722.08" y2="1217.12" xlink:href="#Degradado_sin_nombre_20"/><linearGradient id="Degradado_sin_nombre_20-4" x1="28.56" y1="475.93" x2="246.61" y2="475.93" xlink:href="#Degradado_sin_nombre_20"/><linearGradient id="Degradado_sin_nombre_20-5" x1="35.94" y1="469.8" x2="82.42" y2="469.8" xlink:href="#Degradado_sin_nombre_20"/><linearGradient id="Degradado_sin_nombre_20-6" x1="86.75" y1="547.17" x2="132.74" y2="547.17" xlink:href="#Degradado_sin_nombre_20"/><linearGradient id="Degradado_sin_nombre_20-7" x1="169.04" y1="503.86" x2="218.73" y2="503.86" xlink:href="#Degradado_sin_nombre_20"/><linearGradient id="Degradado_sin_nombre_20-8" x1="129.19" y1="419.48" x2="157.94" y2="419.48" xlink:href="#Degradado_sin_nombre_20"/><linearGradient id="Degradado_sin_nombre_20-9" x1="85.54" y1="520.06" x2="92.76" y2="520.06" xlink:href="#Degradado_sin_nombre_20"/><linearGradient id="Degradado_sin_nombre_20-10" x1="656.79" y1="324.08" x2="721.48" y2="324.08" xlink:href="#Degradado_sin_nombre_20"/><linearGradient id="Degradado_sin_nombre_20-11" x1="516.21" y1="290.98" x2="609.36" y2="290.98" xlink:href="#Degradado_sin_nombre_20"/><linearGradient id="Degradado_sin_nombre_20-12" x1="614.6" y1="213.55" x2="623.82" y2="213.55" xlink:href="#Degradado_sin_nombre_20"/><linearGradient id="Degradado_sin_nombre_20-13" x1="568.16" y1="291.47" x2="707.08" y2="291.47" xlink:href="#Degradado_sin_nombre_20"/><linearGradient id="Degradado_sin_nombre_20-14" x1="648.31" y1="216.53" x2="664.3" y2="216.53" xlink:href="#Degradado_sin_nombre_20"/><linearGradient id="Degradado_sin_nombre_20-15" x1="619.13" y1="264.72" x2="666.01" y2="264.72" xlink:href="#Degradado_sin_nombre_20"/><linearGradient id="Degradado_sin_nombre_20-16" x1="613.77" y1="237.78" x2="638.42" y2="237.78" xlink:href="#Degradado_sin_nombre_20"/><linearGradient id="Degradado_sin_nombre_20-17" x1="598.45" y1="661.75" x2="634.99" y2="661.75" xlink:href="#Degradado_sin_nombre_20"/><linearGradient id="Degradado_sin_nombre_20-18" x1="704.93" y1="685.31" x2="714.07" y2="685.31" xlink:href="#Degradado_sin_nombre_20"/><linearGradient id="Degradado_sin_nombre_20-19" x1="499.72" y1="661.49" x2="721.9" y2="661.49" xlink:href="#Degradado_sin_nombre_20"/><linearGradient id="Degradado_sin_nombre_20-20" x1="47.44" y1="847.02" x2="247.37" y2="847.02" xlink:href="#Degradado_sin_nombre_20"/><linearGradient id="Degradado_sin_nombre_20-21" x1="522.31" y1="990.09" x2="542.94" y2="990.09" xlink:href="#Degradado_sin_nombre_20"/><linearGradient id="Degradado_sin_nombre_20-22" x1="522.31" y1="1000.39" x2="563.54" y2="1000.39" xlink:href="#Degradado_sin_nombre_20"/><linearGradient id="Degradado_sin_nombre_20-23" x1="707.73" y1="1032.52" x2="714.6" y2="1032.52" xlink:href="#Degradado_sin_nombre_20"/><linearGradient id="Degradado_sin_nombre_20-24" x1="508.6" y1="1031.5" x2="666.53" y2="1031.5" xlink:href="#Degradado_sin_nombre_20"/><linearGradient id="Degradado_sin_nombre_20-25" x1="618.48" y1="952.33" x2="683.8" y2="952.33" xlink:href="#Degradado_sin_nombre_20"/><linearGradient id="Degradado_sin_nombre_20-26" x1="676.83" y1="976.37" x2="697.43" y2="976.37" xlink:href="#Degradado_sin_nombre_20"/><linearGradient id="Degradado_sin_nombre_20-27" x1="676.83" y1="1003.83" x2="697.43" y2="1003.83" xlink:href="#Degradado_sin_nombre_20"/><linearGradient id="Degradado_sin_nombre_20-28" x1="639.06" y1="1103.4" x2="645.93" y2="1103.4" xlink:href="#Degradado_sin_nombre_20"/><linearGradient id="Degradado_sin_nombre_20-29" x1="652.8" y1="1103.4" x2="659.66" y2="1103.4" xlink:href="#Degradado_sin_nombre_20"/><linearGradient id="Degradado_sin_nombre_20-30" x1="666.53" y1="1103.4" x2="673.4" y2="1103.4" xlink:href="#Degradado_sin_nombre_20"/><linearGradient id="Degradado_sin_nombre_20-31" x1="680.26" y1="1103.29" x2="687.13" y2="1103.29" xlink:href="#Degradado_sin_nombre_20"/><linearGradient id="Degradado_sin_nombre_20-32" x1="694" y1="1100.53" x2="700.8" y2="1100.53" xlink:href="#Degradado_sin_nombre_20"/><linearGradient id="Degradado_sin_nombre_20-33" x1="27.92" y1="290.88" x2="722.08" y2="290.88" xlink:href="#Degradado_sin_nombre_20"/><linearGradient id="Degradado_sin_nombre_20-34" x1="27.92" y1="661.38" x2="722.08" y2="661.38" xlink:href="#Degradado_sin_nombre_20"/><linearGradient id="Degradado_sin_nombre_20-35" x1="27.92" y1="846.62" x2="722.08" y2="846.62" xlink:href="#Degradado_sin_nombre_20"/><linearGradient id="Degradado_sin_nombre_20-36" x1="27.92" y1="1031.87" x2="722.08" y2="1031.87" xlink:href="#Degradado_sin_nombre_20"/><linearGradient id="Degradado_sin_nombre_20-37" x1="217.31" y1="1167.87" x2="232.59" y2="1167.87" xlink:href="#Degradado_sin_nombre_20"/><linearGradient id="Degradado_sin_nombre_20-38" x1="217.31" y1="1186.98" x2="232.59" y2="1186.98" xlink:href="#Degradado_sin_nombre_20"/><linearGradient id="Degradado_sin_nombre_20-39" x1="217.31" y1="1206.08" x2="232.59" y2="1206.08" xlink:href="#Degradado_sin_nombre_20"/><linearGradient id="Degradado_sin_nombre_20-40" x1="202.03" y1="1148.77" x2="232.59" y2="1148.77" xlink:href="#Degradado_sin_nombre_20"/><linearGradient id="Degradado_sin_nombre_20-41" x1="152.36" y1="1144.95" x2="160" y2="1144.95" xlink:href="#Degradado_sin_nombre_20"/><linearGradient id="Degradado_sin_nombre_20-42" x1="32.47" y1="1221.97" x2="209.67" y2="1221.97" xlink:href="#Degradado_sin_nombre_20"/><linearGradient id="Degradado_sin_nombre_20-43" x1="128.24" y1="1175.58" x2="176.52" y2="1175.58" xlink:href="#Degradado_sin_nombre_20"/><linearGradient id="Degradado_sin_nombre_20-44" x1="128.24" y1="1194.69" x2="176.51" y2="1194.69" xlink:href="#Degradado_sin_nombre_20"/><linearGradient id="Degradado_sin_nombre_20-45" x1="128.23" y1="1213.8" x2="176.51" y2="1213.8" xlink:href="#Degradado_sin_nombre_20"/><linearGradient id="Degradado_sin_nombre_20-46" x1="128.23" y1="1232.91" x2="176.5" y2="1232.91" xlink:href="#Degradado_sin_nombre_20"/><linearGradient id="Degradado_sin_nombre_20-47" x1="128.22" y1="1252.01" x2="176.5" y2="1252.01" xlink:href="#Degradado_sin_nombre_20"/><linearGradient id="Degradado_sin_nombre_20-48" x1="37.74" y1="1190.8" x2="95.05" y2="1190.8" xlink:href="#Degradado_sin_nombre_20"/><linearGradient id="Degradado_sin_nombre_20-49" x1="37.74" y1="1209.9" x2="95.05" y2="1209.9" xlink:href="#Degradado_sin_nombre_20"/><linearGradient id="Degradado_sin_nombre_20-50" x1="37.74" y1="1229" x2="95.05" y2="1229" xlink:href="#Degradado_sin_nombre_20"/><linearGradient id="Degradado_sin_nombre_20-51" x1="37.74" y1="1248.11" x2="95.05" y2="1248.11" xlink:href="#Degradado_sin_nombre_20"/><linearGradient id="Degradado_sin_nombre_20-52" x1="37.74" y1="1267.21" x2="95.05" y2="1267.21" xlink:href="#Degradado_sin_nombre_20"/><linearGradient id="Degradado_sin_nombre_20-53" x1="39.94" y1="1149.33" x2="68.11" y2="1149.33" xlink:href="#Degradado_sin_nombre_20"/><linearGradient id="Degradado_sin_nombre_20-54" x1="79.77" y1="1147.49" x2="129.4" y2="1147.49" xlink:href="#Degradado_sin_nombre_20"/><linearGradient id="Degradado_sin_nombre_20-55" x1="92.46" y1="1137.37" x2="102.63" y2="1137.37" xlink:href="#Degradado_sin_nombre_20"/><linearGradient id="Degradado_sin_nombre_20-56" x1="137.08" y1="1142.44" x2="144.72" y2="1142.44" xlink:href="#Degradado_sin_nombre_20"/><linearGradient id="Degradado_sin_nombre_20-57" x1="217.31" y1="1182.22" x2="247.87" y2="1182.22" xlink:href="#Degradado_sin_nombre_20"/></defs><rect class="cls-1" x="-9" y="-10" width="770" height="1354"/><path class="cls-2" d="M761-3.5H-9v204h3.88a74.68,74.68,0,0,1,70.79-50.93H686.33a74.68,74.68,0,0,1,70.79,50.93H761Z"/><text class="cls-3" transform="translate(99.9 84.59)">Categoría</text><path class="cls-4" d="M83.52,73.52H59L69.81,62.76a1.49,1.49,0,0,0,0-2.09,1.47,1.47,0,0,0-2.09,0L54.43,74a1.61,1.61,0,0,0-.32.48,1.45,1.45,0,0,0,0,1.12,1.61,1.61,0,0,0,.32.48L67.72,89.33a1.45,1.45,0,0,0,1,.43,1.48,1.48,0,0,0,1-.43,1.49,1.49,0,0,0,0-2.09L59,76.48H83.52a1.48,1.48,0,0,0,0-3Z"/><path class="cls-4" d="M635.43,138.46a14,14,0,0,1-6.73-1.72l-15.12-8.24a14.71,14.71,0,0,1-1.94-1.27,33,33,0,0,1-8.66,2.71,38.11,38.11,0,0,1-6.5.55,47.63,47.63,0,0,1-22.82-6.29c-10.76-5.87-18-13.71-21.41-23.31-3.6-10-2.56-20.75,3-30.94a37.66,37.66,0,0,1,16.44-15.83,53,53,0,0,1,19.11-5.47c.23-.35.55-.86.94-1.57a14.25,14.25,0,0,1,2.91-3.69,14.3,14.3,0,0,1,1.59-4.8l7-12.86a14.08,14.08,0,0,1,19.11-5.62l15.13,8.25a15.29,15.29,0,0,1,1.93,1.27,33,33,0,0,1,8.66-2.72c9.51-1.61,19.37.32,29.32,5.75,10.76,5.86,18,13.7,21.4,23.29v0c3.6,10.05,2.56,20.74-3,30.93a37.59,37.59,0,0,1-16.44,15.82,53.16,53.16,0,0,1-19.11,5.48c-.23.34-.55.85-.94,1.57a14.2,14.2,0,0,1-2.91,3.68,14.35,14.35,0,0,1-1.59,4.81l-7,12.85A14.09,14.09,0,0,1,635.43,138.46Zm-23.6-12.83.33.28a13.11,13.11,0,0,0,2.06,1.4l15.13,8.25a12.74,12.74,0,0,0,17.27-5.08l7-12.86A13,13,0,0,0,655.1,113l0-.25.19-.17a12.93,12.93,0,0,0,2.81-3.49,18.24,18.24,0,0,1,1.18-1.93l.15-.22.26,0,.21-.05H660a51.8,51.8,0,0,0,18.76-5.35,36.35,36.35,0,0,0,15.87-15.26c5.36-9.84,6.37-20.15,2.9-29.83v0c-3.32-9.26-10.31-16.85-20.77-22.56-9.67-5.27-19.24-7.15-28.44-5.59A31.47,31.47,0,0,0,639.63,31l-.4.2L638.9,31a13.11,13.11,0,0,0-2.06-1.4L621.71,21.3a12.73,12.73,0,0,0-17.27,5.08l-7,12.86A12.9,12.9,0,0,0,596,43.81l0,.26-.19.17a12.78,12.78,0,0,0-2.81,3.49,18.24,18.24,0,0,1-1.18,1.93l-.15.21-.26.06-.21,0h-.07a51.85,51.85,0,0,0-18.76,5.35A36.38,36.38,0,0,0,556.43,70.6c-5.36,9.84-6.37,20.15-2.9,29.83,3.32,9.28,10.32,16.87,20.78,22.58a46.29,46.29,0,0,0,22.17,6.12,37.45,37.45,0,0,0,6.27-.52,31.48,31.48,0,0,0,8.68-2.79Z"/><path class="cls-4" d="M635.43,135.21a10.93,10.93,0,0,1-5.18-1.32l-15.12-8.25a10.73,10.73,0,0,1-3-2.36,29.43,29.43,0,0,1-9.74,3.46,36,36,0,0,1-6,.5,44.38,44.38,0,0,1-21.26-5.89c-10.05-5.48-16.74-12.73-19.91-21.56C552,90.64,553,80.86,558.1,71.51a34.43,34.43,0,0,1,15-14.48,49.87,49.87,0,0,1,18.2-5.17,7.56,7.56,0,0,0,1.35-.35,15,15,0,0,0,1.9-2.87,10.76,10.76,0,0,1,3.17-3.6,10.84,10.84,0,0,1,1.32-4.89l7-12.86A10.82,10.82,0,0,1,620.81,23l15.12,8.24a11,11,0,0,1,3,2.37,29.43,29.43,0,0,1,9.74-3.46c8.78-1.49,17.94.33,27.22,5.39,10,5.48,16.74,12.72,19.9,21.54h0C699,66.22,698.06,76,693,85.35a34.48,34.48,0,0,1-15.05,14.48,50.06,50.06,0,0,1-18.2,5.17,7.88,7.88,0,0,0-1.35.34,15.59,15.59,0,0,0-1.9,2.88,10.62,10.62,0,0,1-3.17,3.59,10.85,10.85,0,0,1-1.32,4.9l-7,12.86A10.84,10.84,0,0,1,635.43,135.21Zm-22-17.53,1.08,1.87a6.75,6.75,0,0,0,2.61,2.53l15.12,8.24a6.77,6.77,0,0,0,9.19-2.7l7-12.86a6.73,6.73,0,0,0,.8-3.85l-.12-1.32,1.16-.65a6.76,6.76,0,0,0,2.66-2.67,15,15,0,0,1,3-4.15L656,102l.14-.08a8.43,8.43,0,0,1,3-1l.18,0a46.09,46.09,0,0,0,16.81-4.76,30.48,30.48,0,0,0,13.31-12.79c4.53-8.31,5.41-16.94,2.54-25v0c-2.81-7.85-8.88-14.37-18-19.35-8.47-4.62-16.74-6.29-24.6-5A25.5,25.5,0,0,0,639.47,38l-1.8,1.2-1.08-1.87A6.75,6.75,0,0,0,634,34.78l-15.12-8.25a6.78,6.78,0,0,0-9.19,2.7l-7,12.86a6.75,6.75,0,0,0-.8,3.86l.12,1.32-1.16.64a6.83,6.83,0,0,0-2.66,2.67,15.14,15.14,0,0,1-2.95,4.16l-.12.11-.14.08a8.66,8.66,0,0,1-3,1l-.18,0A45.88,45.88,0,0,0,575,60.65a30.5,30.5,0,0,0-13.31,12.8c-4.53,8.31-5.41,16.94-2.53,25,2.81,7.86,8.88,14.37,18,19.36,6.57,3.58,13.06,5.4,19.32,5.4a31,31,0,0,0,5.28-.45,25.19,25.19,0,0,0,9.83-3.86ZM592.86,51.45Z"/><rect class="cls-4" x="610.18" y="32.25" width="18.98" height="21.56" rx="2.17" transform="translate(285.16 566.43) rotate(-61.39)"/><path class="cls-4" d="M616.48,102.22l-14.6-8a2.17,2.17,0,0,0-2.93.84h0c-1.32,2.35-2.91,3.69-4.88,4.1a8.79,8.79,0,0,1-6.2-1c-2.56-1.4-4.06-3.1-4.6-5.2s-.12-4.51,1.34-7.19a13.85,13.85,0,0,1,5.55-5.67,28.9,28.9,0,0,1,8.66-3c6.19-1,10.58-2.23,13.43-3.84s5.84-5,8.72-10.22h0a2.16,2.16,0,0,0-.86-2.95l-15-8.17a2.17,2.17,0,0,0-2.94.87h0a19.51,19.51,0,0,1-4.12,5.55,11.79,11.79,0,0,1-5.56,2.11l-.17,0a41.38,41.38,0,0,0-15.3,4.29,26,26,0,0,0-11.35,10.9C561.77,82.88,561,90,563.47,96.87s7.78,12.44,15.9,16.87a35.84,35.84,0,0,0,17.11,4.83,26.07,26.07,0,0,0,4.51-.38c7-1.19,12.51-5.46,16.31-12.7h0a2.16,2.16,0,0,0,.21-.62l.07-.37A2.18,2.18,0,0,0,616.48,102.22Z"/><path class="cls-4" d="M687.59,60c-2.43-6.76-7.78-12.44-15.9-16.87-7.53-4.11-14.81-5.61-21.62-4.46-7,1.19-12.51,5.46-16.31,12.7h0a2.34,2.34,0,0,0-.21.63l-.07.36a2.18,2.18,0,0,0,1.1,2.29l14.6,8a2.17,2.17,0,0,0,2.93-.85h0c1.32-2.34,2.91-3.68,4.88-4.1a8.75,8.75,0,0,1,6.2,1c2.56,1.4,4.06,3.1,4.6,5.2s.12,4.51-1.35,7.19a13.74,13.74,0,0,1-5.54,5.66,28.91,28.91,0,0,1-8.66,3c-6.19,1-10.58,2.23-13.43,3.84s-5.84,5-8.72,10.22h0a2.16,2.16,0,0,0,.86,3l15,8.16a2.16,2.16,0,0,0,2.94-.86h0A19.36,19.36,0,0,1,653,98.52a11.9,11.9,0,0,1,5.56-2.12l.17,0A41.19,41.19,0,0,0,674,92.09,25.93,25.93,0,0,0,685.35,81.2C689.29,74,690,66.84,687.59,60Z"/><rect class="cls-4" x="621.9" y="103.05" width="18.98" height="21.56" rx="2.17" transform="translate(229.12 613.61) rotate(-61.39)"/><path class="cls-4" d="M663.85-10,642.79,28.13a.54.54,0,0,0,.22.74.48.48,0,0,0,.26.07.53.53,0,0,0,.47-.28L665.09-10Z"/><path class="cls-4" d="M660.29-10l-22.1,40a.54.54,0,0,0,.21.74.58.58,0,0,0,.26.06.56.56,0,0,0,.48-.27L661.53-10Z"/><path class="cls-4" d="M639.89-10,623.07,20.45a.55.55,0,0,0,.21.74.68.68,0,0,0,.27.07A.53.53,0,0,0,624,21L641.12-10Z"/><path class="cls-4" d="M694.45-10,677.43,21a.53.53,0,0,0,.22.73.48.48,0,0,0,.26.07.53.53,0,0,0,.47-.28L695.68-10Z"/><path class="cls-4" d="M595.05,150.14l11.85-21.53a.54.54,0,0,0-.21-.74.56.56,0,0,0-.74.22l-12.14,22Z"/><path class="cls-4" d="M601,150.14l11.85-21.53a.54.54,0,0,0-.21-.74.56.56,0,0,0-.74.22l-12.14,22Z"/><path class="cls-4" d="M628.32,150.14l6.48-11.78a.53.53,0,0,0-.21-.73.54.54,0,0,0-.74.21l-6.77,12.3Z"/><path class="cls-4" d="M650.66,146.72a.51.51,0,0,0,.26.07.55.55,0,0,0,.48-.28L668.77,115a.54.54,0,0,0-.22-.73.53.53,0,0,0-.73.21L650.45,146A.53.53,0,0,0,650.66,146.72Z"/><path class="cls-4" d="M702.65-10,678.76,33.2a1.62,1.62,0,0,0,.63,2.21,1.6,1.6,0,0,0,.79.2,1.63,1.63,0,0,0,1.42-.83L706.37-10Z"/><path class="cls-4" d="M699.64-10,676.25,32.23a.53.53,0,0,0,.21.73.48.48,0,0,0,.26.07.52.52,0,0,0,.47-.28L700.88-10Z"/><path class="cls-4" d="M708.15-10,682.86,35.66a.54.54,0,0,0,.21.74.59.59,0,0,0,.26.07.53.53,0,0,0,.47-.28L709.39-10Z"/><path class="cls-4" d="M550.37,150.14,567,120.2a1.62,1.62,0,0,0-2.84-1.58l-17.46,31.52Z"/><path class="cls-4" d="M545,150.14l18.85-34a.54.54,0,0,0-.21-.74.53.53,0,0,0-.73.22l-19.14,34.51Z"/><path class="cls-4" d="M553.44,150.14l16.19-29.2a.54.54,0,0,0-.21-.74.55.55,0,0,0-.74.21L552.2,150.14Z"/><path class="cls-4" d="M711-3.19,699.62,17.48a.55.55,0,0,0,.21.74.68.68,0,0,0,.26.07.57.57,0,0,0,.48-.28L711-.94Z"/><path class="cls-4" d="M578.24,52.64a.58.58,0,0,1-.26-.06.54.54,0,0,1-.21-.74l17.37-31.55a.54.54,0,0,1,.73-.21.55.55,0,0,1,.22.74L578.72,52.36A.55.55,0,0,1,578.24,52.64Z"/><path class="cls-4" d="M587.45,49.94a.59.59,0,0,1-.26-.07.54.54,0,0,1-.21-.74l17.37-31.54a.53.53,0,0,1,.73-.22.54.54,0,0,1,.21.74L587.93,49.66A.57.57,0,0,1,587.45,49.94Z"/><path class="cls-4" d="M540.43,150.14,550,132.69a.55.55,0,0,0-.22-.74.54.54,0,0,0-.73.21l-9.9,18Z"/><path class="cls-4" d="M597.74,16.89a.58.58,0,0,1-.26-.06.54.54,0,0,1-.21-.74l6.25-11.25a.54.54,0,1,1,.94.53l-6.24,11.25A.56.56,0,0,1,597.74,16.89Z"/><path class="cls-4" d="M619.59-10,609.81,7.86a.53.53,0,0,0,.21.73.48.48,0,0,0,.26.07.55.55,0,0,0,.48-.28L620.82-10Z"/><path class="cls-4" d="M559.82,150.14l12.41-22.61a.54.54,0,0,0-.21-.74.55.55,0,0,0-.74.21l-12.7,23.14Z"/><rect class="cls-4" x="28.92" y="209" width="692.17" height="163.77" rx="60.17"/><rect class="cls-4" x="28.92" y="394.25" width="692.17" height="163.77" rx="60.17"/><rect class="cls-4" x="28.92" y="579.49" width="692.17" height="163.77" rx="60.17"/><rect class="cls-5" x="28.92" y="394.25" width="692.17" height="163.77" rx="60.17"/><rect class="cls-4" x="28.92" y="764.74" width="692.17" height="163.77" rx="60.17"/><rect class="cls-4" x="28.92" y="949.99" width="692.17" height="163.77" rx="60.17"/><rect class="cls-4" x="28.92" y="1135.23" width="692.17" height="163.77" rx="60.17"/><rect class="cls-6" x="28.92" y="1135.23" width="692.17" height="163.77" rx="60.17"/><text class="cls-7" transform="translate(118.48 305.62)">CONOCIMIENTO GENERAL</text><text class="cls-7" transform="translate(223.46 490.62)">MATEMÁTICAS</text><text class="cls-7" transform="translate(278.6 676.62)">CIENCIAS</text><text class="cls-7" transform="translate(279.28 856.62)">HISTORIA</text><text class="cls-7" transform="translate(218.9 1042.62)">COMPUTACIÓN</text><text class="cls-7" transform="translate(253.02 1228.62)">LITERATURA</text><g class="cls-8"><path class="cls-9" d="M244.06,503.38,218.16,460a18.08,18.08,0,0,0-21.47-7.8l-6.29-10.56A18.07,18.07,0,0,0,193.74,419l-14.87-24.95a4.42,4.42,0,0,1-1.17.14,68.86,68.86,0,0,1-7.59-.72l17.43,29.23a10.84,10.84,0,0,1-3.76,14.85l-43.43,25.9a10.85,10.85,0,0,1-14.86-3.76l-25.9-43.43a10.86,10.86,0,0,1,3.76-14.86l12.86-7.66c-4.87.22-9.72.37-14.59.28l-2,1.18a18.08,18.08,0,0,0-7.8,21.47L81.3,423a18.08,18.08,0,0,0-22.6-3.35L31.77,435.68a35.92,35.92,0,0,1-2.09,9.66L62.4,425.82a10.84,10.84,0,0,1,14.85,3.76L103.15,473a10.85,10.85,0,0,1-3.75,14.86L56,513.77A10.84,10.84,0,0,1,41.11,510L29.57,490.67a31.12,31.12,0,0,1-.92,12.19,1.45,1.45,0,0,1-.09.22l6.34,10.63a18.09,18.09,0,0,0,21.48,7.8l6.29,10.55a18.13,18.13,0,0,0-5.25,18.14,4.82,4.82,0,0,1,4.24,1.33l.31.3.11.08,1.14.83A29,29,0,0,1,67.35,554l-1.82-3a10.84,10.84,0,0,1,3.75-14.85L77,531.48a3.61,3.61,0,1,0-3.7-6.2l-4.65,2.77-5.92-9.93,40.33-24a18.09,18.09,0,0,0,6.26-24.77L85.31,429l9.93-5.92,24.05,40.33a18.07,18.07,0,0,0,24.76,6.27l40.33-24.05,5.92,9.93-40.33,24a18.08,18.08,0,0,0-6.26,24.77l24,40.33-9.92,5.92-24.05-40.33A18.08,18.08,0,0,0,109,504l-7.76,4.63a3.61,3.61,0,0,0,3.7,6.2l7.76-4.62A10.83,10.83,0,0,1,127.57,514l25.9,43.43a10.26,10.26,0,0,1,.52,1h7.65c-.13-.47-.26-.93-.43-1.39l10.56-6.3a18.08,18.08,0,0,0,22.6,3.35l43.43-25.9A18.08,18.08,0,0,0,244.06,503.38Zm-10,18.56-43.43,25.9a10.85,10.85,0,0,1-14.86-3.76l-25.9-43.43a10.85,10.85,0,0,1,3.76-14.86l43.43-25.9A10.86,10.86,0,0,1,212,463.65l25.9,43.43A10.86,10.86,0,0,1,234.1,521.94Z"/><path class="cls-10" d="M52.32,486.5l3.1-1.85,1.85,3.11a10.84,10.84,0,0,0,18.62-11.1L74,473.55l3.1-1.85A10.83,10.83,0,1,0,66,453.09l-3.1,1.85-1.85-3.1a10.84,10.84,0,0,0-18.62,11.1l1.85,3.1-3.1,1.85a10.83,10.83,0,1,0,11.1,18.61Zm-7.4-12.41,6.21-3.7a3.61,3.61,0,0,0,1.25-4.95l-3.7-6.2a3.61,3.61,0,1,1,6.2-3.7l3.7,6.2a3.61,3.61,0,0,0,5,1.25l6.2-3.7a3.61,3.61,0,0,1,3.7,6.21l-6.2,3.7A3.61,3.61,0,0,0,66,474.15l3.7,6.21a3.61,3.61,0,0,1-6.2,3.7l-3.7-6.21a3.61,3.61,0,0,0-5-1.25l-6.21,3.7a3.61,3.61,0,0,1-3.7-6.21Z"/><path class="cls-11" d="M95.4,558.38l24.66-14.7a3.61,3.61,0,0,1,3.7,6.2l-14.26,8.5h14.11l3.85-2.29a10.84,10.84,0,1,0-11.1-18.62l-24.82,14.8a10.84,10.84,0,0,0-4.79,6.11Z"/><path class="cls-12" d="M200.08,479.35a10.85,10.85,0,0,0-13.16,7.85l-.89,3.5-3.5-.89a10.84,10.84,0,0,0-5.31,21l3.5.88-.88,3.5a10.84,10.84,0,0,0,21,5.32l.88-3.51,3.5.89a10.84,10.84,0,1,0,5.32-21l-3.5-.89.88-3.5A10.84,10.84,0,0,0,200.08,479.35Zm1.69,22.78,7,1.77a3.62,3.62,0,0,1-1.78,7l-7-1.77a3.53,3.53,0,0,0-2.73.4,3.6,3.6,0,0,0-1.66,2.21l-1.77,7a3.61,3.61,0,0,1-4.38,2.61,3.61,3.61,0,0,1-2.62-4.39l1.77-7a3.61,3.61,0,0,0-2.62-4.39l-7-1.77a3.59,3.59,0,0,1-2.22-1.65,3.65,3.65,0,0,1-.4-2.74,3.63,3.63,0,0,1,4.39-2.61l7,1.77a3.61,3.61,0,0,0,4.38-2.62l1.77-7a3.62,3.62,0,1,1,7,1.77l-1.77,7a3.61,3.61,0,0,0,2.61,4.39Z"/><path class="cls-13" d="M145.57,442.79a10.8,10.8,0,0,0,5-6.65l7.08-28a10.84,10.84,0,0,0-21-5.32l-7.08,28a10.83,10.83,0,0,0,16,12Zm-9-10.19,7.09-28a3.55,3.55,0,0,1,1.65-2.22,3.61,3.61,0,0,1,5.35,4l-7.09,28a3.57,3.57,0,0,1-1.65,2.22,3.61,3.61,0,0,1-5.35-4Z"/><path class="cls-14" d="M91,523.16A3.61,3.61,0,0,0,87.3,517h0a3.61,3.61,0,0,0,3.7,6.21Z"/></g><g id="Page-1" class="cls-8"><g id="_021---Brain-Profile" data-name="021---Brain-Profile"><path class="cls-15" d="M721.46,294.63c-.84-6.26-1.46-12.52-.38-18.76l0-.15a104.33,104.33,0,0,1-5.77,23.21c-5.8,15.85-15.5,22.44-25.78,29.44A88.3,88.3,0,0,0,673.69,341a70.91,70.91,0,0,0-16.9,31.24,38,38,0,0,1,7.68.2,63.53,63.53,0,0,1,14.7-26.37,82,82,0,0,1,14.53-11.53c9.88-6.72,21-14.28,27.78-30.9C721.34,300.64,721.4,297.63,721.46,294.63Z"/><path class="cls-16" d="M609,346a3.62,3.62,0,0,0-2.21-1.84,3.74,3.74,0,0,0-2.86.22A3.81,3.81,0,0,0,602,346.6c-1.19,3.68-6,7.94-22.27,7.42-1.15,0-3.45,0-6.48,0-2.85,0-6.35,0-10.21,0h0a309.15,309.15,0,0,1-33.47-1.45,6.63,6.63,0,0,1-5.6-7.28,13.81,13.81,0,0,1,2.68-8.78,14.89,14.89,0,0,0,2.84-7.23,12.34,12.34,0,0,0-4-9.51l-.6-.7a14.1,14.1,0,0,1,2.12-1.72,3.72,3.72,0,0,0,1.64-2.39,3.76,3.76,0,0,0-.56-2.86c-.63-.92-2.11-3.14-3.15-4.81l.92-.83c.88-.77,1.89-1.65,2.94-2.71a13.81,13.81,0,0,0,3.71-7.56c.7-4.62-2.68-8.18-5.16-10.78a20.65,20.65,0,0,1-2.14-2.44,21.21,21.21,0,0,1-1.67-2.73c.78-2,11.49-7.68,17.25-10.72a30,30,0,0,0,12.06-12.75,9,9,0,0,1,1-1,10.91,10.91,0,0,0,3.17-4.41,13.05,13.05,0,0,0-2.08-10.68h0c-.95-1.8-1.87-3.52-1.64-4.66a24,24,0,0,1,4.72-5.91,56.15,56.15,0,0,0,6.9-8.32l.71-1.13a94.58,94.58,0,0,1,6.7-9.67c.67-.83,1.38-1.62,2.1-2.4l-.67-.09a5.36,5.36,0,0,1-1.49.21c-1.83,0-3.64,0-5.46.08-.77.09-1.54.15-2.32.19-1.83,2.49-3.57,5-5.16,7.7l-.71,1.12a51.67,51.67,0,0,1-6,7.19,22.34,22.34,0,0,0-6.62,9.57,14.27,14.27,0,0,0,2.38,9.67c1.17,2.2,1.91,3.71,1.57,4.73a7.24,7.24,0,0,1-1.25,1.4,11.52,11.52,0,0,0-2.34,2.77h0a22.76,22.76,0,0,1-9,9.74c-15.3,8.08-19.91,11.09-21,15.49a10.9,10.9,0,0,0,2.71,8.77,28,28,0,0,0,2.94,3.4c1.24,1.31,3.33,3.51,3.18,4.5a6.47,6.47,0,0,1-1.63,3.42c-.92.92-1.78,1.68-2.55,2.35-2.23,2-5.6,4.92-3.31,8.81.53.94,1.47,2.42,2.35,3.75a9.54,9.54,0,0,0-2.94,4.72,5.39,5.39,0,0,0,.87,4.16,28.09,28.09,0,0,0,1.94,2.39c1.65,1.92,2.27,2.75,2.17,3.94a8,8,0,0,1-1.7,3.9,21.15,21.15,0,0,0-3.85,12.79,13.85,13.85,0,0,0,12.09,14.73,302.56,302.56,0,0,0,32.84,1.5c2.2,2.63,3.84,6.59,4.83,11.52a44.46,44.46,0,0,1,7.73.54,54.94,54.94,0,0,0-3.66-12h3c2.93,0,5.16,0,6.24,0,16.77.54,26.75-3.69,29.63-12.59A3.63,3.63,0,0,0,609,346Z"/><path class="cls-17" d="M616.26,215.41a3.75,3.75,0,0,0,5.11-.91,17.63,17.63,0,0,1,2.45-2.93l-1.59-.15c-2.47-.1-5-.21-7.42-.36A3.74,3.74,0,0,0,616.26,215.41Z"/><path class="cls-18" d="M706.88,265.15a15.3,15.3,0,0,0-7.16-10.65,31.78,31.78,0,0,0-6.18-24.14,5.59,5.59,0,0,1-2.75.66h-.18c1.37,2.14.66,5-1.12,6.8a24.28,24.28,0,0,1,2.93,14.43,15.29,15.29,0,0,0-5.37.68,3.74,3.74,0,0,0,2.26,7.14,7.88,7.88,0,1,1,3.12,15.37,3.74,3.74,0,1,0,.76,7.45,15,15,0,0,0,3.22-.72,16,16,0,0,1-8.3,14l-.09.05a16.19,16.19,0,0,1-19.19-3,14.1,14.1,0,0,1-1.34-1.66,12.75,12.75,0,0,0,5.3-12.1,3.74,3.74,0,0,0-7.43.94,5.57,5.57,0,0,1-4,6.07,5.67,5.67,0,0,1-4.53-.77,5.61,5.61,0,0,1-2.45-3.87,3.74,3.74,0,1,0-7.42,1,12.89,12.89,0,0,0,13.35,11.35,22.39,22.39,0,0,0,3.15,4.28,23.08,23.08,0,0,0,15.79,7.22,23.85,23.85,0,0,1-17.67,3.83,3.74,3.74,0,0,0-1.91,7.21,2.91,2.91,0,0,0,.58.15,30.17,30.17,0,0,0,6.91.37,33.44,33.44,0,0,1,.5,7,4,4,0,0,1-3.76,3.9,4.24,4.24,0,0,1-4.13-2.83,24,24,0,0,0-7.93-10.5c-6.74-5.23-8.88-8.55-9.26-11.47a35.55,35.55,0,0,0,5.81.76,3.69,3.69,0,0,0,2.7-1,3.78,3.78,0,0,0,1.2-2.61h0a3.74,3.74,0,0,0-3.6-3.89,28.59,28.59,0,0,1-6.49-1,27.61,27.61,0,0,1-11.08-5.87,3.94,3.94,0,0,0-4.31-.4A16,16,0,0,1,608.63,263a3.75,3.75,0,0,0-4.79-5.76,23.4,23.4,0,0,0-3.61,3.83,5.65,5.65,0,0,1-3.21-7l0-.09a3.69,3.69,0,0,0-.17-2.84,3.65,3.65,0,0,0-2.14-1.88,3.77,3.77,0,0,0-4.78,2.33,13,13,0,0,0,6.67,16,23.63,23.63,0,0,0-.91,3.64,22.88,22.88,0,0,1-14.06-38.12,15,15,0,0,0,1.9,3,3.74,3.74,0,1,0,5.76-4.78,7.93,7.93,0,0,1-1.81-5.09,7.8,7.8,0,0,1,.44-2.57,7.91,7.91,0,0,1,10-4.86,7.81,7.81,0,0,1,4.89,5.08,3.74,3.74,0,1,0,7.14-2.23,15.12,15.12,0,0,0-8-9.17,11.38,11.38,0,0,1,1.88-2.3q-4.35-.33-8.7-.71c-.25.47-.5.95-.71,1.45a15.14,15.14,0,0,0-14.29,13.42,30.38,30.38,0,0,0,15.43,54.42,23.45,23.45,0,0,0,32.63,18,35.8,35.8,0,0,0,6.87,4c-.46,6.19,2.29,11.3,9.15,17.26a37.24,37.24,0,0,1-7.08,18.25c-.89,1.48-1.78,2.94-2.61,4.42a96,96,0,0,0-10.77,32.22,62.44,62.44,0,0,1,7.61-.15,87.69,87.69,0,0,1,9.69-28.4h0c.78-1.4,1.63-2.81,2.49-4.22a56.72,56.72,0,0,0,7.34-15.8,15.89,15.89,0,0,1,1.84,3.42,12,12,0,0,0,5,6,82,82,0,0,1-4.52,8.15q-1.38,2.23-2.62,4.44a92.38,92.38,0,0,0-9.81,26.84c1.63,0,3.26,0,4.91-.08.95-.06,1.89-.14,2.83-.22a83.63,83.63,0,0,1,8.59-22.86c.78-1.41,1.64-2.82,2.5-4.24a80,80,0,0,0,5.59-10.5,11.47,11.47,0,0,0,9.27-7.56,11.23,11.23,0,0,0,.64-3.53,41,41,0,0,0-.6-8.28,31.57,31.57,0,0,0,18-13.84,23.14,23.14,0,0,0,10.86-24.7A15.31,15.31,0,0,0,706.88,265.15Z"/><path class="cls-19" d="M656.19,219.08a7.86,7.86,0,0,1,5.36-3.83,7.69,7.69,0,0,1,2.62,0c0-.14.08-.28.13-.41q-6.76-.45-13.54-1a15,15,0,0,0-2.24,4.07,3.51,3.51,0,0,0-.21,1.32Q652.26,219.09,656.19,219.08Z"/><path id="Shape" class="cls-20" d="M665.47,259.85a3.74,3.74,0,1,0-6.47-3.76,14.94,14.94,0,0,1-9,6.92,15.28,15.28,0,0,1-17.85-8.62,3.75,3.75,0,0,0-6.91,2.9,22.6,22.6,0,0,0,9,10.49,11.13,11.13,0,0,1-10.15,1.42,3.74,3.74,0,0,0-2.48,7.06,18.56,18.56,0,0,0,20.45-5.55,22.56,22.56,0,0,0,23.38-10.84Z"/><path class="cls-21" d="M615.86,235.71a17.86,17.86,0,0,0-1.88,3.76A3.74,3.74,0,1,0,621,242a9.75,9.75,0,0,1,12.41-6,3.72,3.72,0,0,0,4.71-4.88C630.51,231.61,622.71,232.73,615.86,235.71Z"/></g></g><g class="cls-8"><path class="cls-22" d="M616.72,680a18.28,18.28,0,0,0,0-36.56,18.28,18.28,0,0,0,0,36.56Zm0-27.42a9.14,9.14,0,1,1-9.13,9A9.12,9.12,0,0,1,616.72,652.61Z"/><circle class="cls-23" cx="709.5" cy="685.31" r="4.57"/><path class="cls-24" d="M721.9,655c-.22-.88-.41-1.77-.55-2.66-.44-2.81,0-5.47.14-8.19a5.19,5.19,0,0,1-.36-2.75c-11-8.33-27-13.81-39-16.92,4-15.3,5.34-28.4,4-38.71a75.89,75.89,0,0,1-10-3.87c3.17,12.06-.2,30.16-2.93,40.49a253.79,253.79,0,0,0-30.83-4.5A240.37,240.37,0,0,0,623,593.54a135.85,135.85,0,0,1,15.54-13.27,83.09,83.09,0,0,1-14.11-.55c-2.55,2.22-5.13,4.61-7.75,7.21-2.58-2.56-5.12-4.92-7.63-7.12a149.44,149.44,0,0,1-15-.07,135.4,135.4,0,0,1,16.27,13.8A242.85,242.85,0,0,0,591,617.88a253.5,253.5,0,0,0-30.83,4.5c-2.87-10.84-6.45-30.23-2.44-42.22-3.05-.42-6.07-.94-9.12-1.31-3.19,11.07-2.35,26.68,2.66,45.62-20.14,5.22-51.54,17.13-51.54,38s31.4,32.78,51.54,38c-4.56,17.27-5.66,31.75-3.4,42.56a27.83,27.83,0,0,1,9.44.33c-3.31-12.05.1-30.37,2.86-40.79a255.47,255.47,0,0,0,30.83,4.5,241.56,241.56,0,0,0,19.4,24.33,133.25,133.25,0,0,1-14,12.2c1.17.09,2.35.17,3.55.23,3.45.16,6.83.08,10.21.32,2.34-2.08,4.54-4.15,6.54-6.14,1.77,1.76,3.69,3.6,5.74,5.44a41,41,0,0,1,13.46-.76A141.64,141.64,0,0,1,623,731.39a242.62,242.62,0,0,0,19.41-24.34,255.77,255.77,0,0,0,30.83-4.5c2.64,10,5.87,27.17,3.25,39.21a66.65,66.65,0,0,0,9.8-3.55c1.12-10.16-.24-22.93-4.15-37.75,3.38-.88,6.65-1.82,9.76-2.82a4.57,4.57,0,0,0-2.8-8.7c-3,1-6.2,1.88-9.5,2.73a241.82,241.82,0,0,0-11.45-29.21,241.18,241.18,0,0,0,11.45-29.21C700.8,638.7,716,646.65,721.9,655ZM616.72,600.17q7.06,7.79,13.88,16.91c-9.21-.42-18.56-.42-27.76,0C607.36,611,612,605.36,616.72,600.17Zm-32.34,27.55c-5.13,8-9.71,16-13.9,24.08-3-7-5.61-13.91-7.75-20.62C569.63,629.74,576.87,628.58,584.38,627.72Zm-30.59,63.95c-27.44-7.06-44.93-18.34-44.93-29.21s17.49-22.14,44.93-29.21a242.19,242.19,0,0,0,11.45,29.21A241.82,241.82,0,0,0,553.79,691.67Zm8.94,2.07c2.14-6.71,4.73-13.6,7.75-20.61,4.21,8.14,8.8,16.12,13.9,24.08C576.87,696.35,569.63,695.19,562.73,693.74Zm54,31c-4.71-5.18-9.36-10.84-13.88-16.91,9.12.42,18.23.44,27.76,0C626.07,713.91,621.43,719.57,616.72,724.75Zm20.67-26.46a294,294,0,0,1-41.34,0,286.59,286.59,0,0,1-20.69-35.83,286,286,0,0,1,20.69-35.82,291,291,0,0,1,41.34,0,286.42,286.42,0,0,1,20.68,35.82A286.06,286.06,0,0,1,637.39,698.29Zm33.32-4.55c-6.9,1.45-14.14,2.61-21.66,3.47,5.13-8,9.72-16,13.91-24.08h0C666,680.14,668.57,687,670.71,693.74ZM663,651.8c-4.21-8.14-8.8-16.12-13.91-24.08,7.51.86,14.76,2,21.66,3.46C668.57,637.89,666,644.79,663,651.8Z"/></g><g id="Outline" class="cls-8"><path class="cls-25" d="M236,928.31a49.13,49.13,0,0,1,8-.54,20.44,20.44,0,0,1,2.64-4.73,3.7,3.7,0,0,0-3-5.93H230.8a21.12,21.12,0,0,1,1-23.7,3.7,3.7,0,0,0-3-5.92h-41.1a18.56,18.56,0,0,0-18.15-14.82H158.49v-8.93a73.58,73.58,0,0,0,34.87-17.61l6.95,6.94,5.24-5.24-7-6.94a76.27,76.27,0,0,0,5.48-6.81l-6-4.29a67.46,67.46,0,0,1-4.69,5.85l-5.26-5.27a59.22,59.22,0,0,0,8.83-65.14,71.52,71.52,0,0,1-8.14.46,51.8,51.8,0,0,1,6.74,25.51,52.44,52.44,0,0,1-.53,7.41h-9.46L177,792.92V780.09a3.73,3.73,0,0,0-.53-1.9l-8-13.26c-2.88-.07-5.76-.06-8.64,0l9.72,16.2v13.79a3.72,3.72,0,0,0,1.65,3.08l11.11,7.4a3.75,3.75,0,0,0,2,.63h9a51.85,51.85,0,0,1-101-22.22h7.69l3,12a3.7,3.7,0,0,0,3.59,2.81h11.11v11.11a3.67,3.67,0,0,0,.63,2L125.16,822v10a3.7,3.7,0,0,0,3.7,3.7h14.82a3.7,3.7,0,0,0,2.89-1.39l14.81-18.51a3.7,3.7,0,0,0-2.89-6h-7.41V794.91a3.7,3.7,0,0,0-3.7-3.71H125.16v-6.28l5.69-8.53h12.83a3.7,3.7,0,0,0,3.7-3.7A3.65,3.65,0,0,0,147,771l-2.78-5.57c-2.18.09-4.36.18-6.54.25l-1.6,0,1.62,3.22h-8.83a3.72,3.72,0,0,0-3.08,1.65l-7.4,11.11a3.68,3.68,0,0,0-.63,2.06v7.4h-8.21l-3-12a3.7,3.7,0,0,0-3.59-2.8H94a52,52,0,0,1,4.74-11c-2.77-.13-5.51-.22-8.28-.2a59.22,59.22,0,0,0,92.4,70.4l5.27,5.27A66.65,66.65,0,0,1,82.25,765.35c-2.89,0-6.06,0-7.9,1.44a5.14,5.14,0,0,1-.75.47,74,74,0,0,0,62.67,97.6v7.81H125.16a18.56,18.56,0,0,0-18.52,18.52,3.7,3.7,0,0,0,3.71,3.7h13.38a28.73,28.73,0,0,0,0,22.22H80.2a21.12,21.12,0,0,1,0-22.22h19v-7.4H56a3.71,3.71,0,0,0-3,1.48,28.47,28.47,0,0,0-5.5,19.73,6.57,6.57,0,0,1,.51,1,25.49,25.49,0,0,0,3.36,5.74c5.3,2.57,10,6.21,15.37,8.67a52,52,0,0,0,5.12,2c.27-.53.55-1.06.87-1.57H86.7a27.66,27.66,0,0,0-1.32,4,38.84,38.84,0,0,1,7.7.05A21,21,0,0,1,95,924.52h43.53a28.71,28.71,0,0,0-1.36,4.08c2.52.13,5,.34,7.55.55a20.77,20.77,0,0,1,2.12-4.63h17.61a29.47,29.47,0,0,0-1.05,2.94,29.55,29.55,0,0,1,7.81.15,19.83,19.83,0,0,1,1.55-3.09H237.3A28.15,28.15,0,0,0,236,928.31ZM125.16,798.61h18.52v14.81a3.69,3.69,0,0,0,3.7,3.7h3.4l-8.88,11.11h-9.33v-7.4a3.77,3.77,0,0,0-.62-2.06l-6.79-10.17ZM71.89,917.11H58a21.12,21.12,0,0,1,0-22.22H71.89A28.64,28.64,0,0,0,71.89,917.11Zm71.79-51.88a73.19,73.19,0,0,0,7.4-.37v7.81h-7.4Zm-29,22.26a11.12,11.12,0,0,1,10.47-7.41H169.6a11.12,11.12,0,0,1,10.47,7.41Zm35,29.62H132.05a21.12,21.12,0,0,1,0-22.22h17.61A28.64,28.64,0,0,0,149.66,917.11Zm8.31,0a20.79,20.79,0,0,1-2.83-7.4h65.35a28.85,28.85,0,0,0,2,7.4ZM220.5,902.3H155.14a20.83,20.83,0,0,1,2.83-7.41h64.52A28,28,0,0,0,220.5,902.3Z"/></g><g id="Page-1-2" data-name="Page-1" class="cls-8"><g id="_016---PC-and-Monitor" data-name="016---PC-and-Monitor"><path id="Shape-2" data-name="Shape" class="cls-26" d="M525.76,1000.4a3.38,3.38,0,0,0,2.44-1l13.73-13.73a3.44,3.44,0,0,0-4.87-4.87l-13.74,13.73a3.44,3.44,0,0,0,2.44,5.87Z"/><path id="Shape-3" data-name="Shape" class="cls-27" d="M525.76,1021a3.38,3.38,0,0,0,2.44-1l34.33-34.33a3.44,3.44,0,1,0-4.87-4.87l-34.34,34.33a3.44,3.44,0,0,0,2.44,5.87Z"/><path class="cls-28" d="M713.14,1082a4.62,4.62,0,0,1,1.46-2.51v-97.8c-2.42-3.4-4.65-6.93-6.75-10.56l-.12-.24v123.28A40.49,40.49,0,0,0,713.14,1082Z"/><path class="cls-29" d="M649.36,966.07H611.6V949.44c-1.88.08-3.76.17-5.64.33a5.5,5.5,0,0,1-1.23,0v16.34h-79a17.16,17.16,0,0,0-17.16,17.16v89.27a17.16,17.16,0,0,0,17.16,17.17h37.77v13.73h-10.3a10.29,10.29,0,0,0-10.28,9.93,30.89,30.89,0,0,1,6.86.23,3.42,3.42,0,0,1,3.42-3.29H621.9a3.43,3.43,0,0,1,3.39,3,45.88,45.88,0,0,1,6.84-.28,10.27,10.27,0,0,0-10.23-9.6H611.6v-13.73h37.76a17.17,17.17,0,0,0,17.17-17.17V983.23A17.16,17.16,0,0,0,649.36,966.07ZM604.73,1103.4H570.4v-13.73h34.33Zm44.63-20.6H525.76a10.3,10.3,0,0,1-10.3-10.3h144.2A10.3,10.3,0,0,1,649.36,1082.8Zm10.3-17.17H515.46v-82.4a10.3,10.3,0,0,1,10.3-10.3h123.6a10.3,10.3,0,0,1,10.3,10.3Z"/><path class="cls-30" d="M655.81,948.9h-5.34c-.88,0-1.75.1-2.64.19a5,5,0,0,1-2-.19h-9.6c-5.92.37-11.85.33-17.78.38a6.87,6.87,0,0,0,6.85,6.49H683.8C674.72,952.29,665.57,949.37,655.81,948.9Z"/><path id="Shape-4" data-name="Shape" class="cls-31" d="M687.13,986.67a10.3,10.3,0,1,0-10.3-10.3A10.3,10.3,0,0,0,687.13,986.67Zm0-13.74a3.44,3.44,0,1,1-3.43,3.44A3.43,3.43,0,0,1,687.13,972.93Z"/><path id="Shape-5" data-name="Shape" class="cls-32" d="M697.43,1003.83a10.3,10.3,0,1,0-10.3,10.3A10.3,10.3,0,0,0,697.43,1003.83Zm-10.3,3.44a3.44,3.44,0,1,1,3.43-3.44A3.43,3.43,0,0,1,687.13,1007.27Z"/><path id="Shape-6" data-name="Shape" class="cls-33" d="M642.5,1096.53a3.44,3.44,0,0,0-3.44,3.44v6.86a3.44,3.44,0,1,0,6.87,0V1100A3.44,3.44,0,0,0,642.5,1096.53Z"/><path id="Shape-7" data-name="Shape" class="cls-34" d="M656.23,1096.53a3.43,3.43,0,0,0-3.43,3.44v6.86a3.43,3.43,0,1,0,6.86,0V1100A3.43,3.43,0,0,0,656.23,1096.53Z"/><path id="Shape-8" data-name="Shape" class="cls-35" d="M670,1096.53a3.44,3.44,0,0,0-3.43,3.44v6.86a3.44,3.44,0,1,0,6.87,0V1100A3.44,3.44,0,0,0,670,1096.53Z"/><path class="cls-36" d="M682.52,1110.05c1.44-.48,2.84-1,4.2-1.63a3.41,3.41,0,0,0,.41-1.59V1100a3.44,3.44,0,1,0-6.87,0v6.86A3.44,3.44,0,0,0,682.52,1110.05Z"/><path class="cls-37" d="M700.8,1099.37a3.43,3.43,0,0,0-6.8.6v4.55c1.5-.93,3-1.92,4.44-2.94C699.21,1100.82,700,1100.08,700.8,1099.37Z"/></g></g><rect class="cls-38" x="28.92" y="209" width="692.17" height="163.77" rx="60.17"/><rect class="cls-39" x="28.92" y="579.49" width="692.17" height="163.77" rx="60.17"/><rect class="cls-40" x="28.92" y="764.74" width="692.17" height="163.77" rx="60.17"/><rect class="cls-41" x="28.92" y="949.99" width="692.17" height="163.77" rx="60.17"/><g id="Outline-2" data-name="Outline" class="cls-8"><path class="cls-42" d="M217.31,1164.05h15.28v7.64H217.31Z"/><path class="cls-43" d="M217.31,1183.16h15.28v7.64H217.31Z"/><path class="cls-44" d="M217.31,1202.26h15.28v7.64H217.31Z"/><path class="cls-45" d="M202,1145h30.56v7.64H202Z"/><path class="cls-46" d="M152.36,1141.13H160v7.64h-7.64Z"/><path class="cls-47" d="M205.85,1167.87H202v114.62H129.91l61.58-15.4a3.81,3.81,0,0,0,2.89-3.7V1148.77a3.82,3.82,0,0,0-3.82-3.82,4.06,4.06,0,0,0-.92.11l-61.94,15.49a22.88,22.88,0,0,0-15.38,12.88,19.05,19.05,0,0,0-13.45-5.56H35.78c-.31.94-.72,1.88-1.12,2.8-.66,1.5-1.36,3-2,4.46,0,.1-.1.25-.16.38h66.4A11.48,11.48,0,0,1,110.33,1187v99.34a19,19,0,0,0-11.46-3.83H46.79a5.47,5.47,0,0,1,.66.53,26.7,26.7,0,0,0,4.78,2.85,19.23,19.23,0,0,1,5.43,4.26H98.87a11.47,11.47,0,0,1,11.13,8.79c2.83.22,5.54-.21,8.32-.06a11.46,11.46,0,0,1,11.11-8.73H202v8.14a4.1,4.1,0,0,1,.86,0c2.29.17,4.54,0,6.78.06v-126.6A3.82,3.82,0,0,0,205.85,1167.87Zm-78.15,107.3a22.78,22.78,0,0,0-9.73,5.14v-97.52A15.27,15.27,0,0,1,129.55,1168l57.19-14.3V1260.4Z"/><path class="cls-48" d="M128.24,1179.59l45.86-15.27,2.42,7.25-45.86,15.27Z"/><path class="cls-49" d="M128.24,1198.7l45.86-15.27,2.41,7.25L130.65,1206Z"/><path class="cls-50" d="M128.23,1217.81l45.86-15.27,2.42,7.25-45.86,15.27Z"/><path class="cls-51" d="M128.23,1236.92l45.86-15.28,2.41,7.26-45.86,15.27Z"/><path class="cls-52" d="M128.22,1256l45.87-15.27,2.41,7.25-45.86,15.28Z"/><path class="cls-53" d="M37.74,1187H95.05v7.64H37.74Z"/><path class="cls-54" d="M37.74,1206.08H95.05v7.64H37.74Z"/><path class="cls-55" d="M37.74,1225.18H95.05v7.64H37.74Z"/><path class="cls-56" d="M37.74,1244.28H95.05v7.65H37.74Z"/><path class="cls-57" d="M37.74,1263.39H95.05V1271H37.74Z"/><path class="cls-58" d="M46.38,1152.33a79.57,79.57,0,0,1-6.44,7.64,24.14,24.14,0,0,0,3.53.26,24.86,24.86,0,0,0,24.64-21.79c-3.15,1.41-6.25,2.92-9.26,4.61A17.24,17.24,0,0,1,46.38,1152.33Z"/><path class="cls-59" d="M121.75,1136.32a17.18,17.18,0,0,1-34.34-.92c0-.22,0-.43,0-.65-1.72,0-3.44.12-5.16.28-.81.07-1.65.17-2.51.28v.09a24.83,24.83,0,0,0,49.63,1.27A46.32,46.32,0,0,1,121.75,1136.32Z"/><path class="cls-60" d="M92.46,1134.74l5.28,5.27,4.89-4.89C99.25,1135,95.85,1134.8,92.46,1134.74Z"/><path class="cls-61" d="M137.88,1136.33l-.8,0v12.41h7.64v-12.65Z"/><path class="cls-62" d="M242.72,1135.48c-.83,0-1.66.07-2.49.07v85.81H217.31V1229h26.74a3.82,3.82,0,0,0,3.82-3.82v-89.73A44.23,44.23,0,0,1,242.72,1135.48Z"/></g></svg>