<svg xmlns="http://www.w3.org/2000/svg" viewBox="0 0 30.18 30.18"><g id="Capa_2" data-name="Capa 2"><g id="Capa_1-2" data-name="Capa 1"><path d="M12.57,19.11h1v1h-1Z"/><path d="M14.59,19.11h1v1h-1Z"/><path d="M16.6,19.11h1v1h-1Z"/><path d="M12.57,21.12h1v1h-1Z"/><path d="M14.59,21.12h1v1h-1Z"/><path d="M16.6,21.12h1v1h-1Z"/><path d="M12.57,23.14h1v1h-1Z"/><path d="M14.59,23.14h1v1h-1Z"/><path d="M16.6,23.14h1v1h-1Z"/><path d="M12.57,15.09h1v1h-1Z"/><path d="M14.59,15.09h1v1h-1Z"/><path d="M16.6,15.09h1v1h-1Z"/><path d="M12.57,17.1h1v1h-1Z"/><path d="M14.59,17.1h1v1h-1Z"/><path d="M16.6,17.1h1v1h-1Z"/><path d="M10.18,4.18l2.09,2-.5,2.87a.5.5,0,0,0,.41.58.44.44,0,0,0,.32-.05l2.59-1.35,2.58,1.35a.5.5,0,0,0,.73-.53l-.49-2.87,2.09-2a.5.5,0,0,0,0-.71.54.54,0,0,0-.29-.15L16.83,2.9,15.54.28a.5.5,0,0,0-.67-.23.51.51,0,0,0-.23.23L13.35,2.9l-2.89.42a.5.5,0,0,0-.43.57.54.54,0,0,0,.15.29Zm3.57-.32a.51.51,0,0,0,.38-.28l1-1.94,1,1.94a.51.51,0,0,0,.38.28l2.14.31L17,5.68a.53.53,0,0,0-.15.45l.37,2.13-1.92-1a.47.47,0,0,0-.46,0l-1.92,1,.36-2.13a.5.5,0,0,0-.14-.45L11.61,4.17Z"/><path d="M19.64,8.18a.49.49,0,0,0,.13.51l1.39,1.36L20.83,12a.5.5,0,0,0,.73.53l1.72-.91L25,12.5a.5.5,0,0,0,.73-.53l-.33-1.92,1.4-1.36a.5.5,0,0,0,0-.71.47.47,0,0,0-.29-.14l-1.93-.28-.86-1.75a.5.5,0,0,0-.67-.23.51.51,0,0,0-.23.23L22,7.56l-1.92.28A.5.5,0,0,0,19.64,8.18Zm2.74.33a.5.5,0,0,0,.38-.27l.52-1.07.53,1.07a.47.47,0,0,0,.38.27l1.18.18-.86.83a.48.48,0,0,0-.14.44l.2,1.17-1.05-.55a.49.49,0,0,0-.47,0L22,11.13,22.2,10a.51.51,0,0,0-.15-.44l-.85-.83Z"/><path d="M25.26,13.65a.51.51,0,0,0-.42.57.47.47,0,0,0,.14.29l.9.87-.21,1.24a.5.5,0,0,0,.41.58.51.51,0,0,0,.32-.05l1.1-.59,1.11.59a.5.5,0,0,0,.73-.53l-.21-1.24.9-.87a.5.5,0,0,0,0-.71.48.48,0,0,0-.28-.15l-1.24-.18L28,12.35a.51.51,0,0,0-.91,0l-.55,1.12Zm2,.51.21-.45.22.45a.53.53,0,0,0,.38.27l.49.07-.35.35a.51.51,0,0,0-.15.44l.09.49-.44-.23a.49.49,0,0,0-.47,0l-.44.23.09-.49a.51.51,0,0,0-.15-.44l-.35-.35.49-.07a.53.53,0,0,0,.38-.27Z"/><path d="M3.38,8.69l1.39,1.36L4.44,12a.51.51,0,0,0,.41.58.5.5,0,0,0,.32-.05l1.73-.91,1.72.91a.51.51,0,0,0,.68-.21.59.59,0,0,0,0-.32L9,10.05l1.39-1.36a.5.5,0,0,0,0-.71.47.47,0,0,0-.29-.14L8.21,7.56,7.35,5.81a.51.51,0,0,0-.91,0L5.58,7.56l-1.92.28a.5.5,0,0,0-.43.57.48.48,0,0,0,.15.28ZM6,8.51a.49.49,0,0,0,.38-.27L6.9,7.17l.52,1.07a.5.5,0,0,0,.38.27L9,8.69l-.85.83A.49.49,0,0,0,8,10l.2,1.17-1-.55a.49.49,0,0,0-.47,0l-1,.55L5.81,10a.49.49,0,0,0-.15-.44l-.85-.83Z"/><path d="M.15,14.51l.9.87L.84,16.62a.5.5,0,0,0,.41.58.51.51,0,0,0,.32-.05l1.1-.59,1.11.59a.5.5,0,0,0,.73-.53L4.3,15.38l.89-.87a.5.5,0,0,0,0-.71.51.51,0,0,0-.29-.15l-1.23-.18-.56-1.12a.5.5,0,0,0-.67-.23.51.51,0,0,0-.23.23l-.55,1.12-1.24.18a.51.51,0,0,0-.42.57A.47.47,0,0,0,.15,14.51Zm1.92-.08a.49.49,0,0,0,.38-.27l.22-.45.22.45a.53.53,0,0,0,.38.27l.49.07-.35.35a.49.49,0,0,0-.15.44l.09.49-.44-.23a.49.49,0,0,0-.47,0L2,15.78l.08-.49a.48.48,0,0,0-.14-.44l-.36-.35Z"/><path d="M8.05,17.1H9.56v1H8.05Z"/><path d="M8.05,19.62H9.56v1H8.05Z"/><path d="M8.05,22.13H9.56v1H8.05Z"/><path d="M8.05,24.64H9.56v1H8.05Z"/><path d="M28.17,23.64h-1a2,2,0,0,0-2,2v1a2.3,2.3,0,0,0-1,.41V24.64h-1v2.52H19.62V15.59h3.52v8.05h1V15.09a.5.5,0,0,0-.5-.5h-4V12.07a.5.5,0,0,0-.51-.5H17.6v-1a.5.5,0,0,0-.5-.5h-4a.5.5,0,0,0-.51.5v1H11.06a.5.5,0,0,0-.5.5v2.52h-4a.5.5,0,0,0-.5.5v3H7V15.59h3.52V27.16H7v-8H6v8a2.35,2.35,0,0,0-1-.41v-1a2,2,0,0,0-2-2H2a2,2,0,0,0-2,2v4a.51.51,0,0,0,.5.51H29.67a.51.51,0,0,0,.51-.51v-4a2,2,0,0,0-2-2ZM13.58,11.07h3v2h-3ZM1,25.65a1,1,0,0,1,1-1H3a1,1,0,0,1,1,1v1a2.39,2.39,0,0,0-2,2.36v.12H1Zm2,3.52v-.12A1.38,1.38,0,0,1,4.4,27.66h.25A1.39,1.39,0,0,1,6,29.05v.12Zm4-1h3.52v1H7Zm4.53-15.6h1v1a.5.5,0,0,0,.51.5h4a.5.5,0,0,0,.5-.5v-1h1v16.6H17.1V25.65a.5.5,0,0,0-.5-.5h-3a.5.5,0,0,0-.5.5v3.52H11.57Zm2.51,16.6v-3h2v3Zm5.54-1h3.52v1H19.62Zm4.52,1v-.12a1.38,1.38,0,0,1,1.38-1.39h.26a1.38,1.38,0,0,1,1.38,1.39v.12Zm5,0h-1v-.12a2.4,2.4,0,0,0-2-2.36v-1a1,1,0,0,1,1-1h1a1,1,0,0,1,1,1Z"/><path d="M20.62,22.13h1.51v1H20.62Z"/><path d="M20.62,24.64h1.51v1H20.62Z"/><path d="M20.62,17.1h1.51v1H20.62Z"/><path d="M20.62,19.62h1.51v1H20.62Z"/></g></g></svg>