<svg xmlns="http://www.w3.org/2000/svg" viewBox="0 0 285.37 348.99"><g id="Capa_2" data-name="Capa 2"><g id="Capa_1-2" data-name="Capa 1"><path d="M266.79,150.45,281.34,133c6.87-8.25,4.73-21.4-4.76-29.29a24.7,24.7,0,0,0-10.42-5.1A22.19,22.19,0,0,0,262,68.91a22.44,22.44,0,0,0-31.54,2.89l-6,7.25a22,22,0,0,0-22.7-14.56,22.51,22.51,0,0,0-11.28-15.71,22.39,22.39,0,0,0-30.37,9L155.56,66a22.13,22.13,0,0,0-8.31-8,22.41,22.41,0,0,0-30.37,9L93.37,110.1a32.55,32.55,0,0,0-25.12,4.61,12.17,12.17,0,0,0-3.41,16.85l9.24,14-.82,1.5L55.4,131.51a32.65,32.65,0,0,0-46.13-.23,12.17,12.17,0,0,0-.08,17.2l13.16,13.29c17.58,17.76,20.73,23.13,17.37,44.81l-4,24a5.57,5.57,0,0,0-4.14-.41,5.65,5.65,0,0,0-3.36,2.7L.68,283.4A5.65,5.65,0,0,0,2.93,291l105.16,57.27a5.69,5.69,0,0,0,2.7.68,5.41,5.41,0,0,0,1.59-.23,5.61,5.61,0,0,0,3.35-2.71l2-3.72,5.35,4.45a5.63,5.63,0,0,0,7.93-.73l36.76-44.18a5.65,5.65,0,0,0-.73-7.93l-.5-.41,9.36-11.26A36.93,36.93,0,0,0,205.68,269l71.84-86.37a20,20,0,0,0-2.59-28.16A19.65,19.65,0,0,0,266.79,150.45ZM170,63.12a11.08,11.08,0,0,1,20.84,5.34,21.5,21.5,0,0,0-4.5,4L128,142.56l-.76-1Zm-43.2,9.2A11.14,11.14,0,1,1,146.32,83l-.43.8-26.21,48.11-6.21-8a32.59,32.59,0,0,0-9.64-9.45ZM30.35,153.85,17.19,140.56a1,1,0,0,1,0-1.28,20.67,20.67,0,0,1,15.13-6.18,21.49,21.49,0,0,1,15.38,6.62l23.45,20.39a5.69,5.69,0,0,0,4.7,1.29,5.6,5.6,0,0,0,3.94-2.85L81,156.33c8.35,14,8.78,20.94,2.51,38.16L74.89,217.3a5.61,5.61,0,0,0-7.8.79l-17,20.38-4-2.17,4.69-27.92C54.8,182.77,50,173.74,30.35,153.85Zm78.19,181.88L13.27,283.84,35.2,243.57a5.71,5.71,0,0,0,1.85,1.74l5.09,2.77-11.81,14.2a5.61,5.61,0,0,0,.73,7.92L108.94,335Zm17.45-1.2-83.4-69.38,29.33-35.26A5.49,5.49,0,0,0,73.4,232l81,67.39c.17.14.39.2.57.33ZM268.87,175.41,197,261.78a25.71,25.71,0,0,1-22.89,9.06,5.58,5.58,0,0,0-5,2l-11.22,13.49L84.05,224.88l10-26.48c8.86-24.35,5.93-34.13-9.53-57.46l-10.33-15.6a1,1,0,0,1,.25-1.25,21.17,21.17,0,0,1,16-3.13,21.58,21.58,0,0,1,13.81,9.48L116.1,145.6l0,0,7.25,9.35a5.64,5.64,0,0,0,4.35,2.18,6.32,6.32,0,0,0,4.43-2L195,79.65a11.13,11.13,0,0,1,17.13,14.23h0l-32.16,38.66a5.63,5.63,0,1,0,8.65,7.2l32.16-38.66,0,0L239.1,79a11.13,11.13,0,1,1,17.12,14.24l-8.79,10.57c-.17.18-.37.31-.52.5a2.64,2.64,0,0,0-.2.37l-53.28,64a5.63,5.63,0,1,0,8.65,7.2l53.9-64.8c3-3,9-2.51,13.4,1.18,4.64,3.86,6.15,10,3.31,13.44l-39.78,47.82-.37.44h0l-12.25,14.74a5.63,5.63,0,1,0,8.65,7.2l12.23-14.7h0l14.25-17a8.74,8.74,0,0,1,13.45,11.18Z"/><path d="M74.26,252.62a9.58,9.58,0,1,0,10.41,8.67A9.59,9.59,0,0,0,74.26,252.62Z"/><path d="M63.37,53.28,97.62,64.51a5.35,5.35,0,0,0,1.75.29,5.63,5.63,0,0,0,1.75-11L66.88,42.58a5.63,5.63,0,0,0-3.51,10.7Z"/><path d="M102.63,43.58a5.62,5.62,0,1,0,9.42-6.15L96.65,13.87A5.63,5.63,0,0,0,87.23,20Z"/><path d="M126.48,46.2a5.79,5.79,0,0,0,1.16.12,5.65,5.65,0,0,0,5.51-4.48l7.33-35.06a5.63,5.63,0,0,0-11-2.31l-7.33,35.06A5.63,5.63,0,0,0,126.48,46.2Z"/></g></g></svg>