<svg xmlns="http://www.w3.org/2000/svg" xmlns:xlink="http://www.w3.org/1999/xlink" viewBox="0 0 222.18 165.27"><defs><linearGradient id="a" x1="98.73" y1="82.9" x2="135.27" y2="82.9" gradientUnits="userSpaceOnUse"><stop offset="0" stop-color="#662d91"/><stop offset=".98" stop-color="#0ff"/></linearGradient><linearGradient id="b" x1="205.21" y1="106.46" x2="214.35" y2="106.46" xlink:href="#a"/><linearGradient id="c" x1="0" y1="82.64" x2="222.18" y2="82.64" xlink:href="#a"/></defs><g data-name="Capa 2"><g style="opacity:.15" data-name="Capa 1"><path d="M117 101.17a18.28 18.28 0 0 0 0-36.55 18.28 18.28 0 0 0 0 36.55Zm0-27.41a9.14 9.14 0 1 1-9.13 9 9.12 9.12 0 0 1 9.13-9Z" style="fill:url(#a)"/><circle cx="209.78" cy="106.46" r="4.57" style="fill:url(#b)"/><path d="M222.18 76.14c-.21-.88-.4-1.77-.55-2.67-.44-2.81 0-5.46.14-8.19a5.24 5.24 0 0 1-.36-2.74c-11-8.34-27-13.82-38.95-16.92 4-15.3 5.34-28.4 4-38.71A76.62 76.62 0 0 1 176.5 3c3.17 12.05-.2 30.15-2.94 40.48A255.77 255.77 0 0 0 142.73 39a242.69 242.69 0 0 0-19.4-24.33 134.67 134.67 0 0 1 15.53-13.25 85 85 0 0 1-14.1-.55c-2.56 2.22-5.14 4.6-7.76 7.21-2.57-2.56-5.12-4.92-7.63-7.12-5 .13-10 .29-15-.07a133.71 133.71 0 0 1 16.27 13.8A242.69 242.69 0 0 0 91.27 39a255.47 255.47 0 0 0-30.83 4.5C57.57 32.69 54 13.3 58 1.3 55 .89 51.93.37 48.88 0c-3.18 11.07-2.34 26.68 2.66 45.62C31.4 50.83 0 62.75 0 83.61s31.41 32.78 51.54 38c-4.56 17.26-5.65 31.75-3.4 42.56a27.83 27.83 0 0 1 9.44.33c-3.31-12.05.1-30.38 2.86-40.79a253.82 253.82 0 0 0 30.83 4.49 241.72 241.72 0 0 0 19.4 24.34 133.2 133.2 0 0 1-14 12.2c1.16.08 2.34.17 3.54.23 3.46.16 6.83.08 10.22.31 2.34-2.07 4.54-4.15 6.53-6.13 1.77 1.76 3.7 3.59 5.74 5.44a41 41 0 0 1 13.46-.76 138.5 138.5 0 0 1-12.87-11.29 241.72 241.72 0 0 0 19.4-24.34 251.55 251.55 0 0 0 30.83-4.5c2.64 10 5.87 27.18 3.26 39.21a65.88 65.88 0 0 0 9.8-3.54c1.12-10.16-.24-22.93-4.16-37.76 3.38-.87 6.65-1.81 9.76-2.81a4.57 4.57 0 0 0-2.79-8.7c-3 1-6.21 1.88-9.5 2.73a244.52 244.52 0 0 0-11.45-29.21 243.49 243.49 0 0 0 11.49-29.22c21.16 5.45 36.38 13.4 42.25 21.74ZM117 21.32c4.71 5.18 9.36 10.84 13.88 16.91-9.21-.42-18.56-.42-27.76 0 4.53-6.07 9.17-11.73 13.88-16.91ZM84.67 48.86c-5.13 8-9.72 16-13.91 24.09-3-7-5.61-13.91-7.75-20.62 6.9-1.45 14.14-2.61 21.66-3.47Zm-30.59 64c-27.45-7.1-44.94-18.39-44.94-29.25S26.63 61.46 54.08 54.4a241.82 241.82 0 0 0 11.45 29.21 241.82 241.82 0 0 0-11.45 29.21Zm8.92 2.03c2.14-6.71 4.73-13.61 7.75-20.62 4.21 8.15 8.8 16.12 13.91 24.09-7.51-.86-14.75-2.03-21.66-3.47Zm54 31c-4.71-5.18-9.35-10.84-13.88-16.91 9.12.42 18.24.44 27.76 0-4.52 6.08-9.17 11.74-13.88 16.92Zm20.67-26.47a291 291 0 0 1-41.34 0 285.18 285.18 0 0 1-20.68-35.81 286.78 286.78 0 0 1 20.68-35.83 294 294 0 0 1 41.34 0 287.31 287.31 0 0 1 20.69 35.83 286 286 0 0 1-20.69 35.82Zm33.33-4.53c-6.9 1.45-14.14 2.61-21.66 3.47 5.14-8 9.72-16 13.91-24.09 3.01 7.01 5.6 13.91 7.75 20.62ZM163.24 73c-4.21-8.15-8.8-16.12-13.91-24.09 7.52.86 14.76 2 21.66 3.47-2.14 6.62-4.73 13.56-7.75 20.62Z" style="fill:url(#c)"/></g></g></svg>