<svg xmlns="http://www.w3.org/2000/svg" viewBox="0 0 32.01 33.61"><g id="Capa_2" data-name="Capa 2"><g id="Capa_1-2" data-name="Capa 1"><path d="M6.55,16.38H17.63a.72.72,0,1,0,0-1.43H6.55a.72.72,0,0,0,0,1.43Z"/><path d="M13.19,19.6H6.55a.72.72,0,0,0,0,1.43h6.64a.72.72,0,0,0,0-1.43Z"/><path d="M25.6,18V5.66A3.58,3.58,0,0,0,22,2.08H19.09V.72a.72.72,0,1,0-1.43,0V2.08H7.94V.72a.72.72,0,1,0-1.43,0V2.08H3.58A3.58,3.58,0,0,0,0,5.66V25A3.57,3.57,0,0,0,3.58,28.6H16.81A7.87,7.87,0,1,0,25.6,18Zm-22-14.5H6.51V4.88a.72.72,0,0,0,1.43,0V3.51h9.73V4.88a.72.72,0,0,0,1.43,0V3.51H22a2.15,2.15,0,0,1,2.15,2.15V7.39H1.44V5.66A2.14,2.14,0,0,1,3.58,3.51Zm0,23.66A2.14,2.14,0,0,1,1.44,25V8.81H24.17v9.07h0a7.89,7.89,0,0,0-7.74,9.29Zm20.57,5a6.44,6.44,0,1,1,6.43-6.44A6.44,6.44,0,0,1,24.15,32.18Z"/><path d="M27.46,23.18l-4.25,4.05L21,25a.71.71,0,0,0-1,1l2.69,2.69a.71.71,0,0,0,.51.21.72.72,0,0,0,.5-.2l4.74-4.54a.68.68,0,0,0,.22-.5.69.69,0,0,0-.19-.51A.72.72,0,0,0,27.46,23.18Z"/></g></g></svg>