<?xml version="1.0" encoding="utf-8"?>
<!-- Generator: Adobe Illustrator 25.4.1, SVG Export Plug-In . SVG Version: 6.00 Build 0)  -->
<svg version="1.1" id="Capa_1" xmlns="http://www.w3.org/2000/svg" xmlns:xlink="http://www.w3.org/1999/xlink" x="0px" y="0px"
	 viewBox="0 0 500 500" style="enable-background:new 0 0 500 500;" xml:space="preserve">
<g>
	<circle cx="250.44" cy="285.34" r="82.8"/>
	<path d="M416.03,96.09h-28.31c-13.76,0-24.92-11.15-24.92-24.91c0-25.33-20.73-46.05-46.05-46.05H184.12
		c-25.33,0-46.05,20.72-46.05,46.05v0c0,13.76-11.16,24.91-24.92,24.91H84.84c-39.03,0-70.97,31.94-70.97,70.97v236.56
		c0,39.03,31.94,70.97,70.97,70.97h331.19c39.03,0,70.97-31.94,70.97-70.97V167.06C487,128.02,455.06,96.09,416.03,96.09z
		 M250.44,403.62c-65.22,0-118.28-53.06-118.28-118.28s53.06-118.28,118.28-118.28s118.28,53.06,118.28,118.28
		S315.66,403.62,250.44,403.62z"/>
</g>
</svg>
