<svg xmlns="http://www.w3.org/2000/svg" viewBox="0 0 101.93 105.57"><g id="Capa_2" data-name="Capa 2"><g id="Capa_1-2" data-name="Capa 1"><path d="M51.66,42.22A1.56,1.56,0,0,0,50,43.65l-.35,4.27a5.25,5.25,0,0,0-2-.38h-.74V43.46a3.34,3.34,0,0,0-3.33-3.34H37.19a22.3,22.3,0,0,1-13.38-4.5l-.74-.55a2.58,2.58,0,0,0-3.65.54,15.44,15.44,0,0,0-3,9.13v2.8h-.74a5.15,5.15,0,0,0-1.88.35l-1.3-9.29a10.83,10.83,0,0,1,.15-3.85,1.56,1.56,0,1,0-3-.67,14,14,0,0,0-.2,5l1.6,11.39A5.23,5.23,0,0,0,15.73,58h.78a15.23,15.23,0,0,0,7,11.68v4L12.7,78.73A22.25,22.25,0,0,0,0,98.77V104a1.56,1.56,0,0,0,3.12,0V98.77A19.12,19.12,0,0,1,14,81.55l9.77-4.62a7.87,7.87,0,0,0,15.05,0l9.78,4.62.15.07a1.51,1.51,0,0,0,.68.16,1.56,1.56,0,0,0,.69-3l-.06,0L50,78.73,39.19,73.64V70.15A15.29,15.29,0,0,0,46.9,58h.78a5.25,5.25,0,0,0,4.85-7.21l.56-6.9a1.56,1.56,0,0,0-1.43-1.68Zm-38,10.56a2.12,2.12,0,0,1,2.11-2.12h.74v4.23h-.74a2.12,2.12,0,0,1-2.11-2.11ZM36.07,74.63a4.75,4.75,0,0,1-9.49,0v-3.4a15,15,0,0,0,5.12.89,15.34,15.34,0,0,0,4.37-.64Zm7.75-17.75a12.12,12.12,0,0,1-24.24,0V44.74a12.42,12.42,0,0,1,2.05-6.85l.29.22a25.43,25.43,0,0,0,15.27,5.13h6.42a.21.21,0,0,1,.21.22Zm3.86-2h-.74V50.66h.74a2.12,2.12,0,0,1,0,4.23Z"/><path d="M14.3,30.11a1.54,1.54,0,0,0,1.13-.48A10.7,10.7,0,0,1,21.1,26.5a1.4,1.4,0,0,0,.29-.09l5.07-2.13a17,17,0,0,1,20,5.06,1.56,1.56,0,1,0,2.42-2A20.58,20.58,0,0,0,38.4,20.51a20,20,0,0,0-13.15.89l-4.93,2.07a13.82,13.82,0,0,0-7.14,4,1.55,1.55,0,0,0,.05,2.21,1.54,1.54,0,0,0,1.07.43Z"/><path d="M53.79,83a1.56,1.56,0,0,0,0,2.2,19.14,19.14,0,0,1,5.72,13.61V104a1.56,1.56,0,1,0,3.12,0V98.77A22.31,22.31,0,0,0,56,82.93a1.56,1.56,0,0,0-2.21,0Z"/><path d="M13.29,95.81a1.56,1.56,0,0,0-1.56,1.56V104a1.56,1.56,0,1,0,3.12,0V97.37A1.56,1.56,0,0,0,13.29,95.81Z"/><path d="M49.36,95.81a1.56,1.56,0,0,0-1.56,1.56V104a1.56,1.56,0,1,0,3.12,0V97.37A1.56,1.56,0,0,0,49.36,95.81Z"/><path d="M79.81,32.74a1.56,1.56,0,0,0,1.6,2.68A15.57,15.57,0,0,0,89,22.09c0-.44,0-.9-.06-1.39a1.56,1.56,0,1,0-3.11.28,10.78,10.78,0,0,1,.05,1.11A12.44,12.44,0,0,1,79.81,32.74Z"/><path d="M73.49,9.71a12.41,12.41,0,0,1,5.85,1.47,1.56,1.56,0,0,0,1.47-2.75A15.5,15.5,0,1,0,73.49,37.6l.79,0a1.56,1.56,0,0,0-.16-3.12l-.63,0a12.39,12.39,0,0,1,0-24.77Z"/><path d="M100.78,9.21,96.54,6.84,96,2A2.26,2.26,0,0,0,92.53.38L85.49,5a2.28,2.28,0,0,0-1,2.13l.59,5.39-5.44,3.6a8.51,8.51,0,1,0,1.73,2.6l5.43-3.59,4.74,2.64a2.16,2.16,0,0,0,1.1.29,2.28,2.28,0,0,0,1.25-.37l7-4.66a2.26,2.26,0,0,0-.14-3.85ZM78.93,22.09a5.46,5.46,0,1,1-2-4.17l-4.34,2.87a1.56,1.56,0,0,0,.86,2.86,1.5,1.5,0,0,0,.86-.26l4.35-2.87A5.47,5.47,0,0,1,78.93,22.09ZM87.65,7.35l5.42-3.59L93.43,7,88,10.62Zm4.95,7.47-2.87-1.6,2.12-1.4,3.3-2.19L98,11.24Z"/><path d="M93.79,21.12a1.56,1.56,0,0,0-1.61,1.52A18.69,18.69,0,0,1,60.77,35.8a1.6,1.6,0,0,0-1.18-.41L52,35.93l3.89-5.73A1.55,1.55,0,0,0,56,28.77,18.71,18.71,0,0,1,73.49,3.39h.17A18.57,18.57,0,0,1,80.3,4.67a1.56,1.56,0,0,0,1.14-2.91A21.79,21.79,0,0,0,73.69.27h-.2A21.93,21.93,0,0,0,51.68,21.48a21.62,21.62,0,0,0,1.14,7.63l-4.1,6a2.55,2.55,0,0,0,2.29,4l8.14-.58a21.71,21.71,0,0,0,14.34,5.38h.22A21.91,21.91,0,0,0,95.3,22.72a1.55,1.55,0,0,0-1.51-1.6Z"/></g></g></svg>