<svg xmlns="http://www.w3.org/2000/svg" xmlns:xlink="http://www.w3.org/1999/xlink" viewBox="0 0 790.21 222.08"><defs><linearGradient id="Degradado_sin_nombre_95" x1="393.5" y1="214.3" x2="393.5" y2="7.08" gradientUnits="userSpaceOnUse"><stop offset="0" stop-color="#1a1a1a"/><stop offset="0.46" stop-color="#0c0c0c"/><stop offset="1"/></linearGradient><clipPath id="clip-path" transform="translate(8.5 5.58)"><rect width="770" height="211.65" style="fill:none"/></clipPath><linearGradient id="Degradado_sin_nombre_89" x1="386.61" y1="-5.58" x2="386.61" y2="214.94" gradientUnits="userSpaceOnUse"><stop offset="0" stop-color="#333" stop-opacity="0"/><stop offset="1"/></linearGradient><linearGradient id="Degradado_sin_nombre_2" x1="9" y1="217.08" x2="779" y2="217.08" gradientUnits="userSpaceOnUse"><stop offset="0.15" stop-color="#6a5538"/><stop offset="0.35" stop-color="#bc975e"/><stop offset="0.45" stop-color="#d9be85"/><stop offset="0.56" stop-color="#e7d491"/><stop offset="0.67" stop-color="#c5a76c"/><stop offset="0.78" stop-color="#bc975e"/><stop offset="1" stop-color="#6a5538"/></linearGradient></defs><g id="Capa_2" data-name="Capa 2"><g id="Capa_1-2" data-name="Capa 1"><rect x="8.5" y="5.58" width="770" height="211.65" style="fill:url(#Degradado_sin_nombre_95)"/><g style="clip-path:url(#clip-path)"><path d="M369.26,64.52a16.76,16.76,0,1,0,28.6-11.84L390.21,45l6-6V30.6L386,40.83,375.74,30.55V39L381.8,45l-7.63,7.64A16.69,16.69,0,0,0,369.26,64.52Zm9.11-7.64L386,49.25l7.65,7.63a10.81,10.81,0,1,1-15.29,0Zm100.7,3.9a16.75,16.75,0,1,0-28.59,11.85l7.63,7.63-6.06,6.07v8.42l10.27-10.28,10.23,10.24V86.28l-6-6,7.64-7.63A16.68,16.68,0,0,0,479.07,60.78ZM470,68.41l-7.65,7.64-7.64-7.64a10.81,10.81,0,1,1,15.29,0ZM327.42,60.78a16.76,16.76,0,1,0-28.6,11.85l7.64,7.63-6.06,6.07v8.42l10.27-10.28L320.9,94.71V86.28l-6-6,7.64-7.63A16.69,16.69,0,0,0,327.42,60.78Zm-9.11,7.63-7.64,7.64L303,68.41a10.8,10.8,0,1,1,18.44-7.63A10.7,10.7,0,0,1,318.31,68.41Zm-139.82-42a16.66,16.66,0,0,1-11.86-4.91,16.79,16.79,0,0,1,0-23.69,18.9,18.9,0,0,1,1.51-1.33h20.68a18.9,18.9,0,0,1,1.51,1.33,16.92,16.92,0,0,1,3.18,4.48l.05.11L189,7l-.08-.29a10.8,10.8,0,1,0-18,10.57,10.79,10.79,0,0,0,15.28,0l9.06-9L206.55-3.11V5.3L190.33,21.52A16.61,16.61,0,0,1,178.49,26.43Zm109.68,0a16.58,16.58,0,0,1-11.84-4.91L260.05,5.25V-3.17l20.48,20.48a10.79,10.79,0,0,0,15.28,0A10.8,10.8,0,0,0,280.53,2a11,11,0,0,0-2.75,4.71L277.7,7l-4.61-4.61,0-.11a16.86,16.86,0,0,1,3.2-4.48,18.9,18.9,0,0,1,1.51-1.33h20.67A18.9,18.9,0,0,1,300-2.17a16.77,16.77,0,0,1,0,23.69A16.63,16.63,0,0,1,288.17,26.43ZM123.83,21.52,107.55,5.25V-3.17L128,17.31a10.79,10.79,0,0,0,15.28,0A10.8,10.8,0,0,0,128,2a11,11,0,0,0-2.75,4.71L125.2,7l-4.62-4.61,0-.11a16.86,16.86,0,0,1,3.2-4.48,18.9,18.9,0,0,1,1.51-1.33H146a18.9,18.9,0,0,1,1.51,1.33,16.77,16.77,0,0,1,0,23.69,16.74,16.74,0,0,1-23.69,0Zm207.34,4.91a16.66,16.66,0,0,1-11.86-4.91,16.79,16.79,0,0,1,0-23.69,17.43,17.43,0,0,1,1.52-1.33H341.5A18.9,18.9,0,0,1,343-2.17a16.7,16.7,0,0,1,3.18,4.48l.05.11L341.63,7l-.07-.29A10.9,10.9,0,0,0,338.8,2a10.8,10.8,0,1,0-15.27,15.28,10.78,10.78,0,0,0,15.27,0l9.07-9L359.23-3.11V5.3L343,21.52A16.59,16.59,0,0,1,331.17,26.43Zm70.34,18.21V15.58H370.46V44.64a16.76,16.76,0,1,1-16.75-16.75,16.46,16.46,0,0,1,5.4.91l.12,0v6.53l-.24-.15a10.8,10.8,0,1,0,5.53,9.57l0-.24v-29h-8.13l6-5.95h2.17V-3.5h5.95V9.63h31.05V-3.5h5.95V9.63h2.19l6,5.95h-8.15V44.79A10.82,10.82,0,1,0,413,35.22l-.26.15V28.84l.12,0a16.48,16.48,0,0,1,5.41-.91,16.75,16.75,0,1,1-16.75,16.75ZM174.72,60.78a16.76,16.76,0,1,0-28.6,11.85l7.63,7.63-6.06,6.07v8.42L158,84.47,168.2,94.71V86.28l-6-6,7.64-7.63A16.69,16.69,0,0,0,174.72,60.78Zm-9.11,7.63L158,76.05l-7.64-7.64a10.8,10.8,0,1,1,18.44-7.63A10.7,10.7,0,0,1,165.61,68.41Zm51-3.89a16.76,16.76,0,1,0,28.59-11.84L237.53,45l6-6V30.6L233.33,40.83,223.06,30.55V39L229.11,45l-7.63,7.64A16.68,16.68,0,0,0,216.58,64.52Zm9.11-7.64,7.64-7.63L241,56.88a10.8,10.8,0,1,1-15.28,0Zm23.14-12.24V15.58H217.78V44.64A16.76,16.76,0,1,1,201,27.89a16.51,16.51,0,0,1,5.4.91l.12,0v6.53l-.25-.15a10.8,10.8,0,1,0,5.53,9.57V15.58h-8.13l5.95-5.95h2.18V-3.5h5.95V9.63h31.05V-3.5h5.95V9.63H257l5.95,5.95h-8.14V44.79a10.82,10.82,0,1,0,5.53-9.57l-.26.15V28.84l.11,0a16.58,16.58,0,0,1,5.42-.91,16.75,16.75,0,1,1-16.75,16.75ZM23.07,60.78A16.76,16.76,0,0,0,6.31,44,16.65,16.65,0,0,0-5.53,48.93a16.41,16.41,0,0,0-2,2.37v19a17,17,0,0,0,2,2.38L2.1,80.26-4,86.33v8.42L6.31,84.47,16.54,94.71V86.28l-6-6,7.64-7.63A16.69,16.69,0,0,0,23.07,60.78ZM14,68.41,6.31,76.05l-7.64-7.64a10.84,10.84,0,0,1,0-15.28,10.81,10.81,0,0,1,18.45,7.65A10.74,10.74,0,0,1,14,68.41Zm463.86,82.18V121.52H446.77v29.07A16.76,16.76,0,1,1,430,133.83a16.46,16.46,0,0,1,5.4.91l.13,0v6.53l-.25-.15a10.8,10.8,0,1,0,5.53,9.57V121.52h-8.13l5.95-6h2.18V83.29a10.87,10.87,0,1,0-5.55,9.59l.27-.15v6.54l-.13,0a16.52,16.52,0,0,1-5.4.92,16.76,16.76,0,1,1,16.75-16.77v32.12h31.05V83.49a16.76,16.76,0,1,1,16.75,16.73,16.58,16.58,0,0,1-5.41-.92l-.12,0V92.73l.26.15a10.8,10.8,0,1,0-5.53-9.52v32.21H486l6,6h-8.15v29.21a10.79,10.79,0,1,0,5.53-9.57l-.26.15v-6.53l.12,0a16.32,16.32,0,0,1,5.41-.92,16.76,16.76,0,1,1-16.75,16.76Zm-151.65,0V121.52H295.12v29.07a16.76,16.76,0,1,1-16.75-16.76,16.46,16.46,0,0,1,5.4.91l.12,0v6.53l-.25-.15a10.8,10.8,0,1,0,5.54,9.57l0-.24v-29H281l6-6h2.18l0-32.28a10.87,10.87,0,1,0-5.55,9.59l.26-.15v6.54l-.12,0a16.52,16.52,0,0,1-5.4.92,16.76,16.76,0,1,1,16.75-16.77v32.12h31.05V83.49a16.76,16.76,0,1,1,16.75,16.73,16.49,16.49,0,0,1-5.41-.92l-.12,0V92.73l.26.15a10.8,10.8,0,1,0-5.53-9.52v32.21h2.19l6,6h-8.15v29.21a10.79,10.79,0,1,0,5.53-9.57l-.26.15v-6.53l.12,0a16.23,16.23,0,0,1,5.41-.92,16.76,16.76,0,1,1-16.75,16.76Zm229.26,14.77a16.76,16.76,0,1,0-28.59,11.85l7.63,7.64-6.06,6.06v8.42l10.27-10.27,10.23,10.23v-8.43l-6-6,7.64-7.64A16.65,16.65,0,0,0,555.43,165.36Zm-9.1,7.64-7.65,7.64L531,173a10.81,10.81,0,1,1,15.29,0Zm-143.57-7.64a16.76,16.76,0,1,0-28.59,11.85l7.63,7.64-6.06,6.06v8.42L386,189.06l10.23,10.23v-8.43l-6-6,7.65-7.64A16.65,16.65,0,0,0,402.76,165.36Zm-9.1,7.64L386,180.64,378.37,173a10.8,10.8,0,1,1,15.29,0Zm236.86-22.41V121.52h-31v29s0,.06,0,.09a16.76,16.76,0,1,1-16.76-16.76,16.46,16.46,0,0,1,5.4.91l.13,0v6.53l-.25-.15a10.8,10.8,0,1,0,5.53,9.57V121.52h-8.13l6-6h2.18V83.29A10.86,10.86,0,1,0,588,92.88l.26-.15v6.54l-.13,0a16.47,16.47,0,0,1-5.4.92,16.76,16.76,0,1,1,16.76-16.77s0,.06,0,.09v32h31V83.49a16.76,16.76,0,1,1,16.76,16.73,16.59,16.59,0,0,1-5.42-.92l-.12,0V92.73l.26.15a10.8,10.8,0,1,0-5.53-9.52v32.21h2.19l6,6h-8.15v29.21a10.79,10.79,0,1,0,5.53-9.57l-.26.15v-6.53l.12,0a16.33,16.33,0,0,1,5.42-.92,16.76,16.76,0,1,1-16.76,16.76ZM735.58-3.5h20.67a17.43,17.43,0,0,1,1.52,1.33,16.79,16.79,0,0,1,0,23.69,16.66,16.66,0,0,1-11.86,4.91,16.55,16.55,0,0,1-11.83-4.91L717.79,5.25V-3.17l20.48,20.48a10.79,10.79,0,0,0,15.28,0A10.8,10.8,0,0,0,738.27,2a11,11,0,0,0-2.75,4.71l-.07.29-4.62-4.61,0-.11a16.89,16.89,0,0,1,3.21-4.48A17.17,17.17,0,0,1,735.58-3.5ZM707.82,165.36a16.76,16.76,0,1,0-28.59,11.85l7.63,7.64-6.06,6.06v8.42l10.27-10.27,10.23,10.23v-8.43l-6-6,7.64-7.64A16.65,16.65,0,0,0,707.82,165.36Zm-9.1,7.64-7.65,7.64L683.43,173a10.81,10.81,0,1,1,15.29,0Zm82-103.08V51.63a16.76,16.76,0,0,0-14-7.61,16.76,16.76,0,0,0-11.85,28.61l7.63,7.63-6.06,6.07v8.42l10.28-10.28,10.23,10.24V86.28l-6-6,7.64-7.63A17,17,0,0,0,780.71,69.92Zm-6.39-1.51-7.64,7.64L759,68.41a10.8,10.8,0,1,1,18.44-7.63A10.7,10.7,0,0,1,774.32,68.41ZM704.19,108a10.81,10.81,0,0,0,7.65,18.44,10.63,10.63,0,0,0,7.63-3.17l9.06-9,11.37-11.36v8.4l-16.22,16.23a16.75,16.75,0,0,1-23.7,0,16.74,16.74,0,0,1,11.86-28.59,16.63,16.63,0,0,1,11.84,4.89,17.08,17.08,0,0,1,3.18,4.48l0,.11L722.3,113l-.08-.28a10.81,10.81,0,0,0-18-4.71ZM97.58,165.36A16.76,16.76,0,1,0,69,177.21l7.63,7.64-6.06,6.06v8.42l10.28-10.27,10.23,10.23v-8.43l-6-6,7.64-7.64A16.66,16.66,0,0,0,97.58,165.36ZM88.47,173l-7.64,7.64L73.19,173a10.8,10.8,0,1,1,15.28,0ZM625.89-3.5h20.67a17.3,17.3,0,0,1,1.51,1.33,16.48,16.48,0,0,1,3.18,4.48l0,.11L646.69,7l-.07-.29A10.9,10.9,0,0,0,643.86,2a10.8,10.8,0,0,0-15.27,15.28,10.78,10.78,0,0,0,15.27,0l9.07-9L664.29-3.11V5.3L648.07,21.52a16.74,16.74,0,0,1-23.69,0,16.77,16.77,0,0,1,0-23.69A16,16,0,0,1,625.89-3.5Zm5.89,64.28a16.76,16.76,0,1,0-28.6,11.85l7.63,7.63-6.06,6.07v8.42L615,84.47l10.24,10.24V86.28l-6-6,7.64-7.63A16.69,16.69,0,0,0,631.78,60.78Zm-9.11,7.63L615,76.05l-7.64-7.64a10.81,10.81,0,1,1,18.45-7.63A10.7,10.7,0,0,1,622.67,68.41Zm-181.82-42A16.55,16.55,0,0,1,429,21.52L412.73,5.25V-3.17l20.48,20.48a10.79,10.79,0,0,0,15.28,0A10.8,10.8,0,0,0,433.21,2a11,11,0,0,0-2.75,4.71l-.07.29-4.62-4.61,0-.11A16.89,16.89,0,0,1,429-2.17a17.17,17.17,0,0,1,1.5-1.33h20.67a16,16,0,0,1,1.51,1.33,16.77,16.77,0,0,1,0,23.69A16.62,16.62,0,0,1,440.85,26.43Zm81.08,38.09a16.76,16.76,0,1,0,28.6-11.84L542.89,45l6-6V30.6L538.68,40.83,528.41,30.55V39L534.47,45l-7.63,7.64A16.69,16.69,0,0,0,521.93,64.52ZM531,56.88l7.64-7.63,7.65,7.63a10.81,10.81,0,1,1-15.29,0ZM173.46,150.59V121.52H142.41v29s0,.06,0,.09a16.76,16.76,0,1,1-16.75-16.76,16.51,16.51,0,0,1,5.4.91l.12,0v6.53l-.25-.15a10.8,10.8,0,1,0,5.53,9.57V121.52h-8.13l5.95-6h2.18V83.29a10.86,10.86,0,1,0-5.54,9.59l.26-.15v6.54l-.12,0a16.56,16.56,0,0,1-5.4.92,16.76,16.76,0,1,1,16.75-16.77s0,.06,0,.09v32h31.05V83.49a16.76,16.76,0,1,1,16.76,16.73,16.59,16.59,0,0,1-5.42-.92l-.11,0V92.73l.26.15a10.8,10.8,0,1,0-5.53-9.52v32.21h2.19l5.95,6h-8.14v29.21a10.79,10.79,0,1,0,5.53-9.57l-.26.15v-6.53l.11,0a16.33,16.33,0,0,1,5.42-.92,16.76,16.76,0,1,1-16.76,16.76ZM68.8,123.25A10.8,10.8,0,0,0,53.52,108a10.94,10.94,0,0,0-2.76,4.71l-.07.28-4.62-4.61,0-.11a17.29,17.29,0,0,1,3.21-4.48,16.79,16.79,0,0,1,23.69,0,16.76,16.76,0,0,1-11.86,28.61,16.55,16.55,0,0,1-11.83-4.91L33,111.19v-8.41l20.49,20.47a10.79,10.79,0,0,0,15.28,0Zm181.28,42.11a16.76,16.76,0,1,0-28.6,11.85l7.63,7.64-6.05,6.06v8.42l10.27-10.27,10.23,10.23v-8.43l-6-6,7.64-7.64A16.66,16.66,0,0,0,250.08,165.36ZM241,173l-7.64,7.64L225.69,173A10.8,10.8,0,1,1,241,173ZM554.18,44.64V15.58h-31V44.64a16.76,16.76,0,1,1-16.75-16.75,16.46,16.46,0,0,1,5.4.91l.12,0v6.53l-.24-.15a10.8,10.8,0,1,0,5.53,9.57V15.58h-8.13L515,9.63h2.18V-3.5h6V9.63h31V-3.5h6V9.63h2.19l6,5.95h-8.15V44.79a10.82,10.82,0,1,0,5.53-9.57l-.26.15V28.84l.12,0a16.52,16.52,0,0,1,5.41-.91,16.75,16.75,0,1,1-16.75,16.75ZM248.83,213.94V188.07a16.78,16.78,0,1,1,11.33,15.82l-.11,0v-6.53l.26.14a10.68,10.68,0,0,0,5.27,1.4A10.81,10.81,0,1,0,254.78,188v26ZM184.27,188a16.76,16.76,0,0,1,33.51,0v25.9h-6V187.87a10.81,10.81,0,1,0-10.8,11,10.7,10.7,0,0,0,5.26-1.4l.26-.14v6.53l-.12,0A16.72,16.72,0,0,1,184.27,188Zm217.24,25.9V188.07a16.79,16.79,0,1,1,11.34,15.82l-.12,0v-6.53l.26.14a10.71,10.71,0,0,0,5.27,1.4A10.81,10.81,0,1,0,407.46,188v26ZM337,188a16.76,16.76,0,0,1,33.51,0v25.9h-5.95V187.87a10.81,10.81,0,1,0-10.81,11,10.7,10.7,0,0,0,5.26-1.4l.26-.14v6.53l-.12,0A16.72,16.72,0,0,1,337,188Zm75.78,25.9v-6.58l6.58,6.58Zm14,0-1-1,0-.11a16.89,16.89,0,0,1,3.21-4.48,16.74,16.74,0,0,1,27.37,5.58h-6.75a10.61,10.61,0,0,0-8.79-4.53,10.79,10.79,0,0,0-7.64,3.15,11.35,11.35,0,0,0-1.13,1.38Zm78.62,0,6.52-6.52v6.52Zm-37.08,0a16.72,16.72,0,0,1,30.56-1.1l.05.11-1,1h-5.31a10.57,10.57,0,0,0-1.14-1.38,10.83,10.83,0,0,0-15.27,0,10.65,10.65,0,0,0-1.15,1.38Zm10.78-43.48a16.67,16.67,0,0,0-4.91-11.84L466.53,151l6-6v-8.41l-10.23,10.22-10.27-10.28v8.42l6.06,6.07-7.63,7.64a16.75,16.75,0,1,0,28.6,11.84ZM470,178.1a10.81,10.81,0,0,1-15.29-15.28l7.64-7.62,7.65,7.62a10.82,10.82,0,0,1,0,15.28ZM315.63,213.94a16.72,16.72,0,0,1,30.56-1.1l.05.11-1,1h-5.31a11.44,11.44,0,0,0-1.14-1.38,10.83,10.83,0,0,0-15.27,0,10.65,10.65,0,0,0-1.15,1.38Zm37.08,0,6.52-6.52v6.52Zm-152.68,0,6.52-6.52v6.52Zm-37.08,0a16.76,16.76,0,0,1,27.38-5.58,16.92,16.92,0,0,1,3.18,4.48l.05.11-1,1h-5.31a12.46,12.46,0,0,0-1.14-1.38,10.84,10.84,0,0,0-15.28,0,11.53,11.53,0,0,0-1.15,1.38Zm164.48-43.48a16.68,16.68,0,0,0-4.92-11.84L314.87,151l6-6v-8.41l-10.23,10.22L300.4,136.49v8.42l6.06,6.07-7.64,7.64a16.75,16.75,0,1,0,28.61,11.84Zm-9.12,7.64A10.8,10.8,0,1,1,303,162.82l7.64-7.62,7.64,7.62a10.82,10.82,0,0,1,0,15.28Zm-58.26,35.84v-6.58l6.58,6.58Zm14,0-1-1,0-.11a16.86,16.86,0,0,1,3.2-4.48,16.75,16.75,0,0,1,27.38,5.58H297a10.65,10.65,0,0,0-1.15-1.38,10.84,10.84,0,0,0-15.28,0,12.46,12.46,0,0,0-1.14,1.38Zm506.63-52.62a17.49,17.49,0,0,0-2.19-2.7L770.88,151l6-6v-8.41l-10.23,10.22L756.4,136.49v8.42l6.06,6.07-7.63,7.64a16.75,16.75,0,1,0,23.69,23.69,17,17,0,0,0,2.19-2.7Zm-6.39,16.78A10.8,10.8,0,0,1,759,162.82l7.64-7.62,7.64,7.62a10.82,10.82,0,0,1,0,15.28Zm-67.75,35.84V188.07a16.79,16.79,0,1,1,11.34,15.82l-.12,0v-6.53l.26.14a10.71,10.71,0,0,0,5.27,1.4A10.81,10.81,0,1,0,712.52,188v26ZM642,188a16.76,16.76,0,0,1,33.51,0v25.9h-5.95V187.87a10.81,10.81,0,1,0-10.81,11,10.7,10.7,0,0,0,5.26-1.4l.26-.14v6.53l-.12,0A16.72,16.72,0,0,1,642,188Zm75.78,25.9v-6.58l6.58,6.58Zm14,0-1-1,0-.11a16.89,16.89,0,0,1,3.21-4.48,16.73,16.73,0,0,1,27.37,5.58H754.7a9.9,9.9,0,0,0-1.15-1.38,10.84,10.84,0,0,0-15.28,0,11.35,11.35,0,0,0-1.13,1.38ZM174.73,170.46a16.68,16.68,0,0,0-4.92-11.84L162.17,151l6-6v-8.41L158,146.77l-10.28-10.28v8.42l6.06,6.07-7.63,7.64a16.75,16.75,0,1,0,28.61,11.84Zm-9.12,7.64a10.8,10.8,0,0,1-15.28-15.28L158,155.2l7.64,7.62a10.82,10.82,0,0,1,0,15.28ZM483.84,26.43A16.62,16.62,0,0,1,472,21.52a16.77,16.77,0,0,1,0-23.69A16,16,0,0,1,473.5-3.5h20.67a17.3,17.3,0,0,1,1.51,1.33,16.48,16.48,0,0,1,3.18,4.48l.05.11L494.3,7l-.07-.29A10.9,10.9,0,0,0,491.47,2,10.8,10.8,0,0,0,476.2,17.31a10.78,10.78,0,0,0,15.27,0l9.07-9L511.9-3.11V5.3L495.68,21.52A16.59,16.59,0,0,1,483.84,26.43ZM751.13,150.5v.09a16.76,16.76,0,1,1-16.75-16.76,16.51,16.51,0,0,1,5.4.91l.12,0v6.53l-.25-.15a10.8,10.8,0,1,0,5.53,9.57V121.52H737l6-6h2.18V83.29a10.86,10.86,0,1,0-5.54,9.59l.26-.15v6.54l-.12,0a16.56,16.56,0,0,1-5.4.92,16.76,16.76,0,1,1,16.75-16.77v32.12h29.58v6H751.13Zm-119.34,20a16.68,16.68,0,0,0-4.92-11.84L619.23,151l6-6v-8.41L615,146.77l-10.27-10.28v8.42l6.06,6.07-7.63,7.64a16.75,16.75,0,1,0,28.61,11.84Zm-9.12,7.64a10.81,10.81,0,0,1-15.29-15.28L615,155.2l7.65,7.62a10.82,10.82,0,0,1,0,15.28Zm-43.24,35.84-1-1,0-.11a16.89,16.89,0,0,1,3.21-4.48,16.73,16.73,0,0,1,27.37,5.58h-6.75a9.9,9.9,0,0,0-1.15-1.38,10.84,10.84,0,0,0-15.28,0,11.35,11.35,0,0,0-1.13,1.38Zm-14,0v-6.58l6.58,6.58Zm92.37,0,6.52-6.52v6.52Zm-37.08,0a16.72,16.72,0,0,1,30.56-1.1l0,.11-1,1H645a10.57,10.57,0,0,0-1.14-1.38,10.83,10.83,0,0,0-15.27,0,10.65,10.65,0,0,0-1.15,1.38Zm-66.51,0V188.07a16.79,16.79,0,1,1,11.34,15.82l-.12,0v-6.53l.26.14a10.71,10.71,0,0,0,5.27,1.4A10.81,10.81,0,1,0,560.13,188v26ZM489.62,188a16.76,16.76,0,0,1,33.51,0v25.9h-6V187.87a10.81,10.81,0,1,0-10.81,11,10.7,10.7,0,0,0,5.26-1.4l.26-.14v6.53l-.12,0A16.72,16.72,0,0,1,489.62,188ZM255.83,132.38a16.75,16.75,0,1,1,11.84-28.61,16.86,16.86,0,0,1,3.18,4.48l0,.11L266.29,113l-.08-.28a10.79,10.79,0,1,0-18,10.56,10.78,10.78,0,0,0,15.27,0l9.07-9,11.36-11.36v8.4l-16.22,16.23A16.61,16.61,0,0,1,255.83,132.38Zm261.33,0a16.55,16.55,0,0,1-11.83-4.91L489,111.19v-8.41l20.48,20.47a10.79,10.79,0,1,0,0-15.27,10.92,10.92,0,0,0-2.75,4.71l-.07.28-4.62-4.61,0-.11a17.06,17.06,0,0,1,3.21-4.48,16.79,16.79,0,0,1,23.69,0,16.76,16.76,0,0,1-11.86,28.61Zm-109.68,0a16.63,16.63,0,0,1-11.85-4.91,16.74,16.74,0,0,1,11.85-28.59,16.61,16.61,0,0,1,11.84,4.89,16.89,16.89,0,0,1,3.19,4.48l0,.11L417.94,113l-.07-.28a10.84,10.84,0,0,0-2.76-4.71,10.81,10.81,0,1,0,0,15.27l9.07-9,11.37-11.36v8.4l-16.23,16.23A16.59,16.59,0,0,1,407.48,132.38Zm-42,0a16.59,16.59,0,0,1-11.84-4.91l-16.28-16.28v-8.41l20.48,20.47a10.79,10.79,0,0,0,15.28,0,10.8,10.8,0,1,0-18-10.56L355,113l-4.61-4.61,0-.11a17,17,0,0,1,3.2-4.48,16.79,16.79,0,0,1,23.69,0,16.78,16.78,0,0,1,0,23.7A16.62,16.62,0,0,1,365.51,132.38Zm-262.38,0A16.75,16.75,0,1,1,115,103.77a17.08,17.08,0,0,1,3.18,4.48l0,.11L113.59,113l-.08-.28a10.8,10.8,0,1,0-18,10.56,10.79,10.79,0,0,0,15.28,0l9.06-9,11.37-11.36v8.4L115,127.47A16.61,16.61,0,0,1,103.13,132.38Zm109.68,0A16.56,16.56,0,0,1,201,127.47l-16.28-16.28v-8.41l20.48,20.47a10.79,10.79,0,0,0,15.28,0,10.8,10.8,0,1,0-18-10.56l-.08.28-4.61-4.61,0-.11a17,17,0,0,1,3.2-4.48,16.79,16.79,0,0,1,23.69,0,16.76,16.76,0,0,1-11.85,28.61ZM26,26.43a16.66,16.66,0,0,1-11.86-4.91,16.79,16.79,0,0,1,0-23.69A18.9,18.9,0,0,1,15.64-3.5H36.32a18.9,18.9,0,0,1,1.51,1.33A16.92,16.92,0,0,1,41,2.31l.05.11L36.45,7l-.08-.29A11,11,0,0,0,33.62,2,10.8,10.8,0,1,0,26,20.48a10.69,10.69,0,0,0,7.63-3.17l9.06-9L54.05-3.11V5.3L37.83,21.52A16.61,16.61,0,0,1,26,26.43Zm567.53,0a16.55,16.55,0,0,1-11.83-4.91L565.4,5.25V-3.17l20.48,20.48a10.79,10.79,0,0,0,15.28,0A10.8,10.8,0,0,0,585.88,2a11,11,0,0,0-2.75,4.71l-.07.29-4.62-4.61,0-.11a16.89,16.89,0,0,1,3.21-4.48,17.17,17.17,0,0,1,1.5-1.33h20.67a17.43,17.43,0,0,1,1.52,1.33,16.79,16.79,0,0,1,0,23.69A16.66,16.66,0,0,1,593.52,26.43ZM64.08,64.52A16.76,16.76,0,1,0,92.67,52.68L85,45l6-6V30.6L80.83,40.83,70.55,30.55V39L76.61,45,69,52.68A16.68,16.68,0,0,0,64.08,64.52Zm9.11-7.64,7.64-7.63,7.64,7.63a10.8,10.8,0,1,1-15.28,0ZM31.77,44.64A16.78,16.78,0,0,1,48.53,27.89a16.4,16.4,0,0,1,5.39.91l.13,0v6.53l-.25-.15a10.8,10.8,0,1,0,5.53,9.57V15.58H51.19l6-5.95h2.18V-3.5h5.94V9.63H96.32V-3.5h6V9.63h2.19l6,5.95h-8.14V44.79a10.82,10.82,0,1,0,5.53-9.57l-.26.15V28.84l.11,0a16.58,16.58,0,0,1,5.42-.91A16.75,16.75,0,1,1,96.32,44.64V15.58h-31v29s0,0,0,.08a16.76,16.76,0,0,1-33.51,0ZM723.32,61.39a16.77,16.77,0,0,1-16.75-16.75V15.58H675.52V44.64a16.76,16.76,0,1,1-16.75-16.75,16.46,16.46,0,0,1,5.4.91l.12,0v6.53l-.24-.15a10.8,10.8,0,1,0,5.53,9.57V15.58h-8.13l5.95-5.95h2.18V-3.5h5.95V9.63h31.05V-3.5h5.95V9.63h2.19l6,5.95h-8.15V44.79a10.82,10.82,0,1,0,5.53-9.57l-.26.15V28.84l.12,0a16.52,16.52,0,0,1,5.41-.91,16.75,16.75,0,1,1,0,33.5Zm-163.14,71A16.75,16.75,0,1,1,572,103.77a16.89,16.89,0,0,1,3.19,4.48l0,.11L570.65,113l-.08-.28a10.84,10.84,0,0,0-2.76-4.71,10.81,10.81,0,1,0,0,15.27l9.07-9,11.37-11.36v8.4L572,127.47A16.59,16.59,0,0,1,560.18,132.38Zm-542,26.24L10.52,151l6-6v-8.41L6.31,146.77-4,136.49v8.42L2.1,151l-7.63,7.64a16.57,16.57,0,0,0-2,2.39v18.91a16.57,16.57,0,0,0,2,2.39,16.65,16.65,0,0,0,11.84,4.91,16.74,16.74,0,0,0,11.85-28.6ZM14,178.1A10.81,10.81,0,0,1-1.33,162.82l7.64-7.62L14,162.82a10.82,10.82,0,0,1,0,15.28Zm41.36-27.51a16.76,16.76,0,0,1-33.51,0V121.52H-7.5v-6H21.81V83.49a16.76,16.76,0,1,1,16.75,16.73,16.58,16.58,0,0,1-5.41-.92l-.12,0V92.73l.26.15a10.8,10.8,0,1,0-5.53-9.52v32.21H30l6,6H27.76v29.21a10.79,10.79,0,1,0,5.53-9.57l-.26.15v-6.53l.12,0a16.32,16.32,0,0,1,5.41-.92A16.79,16.79,0,0,1,55.32,150.59Zm41,63.35V188.07a16.79,16.79,0,1,1,11.34,15.82l-.11,0v-6.53l.26.14a10.68,10.68,0,0,0,5.27,1.4A10.81,10.81,0,1,0,102.28,188v26ZM31.77,188a16.76,16.76,0,0,1,33.51,0s0,.06,0,.08v25.82H59.32V187.87a10.81,10.81,0,1,0-10.8,11,10.7,10.7,0,0,0,5.26-1.4l.26-.14v6.53l-.13,0A16.71,16.71,0,0,1,31.77,188Zm15.76,25.9,6.52-6.52v6.52Zm-37.08,0a16.76,16.76,0,0,1,27.38-5.58A16.92,16.92,0,0,1,41,212.84l.05.11-1,1H34.76a12.46,12.46,0,0,0-1.14-1.38,10.84,10.84,0,0,0-15.28,0,11.53,11.53,0,0,0-1.15,1.38ZM674.32,64.52a16.76,16.76,0,1,0,28.6-11.84L695.28,45l6-6V30.6L691.07,40.83,680.8,30.55V39L686.86,45l-7.63,7.64A16.69,16.69,0,0,0,674.32,64.52Zm9.11-7.64,7.64-7.63,7.65,7.63a10.81,10.81,0,1,1-15.29,0Zm-13.57,75.5A16.55,16.55,0,0,1,658,127.47l-16.29-16.28v-8.41l20.49,20.47a10.79,10.79,0,0,0,15.28,0,10.8,10.8,0,1,0-18-10.56l-.08.28-4.62-4.61,0-.11a17.29,17.29,0,0,1,3.21-4.48,16.79,16.79,0,0,1,23.69,0,16.76,16.76,0,0,1-11.86,28.61ZM121.58,213.94l-1-1,0-.11a16.86,16.86,0,0,1,3.2-4.48,16.77,16.77,0,0,1,23.69,0,16.76,16.76,0,0,1,3.69,5.58h-6.75a10.65,10.65,0,0,0-1.15-1.38,10.84,10.84,0,0,0-15.28,0,12.46,12.46,0,0,0-1.14,1.38Zm-14,0v-6.58l6.58,6.58Z" transform="translate(8.5 5.58)" style="fill:none;stroke-miterlimit:10;stroke-width:2px;stroke:url(#Degradado_sin_nombre_89)"/></g><line x1="779" y1="217.08" x2="9" y2="217.08" style="fill:none;stroke-miterlimit:10;stroke-width:10px;stroke:url(#Degradado_sin_nombre_2)"/></g></g></svg>