<?xml version="1.0" encoding="UTF-8" standalone="no"?>
<svg
   viewBox="-42 0 512 512.001"
   version="1.1"
   id="svg6"
   sodipodi:docname="grey_user.svg"
   inkscape:version="1.1.1 (3bf5ae0d25, 2021-09-20)"
   xmlns:inkscape="http://www.inkscape.org/namespaces/inkscape"
   xmlns:sodipodi="http://sodipodi.sourceforge.net/DTD/sodipodi-0.dtd"
   xmlns="http://www.w3.org/2000/svg"
   xmlns:svg="http://www.w3.org/2000/svg">
  <defs
     id="defs10" />
  <sodipodi:namedview
     id="namedview8"
     pagecolor="#ffffff"
     bordercolor="#666666"
     borderopacity="1.0"
     inkscape:pageshadow="2"
     inkscape:pageopacity="0.0"
     inkscape:pagecheckerboard="0"
     showgrid="false"
     inkscape:zoom="1.4142136"
     inkscape:cx="76.013979"
     inkscape:cy="192.6866"
     inkscape:window-width="1920"
     inkscape:window-height="1001"
     inkscape:window-x="-9"
     inkscape:window-y="41"
     inkscape:window-maximized="1"
     inkscape:current-layer="svg6" />
  <path
     d="m210.351562 246.632812c33.882813 0 63.21875-12.152343 87.195313-36.128906 23.96875-23.972656 36.125-53.304687 36.125-87.191406 0-33.875-12.152344-63.210938-36.128906-87.191406-23.976563-23.96875-53.3125-36.121094-87.191407-36.121094-33.886718 0-63.21875 12.152344-87.191406 36.125s-36.128906 53.308594-36.128906 87.1875c0 33.886719 12.15625 63.222656 36.128906 87.195312 23.980469 23.96875 53.316406 36.125 87.191406 36.125zm-65.972656-189.292968c18.394532-18.394532 39.972656-27.335938 65.972656-27.335938 25.996094 0 47.578126 8.941406 65.976563 27.335938 18.394531 18.398437 27.339844 39.980468 27.339844 65.972656 0 26-8.945313 47.578125-27.339844 65.976562-18.398437 18.398438-39.980469 27.339844-65.976563 27.339844-25.992187 0-47.570312-8.945312-65.972656-27.339844-18.398437-18.394531-27.34375-39.976562-27.34375-65.976562 0-25.992188 8.945313-47.574219 27.34375-65.972656zm0 0"
     id="path2"
     style="fill:#cccccc" />
  <path
     d="m426.128906 393.703125c-.691406-9.976563-2.089844-20.859375-4.148437-32.351563-2.078125-11.578124-4.753907-22.523437-7.957031-32.527343-3.3125-10.339844-7.808594-20.550781-13.375-30.335938-5.769532-10.15625-12.550782-19-20.160157-26.277343-7.957031-7.613282-17.699219-13.734376-28.964843-18.199219-11.226563-4.441407-23.667969-6.691407-36.976563-6.691407-5.226563 0-10.28125 2.144532-20.042969 8.5-6.007812 3.917969-13.035156 8.449219-20.878906 13.460938-6.707031 4.273438-15.792969 8.277344-27.015625 11.902344-10.949219 3.542968-22.066406 5.339844-33.042969 5.339844-10.96875 0-22.085937-1.796876-33.042968-5.339844-11.210938-3.621094-20.300782-7.625-26.996094-11.898438-7.769532-4.964844-14.800782-9.496094-20.898438-13.46875-9.753906-6.355468-14.808594-8.5-20.035156-8.5-13.3125 0-25.75 2.253906-36.972656 6.699219-11.257813 4.457031-21.003906 10.578125-28.96875 18.199219-7.609375 7.28125-14.390625 16.121094-20.15625 26.273437-5.558594 9.785157-10.058594 19.992188-13.371094 30.339844-3.199219 10.003906-5.875 20.945313-7.953125 32.523437-2.0625 11.476563-3.457031 22.363282-4.148437 32.363282-.679688 9.777344-1.023438 19.953125-1.023438 30.234375 0 26.726562 8.496094 48.363281 25.25 64.320312 16.546875 15.746094 38.4375 23.730469 65.066406 23.730469h246.53125c26.621094 0 48.511719-7.984375 65.0625-23.730469 16.757813-15.945312 25.253906-37.589843 25.253906-64.324219-.003906-10.316406-.351562-20.492187-1.035156-30.242187zm-44.90625 72.828125c-10.933594 10.40625-25.449218 15.464844-44.378906 15.464844h-246.527344c-18.933594 0-33.449218-5.058594-44.378906-15.460938-10.722656-10.207031-15.933594-24.140625-15.933594-42.585937 0-9.59375.316406-19.066407.949219-28.160157.617187-8.921874 1.878906-18.722656 3.75-29.136718 1.847656-10.285156 4.199219-19.9375 6.996094-28.675782 2.683593-8.378906 6.34375-16.675781 10.882812-24.667968 4.332031-7.617188 9.316407-14.152344 14.816407-19.417969 5.144531-4.925781 11.628906-8.957031 19.269531-11.980469 7.066406-2.796875 15.007812-4.328125 23.628906-4.558594 1.050781.558594 2.921875 1.625 5.953125 3.601563 6.167969 4.019531 13.277344 8.605469 21.136719 13.625 8.859375 5.648437 20.273437 10.75 33.910156 15.152344 13.941406 4.507812 28.160156 6.796875 42.273437 6.796875 14.113282 0 28.335938-2.289063 42.269532-6.792969 13.648437-4.410156 25.058594-9.507813 33.929687-15.164063 8.042969-5.140624 14.953125-9.59375 21.121094-13.617187 3.03125-1.972656 4.902344-3.042969 5.953125-3.601563 8.625.230469 16.566406 1.761719 23.636719 4.558594 7.636719 3.023438 14.121093 7.058594 19.265625 11.980469 5.5 5.261719 10.484375 11.796875 14.816406 19.421875 4.542969 7.988281 8.207031 16.289062 10.886719 24.660156 2.800781 8.75 5.15625 18.398438 7 28.675782 1.867187 10.433593 3.132812 20.238281 3.75 29.144531v.007812c.636719 9.058594.957031 18.527344.960937 28.148438-.003906 18.449219-5.214844 32.378906-15.9375 42.582031zm0 0"
     id="path4"
     style="fill:#cccccc" />
  <path
     style="fill:#cccccc"
     d="m 234.02015,244.88531 c -16.5605,-2.4116 -33.47426,-8.84464 -48.04389,-18.2732 -12.0265,-7.7828 -30.99363,-27.00769 -38.25728,-38.77718 -25.8608,-41.90299 -23.9016,-96.850916 4.84562,-135.901328 22.07273,-29.983742 54.47172,-48.3611532 89.48718,-50.7590674 38.0589,-2.6063345 69.41008,8.7041024 95.86127,34.5834794 30.06866,29.418644 42.52985,68.821076 35.03627,110.785096 -7.5995,42.55717 -41.55252,80.82903 -83.2777,93.87067 -16.36662,5.11556 -38.83294,6.9207 -55.65147,4.47153 z M 277,214.07471 c 16.10629,-4.241 29.43822,-12.22028 42.17283,-25.24083 C 337.84823,169.73916 345.70396,150.44199 345.76975,123.5 345.83608,96.337912 337.48262,75.846709 318.6942,57.083176 304.12916,42.537437 289.33645,34.626727 269.78808,30.929611 261.25367,29.315528 234.91061,30.275355 227,32.488624 c -31.97701,8.946678 -58.55692,36.744752 -66.16832,69.200846 -2.67842,11.42115 -2.39583,34.82144 0.55322,45.81053 9.3646,34.89539 38.9728,62.02595 74.77485,68.51762 8.45584,1.53322 31.86882,0.41938 40.84025,-1.94291 z"
     id="path1961"
     transform="translate(-42)" />
  <path
     style="fill:#cccccc"
     d="M 121.5,510.94049 C 98.964794,508.97775 78.31153,499.28482 64.209694,484.05315 49.530478,468.19785 42.488637,447.77603 42.508779,421.11901 42.537424,383.2069 49.701955,341.6705 60.628385,316.07049 78.78162,273.53849 108.02692,250.61197 147.0609,248.3127 c 6.60659,-0.38915 11.29147,-0.1865 13.64502,0.59024 1.97126,0.65058 12.06886,6.56823 22.4391,13.15033 26.7138,16.95554 43.70717,23.25348 66.35498,24.59193 25.83565,1.52684 49.34233,-5.68394 77,-23.6201 7.975,-5.17184 17.14595,-10.73257 20.3799,-12.35718 5.71701,-2.87202 6.17408,-2.93752 16.5,-2.36465 14.146,0.78481 24.31194,3.52575 37.84193,10.20297 9.43833,4.65793 12.66602,6.91245 20.30873,14.18547 19.58823,18.64075 33.3201,46.32252 40.40966,81.46093 4.7391,23.4887 5.90435,35.69298 5.95283,62.34736 0.0417,22.93569 -0.13966,25.66058 -2.19667,33 -7.49044,26.72581 -25.81079,46.84672 -50.81656,55.81088 -17.86799,6.40538 -8.88368,6.03766 -152.87982,6.25725 -72.05,0.10987 -135.275,-0.17257 -140.5,-0.62764 z m 277.40399,-30.91593 c 21.38562,-5.46953 35.21777,-19.99625 39.27702,-41.24932 1.26937,-6.64609 1.45808,-12.21264 0.95853,-28.27524 C 437.09635,344.80236 418.66455,299.02185 388.21409,284.01247 380.30097,280.112 368.29047,277 361.15006,277 c -2.31173,0 -7.24579,2.62391 -18.16203,9.65849 -16.95693,10.92728 -30.60726,17.72092 -44.51197,22.15318 -17.48134,5.57234 -24.85404,6.69489 -43.47606,6.61957 -19.39714,-0.0784 -30.86906,-2.1728 -49,-8.94558 -13.64983,-5.09887 -20.48891,-8.69586 -38,-19.98596 l -15,-9.67111 -6.70817,0.5888 c -14.69224,1.28958 -29.68059,8.25517 -39.38581,18.30389 C 84.995642,318.40715 72.47894,361.35257 72.141517,415 c -0.121279,19.28239 0.121354,23.35192 1.696678,28.45729 2.886633,9.3551 6.440212,15.48505 12.840979,22.15079 6.873297,7.15782 14.741436,11.67628 25.022536,14.36976 7.00891,1.83622 12.69425,1.91422 143.38833,1.9671 132.34911,0.0536 136.30235,7.6e-4 143.81395,-1.92038 z"
     id="path2000"
     transform="translate(-42)" />
  <path
     style="fill:#cccccc;stroke-width:0.00390625"
     d="m 129.79259,108.91895 c 0.001,-0.008 0.0155,-0.13594 0.0317,-0.28418 0.15935,-1.45779 0.35484,-2.98592 0.57237,-4.47414 0.0171,-0.11683 0.031,-0.21395 0.031,-0.21582 0,-0.002 0.14535,-0.003 0.33051,-0.003 h 0.3305 l -0.002,0.009 c -0.003,0.0123 -0.0812,0.52025 -0.12339,0.80175 -0.19866,1.32455 -0.3712,2.61344 -0.5275,3.94051 -0.0151,0.1284 -0.0275,0.23519 -0.0275,0.2373 0,0.002 -0.10948,0.004 -0.30893,0.004 h -0.30894 z"
     id="path2039"
     transform="translate(-42)" />
  <path
     style="fill:#cccccc;stroke-width:0.00390625"
     d="m 129.44513,112.65918 c 0.001,-0.0134 0.009,-0.11318 0.018,-0.22168 0.06,-0.75899 0.14649,-1.72052 0.22846,-2.54102 0.0363,-0.36346 0.0984,-0.95551 0.10036,-0.95713 5.6e-4,-4.6e-4 0.13949,-0.002 0.30873,-0.003 l 0.30771,-0.002 -0.002,0.0122 c -0.007,0.0423 -0.0992,0.87692 -0.14835,1.34625 -0.0706,0.67385 -0.16236,1.63638 -0.2137,2.24121 l -0.0127,0.14941 h -0.29441 -0.29442 z"
     id="path2078"
     transform="translate(-42)" />
  <path
     style="fill:#cccccc;stroke-width:0.00390625"
     d="m 129.20508,116.41287 c 0,-0.0212 0.0249,-0.50164 0.0391,-0.75467 0.044,-0.78245 0.0965,-1.59834 0.14849,-2.30468 0.023,-0.31233 0.0467,-0.62531 0.049,-0.64747 l 0.002,-0.0225 h 0.29357 0.29356 l -0.0163,0.19629 c -0.0943,1.13364 -0.1843,2.42697 -0.23832,3.42578 l -0.007,0.12793 h -0.28231 -0.28231 z"
     id="path2117"
     transform="translate(-42)" />
  <path
     style="fill:#cccccc;stroke-width:0.00390625"
     d="m 129.08552,119.47559 c 0.001,-0.0457 0.005,-0.17178 0.008,-0.28028 0.0155,-0.52839 0.0354,-1.08945 0.0586,-1.64843 0.0177,-0.42511 0.0487,-1.10129 0.0509,-1.1084 0.001,-0.004 0.0612,-0.005 0.28287,-0.005 h 0.28137 v 0.0196 c 0,0.0108 -0.003,0.0666 -0.006,0.12403 -0.0237,0.42336 -0.0596,1.19617 -0.0819,1.76265 -0.0164,0.41666 -0.0411,1.13436 -0.0411,1.19423 v 0.0245 h -0.27786 -0.27786 z"
     id="path2156"
     transform="translate(-42)" />
  <path
     style="fill:#cccccc;stroke-width:0.00390625"
     d="m 129.03548,122.47949 c 0.008,-0.88762 0.0117,-1.20848 0.0212,-1.72949 0.008,-0.41116 0.022,-1.05305 0.0257,-1.13574 l 0.002,-0.0557 h 0.2769 0.2769 l -0.002,0.04 c -0.004,0.074 -0.0208,0.75935 -0.0291,1.1709 -0.01,0.49097 -0.0174,1.03736 -0.022,1.59277 l -0.003,0.32129 h -0.27458 -0.27459 z"
     id="path2195"
     transform="translate(-42)" />
  <path
     style="fill:#cccccc;stroke-width:0.00390625"
     d="m 129.05515,125.76855 c -0.002,-0.0389 -0.007,-0.33862 -0.0144,-0.96777 -0.002,-0.16865 -0.005,-0.71401 -0.006,-1.21191 l -0.002,-0.90528 h 0.27548 0.27547 l 0.002,0.93653 c 0.001,0.51509 0.004,1.06045 0.006,1.21191 0.005,0.37115 0.0114,0.72355 0.0145,0.86231 l 0.003,0.11425 h -0.27557 -0.27558 z"
     id="path2234"
     transform="translate(-42)" />
  <path
     style="fill:#cccccc;stroke-width:0.00390625"
     d="m 129.15681,129.18652 c -0.0417,-0.9632 -0.081,-2.25021 -0.0987,-3.23047 l -0.003,-0.14746 h 0.27558 0.27557 l 0.002,0.0674 c 0.001,0.0371 0.004,0.15263 0.006,0.25683 0.0188,0.88126 0.0681,2.29657 0.10543,3.02539 0.002,0.0408 0.004,0.0773 0.004,0.0811 4e-5,0.006 -0.016,0.007 -0.28257,0.007 h -0.28262 z"
     id="path2273"
     transform="translate(-42)" />
  <path
     style="fill:#cccccc;stroke-width:0.00390625"
     d="m 129.30884,132.04199 c -0.004,-0.0312 -0.0487,-0.78303 -0.0744,-1.25293 -0.0233,-0.42673 -0.0518,-1.00725 -0.0664,-1.35156 -0.003,-0.0763 -0.007,-0.14966 -0.008,-0.16309 l -0.002,-0.0244 0.14926,-4.9e-4 c 0.0821,-2.7e-4 0.20934,-0.002 0.28276,-0.003 l 0.13348,-0.002 0.002,0.0391 c 0.001,0.0215 0.008,0.14541 0.014,0.27539 0.033,0.66938 0.0803,1.47321 0.12883,2.18695 0.0107,0.15761 0.0195,0.29252 0.0195,0.29981 v 0.0132 h -0.28882 -0.28882 z"
     id="path2312"
     transform="translate(-42)" />
  <path
     style="fill:#cccccc;stroke-width:0.00390625"
     d="m 129.60178,135.7959 c -0.001,-0.007 -0.0136,-0.1419 -0.0276,-0.29981 -0.014,-0.15791 -0.0281,-0.31611 -0.0313,-0.35156 -0.0449,-0.49944 -0.11484,-1.37854 -0.1619,-2.03516 -0.029,-0.40508 -0.0704,-1.01611 -0.0704,-1.03944 0,-0.007 0.009,-0.007 0.29028,-0.008 l 0.29027,-10e-4 0.007,0.0976 c 0.0664,0.96388 0.18219,2.32747 0.29172,3.43477 0.0107,0.10807 0.0194,0.20079 0.0194,0.20605 v 0.01 h -0.30255 -0.30256 z"
     id="path2351"
     transform="translate(-42)" />
  <path
     style="fill:#cccccc;stroke-width:0.00390625"
     d="m 130.04307,139.8584 c -0.005,-0.0269 -0.0867,-0.7065 -0.12489,-1.03418 -0.10285,-0.88335 -0.20543,-1.8535 -0.28518,-2.69727 -0.014,-0.14824 -0.0266,-0.27964 -0.0279,-0.29199 l -0.002,-0.0225 h 0.30424 0.30424 l 0.0227,0.22168 c 0.12538,1.22464 0.30058,2.7124 0.44373,3.7681 0.004,0.032 0.008,0.0606 0.008,0.0635 0,0.004 -0.0522,0.005 -0.32014,0.005 h -0.32013 z"
     id="path2390"
     transform="translate(-42)" />
  <path
     style="fill:#cccccc;stroke-width:0.0441942"
     d="m 136.35516,166.04856 c -0.19359,-0.49049 -1.035,-2.92621 -1.37937,-3.99301 -2.23645,-6.92828 -3.78925,-13.81127 -4.77834,-21.18068 -0.0615,-0.45856 -0.1119,-0.87123 -0.1119,-0.91703 0,-0.073 0.0353,-0.0833 0.28526,-0.0833 h 0.28526 l 0.0248,0.14363 c 0.0137,0.079 0.0948,0.63087 0.18026,1.22639 1.13518,7.90655 3.1373,16.03025 5.78903,23.4892 0.2506,0.7049 0.4692,1.31644 0.48578,1.35897 0.0273,0.07 -0.006,0.0773 -0.35134,0.0773 -0.37506,0 -0.38228,-0.002 -0.42944,-0.12153 z"
     id="path2429"
     transform="translate(-42)" />
  <path
     style="fill:#cccccc;stroke-width:0.0441942"
     d=""
     id="path2507"
     transform="translate(-42)" />
  <path
     style="fill:#cccccc;stroke-width:0.0441942"
     d="m 182.97535,186.48836 c -4.49162,-4.91096 -8.22955,-9.91686 -11.5859,-15.51607 -4.44778,-7.41998 -7.92915,-15.651 -10.05943,-23.78359 -0.94449,-3.60569 -1.73168,-9.44419 -2.05275,-15.2249 -0.0142,-0.25522 -0.0372,-0.59828 -0.0512,-0.76235 -0.0152,-0.17767 -0.008,-0.29831 0.0167,-0.29831 0.0232,0 0.0555,0.21379 0.0718,0.47509 0.0576,0.92517 0.24167,2.83962 0.40674,4.23159 2.21939,18.7145 9.64474,34.98098 22.53328,49.36296 0.41446,0.46249 1.04193,1.1464 1.39438,1.5198 0.35245,0.37341 0.67728,0.72657 0.72184,0.78482 l 0.081,0.1059 h -0.32895 -0.32895 z"
     id="path2546"
     transform="translate(-42)" />
  <path
     style="fill:#cccccc;stroke-width:0.0441942"
     d="m 156.05598,200.40678 c -7.43412,-9.10064 -13.37457,-18.93422 -17.75894,-29.39742 -0.60862,-1.45248 -1.89172,-4.72239 -1.89172,-4.82097 0,-0.012 0.17133,-0.016 0.38073,-0.009 l 0.38073,0.0128 0.49707,1.30373 c 2.55625,6.70458 5.63667,13.04603 9.29556,19.13608 1.71211,2.84973 3.23971,5.05475 5.52636,7.97704 1.56661,2.00209 3.74918,4.61938 5.29775,6.35292 l 0.50335,0.56347 h -0.65854 -0.65855 z"
     id="path2585"
     transform="translate(-42)" />
  <path
     style="fill:#cccccc;stroke-width:0.015625"
     d="m 189.56162,229.72148 c -7.54009,-4.53753 -14.77681,-10.06263 -21.52204,-16.43169 -0.95708,-0.9037 -1.94539,-1.86417 -2.80511,-2.7261 l -0.49991,-0.50119 h 0.82827 0.82826 l 0.19508,0.19655 c 0.26256,0.26454 1.81606,1.7811 2.31227,2.25728 6.09531,5.84931 11.88454,10.66228 16.54687,13.75652 1.55794,1.03395 3.86378,2.45504 5.67969,3.50037 0.20625,0.11873 0.38887,0.22536 0.40582,0.23695 0.0261,0.0178 -0.0838,0.0211 -0.71182,0.0211 h -0.74263 z"
     id="path2661"
     transform="translate(-42)" />
  <path
     style="fill:#cccccc;stroke-width:0.0625"
     d="m 85.530566,275.99811 6.84e-4,-0.59564 0.897646,-0.93561 c 1.558672,-1.6246 4.19993,-4.07661 6.196388,-5.75242 6.385151,-5.35963 14.127386,-10.05326 22.437216,-13.60226 10.8837,-4.64826 22.05814,-7.1048 34.90625,-7.67363 2.20068,-0.0974 5.76349,-0.0812 6.68937,0.0305 2.66755,0.32172 5.23648,1.17329 8.56063,2.83776 2.87527,1.4397 5.43481,2.97103 10.875,6.50636 6.17812,4.01488 18.35279,11.84595 20.10958,12.93503 1.11918,0.6938 0.63498,0.48588 -0.87302,-0.37489 -3.70954,-2.11741 -6.95628,-4.08078 -12.14281,-7.34299 -11.96786,-7.52751 -20.75701,-12.65634 -22.64123,-13.21209 -1.69001,-0.49847 -3.98915,-0.70804 -7.73377,-0.70494 -2.45077,0.002 -4.14388,0.0611 -6.6875,0.23342 -15.03336,1.01833 -28.57759,5.09755 -40.64794,12.24223 -3.55447,2.10396 -6.93153,4.44318 -10.258025,7.1055 -2.695401,2.15724 -4.834989,4.07883 -7.610344,6.83496 l -2.078809,2.0644 z"
     id="path2700"
     transform="translate(-42)" />
  <path
     style="fill:#cccccc;stroke-width:0.0441942"
     d="m 61.392125,312.5563 c 3.401548,-7.5555 7.270764,-14.71254 11.290791,-20.88501 3.629415,-5.57272 7.978007,-11.13665 12.16498,-15.56484 l 0.623636,-0.65957 0.0221,0.59328 0.0221,0.59327 -0.176777,0.20428 c -0.09723,0.11235 -0.49625,0.54988 -0.886717,0.97227 -8.398211,9.08492 -15.902409,20.73207 -22.10754,34.31276 l -0.524373,1.14766 -0.380576,0.0127 -0.380576,0.0127 z"
     id="path2739"
     transform="translate(-42)" />
  <path
     style="fill:#cccccc;stroke-width:0.03125"
     d="m 97.203125,308.47558 v -0.44535 l 0.474134,-0.71043 c 3.187491,-4.77603 6.616171,-8.99737 10.108251,-12.44511 5.94588,-5.87037 13.72592,-10.66946 22.41761,-13.82821 0.87933,-0.31957 2.795,-0.95032 3.6875,-1.21414 3.87557,-1.1456 7.57836,-1.89314 11.39063,-2.29959 0.32656,-0.0348 2.19492,-0.20372 4.15189,-0.37534 l 3.55815,-0.31204 7.30123,4.70783 c 10.20946,6.58306 11.22362,7.23323 14.23546,9.12624 3.02304,1.90006 6.07175,3.74974 8.43296,5.11635 l 0.58593,0.33913 v 0.4627 0.4627 l -0.60156,-0.34694 c -0.80645,-0.46511 -1.99874,-1.18116 -2.77731,-1.66797 -2.18654,-1.36715 -13.46872,-8.62562 -19.62194,-12.62391 -4.54924,-2.95605 -5.7448,-3.7017 -7.5237,-4.69242 l -0.70798,-0.39429 -0.62594,0.0209 c -8.33841,0.27821 -16.11124,1.80912 -23.00762,4.53151 -3.45703,1.36469 -6.84732,3.02699 -9.82145,4.81558 -3.00788,1.80889 -5.75967,3.82289 -8.22182,6.01742 -1.50438,1.34088 -3.65007,3.51121 -5.25574,5.31612 -2.77635,3.12086 -5.595507,6.85573 -7.968609,10.55697 l -0.210076,0.32765 z"
     id="path2778"
     transform="translate(-42)" />
  <path
     style="fill:#cccccc;stroke-width:0.0220971"
     d="m 85.26161,501.24793 c -5.531929,-2.94329 -10.641734,-6.46372 -15.357476,-10.58062 -4.929015,-4.30308 -9.17458,-9.01289 -12.849087,-14.25412 -0.627141,-0.89454 -2.044349,-3.03202 -2.044349,-3.08336 0,-0.006 0.193391,-0.0102 0.429759,-0.0102 h 0.429759 l 0.138139,0.21545 c 0.267127,0.41662 1.252571,1.87819 1.597879,2.36991 4.36793,6.21994 9.630108,11.76436 15.657563,16.49736 4.254463,3.34077 8.869941,6.28144 13.831871,8.81271 l 0.673961,0.34381 -0.961223,3.3e-4 -0.961223,3.4e-4 -0.585573,-0.31156 z"
     id="path2817"
     transform="translate(-42)" />
</svg>
