<svg xmlns="http://www.w3.org/2000/svg" viewBox="0 0 207.7 207.7"><g id="Capa_2" data-name="Capa 2"><g id="Capa_1-2" data-name="Capa 1"><g style="opacity:0.15"><path d="M135.49,23.51a4.07,4.07,0,1,0,4.06,4.07v0A4.05,4.05,0,0,0,135.49,23.51Z"/><path d="M119.89,16.86A236.39,236.39,0,0,0,82.35,14.2a4.06,4.06,0,1,0,0,8.11,229,229,0,0,1,36.19,2.55,3.91,3.91,0,0,0,.68.06,4.06,4.06,0,0,0,.67-8.06Z"/><path d="M180.93,155.78a4.05,4.05,0,0,0-4.06,4.05,17,17,0,1,1-15.92-17,4.06,4.06,0,1,0,.52-8.1A25.16,25.16,0,1,0,185,159.83,4,4,0,0,0,180.93,155.78Z"/><path d="M177.63,142.06l-.06-.06-2.89,2.84,2.87-2.86a4.06,4.06,0,0,0-5.74,5.73l.06.06a4.06,4.06,0,1,0,5.76-5.71Z"/><path d="M204.63,149.21l-5.89-1.47-2.85-6.87,3.12-5.2a4,4,0,0,0-.61-4.95L189,121.26a4.05,4.05,0,0,0-5-.61l-5.2,3.13-6.87-2.85L170.45,115a4.05,4.05,0,0,0-3.93-3.08H164.7V27.58c0-8.35-8.93-15.44-25.82-20.52C123.72,2.51,103.65,0,82.35,0S41,2.51,25.82,7.06C8.93,12.14,0,19.23,0,27.58V180.12c0,8.35,8.93,15.44,25.82,20.52,15.16,4.55,35.23,7.06,56.53,7.06a254,254,0,0,0,26.26-1.33,4.06,4.06,0,1,0-.85-8.07,243,243,0,0,1-25.41,1.29c-20.53,0-39.77-2.39-54.19-6.72-14.8-4.45-20-9.65-20-12.75V141.9c4.28,3,10.21,5.64,17.71,7.89,15.16,4.56,35.23,7.07,56.53,7.07,6.22,0,12.41-.22,18.41-.65a4.06,4.06,0,1,0-.57-8.09c-5.81.41-11.81.62-17.84.62-20.53,0-39.77-2.38-54.19-6.72-14.8-4.44-20-9.64-20-12.75V91.05c4.28,3,10.21,5.64,17.71,7.9C41,103.5,61.05,106,82.35,106s41.37-2.51,56.53-7.06c7.5-2.26,13.43-4.91,17.71-7.9V112h-3.44a4.06,4.06,0,0,0-3.94,3.08l-1.47,5.89-6.87,2.85-5.19-3.13a4.05,4.05,0,0,0-5,.61l-9.46,9.46a4,4,0,0,0-.61,4.95l3.13,5.2-2.85,6.87L115,149.21a4.06,4.06,0,0,0-3.08,3.94v13.37a4.05,4.05,0,0,0,3.08,3.93l5.89,1.47,2.85,6.87-3.13,5.2a4.05,4.05,0,0,0,.61,5l9.46,9.45a4.05,4.05,0,0,0,5,.61l5.19-3.12,6.87,2.85,1.47,5.89a4.07,4.07,0,0,0,3.94,3.07h13.37a4.05,4.05,0,0,0,3.93-3.07l1.47-5.89,6.87-2.85L184,199a4.05,4.05,0,0,0,5-.61L198.4,189a4.05,4.05,0,0,0,.61-5l-3.12-5.2,2.85-6.87,5.89-1.47a4.05,4.05,0,0,0,3.07-3.93V153.15A4.07,4.07,0,0,0,204.63,149.21ZM28.16,14.83C42.58,10.5,61.82,8.11,82.35,8.11s39.78,2.39,54.2,6.72c14.79,4.45,20,9.65,20,12.75s-5.25,8.31-20,12.75c-14.42,4.33-33.67,6.72-54.2,6.72s-39.77-2.39-54.19-6.72c-14.8-4.44-20-9.65-20-12.75S13.36,19.28,28.16,14.83ZM136.55,91.18c-14.42,4.33-33.67,6.72-54.2,6.72s-39.77-2.39-54.19-6.72c-14.8-4.45-20-9.65-20-12.75V40.21c4.28,3,10.21,5.64,17.71,7.89C41,52.65,61.05,55.16,82.35,55.16s41.37-2.51,56.53-7.06c7.5-2.25,13.43-4.91,17.71-7.89V78.43C156.59,81.53,151.34,86.73,136.55,91.18Zm63,72.17-4.8,1.19a4.08,4.08,0,0,0-2.77,2.39l-4.41,10.65a4.07,4.07,0,0,0,.27,3.64l2.55,4.23-5,5-4.23-2.55a4.07,4.07,0,0,0-3.64-.27L166.93,192a4.08,4.08,0,0,0-2.39,2.77l-1.19,4.8h-7l-1.2-4.8a4.06,4.06,0,0,0-2.38-2.77l-10.65-4.41a4.07,4.07,0,0,0-3.64.27l-4.24,2.55-5-5,2.55-4.23a4.07,4.07,0,0,0,.27-3.64l-4.42-10.65a4.06,4.06,0,0,0-2.76-2.39l-4.8-1.19v-7l4.79-1.2a4,4,0,0,0,2.77-2.38l4.42-10.65a4,4,0,0,0-.28-3.64l-2.54-4.24,5-5,4.24,2.55a4.07,4.07,0,0,0,3.64.27l10.65-4.42a4,4,0,0,0,2.38-2.77l1.2-4.79h7l1.19,4.79a4.06,4.06,0,0,0,2.39,2.77l10.65,4.42a4.07,4.07,0,0,0,3.64-.27l4.23-2.55,5,5-2.55,4.24a4.07,4.07,0,0,0-.27,3.64L192,152.74a4.06,4.06,0,0,0,2.77,2.38l4.8,1.2Z"/></g></g></g></svg>