<svg xmlns="http://www.w3.org/2000/svg" viewBox="0 0 171.81 160.1">
    <defs>
        <!-- <style>
            .cls-1 {
                fill: #fff
            }
        </style> -->
    </defs>
    <g style="fill: #fff" id="Capa_2" data-name="Capa 2">
        <g id="Capa_1-2" data-name="Capa 1">
            <path class="cls-1"
                d="M96.24 148.42a14 14 0 0 1-6.73-1.72l-15.12-8.25a13.77 13.77 0 0 1-1.94-1.27 33 33 0 0 1-8.66 2.72 39.18 39.18 0 0 1-6.51.55c-7.48 0-15.16-2.12-22.81-6.29-10.76-5.87-18-13.72-21.41-23.31-3.6-10.06-2.56-20.75 3-30.94A37.68 37.68 0 0 1 32.5 64.08a53.22 53.22 0 0 1 19.11-5.48c.23-.34.55-.85.94-1.56a14.09 14.09 0 0 1 2.91-3.69 14.3 14.3 0 0 1 1.59-4.8l7-12.86a14.08 14.08 0 0 1 19.11-5.62l15.12 8.25a14.71 14.71 0 0 1 1.94 1.27 33 33 0 0 1 8.66-2.72c9.51-1.61 19.37.32 29.32 5.74 10.76 5.87 18 13.71 21.4 23.3 3.6 10 2.56 20.74-3 30.93a37.64 37.64 0 0 1-16.44 15.82 53.16 53.16 0 0 1-19.11 5.48c-.23.34-.55.85-.94 1.56a14.09 14.09 0 0 1-2.91 3.69 14.3 14.3 0 0 1-1.59 4.8l-7 12.86a14.09 14.09 0 0 1-12.37 7.37Zm-23.6-12.84.33.29a12.4 12.4 0 0 0 2.03 1.39l15.13 8.25a12.71 12.71 0 0 0 17.27-5.08l7-12.86a12.9 12.9 0 0 0 1.47-4.57v-.26l.19-.17a12.78 12.78 0 0 0 2.81-3.49 20.56 20.56 0 0 1 1.18-1.93l.15-.21.26-.06h.28a51.8 51.8 0 0 0 18.76-5.35 36.41 36.41 0 0 0 15.87-15.26c5.36-9.84 6.37-20.16 2.9-29.83C155 57.1 148 49.51 137.56 43.8c-9.67-5.27-19.24-7.15-28.44-5.6a31.82 31.82 0 0 0-8.68 2.8l-.4.2-.33-.28a13.11 13.11 0 0 0-2.06-1.4l-15.13-8.26a12.73 12.73 0 0 0-17.27 5.08l-7 12.86a12.9 12.9 0 0 0-1.47 4.57v.26l-.19.17a12.78 12.78 0 0 0-2.81 3.49 20.56 20.56 0 0 1-1.18 1.93l-.15.21-.26.06h-.28a51.85 51.85 0 0 0-18.76 5.35 36.41 36.41 0 0 0-15.91 15.31c-5.36 9.84-6.37 20.16-2.9 29.84 3.32 9.27 10.32 16.87 20.78 22.58a46.29 46.29 0 0 0 22.16 6.12 37.48 37.48 0 0 0 6.28-.52 31.82 31.82 0 0 0 8.68-2.79Z" />
            <path class="cls-1"
                d="M96.24 145.17a10.93 10.93 0 0 1-5.18-1.32l-15.12-8.25a10.73 10.73 0 0 1-3-2.36 29.43 29.43 0 0 1-9.74 3.46 36 36 0 0 1-6 .5c-6.93 0-14.08-2-21.25-5.9-10-5.47-16.74-12.73-19.91-21.55-3.28-9.15-2.31-18.94 2.79-28.29A34.48 34.48 0 0 1 34 67a49.85 49.85 0 0 1 18.2-5.16 7.56 7.56 0 0 0 1.35-.35 15 15 0 0 0 1.9-2.87A10.76 10.76 0 0 1 58.58 55a10.84 10.84 0 0 1 1.32-4.89l7-12.86a10.83 10.83 0 0 1 14.7-4.33l15.12 8.25a10.92 10.92 0 0 1 3 2.36 29.43 29.43 0 0 1 9.74-3.46c8.78-1.48 17.94.33 27.22 5.4 10 5.47 16.74 12.72 19.9 21.54 3.28 9.15 2.31 18.94-2.79 28.29a34.48 34.48 0 0 1-15.05 14.48 49.85 49.85 0 0 1-18.2 5.16 7.56 7.56 0 0 0-1.35.35 15.2 15.2 0 0 0-1.9 2.88 10.72 10.72 0 0 1-3.17 3.59 10.88 10.88 0 0 1-1.32 4.9l-7 12.85a10.83 10.83 0 0 1-9.56 5.66Zm-22-17.53 1.08 1.86a6.68 6.68 0 0 0 2.57 2.5L93 140.28a6.77 6.77 0 0 0 9.19-2.7l7-12.86a6.73 6.73 0 0 0 .8-3.85l-.12-1.33 1.16-.64a6.83 6.83 0 0 0 2.66-2.67 15.14 15.14 0 0 1 3-4.16l.12-.1.14-.09a8.75 8.75 0 0 1 3-.94h.18a45.88 45.88 0 0 0 16.81-4.75 30.5 30.5 0 0 0 13.31-12.8c4.53-8.3 5.41-16.93 2.54-25-2.82-7.86-8.88-14.37-18-19.36-8.47-4.61-16.74-6.28-24.6-5a25.34 25.34 0 0 0-9.83 3.86l-1.8 1.19-1.16-1.81a6.68 6.68 0 0 0-2.61-2.53l-15.12-8.25a6.78 6.78 0 0 0-9.19 2.7l-7 12.86a6.73 6.73 0 0 0-.8 3.85l.12 1.33-1.16.64A6.76 6.76 0 0 0 59 60.54a15.14 15.14 0 0 1-3 4.16l-.12.1-.14.09a8.66 8.66 0 0 1-3 1h-.18a45.88 45.88 0 0 0-16.81 4.75 30.5 30.5 0 0 0-13.31 12.8c-4.53 8.3-5.41 16.94-2.53 25 2.81 7.86 8.88 14.37 18 19.36a40.39 40.39 0 0 0 19.31 5.39 32.1 32.1 0 0 0 5.29-.44 25.19 25.19 0 0 0 9.83-3.86Z" />
            <rect class="cls-1" x="70.99" y="42.21" width="18.98" height="21.56" rx="2.17"
                transform="rotate(-61.39 80.48 52.993)" />
            <path class="cls-1"
                d="m77.29 112.18-14.6-8a2.17 2.17 0 0 0-2.93.84c-1.32 2.35-2.91 3.69-4.88 4.1a8.75 8.75 0 0 1-6.2-1c-2.56-1.39-4.06-3.09-4.6-5.19s-.12-4.51 1.34-7.19A13.85 13.85 0 0 1 51 90.06a28.63 28.63 0 0 1 8.66-3c6.19-1 10.58-2.23 13.43-3.85s5.84-5 8.72-10.21a2.16 2.16 0 0 0-.86-3L66 61.88a2.17 2.17 0 0 0-2.94.87 19.29 19.29 0 0 1-4.12 5.54 11.69 11.69 0 0 1-5.56 2.12h-.17a41.38 41.38 0 0 0-15.3 4.29 26 26 0 0 0-11.39 10.91c-3.94 7.22-4.69 14.36-2.24 21.22s7.78 12.43 15.9 16.86a35.74 35.74 0 0 0 17.1 4.84 27.12 27.12 0 0 0 4.52-.38c7-1.19 12.51-5.46 16.31-12.7a2.39 2.39 0 0 0 .21-.62l.07-.37a2.16 2.16 0 0 0-1.1-2.28ZM148.4 70c-2.43-6.77-7.78-12.44-15.9-16.87-7.5-4.13-14.81-5.66-21.62-4.51-7 1.19-12.51 5.46-16.31 12.7a2.34 2.34 0 0 0-.21.63l-.07.36a2.18 2.18 0 0 0 1.1 2.29l14.6 8a2.16 2.16 0 0 0 2.93-.84c1.32-2.35 2.91-3.69 4.88-4.1a8.75 8.75 0 0 1 6.2 1c2.56 1.39 4.06 3.09 4.6 5.19s.12 4.52-1.35 7.2a13.74 13.74 0 0 1-5.54 5.66 28.63 28.63 0 0 1-8.66 3c-6.19 1-10.58 2.24-13.44 3.85s-5.83 5-8.71 10.21a2.18 2.18 0 0 0 .86 3l15 8.16a2.17 2.17 0 0 0 2.94-.86 19.36 19.36 0 0 1 4.12-5.55 11.69 11.69 0 0 1 5.56-2.12h.17a41.38 41.38 0 0 0 15.3-4.29 26 26 0 0 0 11.35-10.89c3.9-7.28 4.65-14.42 2.2-21.22Z" />
            <rect class="cls-1" x="82.71" y="113" width="18.98" height="21.56" rx="2.17"
                transform="rotate(-61.39 92.197 123.783)" />
            <path class="cls-1"
                d="M124.66 0 103.6 38.09a.55.55 0 0 0 .22.74.59.59 0 0 0 .26.07.53.53 0 0 0 .47-.28L125.9 0ZM121.1 0 99 40a.53.53 0 0 0 .21.73.48.48 0 0 0 .26.07.55.55 0 0 0 .48-.28L122.34 0ZM100.7 0 83.88 30.41a.55.55 0 0 0 .21.74.66.66 0 0 0 .27.06.53.53 0 0 0 .47-.28L101.93 0ZM155.26 0l-17 30.91a.53.53 0 0 0 .22.73.48.48 0 0 0 .26.07.53.53 0 0 0 .47-.28L156.49 0ZM55.86 160.1l11.85-21.53a.54.54 0 0 0-.21-.74.55.55 0 0 0-.74.21L54.62 160.1ZM61.82 160.1l11.85-21.53a.54.54 0 0 0-.21-.74.55.55 0 0 0-.74.21L60.58 160.1ZM89.13 160.1l6.48-11.78a.54.54 0 1 0-1-.52l-6.77 12.3ZM111.47 156.68a.51.51 0 0 0 .26.07.55.55 0 0 0 .48-.28l17.37-31.55a.56.56 0 0 0-.22-.74.54.54 0 0 0-.73.22l-17.37 31.54a.54.54 0 0 0 .21.74ZM163.46 0l-23.89 43.16a1.63 1.63 0 0 0 .63 2.21 1.6 1.6 0 0 0 .79.2 1.62 1.62 0 0 0 1.42-.84L167.18 0ZM160.45 0l-23.39 42.19a.53.53 0 0 0 .21.73.48.48 0 0 0 .26.07.52.52 0 0 0 .47-.28L161.69 0ZM169 0l-25.33 45.62a.54.54 0 0 0 .21.74.58.58 0 0 0 .26.06.53.53 0 0 0 .47-.28L170.2 0ZM11.18 160.1l16.58-29.95a1.62 1.62 0 0 0-2.84-1.57L7.46 160.1ZM5.79 160.1l18.85-34a.54.54 0 1 0-.94-.53L4.56 160.1ZM14.25 160.1l16.19-29.2a.54.54 0 0 0-1-.53L13 160.1ZM171.81 6.77l-11.38 20.67a.55.55 0 0 0 .21.74.65.65 0 0 0 .26.06.55.55 0 0 0 .48-.28L171.81 9ZM39.05 62.6a.48.48 0 0 1-.26-.07.53.53 0 0 1-.21-.73L56 30.25a.54.54 0 0 1 .94.52L39.53 62.32a.55.55 0 0 1-.48.28ZM48.26 59.89a.58.58 0 0 1-.26-.06.54.54 0 0 1-.21-.74l17.37-31.55a.54.54 0 1 1 .94.53L48.74 59.61a.55.55 0 0 1-.48.28ZM1.24 160.1l9.61-17.46a.54.54 0 0 0-.95-.52L0 160.1ZM58.55 26.85a.48.48 0 0 1-.26-.07.53.53 0 0 1-.21-.73l6.25-11.25a.53.53 0 0 1 .73-.21.52.52 0 0 1 .21.73L59 26.57a.55.55 0 0 1-.45.28ZM72.4 0l-4.89 8.84a.53.53 0 0 0 .22.73.48.48 0 0 0 .26.07.53.53 0 0 0 .47-.28L73.64 0ZM80.4 0l-9.78 17.81a.54.54 0 0 0 .21.74.59.59 0 0 0 .26.07.57.57 0 0 0 .48-.28L81.63 0ZM20.63 160.1 33 137.48a.53.53 0 0 0-.21-.73.54.54 0 0 0-.74.21L19.39 160.1Z" />
        </g>
    </g>
</svg>