<svg xmlns="http://www.w3.org/2000/svg" viewBox="0 0 123.54 126.53"><g id="Capa_2" data-name="Capa 2"><g id="Capa_1-2" data-name="Capa 1"><path d="M18,52.47a1.86,1.86,0,0,0,1.86-1.86V44L24.9,51.4a2,2,0,0,0,2.28.84,2.1,2.1,0,0,0,1.42-2.07l-.12-12.11a1.85,1.85,0,0,0-1.85-1.84h0a1.85,1.85,0,0,0-1.83,1.87l.06,6.71L19.49,37a1.86,1.86,0,0,0-3.38,1.06V50.61A1.85,1.85,0,0,0,18,52.47Z"/><path d="M62.84,52.47a1.86,1.86,0,0,0,1.86-1.86V38.07a1.86,1.86,0,0,0-3.71,0V50.61A1.85,1.85,0,0,0,62.84,52.47Z"/><path d="M11.19,52.47a1.86,1.86,0,0,0,1.86-1.86V38.07a1.86,1.86,0,0,0-3.71,0V50.61A1.85,1.85,0,0,0,11.19,52.47Z"/><path d="M82.76,38.19V50.61a1.86,1.86,0,0,0,1.86,1.86h5.23a1.86,1.86,0,1,0,0-3.71H86.47V46.25h3a1.85,1.85,0,0,0,0-3.7h-3V40h3.38a1.85,1.85,0,1,0,0-3.7H84.62a1.85,1.85,0,0,0-1.86,1.85Z"/><path d="M74.52,52.47a6.93,6.93,0,0,0,4.68-1.72,6.73,6.73,0,0,0,.69-.72,1.85,1.85,0,0,0-2.84-2.38,3.34,3.34,0,0,1-.32.33,3.19,3.19,0,0,1-2.21.78A4.42,4.42,0,1,1,77,40.68a1.85,1.85,0,0,0,2.08-3.07,8.13,8.13,0,1,0-4.55,14.86Z"/><path d="M34.43,51a2.14,2.14,0,0,0,2,1.43h0a2.14,2.14,0,0,0,2-1.47l4.1-12.32a1.85,1.85,0,0,0-3.52-1.17l-2.64,7.94-2.77-8a1.85,1.85,0,1,0-3.5,1.21Z"/><path d="M50.63,52.47a8.13,8.13,0,1,0-8.12-8.13A8.14,8.14,0,0,0,50.63,52.47Zm0-12.54a4.42,4.42,0,1,1-4.41,4.41A4.42,4.42,0,0,1,50.63,39.93Z"/><path d="M93.45,57.31H27A1.85,1.85,0,1,0,27,61H93.45a1.85,1.85,0,1,0,0-3.7Z"/><path d="M21.45,59.16a1.85,1.85,0,0,0-1.86-1.85h-12a1.85,1.85,0,0,0,0,3.7h12A1.85,1.85,0,0,0,21.45,59.16Z"/><path d="M60.35,67.56H21.05a1.86,1.86,0,0,0,0,3.71h39.3a1.86,1.86,0,0,0,0-3.71Z"/><path d="M80,67.56H74.64a1.86,1.86,0,0,0,0,3.71H80a1.86,1.86,0,0,0,0-3.71Z"/><path d="M60.35,77.15H21.05a1.85,1.85,0,1,0,0,3.7h39.3a1.85,1.85,0,1,0,0-3.7Z"/><path d="M80,77.15H74.64a1.85,1.85,0,1,0,0,3.7H80a1.85,1.85,0,1,0,0-3.7Z"/><path d="M60.35,86.73H21.05a1.86,1.86,0,0,0,0,3.71h39.3a1.86,1.86,0,0,0,0-3.71Z"/><path d="M80,86.73H74.64a1.86,1.86,0,0,0,0,3.71H80a1.86,1.86,0,0,0,0-3.71Z"/><path d="M60.35,96.32H21.05a1.85,1.85,0,1,0,0,3.7h39.3a1.85,1.85,0,0,0,0-3.7Z"/><path d="M123.2,86.19a9.2,9.2,0,0,0-16.87-2.06l-5.28,9.35V11.74A11.75,11.75,0,0,0,89.31,0h-55A14.34,14.34,0,0,0,24.29,4.16L4.16,24.29A14.34,14.34,0,0,0,0,34.34v2.11H0V103.6a11.75,11.75,0,0,0,11.74,11.74H85L90.87,123a9.27,9.27,0,0,0,7.27,3.56l.67,0a9.2,9.2,0,0,0,7.34-4.66l6.84-12.1a1.85,1.85,0,0,0-3.23-1.82L102.93,120a5.47,5.47,0,0,1-4.38,2.78h-.41a5.53,5.53,0,0,1-4.34-2.12L81.51,104.85a5.5,5.5,0,1,1,8.69-6.73l5.51,7.11a1.86,1.86,0,0,0,3.08-.22L109.56,86a5.41,5.41,0,0,1,3.31-2.59,5.49,5.49,0,0,1,6.25,8l-5.74,10.16a1.86,1.86,0,0,0,3.23,1.83l5.74-10.16a9.13,9.13,0,0,0,.85-7ZM26.92,6.78a10,10,0,0,1,1-.9,8.92,8.92,0,0,0-.59,3.2V19.34a8,8,0,0,1-8,8H9.08a8.92,8.92,0,0,0-3.2.59,10,10,0,0,1,.9-1Zm70,94-3.81-4.92a9.21,9.21,0,0,0-14.89.48h-3.6a1.85,1.85,0,1,0,0,3.7h2.13c0,.1,0,.21,0,.31a9.11,9.11,0,0,0,1.86,6.79l3.49,4.51H11.74a8,8,0,0,1-8-8V36.43a5.37,5.37,0,0,1,5.37-5.35H19.34A11.76,11.76,0,0,0,31.08,19.34V9.08a5.38,5.38,0,0,1,5.37-5.37H89.31a8,8,0,0,1,8,8V100Z"/><path d="M76,26.94a7,7,0,0,0,2.85,1.19v.29a1.86,1.86,0,0,0,3.71,0v-.5a5.8,5.8,0,0,0,3.78-4.48,5.13,5.13,0,0,0-3.49-5.82A13.68,13.68,0,0,1,79.46,16a.84.84,0,0,1-.13-.73,1.25,1.25,0,0,1,.79-1,2.46,2.46,0,0,1,2.25.33,1.85,1.85,0,1,0,2.37-2.84,5.81,5.81,0,0,0-2.15-1.1v-.26a1.86,1.86,0,0,0-3.71,0v.37a4.91,4.91,0,0,0-3.19,3.77A4.38,4.38,0,0,0,77.17,19a16.23,16.23,0,0,0,4.48,2.17,1.43,1.43,0,0,1,1.07,1.71,2,2,0,0,1-2,1.69h0a3.7,3.7,0,0,1-2.66-.69,1.85,1.85,0,1,0-2,3.1Z"/></g></g></svg>