<svg xmlns="http://www.w3.org/2000/svg" viewBox="0 0 114.71 22.75"><defs><linearGradient id="a" y1="11.37" x2="114.71" y2="11.37" gradientUnits="userSpaceOnUse"><stop offset="0" stop-color="#662d91"/><stop offset=".98" stop-color="#0ff"/></linearGradient></defs><g data-name="Capa 2"><path d="M15.34 1.09v14.19a7.38 7.38 0 0 1-2 5.52A7.37 7.37 0 0 1 8 22.72a8.16 8.16 0 0 1-5.82-2A7.62 7.62 0 0 1 0 14.82h5.89c0 1.68.64 2.52 1.85 2.52s1.64-.69 1.64-2.06V1.09Zm9.38 0v12.43a4 4 0 0 0 .81 2.67 3 3 0 0 0 2.44.94 3.11 3.11 0 0 0 2.48-1 3.91 3.91 0 0 0 .83-2.65V1.09h5.95v12.43a9.58 9.58 0 0 1-1.24 5 7.94 7.94 0 0 1-3.39 3.13 10.62 10.62 0 0 1-4.75 1 10.06 10.06 0 0 1-4.66-1A7.66 7.66 0 0 1 20 18.56a10.1 10.1 0 0 1-1.17-5V1.09Zm29.46 7.05a3.43 3.43 0 0 0-1.41-1.31 4.65 4.65 0 0 0-2.11-.45 4.46 4.46 0 0 0-3.54 1.46 5.67 5.67 0 0 0-1.29 3.91A5.85 5.85 0 0 0 47.21 16a5.31 5.31 0 0 0 4 1.44 4.59 4.59 0 0 0 4.47-2.82h-6V10.3h11.15v5.77a11 11 0 0 1-2 3.19 10.59 10.59 0 0 1-3.41 2.44 11.07 11.07 0 0 1-4.71 1A11.41 11.41 0 0 1 45 21.27a9.56 9.56 0 0 1-3.82-3.85 11.65 11.65 0 0 1-1.35-5.67 11.57 11.57 0 0 1 1.35-5.63A9.63 9.63 0 0 1 45 2.26 11.4 11.4 0 0 1 50.63.88a11 11 0 0 1 6.68 1.94 8.29 8.29 0 0 1 3.28 5.32ZM77.05 19h-7.59l-1.16 3.5h-6.25l7.8-21.42h6.87l7.77 21.42H78.2Zm-1.49-4.55-2.31-6.92L71 14.46Zm21.72 8.05L93 14.61h-.64v7.9h-6V1.09h9.38a9.64 9.64 0 0 1 4.37.9 6.31 6.31 0 0 1 2.71 2.46 6.9 6.9 0 0 1 .99 3.55 6.36 6.36 0 0 1-1.2 3.84 6.47 6.47 0 0 1-3.51 2.35l4.83 8.36Zm-4.89-12h2.94a2.56 2.56 0 0 0 1.83-.5 2.2 2.2 0 0 0 .6-1.67 2.1 2.1 0 0 0-.62-1.62 2.5 2.5 0 0 0-1.81-.6h-2.94Zm16.32 11.34a2.81 2.81 0 0 1-.95-2.2 2.88 2.88 0 0 1 .95-2.22 3.65 3.65 0 0 1 2.54-.88 3.56 3.56 0 0 1 2.5.88 2.89 2.89 0 0 1 1 2.22 2.86 2.86 0 0 1-1 2.19 3.56 3.56 0 0 1-2.5.88 3.64 3.64 0 0 1-2.54-.83ZM114.47 0l-.7 14.49h-5.07L108 0Z" style="fill:url(#a)" data-name="Capa 1"/></g></svg>