<?xml version="1.0" encoding="iso-8859-1"?>
<!-- Generator: Adobe Illustrator 19.0.0, SVG Export Plug-In . SVG Version: 6.00 Build 0)  -->
<svg version="1.1" id="Capa_1" xmlns="http://www.w3.org/2000/svg" xmlns:xlink="http://www.w3.org/1999/xlink" x="0px" y="0px"
	 viewBox="0 0 497.616 497.616" style="enable-background:new 0 0 497.616 497.616;" xml:space="preserve">
<g>
	<g>
		<g>
			<path d="M344.808,433.616h136v24c0,13.232-10.768,24-24,24h-416c-13.232,0-24-10.768-24-24v-24h136v-16h-152v40
				c0,22.056,17.944,40,40,40h416c22.056,0,40-17.944,40-40v-40h-152V433.616z"/>
			<path d="M192.808,465.616h112c13.232,0,24-10.768,24-24v-24h-160v24C168.808,454.848,179.576,465.616,192.808,465.616z
				 M184.808,433.616h128v8c0,4.408-3.584,8-8,8h-112c-4.416,0-8-3.592-8-8V433.616z"/>
			<path d="M32.808,153.616c0-13.232,10.768-24,24-24h184v-16h-184c-22.056,0-40,17.944-40,40v248h16V153.616z"/>
			<rect x="464.808" y="249.616" width="16" height="152"/>
			<path d="M240.808,145.616h-176c-8.824,0-16,7.176-16,16v240h16v-240h176V145.616z"/>
			<rect x="432.808" y="273.616" width="16" height="128"/>
			<path d="M482.496,33.616c-36.16,0-71.168-10.6-101.248-30.656L376.808,0l-4.44,2.96C342.296,23.016,307.28,33.616,271.12,33.616
				h-14.312v120c0,66.168,53.832,120,120,120s120-53.832,120-120v-120H482.496z M480.808,153.616c0,57.344-46.656,104-104,104
				s-104-46.656-104-104V49.608c36.968-0.312,72.776-10.808,104-30.464c31.224,19.656,67.032,30.152,104,30.464V153.616z"/>
			<path d="M373,39.888c-24.04,13-49.984,21.176-77.112,24.304l-7.08,0.816v88.608c0,48.52,39.48,88,88,88c48.52,0,88-39.48,88-88
				V65.008l-7.088-0.824c-27.128-3.128-53.072-11.304-77.112-24.304l-3.8-2.048L373,39.888z M448.808,79.16v74.456
				c0,39.696-32.296,72-72,72c-39.704,0-72-32.304-72-72V79.16c25.184-3.688,49.352-11.472,72-23.176
				C399.456,67.688,423.624,75.464,448.808,79.16z"/>
			<polygon points="341.608,147.216 332.008,160.016 370.624,188.976 431.36,102.2 418.256,93.032 366.992,166.256 			"/>
			<path d="M120.808,401.616h96c13.232,0,24-10.768,24-24v-80c0-10.416-6.712-19.216-16-22.528v-25.472c0-30.88-25.128-56-56-56
				s-56,25.12-56,56v25.472c-9.288,3.312-16,12.112-16,22.528v80C96.808,390.848,107.576,401.616,120.808,401.616z M128.808,249.616
				c0-22.056,17.944-40,40-40c22.056,0,40,17.944,40,40v24h-80V249.616z M112.808,297.616c0-4.408,3.584-8,8-8h96
				c4.416,0,8,3.592,8,8v80c0,4.408-3.584,8-8,8h-96c-4.416,0-8-3.592-8-8V297.616z"/>
			<path d="M160.808,352.144v17.472h16v-17.472c9.288-3.312,16-12.112,16-22.528c0-13.232-10.768-24-24-24s-24,10.768-24,24
				C144.808,340.032,151.52,348.832,160.808,352.144z M168.808,321.616c4.416,0,8,3.592,8,8c0,4.408-3.584,8-8,8s-8-3.592-8-8
				C160.808,325.208,164.392,321.616,168.808,321.616z"/>
			<rect x="64.808" y="449.616" width="16" height="16"/>
			<rect x="96.808" y="449.616" width="16" height="16"/>
			<rect x="128.808" y="449.616" width="16" height="16"/>
		</g>
	</g>
</g>
<g>
</g>
<g>
</g>
<g>
</g>
<g>
</g>
<g>
</g>
<g>
</g>
<g>
</g>
<g>
</g>
<g>
</g>
<g>
</g>
<g>
</g>
<g>
</g>
<g>
</g>
<g>
</g>
<g>
</g>
</svg>
