<svg xmlns="http://www.w3.org/2000/svg" viewBox="0 0 348.86 490.73">
    <defs>
        <!-- <style>
            .cls-7 {
                fill: #fff
            }
        </style> -->
    </defs>
    <g  style="fill:#fff;" id="Capa_2" data-name="Capa 2">
        <g id="Capa_1-2" data-name="Capa 1"><text transform="translate(103.12 417.51)"
                style="fill:#fff;font-size:53.28px;font-family:Seravek-Bold,Seravek;font-weight:700">
                <tspan style="letter-spacing:-.01em">L<tspan x="25.68" y="0" style="letter-spacing:0">O</tspan>
                    <tspan x="65.79" y="0" style="letter-spacing:0">GO</tspan>
                </tspan>
                <tspan x="-32.05" y="50">S</tspan>
                <tspan x="-3.81" y="50" style="letter-spacing:-.01em">L</tspan>
                <tspan x="21.87" y="50" style="letter-spacing:0">O</tspan>
                <tspan x="61.99" y="50">GAN</tspan>
            </text>
            <path class="cls-7"
                d="M273.93 299.79a37.43 37.43 0 0 1-17.85 4.57l-45.71.05a37 37 0 0 1-6.13-.49 87.33 87.33 0 0 1-16.69 17.36 104.77 104.77 0 0 1-14.45 9.56c-17.43 9.53-38 14.38-61.12 14.41-32.55 0-59.3-9-79.53-27C11.26 299.43 0 273.21 0 242.41a100 100 0 0 1 18.12-57.78 141.26 141.26 0 0 1 37.53-37.11c.1-1.09.2-2.68.19-4.84a37.17 37.17 0 0 1 2.08-12.3 37.85 37.85 0 0 1-2.42-13.19V78.32A37.37 37.37 0 0 1 92.78 40.9l45.71-.06a37.8 37.8 0 0 1 6.12.49A87.67 87.67 0 0 1 161.31 24C181.4 8.1 206.83 0 236.88 0c32.53 0 59.27 9 79.5 27l.06.06c21.17 18.81 32.38 45 32.42 75.81a100 100 0 0 1-18.12 57.78 141.11 141.11 0 0 1-37.53 37.11c-.1 1.09-.2 2.68-.19 4.84a37.37 37.37 0 0 1-2.08 12.29 38 38 0 0 1 2.42 13.2l.05 38.87a37.4 37.4 0 0 1-19.48 32.83Zm-71.29.17 1.15.23a34.42 34.42 0 0 0 6.57.63l45.71-.06a33.79 33.79 0 0 0 33.74-33.82l-.05-38.87a34.06 34.06 0 0 0-2.4-12.51l-.26-.64.24-.65a34 34 0 0 0 2.08-11.7 51.64 51.64 0 0 1 .3-6l.08-.69.52-.46.45-.37.14-.11a137.58 137.58 0 0 0 36.87-36.35 96.47 96.47 0 0 0 17.48-55.74c0-29.74-10.83-55-31.22-73.14l-.06-.06c-19.53-17.33-45.48-26.1-77.1-26.06-29.22 0-53.9 7.85-73.34 23.2a83.84 83.84 0 0 0-16.66 17.54l-.67 1-1.14-.23a34.37 34.37 0 0 0-6.58-.63l-45.71.06A33.78 33.78 0 0 0 59 78.32l.05 38.86a34.27 34.27 0 0 0 2.41 12.51l.26.64-.24.65a34 34 0 0 0-2.08 11.7 51.64 51.64 0 0 1-.3 6l-.08.69-.52.46-.45.37-.14.11a137.43 137.43 0 0 0-36.87 36.35A96.55 96.55 0 0 0 3.59 242.4c0 29.75 10.84 55 31.24 73.16 19.55 17.36 45.51 26.14 77.14 26.1 22.52 0 42.5-4.73 59.4-14a99 99 0 0 0 13.95-9.22A83.53 83.53 0 0 0 202 300.92Z" />
            <path class="cls-7"
                d="M269.79 292.22a28.77 28.77 0 0 1-13.72 3.51l-45.71.06a29 29 0 0 1-9.89-1.73 78.27 78.27 0 0 1-18.27 20.46 95.38 95.38 0 0 1-13.2 8.75c-16.15 8.83-35.33 13.33-57 13.36-30.37 0-55.2-8.32-73.8-24.83-19.32-17.14-29.54-41.13-29.57-69.4a91.49 91.49 0 0 1 16.6-52.88A132.39 132.39 0 0 1 61 154.31a21.7 21.7 0 0 0 2.7-2.52 40.77 40.77 0 0 0 .75-9.12 28.53 28.53 0 0 1 2.81-12.41 28.52 28.52 0 0 1-3.15-13.08V78.31a28.75 28.75 0 0 1 28.68-28.79l45.71-.06a28.8 28.8 0 0 1 9.89 1.74 77.78 77.78 0 0 1 18.27-20.46C185.2 16.1 208.82 8.66 236.89 8.63c30.35 0 55.17 8.3 73.77 24.8 19.34 17.16 29.54 41.15 29.57 69.43a91.46 91.46 0 0 1-16.6 52.87 132.39 132.39 0 0 1-35.79 35.21 20.76 20.76 0 0 0-2.7 2.53 40 40 0 0 0-.75 9.11 28.56 28.56 0 0 1-2.81 12.42 28.64 28.64 0 0 1 3.15 13.08v38.87a28.76 28.76 0 0 1-14.94 25.27Zm-73.64-12.75 4.9 3a18 18 0 0 0 9.3 2.57l45.7-.06A18 18 0 0 0 274 267v-38.91a17.87 17.87 0 0 0-3-10l-2-2.92 1.88-3a17.87 17.87 0 0 0 2.79-9.6c0-8 1-11.85 1.58-13.44l.15-.4.21-.37c.56-1 2-3 5.73-6l.38-.28a121.66 121.66 0 0 0 33.09-32.48 80.93 80.93 0 0 0 14.7-46.75c0-25.1-9-46.3-25.9-61.33-16.57-14.71-39-22.15-66.62-22.11-25.59 0-47 6.69-63.57 19.79a67.08 67.08 0 0 0-18 21.51l-2.66 5.07-4.9-3a17.88 17.88 0 0 0-9.3-2.56H92.85a18 18 0 0 0-17.94 18v38.87a17.73 17.73 0 0 0 3 10l2 2.93-1.89 3a17.9 17.9 0 0 0-2.78 9.6c0 8-1 11.86-1.59 13.44l-.14.4-.21.37c-.56 1-2 3-5.73 6l-.38.28a121.8 121.8 0 0 0-33.09 32.48 80.93 80.93 0 0 0-14.7 46.75c0 25.11 9 46.32 25.92 61.36 16.57 14.7 39 22.14 66.62 22.1 19.84 0 37.28-4.07 51.83-12a83.11 83.11 0 0 0 11.74-7.76 67.21 67.21 0 0 0 18-21.51Z" />
            <rect class="cls-7" x="87.1" y="72.49" width="57.21" height="50.37" rx="5.75"
                transform="rotate(-.07 122.717 98.296)" />
            <path class="cls-7"
                d="m183.67 239.53-44.15.06a5.76 5.76 0 0 0-5.75 5.69c-.07 7.14-2.07 12.29-6.12 15.76-4.3 3.68-9.46 5.47-15.77 5.48-7.73 0-13.4-2-17.34-6.23s-6-10.36-6-18.46a36.73 36.73 0 0 1 5.68-20.25 77 77 0 0 1 16.34-18c13.16-10.14 21.79-18.67 26.39-26.06 4.8-7.74 7.18-19.14 7.27-34.88a5.74 5.74 0 0 0-5.75-5.78l-45.25.06a5.75 5.75 0 0 0-5.74 5.75c0 7.83-.84 13.94-2.52 18.16-1.53 3.84-5 7.88-10.23 12l-.38.27a109.51 109.51 0 0 0-30.16 29.47 68.93 68.93 0 0 0-12.55 39.82c0 21.82 7.37 39.4 21.81 52.23 14.26 12.65 33.94 19.06 58.5 19 17.82 0 33.23-3.56 46-10.53a70.67 70.67 0 0 0 10-6.63c14.83-11.71 22.17-28.64 21.8-50.34a5.55 5.55 0 0 0-.3-1.72l-.31-.94a5.74 5.74 0 0 0-5.47-3.93ZM295.41 50.65c-14.25-12.65-33.93-19-58.49-19-22.78 0-41.62 5.8-56 17.16-14.82 11.71-22.16 28.65-21.79 50.34a5.67 5.67 0 0 0 .3 1.73l.31.93a5.74 5.74 0 0 0 5.46 3.93l44.15-.06a5.74 5.74 0 0 0 5.74-5.69c.08-7.13 2.08-12.29 6.13-15.76 4.3-3.68 9.46-5.47 15.77-5.48 7.73 0 13.4 2 17.33 6.23s6 10.36 6 18.46a36.73 36.73 0 0 1-5.68 20.25 77 77 0 0 1-16.34 18c-13.16 10.15-21.79 18.67-26.39 26.06-4.8 7.74-7.18 19.15-7.27 34.88a5.74 5.74 0 0 0 5.75 5.78h45.25a5.76 5.76 0 0 0 5.74-5.76c0-7.83.84-13.94 2.52-18.16 1.53-3.84 5-7.88 10.23-12 .12-.1.25-.19.38-.28a109.65 109.65 0 0 0 30.16-29.47 68.93 68.93 0 0 0 12.55-39.82c-.02-21.86-7.36-39.44-21.81-52.27Z" />
            <rect class="cls-7" x="204.55" y="222.39" width="57.21" height="50.37" rx="5.75"
                transform="rotate(-.07 245.393 262.074)" />
        </g>
    </g>
</svg>