<svg xmlns="http://www.w3.org/2000/svg" xmlns:xlink="http://www.w3.org/1999/xlink" viewBox="0 0 326 458.58"><defs><style>.cls-1{font-size:49.79px;fill:#333;font-family:Seravek-Bold, Seravek;font-weight:700;}.cls-2{letter-spacing:-0.01em;}.cls-3{letter-spacing:0em;}.cls-4{letter-spacing:-0.01em;}.cls-5{letter-spacing:0em;}.cls-6{fill:url(#Degradado_sin_nombre_20);}.cls-7{fill:url(#Degradado_sin_nombre_20-2);}.cls-8{fill:url(#Degradado_sin_nombre_20-3);}.cls-9{fill:url(#Degradado_sin_nombre_20-4);}.cls-10{fill:url(#Degradado_sin_nombre_20-5);}.cls-11{fill:url(#Degradado_sin_nombre_20-6);}</style><linearGradient id="Degradado_sin_nombre_20" y1="161.31" x2="326" y2="161.31" gradientUnits="userSpaceOnUse"><stop offset="0" stop-color="#662d91"/><stop offset="0.98" stop-color="aqua"/></linearGradient><linearGradient id="Degradado_sin_nombre_20-2" x1="8.06" y1="161.31" x2="317.94" y2="161.31" xlink:href="#Degradado_sin_nombre_20"/><linearGradient id="Degradado_sin_nombre_20-3" x1="81.37" y1="91.28" x2="134.88" y2="91.28" gradientTransform="translate(0.11 -0.14) rotate(0.07)" xlink:href="#Degradado_sin_nombre_20"/><linearGradient id="Degradado_sin_nombre_20-4" x1="29.56" y1="210.47" x2="177.32" y2="210.47" xlink:href="#Degradado_sin_nombre_20"/><linearGradient id="Degradado_sin_nombre_20-5" x1="148.68" y1="112.16" x2="296.44" y2="112.16" xlink:href="#Degradado_sin_nombre_20"/><linearGradient id="Degradado_sin_nombre_20-6" x1="191.12" y1="231.35" x2="244.63" y2="231.35" gradientTransform="translate(0.3 -0.28) rotate(0.07)" xlink:href="#Degradado_sin_nombre_20"/></defs><g id="Capa_2" data-name="Capa 2"><g id="Capa_1-2" data-name="Capa 1"><text class="cls-1" transform="translate(96.36 390.15)"><tspan class="cls-2">L</tspan><tspan class="cls-3" x="24" y="0">O</tspan><tspan x="61.48" y="0">GO</tspan><tspan x="-29.95" y="46.72">S</tspan><tspan class="cls-4" x="-3.56" y="46.72">L</tspan><tspan class="cls-3" x="20.44" y="46.72">O</tspan><tspan class="cls-5" x="57.92" y="46.72">GAN</tspan></text><path class="cls-6" d="M256,280.14a34.81,34.81,0,0,1-16.68,4.27l-42.71.06a35.43,35.43,0,0,1-5.73-.46,81.73,81.73,0,0,1-15.6,16.22,97.37,97.37,0,0,1-13.5,8.93c-16.29,8.91-35.51,13.44-57.12,13.47-30.41,0-55.42-8.45-74.32-25.23C10.52,279.81,0,255.31,0,226.52a93.52,93.52,0,0,1,16.93-54A131.9,131.9,0,0,1,52,137.86a44.58,44.58,0,0,0,.18-4.53,34.92,34.92,0,0,1,1.94-11.49,35.6,35.6,0,0,1-2.26-12.33l0-36.32a34.91,34.91,0,0,1,34.88-35l42.72-.06a35.22,35.22,0,0,1,5.72.46,81.73,81.73,0,0,1,15.6-16.22C169.52,7.57,193.27,0,221.36,0c30.39,0,55.39,8.44,74.29,25.2l.06.06C315.49,42.83,326,67.33,326,96.11a93.52,93.52,0,0,1-16.93,54A131.79,131.79,0,0,1,274,184.77c-.09,1-.18,2.51-.17,4.53a34.86,34.86,0,0,1-1.94,11.48,35.61,35.61,0,0,1,2.26,12.34l0,36.32A34.91,34.91,0,0,1,256,280.14Zm-66.61.17,1.07.21a32.35,32.35,0,0,0,6.14.59l42.72-.05a31.58,31.58,0,0,0,31.52-31.61l0-36.33a32.26,32.26,0,0,0-2.25-11.69l-.24-.6.22-.6a32,32,0,0,0,1.95-10.93,47.84,47.84,0,0,1,.27-5.61l.08-.65.49-.42.42-.35.13-.1a128.6,128.6,0,0,0,34.45-34,90.21,90.21,0,0,0,16.34-52.09c0-27.79-10.12-51.43-29.17-68.35l-.06-.05c-18.26-16.19-42.5-24.39-72.05-24.35C194.05,3.39,171,10.69,152.83,25a78.23,78.23,0,0,0-15.57,16.4l-.63.89-1.07-.21a32.19,32.19,0,0,0-6.14-.59l-42.72,0A31.56,31.56,0,0,0,55.18,73.18l0,36.33a32.26,32.26,0,0,0,2.25,11.69l.24.59-.22.61a31.92,31.92,0,0,0-2,10.93,47.84,47.84,0,0,1-.27,5.61l-.08.64-.49.43-.41.35-.14.1a128.59,128.59,0,0,0-34.45,34A90.11,90.11,0,0,0,3.36,226.52c0,27.8,10.13,51.44,29.19,68.37,18.27,16.21,42.52,24.42,72.09,24.38,21,0,39.71-4.42,55.5-13.06a93.85,93.85,0,0,0,13-8.61,78.23,78.23,0,0,0,15.57-16.4Z"/><path class="cls-7" d="M252.12,273.07a26.84,26.84,0,0,1-12.83,3.28l-42.71.06a27,27,0,0,1-9.25-1.62,73,73,0,0,1-17.07,19.12,89.78,89.78,0,0,1-12.37,8.18c-15.1,8.25-33,12.45-53.26,12.48-28.38,0-51.58-7.77-69-23.2-18-16-27.58-38.44-27.61-64.86A85.59,85.59,0,0,1,23.57,177.1,123.81,123.81,0,0,1,57,144.2a19.89,19.89,0,0,0,2.52-2.36,37.58,37.58,0,0,0,.7-8.52,26.83,26.83,0,0,1,2.63-11.6,26.8,26.8,0,0,1-2.95-12.22l0-36.32a26.85,26.85,0,0,1,26.83-26.9l42.72-.06a27,27,0,0,1,9.24,1.62,73,73,0,0,1,17.07-19.12c17.32-13.67,39.4-20.63,65.63-20.66,28.36,0,51.55,7.76,68.93,23.18h0l0,0h0c18,16,27.58,38.44,27.61,64.86a85.62,85.62,0,0,1-15.51,49.41A124,124,0,0,1,269,178.43a19.17,19.17,0,0,0-2.52,2.36,37.94,37.94,0,0,0-.71,8.52,26.63,26.63,0,0,1-2.62,11.59,26.84,26.84,0,0,1,2.95,12.23l0,36.32A26.88,26.88,0,0,1,252.12,273.07ZM183.3,261.16l4.58,2.77a16.59,16.59,0,0,0,8.68,2.4l42.72-.05a16.82,16.82,0,0,0,16.77-16.82L256,213.14a16.68,16.68,0,0,0-2.84-9.34l-1.85-2.73,1.77-2.78a16.79,16.79,0,0,0,2.6-9c0-7.47.92-11.08,1.48-12.56l.14-.38.2-.34c.51-.91,1.9-2.85,5.35-5.61l.36-.26a114,114,0,0,0,30.92-30.35,75.69,75.69,0,0,0,13.73-43.69c0-23.45-8.39-43.27-24.2-57.31l0,0c-15.48-13.74-36.43-20.69-62.26-20.65-23.91,0-43.89,6.25-59.4,18.49a62.89,62.89,0,0,0-16.79,20.1l-2.49,4.74-4.58-2.77a16.59,16.59,0,0,0-8.68-2.4l-42.72.05A16.8,16.8,0,0,0,70,73.17l0,36.32a16.65,16.65,0,0,0,2.84,9.33l1.84,2.73-1.76,2.79a16.76,16.76,0,0,0-2.6,9c0,7.47-.92,11.08-1.48,12.57l-.14.37-.2.34c-.51.91-1.89,2.84-5.35,5.61l-.36.26a113.8,113.8,0,0,0-30.92,30.35A75.69,75.69,0,0,0,18.14,226.5c0,23.46,8.4,43.29,24.22,57.33,15.48,13.75,36.43,20.7,62.26,20.66,18.54,0,34.83-3.8,48.43-11.24A80.39,80.39,0,0,0,164,286a62.89,62.89,0,0,0,16.79-20.1Z"/><rect class="cls-8" x="81.4" y="67.74" width="53.46" height="47.07" rx="5.37" transform="translate(-0.11 0.14) rotate(-0.07)"/><path class="cls-9" d="M171.63,223.84l-41.26,0a5.38,5.38,0,0,0-5.36,5.32h0c-.07,6.67-1.94,11.48-5.73,14.72a21.71,21.71,0,0,1-14.73,5.13c-7.23,0-12.53-1.9-16.2-5.83s-5.62-9.68-5.62-17.25A34.22,34.22,0,0,1,88,207.06a71.65,71.65,0,0,1,15.27-16.84c12.3-9.49,20.36-17.45,24.65-24.36,4.49-7.23,6.72-17.89,6.8-32.59h0a5.38,5.38,0,0,0-5.38-5.41l-42.27.06a5.37,5.37,0,0,0-5.37,5.38h0c0,7.31-.78,13-2.36,17-1.43,3.6-4.64,7.37-9.56,11.22l-.35.26a102.41,102.41,0,0,0-28.19,27.54,64.43,64.43,0,0,0-11.72,37.21c0,20.39,6.88,36.81,20.38,48.8,13.32,11.83,31.72,17.81,54.66,17.78,16.65,0,31.05-3.32,43-9.84a67.5,67.5,0,0,0,9.37-6.19c13.86-11,20.71-26.77,20.37-47.05h0a5.5,5.5,0,0,0-.28-1.61l-.29-.87A5.38,5.38,0,0,0,171.63,223.84Z"/><path class="cls-10" d="M276.06,47.33c-13.32-11.82-31.72-17.8-54.66-17.77-21.29,0-38.9,5.42-52.34,16-13.86,10.94-20.71,26.77-20.37,47.05h0a5.5,5.5,0,0,0,.28,1.61l.29.87a5.38,5.38,0,0,0,5.1,3.67l41.27-.05A5.38,5.38,0,0,0,201,93.42h0c.07-6.67,1.94-11.48,5.73-14.72a21.71,21.71,0,0,1,14.73-5.13c7.23,0,12.53,1.9,16.2,5.83s5.61,9.68,5.62,17.25A34.22,34.22,0,0,1,238,115.57a71.65,71.65,0,0,1-15.27,16.84c-12.3,9.49-20.36,17.45-24.65,24.36-4.49,7.23-6.72,17.89-6.8,32.59h0a5.38,5.38,0,0,0,5.38,5.41l42.27-.06a5.37,5.37,0,0,0,5.37-5.38h0c0-7.31.78-13,2.36-17,1.43-3.6,4.64-7.37,9.56-11.22l.35-.26a102.41,102.41,0,0,0,28.19-27.54,64.43,64.43,0,0,0,11.72-37.21C296.42,75.75,289.56,59.32,276.06,47.33Z"/><rect class="cls-11" x="191.15" y="207.82" width="53.46" height="47.07" rx="5.37" transform="translate(-0.3 0.28) rotate(-0.07)"/></g></g></svg>