<svg xmlns="http://www.w3.org/2000/svg" xmlns:xlink="http://www.w3.org/1999/xlink" viewBox="0 0 218.04 164.91"><defs><linearGradient id="a" y1="82.46" x2="218.04" y2="82.46" gradientUnits="userSpaceOnUse"><stop offset="0" stop-color="#662d91"/><stop offset=".98" stop-color="#0ff"/></linearGradient><linearGradient id="b" x1="7.37" y1="76.32" x2="53.86" y2="76.32" xlink:href="#a"/><linearGradient id="c" x1="58.19" y1="153.69" x2="104.18" y2="153.69" xlink:href="#a"/><linearGradient id="d" x1="140.47" y1="110.39" x2="190.16" y2="110.39" xlink:href="#a"/><linearGradient id="e" x1="100.62" y1="26.01" x2="129.38" y2="26.01" xlink:href="#a"/><linearGradient id="f" x1="56.97" y1="126.58" x2="64.2" y2="126.58" xlink:href="#a"/></defs><g data-name="Capa 2"><g style="opacity:.15" data-name="Capa 1"><path d="m215.5 109.91-25.9-43.44a18.11 18.11 0 0 0-21.48-7.8l-6.29-10.55a18.1 18.1 0 0 0 3.35-22.6L150.3.58a4.34 4.34 0 0 1-1.16.14 68.86 68.86 0 0 1-7.59-.72L159 29.22a10.85 10.85 0 0 1-3.75 14.86L111.78 70a10.84 10.84 0 0 1-14.85-3.76L71 22.79a10.85 10.85 0 0 1 3.78-14.86L87.64.27c-4.86.21-9.72.37-14.58.28l-2 1.18a18.09 18.09 0 0 0-7.8 21.47l-10.53 6.29a18.09 18.09 0 0 0-22.6-3.34L3.2 42.21a35.1 35.1 0 0 1-2.09 9.65l32.72-19.51a10.85 10.85 0 0 1 14.86 3.76l25.9 43.43a10.86 10.86 0 0 1-3.76 14.86L27.4 120.3a10.86 10.86 0 0 1-14.86-3.76L1 97.2a31.33 31.33 0 0 1-.92 12.19l-.09.22 6.34 10.63A18.08 18.08 0 0 0 27.81 128l6.29 10.55a18.12 18.12 0 0 0-5.24 18.14 4.83 4.83 0 0 1 4.24 1.33 2.87 2.87 0 0 1 .3.29l.11.08 1.14.84a28.64 28.64 0 0 1 4.13 1.27l-1.82-3a10.86 10.86 0 0 1 3.76-14.86l7.75-4.64a3.61 3.61 0 1 0-3.7-6.2l-4.65 2.77-5.92-9.93 40.33-24.04a18.08 18.08 0 0 0 6.26-24.76L56.74 35.51l9.93-5.92 24 40.33a18.08 18.08 0 0 0 24.76 6.26l40.33-24.05 5.92 9.93-40.33 24a18.08 18.08 0 0 0-6.26 24.76l24 40.33-9.93 5.92-24-40.33a18.08 18.08 0 0 0-24.76-6.26l-7.75 4.63a3.61 3.61 0 1 0 3.69 6.2l7.76-4.62a10.85 10.85 0 0 1 14.9 3.8l25.9 43.44c.19.32.36.65.52 1h7.64c-.12-.47-.26-.93-.42-1.4l10.55-6.29a18.1 18.1 0 0 0 22.6 3.35l43.43-25.9a18.08 18.08 0 0 0 6.28-24.78Zm-10 18.55-43.43 25.9a10.85 10.85 0 0 1-14.86-3.75l-25.89-43.44a10.84 10.84 0 0 1 3.75-14.85l43.44-25.9a10.84 10.84 0 0 1 14.85 3.75l25.9 43.44a10.83 10.83 0 0 1-3.73 14.85Z" style="fill:url(#a)"/><path d="m23.76 93 3.1-1.85 1.85 3.1a10.83 10.83 0 1 0 18.61-11.1l-1.85-3.1 3.11-1.85a10.83 10.83 0 0 0-11.1-18.61l-3.11 1.85-1.85-3.1a10.83 10.83 0 1 0-18.61 11.12l1.85 3.11-3.1 1.85A10.83 10.83 0 1 0 23.76 93Zm-7.4-12.41 6.2-3.7a3.6 3.6 0 0 0 1.25-5l-3.7-6.21a3.61 3.61 0 0 1 6.21-3.7L30 68.27a3.61 3.61 0 0 0 5 1.25l6.21-3.7A3.61 3.61 0 0 1 44.88 72l-6.21 3.7a3.61 3.61 0 0 0-1.25 5l3.7 6.2a3.61 3.61 0 1 1-6.21 3.7l-3.7-6.2a3.6 3.6 0 0 0-4.95-1.25l-6.2 3.7a3.61 3.61 0 1 1-3.7-6.21Z" style="fill:url(#b)"/><path d="m66.84 164.91 24.65-14.7a3.61 3.61 0 1 1 3.7 6.2l-14.25 8.5h14.11l3.84-2.29A10.84 10.84 0 1 0 87.79 144L63 158.8a10.76 10.76 0 0 0-4.79 6.11Z" style="fill:url(#c)"/><path d="M171.52 85.88a10.83 10.83 0 0 0-13.16 7.85l-.89 3.5-3.5-.89a10.84 10.84 0 0 0-5.32 21l3.51.89-.89 3.5a10.84 10.84 0 0 0 21 5.31l.89-3.5 3.5.89a10.84 10.84 0 0 0 5.31-21l-3.5-.89.89-3.5a10.85 10.85 0 0 0-7.84-13.16Zm1.69 22.78 7 1.77a3.61 3.61 0 1 1-1.77 7l-7-1.77a3.65 3.65 0 0 0-2.74.4 3.6 3.6 0 0 0-1.65 2.22l-1.77 7a3.61 3.61 0 0 1-4.39 2.62 3.63 3.63 0 0 1-2.62-4.39l1.78-7a3.62 3.62 0 0 0-2.62-4.39l-7-1.77a3.61 3.61 0 1 1 1.77-7l7 1.77a3.61 3.61 0 0 0 4.39-2.62l1.77-7a3.61 3.61 0 1 1 7 1.77l-1.77 7a3.61 3.61 0 0 0 2.62 4.39Z" style="fill:url(#d)"/><path d="M117 49.32a10.82 10.82 0 0 0 5-6.65l7.09-28a10.84 10.84 0 1 0-21-5.32l-7.09 28a10.84 10.84 0 0 0 16.06 12Zm-9-10.19 7.08-28a3.61 3.61 0 0 1 7 1.77l-7.08 28a3.61 3.61 0 0 1-7-1.77Z" style="fill:url(#e)"/><path d="M62.44 129.68a3.61 3.61 0 1 0-3.7-6.2 3.61 3.61 0 1 0 3.71 6.2Z" style="fill:url(#f)"/></g></g></svg>