<svg xmlns="http://www.w3.org/2000/svg" xmlns:xlink="http://www.w3.org/1999/xlink" viewBox="0 0 78.09 78.09"><defs><style>.cls-1{fill:url(#Degradado_sin_nombre_20);}</style><linearGradient id="Degradado_sin_nombre_20" y1="39.04" x2="78.09" y2="39.04" gradientUnits="userSpaceOnUse"><stop offset="0" stop-color="#662d91"/><stop offset="0.98" stop-color="aqua"/></linearGradient></defs><g id="Capa_2" data-name="Capa 2"><g id="Capa_1-2" data-name="Capa 1"><path class="cls-1" d="M39,0A39,39,0,1,0,78.09,39,39,39,0,0,0,39,0Zm13.5,41.11L33,53.31a2.44,2.44,0,0,1-1.3.37,2.49,2.49,0,0,1-1.18-.3,2.44,2.44,0,0,1-1.26-2.14V26.84A2.45,2.45,0,0,1,33,24.77L52.54,37a2.45,2.45,0,0,1,0,4.14Z"/></g></g></svg>