<svg xmlns="http://www.w3.org/2000/svg" viewBox="0 0 78.09 78.09"><defs><linearGradient id="a" y1="39.04" x2="78.09" y2="39.04" gradientUnits="userSpaceOnUse"><stop offset="0" stop-color="#662d91"/><stop offset=".98" stop-color="#0ff"/></linearGradient></defs><g data-name="Capa 2"><path d="M39 0a39 39 0 1 0 39.09 39A39 39 0 0 0 39 0Zm13.5 41.11L33 53.31a2.44 2.44 0 0 1-1.3.37 2.49 2.49 0 0 1-1.18-.3 2.44 2.44 0 0 1-1.26-2.14v-24.4A2.45 2.45 0 0 1 33 24.77L52.54 37a2.45 2.45 0 0 1 0 4.14Z" style="fill:url(#a)" data-name="Capa 1"/></g></svg>