<svg xmlns="http://www.w3.org/2000/svg" viewBox="0 0 24.8 29.12"><defs><style>.cls-1{fill:#662d91}</style></defs><g id="Capa_2" data-name="Capa 2"><g id="Capa_1-2" data-name="Capa 1"><g id="surface1"><path class="cls-1" d="M24.77 7.9v-.91a3.08 3.08 0 0 0-2.9-3A12 12 0 0 1 13.69.51a1.86 1.86 0 0 0-2.54 0A12 12 0 0 1 3 4 3.08 3.08 0 0 0 .06 7v.91C0 11.35-.12 15.6 1.3 19.45a14.77 14.77 0 0 0 3.52 5.48A18.3 18.3 0 0 0 11.71 29a1.29 1.29 0 0 0 .28.08 2.12 2.12 0 0 0 .82 0 1.29 1.29 0 0 0 .28-.08A18.26 18.26 0 0 0 20 24.93a14.73 14.73 0 0 0 3.52-5.48c1.4-3.87 1.31-8.13 1.25-11.55Zm-2.88 11c-1.5 4.06-4.56 6.85-9.36 8.53h-.06a.38.38 0 0 1-.15 0h-.05c-4.8-1.67-7.86-4.46-9.36-8.53C1.6 15.31 1.67 11.41 1.74 8V7a1.36 1.36 0 0 1 1.32-1.34 15.31 15.31 0 0 0 5.09-1.12 13.38 13.38 0 0 0 4.14-2.79.18.18 0 0 1 .22 0 13.38 13.38 0 0 0 4.14 2.79 15.31 15.31 0 0 0 5.09 1.12A1.36 1.36 0 0 1 23 7v1c.13 3.39.2 7.29-1.11 10.86Z"/><path class="cls-1" d="M12.4 7.3a7.26 7.26 0 1 0 7.26 7.26A7.27 7.27 0 0 0 12.4 7.3Zm0 12.81a5.55 5.55 0 1 1 5.6-5.55 5.56 5.56 0 0 1-5.6 5.55Z"/><path class="cls-1" d="m14.49 12.31-3.38 3.37-.91-.92A.86.86 0 1 0 9 16l1.52 1.52a.86.86 0 0 0 1.21 0l4-4a.85.85 0 0 0 0-1.21.83.83 0 0 0-1.24 0Z"/></g></g></g></svg>