<svg xmlns="http://www.w3.org/2000/svg" viewBox="0 0 29.66 29.66"><g id="Capa_2" data-name="Capa 2"><g id="Capa_1-2" data-name="Capa 1"><path d="M21.28,13.43a.87.87,0,1,1-.87-.87A.87.87,0,0,1,21.28,13.43Z"/><path d="M20.41,4.19a3.19,3.19,0,0,0-3.19,3.19h0a.87.87,0,1,0,1.74,0,1.46,1.46,0,1,1,1.45,1.46.86.86,0,0,0-.86.87v.93a.87.87,0,1,0,1.73,0v-.18a3.19,3.19,0,0,0-.87-6.27Z"/><path d="M8.34,22.18a4.6,4.6,0,1,0-5.63,0A5.49,5.49,0,0,0,0,26.93v1.86a.87.87,0,0,0,.87.87h9.31a.87.87,0,0,0,.87-.87V26.93A5.51,5.51,0,0,0,8.34,22.18ZM2.67,18.55a2.86,2.86,0,1,1,2.85,2.86A2.86,2.86,0,0,1,2.67,18.55Zm6.64,9.37H1.74v-1a3.79,3.79,0,1,1,7.57,0v1Z"/><path d="M26,0H14.83a3.66,3.66,0,0,0-3.66,3.66V20.41a.87.87,0,0,0,1.39.7l3.49-2.62H26a3.66,3.66,0,0,0,3.66-3.66V3.66A3.66,3.66,0,0,0,26,0Zm1.92,14.83A1.92,1.92,0,0,1,26,16.75H15.76a.82.82,0,0,0-.52.18l-2.33,1.75v-15a1.92,1.92,0,0,1,1.92-1.92H26a1.92,1.92,0,0,1,1.92,1.92Z"/></g></g></svg>