<svg xmlns="http://www.w3.org/2000/svg" viewBox="0 0 227.78 122.59"><g id="Capa_2" data-name="Capa 2"><g id="Capa_1-2" data-name="Capa 1"><path d="M227.23,78.06A162.18,162.18,0,0,0,225,60.81a137.67,137.67,0,0,0-4.24-17.35,86,86,0,0,0-7.14-16.17,60.89,60.89,0,0,0-10.75-14,47.46,47.46,0,0,0-15.44-9.7A53.36,53.36,0,0,0,167.73,0c-2.79,0-5.48,1.15-10.69,4.53-3.2,2.09-6.95,4.51-11.13,7.18a63.6,63.6,0,0,1-14.41,6.35,57.12,57.12,0,0,1-17.62,2.85,57.26,57.26,0,0,1-17.62-2.85,63.6,63.6,0,0,1-14.39-6.35C77.73,9.07,74,6.65,70.72,4.53,65.52,1.14,62.83,0,60,0A53.36,53.36,0,0,0,40.32,3.57a47.25,47.25,0,0,0-15.44,9.71,60.61,60.61,0,0,0-10.75,14A86.35,86.35,0,0,0,7,43.47,135.39,135.39,0,0,0,2.76,60.81,161.37,161.37,0,0,0,.55,78.07C.18,83.28,0,88.71,0,94.19,0,105.11,2.67,114.42,7.93,122H32a27.35,27.35,0,0,1-7.54-5.11C18.78,111.45,16,104,16,94.19c0-5.12.17-10.17.51-15a142.36,142.36,0,0,1,2-15.53,117.8,117.8,0,0,1,3.73-15.3A70,70,0,0,1,28,35.19a45.12,45.12,0,0,1,7.9-10.35,31.29,31.29,0,0,1,10.28-6.39A36.73,36.73,0,0,1,58.82,16c.56.29,1.55.86,3.17,1.92,3.29,2.14,7.08,4.59,11.27,7.26a79.59,79.59,0,0,0,18.08,8.08A74.62,74.62,0,0,0,104,36.19l12.15,12.15L101.91,92.12l10.26,30.47h11.74l10-29.47L121.18,47.64l14-14,1.27-.39a79.69,79.69,0,0,0,18.09-8.08c4.29-2.74,8-5.12,11.26-7.26,1.62-1.06,2.62-1.63,3.18-1.92a36.82,36.82,0,0,1,12.6,2.43,31.34,31.34,0,0,1,10.27,6.39,44.84,44.84,0,0,1,7.9,10.35,69.38,69.38,0,0,1,5.81,13.15,120.11,120.11,0,0,1,3.73,15.29,146.33,146.33,0,0,1,2,15.54h0c.34,4.83.51,9.88.51,15,0,9.84-2.78,17.26-8.49,22.71a27.55,27.55,0,0,1-7.55,5.11h24.12c5.26-7.58,7.92-16.9,7.92-27.82C227.78,88.69,227.6,83.26,227.23,78.06Z" style="opacity:0.15"/></g></g></svg>