<svg xmlns="http://www.w3.org/2000/svg" viewBox="0 0 92.55 92.55"><g id="Capa_2" data-name="Capa 2"><g id="Capa_1-2" data-name="Capa 1"><g id="work_time" data-name="work time"><path d="M53.27,3.09H66.33V0H52.45a1.55,1.55,0,0,0-1.29.69L48.08,5.31,50.65,7Z"/><path d="M39.28,89.47H26.22v3.08H40.11a1.54,1.54,0,0,0,1.28-.68l3.08-4.63-2.56-1.71Z"/><path d="M63.24,33.94A28.93,28.93,0,0,0,48,38.22l-.8-1.12a20.64,20.64,0,0,0,.9-2.17l6.1-1a1.53,1.53,0,0,0,1.29-1.52V23.14a1.53,1.53,0,0,0-1.29-1.52l-6.1-1a21.56,21.56,0,0,0-.9-2.17l3.6-5a1.55,1.55,0,0,0-.17-2L44.13,4.86a1.55,1.55,0,0,0-2-.16l-5,3.59a23,23,0,0,0-2.17-.89l-1-6.1A1.54,1.54,0,0,0,32.39,0H23.14a1.53,1.53,0,0,0-1.52,1.29l-1,6.11c-.74.26-1.46.56-2.17.89l-5-3.59a1.53,1.53,0,0,0-2,.16L4.86,11.41a1.53,1.53,0,0,0-.16,2l3.61,5.06a18.87,18.87,0,0,0-.88,2.14l-6.14,1A1.53,1.53,0,0,0,0,23.14v9.25a1.53,1.53,0,0,0,1.29,1.52l6.13,1q.39,1.1.87,2.16l-3.59,5a1.55,1.55,0,0,0,.16,2l6.55,6.54a1.55,1.55,0,0,0,2,.17l5-3.6a21.56,21.56,0,0,0,2.17.9l1,6.1a1.53,1.53,0,0,0,1.52,1.29h9.25a1.53,1.53,0,0,0,1.52-1.29l1-6.1a20.64,20.64,0,0,0,2.17-.9l1.12.8a28.93,28.93,0,0,0-4.28,15.2,29.31,29.31,0,1,0,29.3-29.3ZM36.51,44.08a18.2,18.2,0,0,1-3.39,1.4A1.53,1.53,0,0,0,32,46.71l-.95,5.74H24.44l-1-5.74a1.56,1.56,0,0,0-1.08-1.23A17.93,17.93,0,0,1,19,44.08a1.55,1.55,0,0,0-1.63.1l-4.74,3.39L8,42.87l3.38-4.73a1.55,1.55,0,0,0,.1-1.63A20.8,20.8,0,0,1,10,33.05a1.57,1.57,0,0,0-1.2-1l-5.74-.95V24.44l5.74-1a1.56,1.56,0,0,0,1.2-1A23.75,23.75,0,0,1,11.49,19a1.54,1.54,0,0,0-.14-1.55L8,12.66,12.66,8l4.74,3.38a1.53,1.53,0,0,0,1.62.1,18,18,0,0,1,3.4-1.4A1.55,1.55,0,0,0,23.5,8.83l.94-5.74h6.65L32,8.83a1.55,1.55,0,0,0,1.08,1.22,18,18,0,0,1,3.4,1.4,1.53,1.53,0,0,0,1.62-.1L42.88,8l4.69,4.69L44.19,17.4a1.53,1.53,0,0,0-.1,1.62,18,18,0,0,1,1.4,3.4,1.55,1.55,0,0,0,1.22,1.08l5.74.95v6.64l-5.74,1a1.55,1.55,0,0,0-1.22,1.08,17.93,17.93,0,0,1-1.4,3.39,1.55,1.55,0,0,0,.1,1.63l3.38,4.74-4.69,4.69L38.14,44.2A1.53,1.53,0,0,0,36.51,44.08ZM64.79,89.39V84.84H61.7v4.55a26.21,26.21,0,0,1-24.6-24.6h4.55V61.7H37.08a25.79,25.79,0,0,1,3.66-11.86l1.4,1a1.56,1.56,0,0,0,2-.17l6.54-6.54a1.56,1.56,0,0,0,.17-2l-1-1.4A25.79,25.79,0,0,1,61.7,37.08v4.57h3.09V37.1a26.21,26.21,0,0,1,24.6,24.6H84.84v3.09h4.55A26.21,26.21,0,0,1,64.79,89.39Z"/><path d="M64.79,44.73H61.7V63.24a1.54,1.54,0,0,0,1.54,1.55H75.59V61.7H64.79Z"/><path d="M35.48,23.14H29.31V13.88a1.55,1.55,0,0,0-2.95-.64l-7.71,17a1.55,1.55,0,0,0,.77,2,1.51,1.51,0,0,0,.63.13h6.17v9.26a1.55,1.55,0,0,0,1.22,1.51,1.84,1.84,0,0,0,.33,0,1.54,1.54,0,0,0,1.4-.9l7.71-17a1.53,1.53,0,0,0-.76-2A1.57,1.57,0,0,0,35.48,23.14ZM29.31,34.53V30.85a1.54,1.54,0,0,0-1.54-1.54H22.45L26.22,21v3.68a1.54,1.54,0,0,0,1.55,1.54h5.31Z"/><rect x="26.22" y="6.17" width="3.09" height="3.09"/><rect x="12.04" y="12.04" width="3.09" height="3.09" transform="translate(-5.63 13.59) rotate(-45)"/><rect x="6.17" y="26.22" width="3.09" height="3.09"/><rect x="12.04" y="40.4" width="3.09" height="3.09" transform="translate(-25.68 21.89) rotate(-45)"/><rect x="26.22" y="46.28" width="3.09" height="3.09"/><rect x="40.4" y="40.4" width="3.09" height="3.09" transform="translate(-17.37 41.94) rotate(-45)"/><rect x="46.28" y="26.22" width="3.09" height="3.09"/><rect x="40.4" y="12.05" width="3.09" height="3.09" transform="translate(2.68 33.64) rotate(-45)"/><path d="M78.67,7.71a6.17,6.17,0,1,0,6.17,6.17A6.17,6.17,0,0,0,78.67,7.71Zm0,9.26a3.09,3.09,0,1,1,3.09-3.09A3.08,3.08,0,0,1,78.67,17Z"/><path d="M91.39,9.3l-1-.26.55-.91a1.53,1.53,0,0,0-.23-1.88L86.31,1.88a1.56,1.56,0,0,0-1.89-.23l-.91.55-.26-1A1.54,1.54,0,0,0,81.76,0H75.59a1.54,1.54,0,0,0-1.5,1.17l-.26,1-.91-.55A1.54,1.54,0,0,0,71,1.89L66.67,6.25a1.54,1.54,0,0,0-.23,1.88L67,9,66,9.3a1.54,1.54,0,0,0-1.16,1.5V17A1.53,1.53,0,0,0,66,18.46l1,.26-.55.91a1.56,1.56,0,0,0,.23,1.89L71,25.88a1.54,1.54,0,0,0,1.89.23l.91-.54.26,1a1.55,1.55,0,0,0,1.5,1.17h6.17a1.55,1.55,0,0,0,1.49-1.17l.26-1,.91.54a1.54,1.54,0,0,0,1.89-.23l4.36-4.36a1.54,1.54,0,0,0,.23-1.89l-.55-.91,1-.26A1.53,1.53,0,0,0,92.55,17V10.8A1.54,1.54,0,0,0,91.39,9.3Zm-1.92,6.46-1.89.47a1.55,1.55,0,0,0-1.12,1.87,1.57,1.57,0,0,0,.18.42l1,1.66L85,22.84l-1.67-1a1.53,1.53,0,0,0-2.11.53,1.57,1.57,0,0,0-.18.42l-.47,1.89H76.79l-.46-1.88a1.54,1.54,0,0,0-1.87-1.12,1.28,1.28,0,0,0-.42.17l-1.67,1-2.66-2.66,1-1.67a1.53,1.53,0,0,0-.53-2.11,1.57,1.57,0,0,0-.42-.18l-1.89-.47V12l1.89-.46a1.53,1.53,0,0,0,.94-2.29l-1-1.67,2.66-2.65,1.67,1a1.54,1.54,0,0,0,2.12-.52A2.26,2.26,0,0,0,76.32,5l.46-1.88h3.76L81,5A1.54,1.54,0,0,0,82.88,6.1a1.72,1.72,0,0,0,.42-.18l1.66-1,2.66,2.65-1,1.67a1.55,1.55,0,0,0,.53,2.12,1.94,1.94,0,0,0,.42.17l1.88.46Z"/><path d="M13.88,72.5a6.17,6.17,0,1,0,6.17,6.17A6.17,6.17,0,0,0,13.88,72.5Zm0,9.26A3.09,3.09,0,1,1,17,78.67,3.09,3.09,0,0,1,13.88,81.76Z"/><path d="M26.11,84.42l-.54-.91,1-.26a1.55,1.55,0,0,0,1.17-1.49V75.59a1.55,1.55,0,0,0-1.17-1.5l-1-.26.54-.91A1.54,1.54,0,0,0,25.88,71l-4.36-4.36a1.56,1.56,0,0,0-1.89-.23l-.91.55-.26-1A1.53,1.53,0,0,0,17,64.79H10.8A1.54,1.54,0,0,0,9.3,66L9,67l-.91-.55a1.54,1.54,0,0,0-1.88.23L1.88,71a1.56,1.56,0,0,0-.23,1.89l.55.91-1,.26A1.54,1.54,0,0,0,0,75.59v6.17a1.54,1.54,0,0,0,1.17,1.49l1,.26-.55.91a1.54,1.54,0,0,0,.24,1.89l4.36,4.36a1.53,1.53,0,0,0,1.88.23L9,90.35l.26,1a1.54,1.54,0,0,0,1.5,1.16H17a1.53,1.53,0,0,0,1.49-1.16l.26-1,.91.55a1.54,1.54,0,0,0,1.89-.23l4.36-4.36A1.54,1.54,0,0,0,26.11,84.42Zm-1.43-3.87L22.8,81a1.54,1.54,0,0,0-1.12,1.87,1.28,1.28,0,0,0,.17.42l1,1.67-2.66,2.66-1.67-1a1.53,1.53,0,0,0-2.11.53,1.57,1.57,0,0,0-.18.42l-.47,1.89H12l-.46-1.89a1.53,1.53,0,0,0-2.29-.94l-1.67,1L4.92,85l1-1.67a1.54,1.54,0,0,0-.53-2.11A1.57,1.57,0,0,0,5,81l-1.88-.47V76.79L5,76.33a1.55,1.55,0,0,0,1.12-1.87A1.94,1.94,0,0,0,5.92,74l-1-1.67,2.66-2.66,1.66,1a1.55,1.55,0,0,0,2.12-.53,1.28,1.28,0,0,0,.17-.42L12,67.88h3.77l.46,1.88a1.53,1.53,0,0,0,1.87,1.12,1.28,1.28,0,0,0,.42-.17l1.66-1,2.66,2.66-1,1.67a1.54,1.54,0,0,0,.53,2.11,1.57,1.57,0,0,0,.42.18l1.89.46Z"/></g></g></g></svg>