<svg xmlns="http://www.w3.org/2000/svg" viewBox="0 0 49.02 49.02"><g id="Capa_2" data-name="Capa 2"><g id="Capa_1-2" data-name="Capa 1"><path d="M44.28,26.51V11A5.53,5.53,0,1,0,38,5.53H0V37.16H23.76A12.64,12.64,0,1,0,44.28,26.51ZM43.49,1.58a4,4,0,1,1-4,4A4,4,0,0,1,43.49,1.58ZM1.58,7.12H38.19a5.17,5.17,0,0,0,.87,1.72l-4.84,4.84a2.27,2.27,0,0,0-2,0L30.6,12.09a2.38,2.38,0,1,0-4.27,0l-4,4a2.31,2.31,0,0,0-1-.24,2.38,2.38,0,1,0,2.37,2.38,2.32,2.32,0,0,0-.24-1l4-4a2.27,2.27,0,0,0,2,0l1.59,1.6a2.45,2.45,0,0,0-.23,1,2.37,2.37,0,1,0,4.74,0,2.31,2.31,0,0,0-.24-1L40.18,10a5.56,5.56,0,0,0,2.52,1V25.43A12.59,12.59,0,0,0,26.88,28V24.51H22.14V34H24a11.56,11.56,0,0,0-.19,1.58H1.58ZM33.21,15a.79.79,0,0,1,0,1.58.79.79,0,1,1,0-1.58Zm-5.54-3.95a.79.79,0,1,1,.79.79A.79.79,0,0,1,27.67,11.07Zm-5.53,7.12a.79.79,0,1,1-.79-.8A.8.8,0,0,1,22.14,18.19ZM36.37,42.7a6.33,6.33,0,1,1,6.33-6.33A6.33,6.33,0,0,1,36.37,42.7ZM25.3,30.26a12.27,12.27,0,0,0-.94,2.16h-.64V26.09H25.3Zm10.28-4.92V28.5a7.89,7.89,0,0,0-6.41,11.12L26.43,41.2a10.9,10.9,0,0,1-1.13-4.83,11.08,11.08,0,0,1,10.28-11Zm.79,22.1a11,11,0,0,1-9.16-4.87L30,41a7.88,7.88,0,0,0,12.82,0l2.75,1.59A11,11,0,0,1,36.37,47.44Zm10-6.24-2.75-1.58A7.89,7.89,0,0,0,37.16,28.5V25.34A11,11,0,0,1,46.32,41.2Z" style="fill:#fff"/><path d="M36.37,31.63a4.74,4.74,0,1,0,4.74,4.74A4.74,4.74,0,0,0,36.37,31.63Zm0,7.9a3.16,3.16,0,1,1,3.16-3.16A3.17,3.17,0,0,1,36.37,39.53Z" style="fill:#fff"/><path d="M3.16,8.7H4.74v1.58H3.16Z" style="fill:#fff"/><path d="M6.33,8.7H17.39v1.58H6.33Z" style="fill:#fff"/><path d="M3.16,11.86H4.74v1.58H3.16Z" style="fill:#fff"/><path d="M6.33,11.86H17.39v1.58H6.33Z" style="fill:#fff"/><path d="M3.16,15H4.74V16.6H3.16Z" style="fill:#fff"/><path d="M6.33,15H17.39V16.6H6.33Z" style="fill:#fff"/><path d="M3.16,18.19H4.74v1.58H3.16Z" style="fill:#fff"/><path d="M6.33,18.19H17.39v1.58H6.33Z" style="fill:#fff"/><path d="M3.16,34H7.91V26.09H3.16Zm1.58-6.33H6.33v4.75H4.74Z" style="fill:#fff"/><path d="M9.49,34h4.74V27.67H9.49Zm1.58-4.75h1.58v3.17H11.07Z" style="fill:#fff"/><path d="M15.81,34h4.75V21.35H15.81Zm1.58-11.07H19v9.49H17.39Z" style="fill:#fff"/></g></g></svg>