<svg xmlns="http://www.w3.org/2000/svg" viewBox="0 0 27.7 36.09"><g id="Capa_2" data-name="Capa 2"><g id="Capa_1-2" data-name="Capa 1"><path d="M27.17,11.8a.53.53,0,0,0,.53-.53V7.58A1.59,1.59,0,0,0,26.11,6h-.53V4.58A1.58,1.58,0,0,0,24,3h-.53V1.59A1.59,1.59,0,0,0,21.88,0H1.59A1.59,1.59,0,0,0,0,1.59V4.5A.53.53,0,0,0,.53,5a.53.53,0,0,0,.53-.53V1.59a.52.52,0,0,1,.53-.53H21.88a.52.52,0,0,1,.53.53V28.51a.53.53,0,0,1-.53.53H1.59a.53.53,0,0,1-.53-.53V6.76a.53.53,0,0,0-.53-.53A.53.53,0,0,0,0,6.76V28.51a1.59,1.59,0,0,0,1.59,1.58h.52V31.5A1.59,1.59,0,0,0,3.7,33.09h.53V34.5a1.59,1.59,0,0,0,1.58,1.59h20.3A1.59,1.59,0,0,0,27.7,34.5v-21a.53.53,0,1,0-1.06,0v21a.53.53,0,0,1-.53.53H5.81a.52.52,0,0,1-.52-.53V33.09H18.35a.53.53,0,1,0,0-1.06H3.7a.53.53,0,0,1-.53-.53V30.09H21.88a1.59,1.59,0,0,0,1.59-1.58V4.05H24a.53.53,0,0,1,.53.53V31.5A.53.53,0,0,1,24,32H20.59a.53.53,0,0,0,0,1.06H24a1.59,1.59,0,0,0,1.58-1.59V7.05h.53a.53.53,0,0,1,.53.53v3.69A.53.53,0,0,0,27.17,11.8ZM3.56,8.74V12.4a.81.81,0,0,0,.81.81H8a.82.82,0,0,0,.82-.81V9.68l1.08-.93A.52.52,0,0,0,10,8,.54.54,0,0,0,9.24,8l-.49.42A.8.8,0,0,0,8,7.93H4.37A.81.81,0,0,0,3.56,8.74ZM4.62,9H7.79v.2l-1,.9-.5-.55a.54.54,0,0,0-.75,0,.53.53,0,0,0,0,.75l.85.92a.53.53,0,0,0,.73,0l.75-.64v1.58H4.62V9Zm14.76-.22H10.92a.52.52,0,0,0-.52.53.52.52,0,0,0,.52.53h8.46a.53.53,0,0,0,.53-.53A.53.53,0,0,0,19.38,8.77Zm0,2.26H10.92a.53.53,0,0,0,0,1.06h8.46a.53.53,0,0,0,0-1.06ZM3.56,19.24a.81.81,0,0,0,.81.81H8a.82.82,0,0,0,.82-.81V15.58A.82.82,0,0,0,8,14.77H4.37a.81.81,0,0,0-.81.81Zm1.06-3.42H7.79V19H4.62Zm14.76-.21H10.92a.53.53,0,0,0,0,1.06h8.46a.53.53,0,0,0,0-1.06Zm0,2.26H10.92a.53.53,0,0,0,0,1.05h8.46a.53.53,0,1,0,0-1.05ZM3.56,26.08a.81.81,0,0,0,.81.81H8a.82.82,0,0,0,.82-.81V22.41A.82.82,0,0,0,8,21.6H4.37a.81.81,0,0,0-.81.81Zm1.06-3.42H7.79v3.17H4.62Zm14.76-.21H10.92a.53.53,0,0,0,0,1.05h8.46a.53.53,0,1,0,0-1.05Zm0,2.25H10.92a.53.53,0,0,0,0,1.06h8.46a.53.53,0,0,0,0-1.06ZM16.7,2.5H7A1.77,1.77,0,0,0,7,6H16.7a1.77,1.77,0,1,0,0-3.53ZM16.7,5H7A.71.71,0,1,1,7,3.56H16.7A.71.71,0,1,1,16.7,5Z" style="fill:#fff"/></g></g></svg>