<?xml version="1.0" standalone="no"?>
<!DOCTYPE svg PUBLIC "-//W3C//DTD SVG 20010904//EN"
 "http://www.w3.org/TR/2001/REC-SVG-20010904/DTD/svg10.dtd">
<svg version="1.0" xmlns="http://www.w3.org/2000/svg"
 width="100%" height="100%" viewBox="0 0 2666.000000 1500.000000"
 preserveAspectRatio="xMidYMid meet">
<metadata>
Created by potrace 1.16, written by Peter Selinger 2001-2019
</metadata>
     <linearGradient id="a" y1="123.77" x2="247.54" y2="123.77" gradientUnits="userSpaceOnUse">
            <stop offset="0" stop-color="#f0f0f0" />
            <stop offset="1" stop-color="#fff" />
        </linearGradient>
<g style="fill:url(#a)"  transform="translate(0.000000,1500.000000) scale(0.100000,-0.100000)"
  stroke="none">
<path d="M2906 14907 c-164 -307 -379 -630 -602 -904 l-27 -33 35 0 c30 0 41
8 85 63 202 251 391 539 540 824 l75 143 -29 0 c-25 0 -33 -9 -77 -93z"/>
<path d="M7034 14868 c-145 -247 -311 -589 -394 -816 -19 -54 -21 -65 -9 -73
8 -5 18 -7 23 -6 6 2 36 68 68 148 100 249 318 673 430 837 l29 42 -35 0 c-33
0 -36 -3 -112 -132z"/>
<path d="M1803 14232 c-23 -32 -73 -91 -111 -132 l-69 -75 -91 -17 c-140 -27
-142 -28 -142 -109 l0 -68 -43 -30 c-105 -72 -203 -217 -231 -342 -8 -35 -19
-156 -26 -269 -6 -113 -20 -286 -30 -384 -20 -176 -20 -293 -20 -5663 0 -4976
1 -5491 16 -5556 54 -244 237 -436 493 -514 52 -17 267 -18 3429 -20 2978 -3
3372 -5 3372 -18 0 -13 767 -15 6635 -15 5825 0 6635 2 6635 15 0 12 179 15
1408 18 774 3 1424 8 1445 12 33 6 37 5 37 -13 0 -11 6 -22 14 -25 31 -12 466
-39 541 -34 44 3 107 14 140 24 l60 19 3 71 c3 69 4 73 36 93 58 35 159 151
193 221 49 100 60 168 78 509 15 288 16 799 13 5870 -3 5203 -4 5559 -20 5617
-68 245 -255 432 -494 493 -75 19 -115 20 -1173 20 -1505 0 -2281 9 -2281 27
0 11 -1106 13 -6635 13 -5530 0 -6635 -2 -6635 -13 0 -11 -98 -15 -532 -20
-612 -8 -5699 -8 -5680 0 6 2 12 13 12 23 0 22 -22 26 -235 40 -88 6 -175 13
-193 16 l-33 5 54 62 c94 109 109 132 105 170 l-3 35 -42 -56z m8295 -5547
c19 -23 22 -37 22 -120 0 -191 -66 -398 -175 -544 l-25 -35 1 220 c0 120 6
275 13 343 12 117 14 125 41 148 36 32 89 26 123 -12z m2799 -1 c99 -51 163
-168 149 -273 -9 -63 -50 -145 -91 -178 l-34 -28 48 -110 c27 -61 47 -113 44
-117 -2 -5 -14 -8 -27 -8 -19 0 -29 16 -66 105 -40 93 -47 105 -65 99 -11 -3
-82 -8 -157 -11 l-138 -5 0 -94 c0 -94 0 -94 -25 -94 l-25 0 0 369 c0 286 3
371 13 375 6 3 81 4 164 3 146 -4 155 -5 210 -33z m1133 21 c10 -12 10 -18 0
-30 -10 -12 -36 -15 -116 -15 l-104 0 0 -345 0 -345 -25 0 -25 0 0 345 0 345
-109 0 c-84 0 -111 3 -121 15 -10 12 -10 18 0 30 10 13 51 15 250 15 199 0
240 -2 250 -15z m-2070 -595 c135 -330 247 -600 250 -600 3 0 29 61 59 136 52
131 70 159 93 136 7 -7 -9 -61 -57 -179 l-67 -169 76 -178 c42 -98 73 -182 70
-187 -3 -5 -13 -9 -23 -9 -13 0 -34 37 -82 150 -35 82 -67 150 -70 150 -3 0
-33 -64 -67 -142 -60 -142 -81 -173 -102 -152 -8 8 10 61 65 190 l76 180 -130
319 -129 320 -220 3 -220 2 -22 -55 c-18 -45 -27 -55 -46 -55 -13 0 -24 3 -24
8 -1 21 305 732 315 732 6 0 121 -270 255 -600z m-2660 179 l0 -270 -42 23
c-43 24 -89 79 -115 138 -26 57 -22 174 6 238 24 53 110 142 137 142 12 0 14
-46 14 -271z m395 136 c51 -103 40 -230 -24 -305 l-30 -35 -1 209 c0 231 3
238 55 131z m663 -627 l0 -583 -24 30 c-69 86 -143 276 -163 419 -27 194 8
404 97 581 25 50 80 135 87 135 2 0 3 -262 3 -582z m272 -48 c0 -224 -2 -270
-14 -270 -8 0 -36 20 -64 45 -141 127 -128 363 26 465 25 16 47 30 49 30 2 0
3 -121 3 -270z m415 83 c13 -40 16 -72 11 -114 -6 -60 -41 -144 -70 -168 -15
-12 -16 6 -16 195 l1 209 28 -33 c16 -19 37 -58 46 -89z m-1980 -43 c49 -6
102 -8 117 -5 l28 7 0 -96 0 -96 -102 0 c-135 1 -226 20 -255 55 -34 39 -31
89 7 127 27 27 36 30 73 25 23 -3 82 -11 132 -17z m6510 -310 l260 -319 5 312
c5 304 6 312 25 312 20 0 20 -8 23 -372 1 -240 -1 -373 -8 -373 -5 0 -128 145
-272 321 l-263 321 -3 -311 -2 -311 -25 0 -25 0 0 370 c0 290 3 370 13 369 6
0 129 -144 272 -319z m950 289 c27 -10 63 -29 78 -41 24 -20 26 -25 15 -41
-13 -17 -17 -16 -81 18 -59 30 -78 35 -137 35 -180 0 -315 -123 -327 -298 -12
-164 116 -316 283 -338 60 -7 146 14 206 52 31 20 42 23 54 13 23 -19 17 -32
-29 -61 -93 -58 -201 -72 -308 -38 -265 82 -347 420 -151 617 104 103 256 135
397 82z m1175 10 c51 -23 90 -56 90 -76 0 -27 -28 -24 -73 8 -117 83 -267 26
-267 -100 0 -52 47 -93 171 -146 142 -62 182 -91 204 -149 37 -97 -5 -199
-102 -243 -48 -22 -65 -25 -137 -21 -67 3 -92 9 -129 31 -53 31 -102 90 -93
112 9 24 30 18 67 -21 64 -68 156 -91 251 -62 82 24 126 114 92 184 -25 49
-48 65 -173 119 -161 70 -201 110 -201 204 0 73 41 138 105 167 46 20 142 17
195 -7z m-5800 -14 l0 -25 -230 0 -230 0 0 -185 0 -185 188 -2 c179 -3 187 -4
187 -23 0 -19 -8 -20 -185 -25 l-185 -5 -3 -102 -3 -103 233 -2 c225 -3 233
-4 233 -23 0 -19 -8 -20 -257 -23 l-258 -2 0 358 c0 197 3 362 7 365 3 4 118
7 255 7 l248 0 0 -25z m912 -2 c94 -43 168 -155 168 -257 0 -82 -27 -145 -88
-206 -69 -67 -103 -80 -239 -87 l-103 -6 0 -74 c0 -71 -1 -74 -22 -71 l-23 3
-3 350 c-1 192 0 356 3 364 9 23 247 11 307 -16z m806 0 l3 -23 -230 0 -231 0
0 -185 0 -185 185 0 185 0 0 -25 0 -25 -182 -2 -183 -3 -3 -102 -3 -103 233
-2 c225 -3 233 -4 233 -23 0 -19 -8 -20 -257 -23 l-258 -2 0 358 c0 197 3 362
7 366 4 3 117 5 252 4 l246 -3 3 -22z m502 1 c60 -27 108 -77 138 -142 20 -44
23 -65 20 -120 -5 -79 -28 -132 -81 -185 l-39 -39 46 -99 c25 -55 46 -104 46
-109 0 -6 -11 -10 -24 -10 -22 0 -31 13 -72 99 l-46 99 -31 -9 c-18 -5 -87 -9
-154 -9 l-123 0 0 -90 c0 -89 0 -90 -25 -90 l-25 0 0 358 c0 197 3 362 8 366
4 4 77 6 162 4 130 -3 162 -7 200 -24z m368 -342 l2 -362 -25 0 -25 0 0 358
c0 197 3 362 7 366 4 4 14 5 23 4 13 -3 15 -48 18 -366z m670 341 l3 -23 -230
0 -231 0 0 -185 0 -185 185 0 185 0 0 -25 0 -25 -182 -2 -183 -3 -3 -102 -3
-103 233 -2 c225 -3 233 -4 233 -23 0 -19 -8 -20 -257 -23 l-258 -2 0 358 c0
197 3 362 7 366 4 3 117 5 252 4 l246 -3 3 -22z m2097 2 c0 -19 -8 -20 -227
-23 l-228 -2 0 -185 0 -185 183 -2 c180 -3 182 -3 185 -25 l3 -23 -185 0 -186
0 0 -105 0 -105 230 0 230 0 0 -25 0 -25 -255 0 -255 0 0 365 0 365 253 -2
c244 -3 252 -4 252 -23z m-7917 -437 l-3 -91 -60 -14 c-33 -7 -111 -38 -173
-69 -106 -51 -116 -54 -148 -44 -43 15 -64 44 -64 93 0 26 7 45 23 61 55 55
305 153 395 155 l33 1 -3 -92z m901 -272 c93 -117 188 -321 176 -377 -9 -39
-50 -73 -89 -73 -57 0 -80 24 -114 121 -31 85 -32 95 -32 241 0 83 2 152 4
152 2 0 27 -29 55 -64z m-759 -221 l0 -275 -39 19 c-104 53 -166 211 -132 336
17 63 66 132 118 165 26 17 48 30 50 30 2 0 3 -124 3 -275z m1283 264 c48 -25
67 -51 67 -94 0 -47 -26 -79 -72 -90 l-28 -7 0 101 c0 56 3 101 6 101 3 0 15
-5 27 -11z m-915 -91 c38 -56 53 -105 53 -173 0 -70 -23 -140 -61 -185 l-29
-35 -1 218 c0 119 2 217 5 217 2 0 17 -19 33 -42z m1772 -117 c0 -6 -21 -11
-47 -13 l-48 -3 -3 -172 c-2 -145 -5 -173 -17 -173 -13 0 -15 27 -15 175 l0
175 -50 0 c-27 0 -50 5 -50 10 0 6 45 10 115 10 66 0 115 -4 115 -9z m1201
-20 c23 -24 29 -38 29 -74 0 -46 -29 -97 -55 -97 -28 0 -24 -20 20 -95 42 -71
44 -76 23 -73 -16 2 -35 24 -66 81 -41 72 -46 77 -78 77 l-34 0 0 -80 c0 -64
-3 -80 -15 -80 -13 0 -15 27 -15 185 l0 185 81 0 c76 0 82 -2 110 -29z m1277
-155 c34 -99 60 -181 58 -184 -13 -12 -33 10 -46 47 l-13 41 -83 0 -83 0 -12
-41 c-12 -38 -32 -59 -45 -46 -3 3 23 87 58 187 83 237 81 237 166 -4z m1162
32 c29 -84 56 -157 60 -161 4 -4 19 25 33 65 15 40 40 112 58 161 19 53 36 87
45 87 21 0 18 -10 -49 -195 -79 -214 -87 -219 -136 -83 -18 51 -48 135 -67
186 -30 83 -31 92 -15 92 15 0 29 -31 71 -152z m1410 142 c0 -6 -32 -10 -75
-10 l-75 0 0 -75 0 -75 65 0 c51 0 65 -3 65 -15 0 -12 -14 -15 -65 -15 l-65 0
0 -70 0 -70 75 0 c60 0 75 -3 75 -15 0 -12 -17 -15 -95 -15 l-95 0 0 185 0
185 95 0 c57 0 95 -4 95 -10z m1040 -160 l0 -170 60 0 c47 0 60 -3 60 -15 0
-12 -16 -15 -80 -15 l-80 0 0 185 c0 178 1 185 20 185 19 0 20 -7 20 -170z
m-4230 -3850 l0 -490 -2093 0 c-1847 0 -2100 2 -2152 15 -241 63 -403 300
-368 541 27 189 152 340 333 401 l65 22 2108 1 2107 0 0 -490z m4373 469 c78
-26 119 -51 184 -112 104 -98 153 -210 153 -351 0 -104 -25 -190 -79 -272 -47
-73 -89 -112 -164 -158 -118 -70 34 -66 -2286 -66 l-2091 0 0 490 0 490 2110
0 2111 0 62 -21z"/>
<path d="M12560 8440 l0 -220 130 0 c143 0 183 10 233 58 87 82 91 229 9 316
-51 54 -93 66 -239 66 l-133 0 0 -220z"/>
<path d="M11683 8558 c-71 -161 -175 -419 -171 -423 3 -3 91 -4 195 -3 l190 3
-91 227 c-51 125 -95 230 -98 234 -4 3 -15 -14 -25 -38z"/>
<path d="M12552 7503 l3 -238 91 1 c116 1 170 20 222 79 88 101 84 228 -12
321 -61 60 -105 74 -226 74 l-80 0 2 -237z"/>
<path d="M13808 7734 c-5 -4 -8 -106 -8 -226 l0 -218 111 0 c139 0 187 12 243
61 75 66 95 163 52 254 -47 100 -100 126 -271 133 -66 2 -123 1 -127 -4z"/>
<path d="M12660 6795 l0 -75 60 0 c70 0 100 23 100 77 0 52 -28 73 -100 73
l-60 0 0 -75z"/>
<path d="M13977 6753 l-35 -98 65 -3 c36 -2 68 -1 70 2 5 5 -56 196 -62 196
-1 0 -18 -44 -38 -97z"/>
<path d="M10744 2991 c-17 -10 -36 -33 -44 -50 -16 -39 -8 -106 17 -133 22
-25 73 -48 107 -48 15 0 30 -8 36 -20 8 -14 21 -20 45 -20 41 0 44 8 11 39
l-24 23 24 35 c28 41 30 81 9 127 -30 63 -118 86 -181 47z m111 -56 c46 -45
22 -115 -40 -115 -59 0 -88 77 -45 120 27 27 56 25 85 -5z"/>
<path d="M10970 2930 c0 -104 16 -144 64 -160 46 -15 87 -6 117 26 21 23 24
37 27 120 l4 94 -31 0 -31 0 0 -76 c0 -87 -11 -114 -45 -114 -34 0 -45 27 -45
114 l0 76 -30 0 -30 0 0 -80z"/>
<path d="M11264 2991 c-39 -24 -58 -69 -51 -124 15 -111 168 -142 227 -45 24
39 25 78 5 122 -30 63 -118 86 -181 47z m111 -56 c46 -45 22 -115 -40 -115
-59 0 -88 77 -45 120 27 27 56 25 85 -5z"/>
<path d="M11480 2985 c0 -21 5 -25 30 -25 l29 0 3 -97 3 -98 28 -3 27 -3 0
100 0 101 35 0 c31 0 35 3 35 25 0 25 0 25 -95 25 -95 0 -95 0 -95 -25z"/>
<path d="M11700 2885 l0 -126 73 3 c66 3 72 5 75 26 3 20 -1 22 -42 22 -44 0
-46 1 -46 30 0 28 2 30 40 30 33 0 40 3 40 20 0 17 -7 20 -40 20 -36 0 -40 3
-40 25 0 23 4 25 45 25 41 0 45 2 45 25 0 24 -2 25 -75 25 l-75 0 0 -125z"/>
<path d="M15114 3000 c-58 -23 -83 -114 -49 -179 15 -30 69 -61 105 -61 61 0
120 56 120 115 0 24 -2 25 -65 25 -58 0 -65 -2 -65 -20 0 -16 7 -20 35 -20 37
0 43 -8 23 -28 -18 -18 -73 -14 -91 6 -17 19 -22 57 -11 87 11 28 52 37 87 20
38 -19 77 -20 77 -1 0 8 -14 26 -31 40 -32 27 -91 34 -135 16z"/>
<path d="M15351 2894 c-22 -64 -41 -120 -41 -126 0 -19 55 -3 65 20 8 18 18
22 53 22 36 0 44 -4 52 -25 7 -19 17 -25 40 -25 16 0 30 3 29 8 0 4 -19 59
-42 122 l-42 115 -36 3 -36 3 -42 -117z m95 -12 c6 -30 5 -32 -21 -32 -21 0
-26 4 -21 16 3 9 9 27 12 41 8 30 21 19 30 -25z"/>
<path d="M15580 2885 l0 -125 65 0 c63 0 65 1 65 25 0 22 -4 25 -35 25 l-35 0
0 100 0 100 -30 0 -30 0 0 -125z"/>
<path d="M15742 2888 l3 -123 68 -3 c66 -3 67 -3 67 23 0 23 -4 25 -40 25
l-40 0 0 100 0 100 -30 0 -31 0 3 -122z"/>
<path d="M15910 2885 l0 -126 73 3 c66 3 72 5 75 26 3 20 -1 22 -42 22 -44 0
-46 1 -46 30 0 28 2 30 40 30 33 0 40 3 40 20 0 17 -7 20 -40 20 -36 0 -40 3
-40 25 0 23 4 25 45 25 41 0 45 2 45 25 0 24 -2 25 -75 25 l-75 0 0 -125z"/>
<path d="M16100 2884 l0 -125 28 3 c25 3 27 7 32 53 l5 50 28 -52 c24 -46 31
-53 57 -53 36 0 36 3 8 57 l-22 41 22 19 c11 10 24 30 28 45 5 22 0 33 -24 58
-28 27 -36 30 -96 30 l-66 0 0 -126z m115 46 c0 -20 -6 -26 -27 -28 -25 -3
-28 0 -28 28 0 28 3 31 28 28 21 -2 27 -8 27 -28z"/>
<path d="M16310 3001 c0 -6 18 -43 40 -83 29 -53 40 -85 40 -116 0 -41 1 -43
28 -40 25 3 27 7 33 53 3 29 21 81 42 123 l37 72 -34 0 c-31 0 -35 -4 -56 -52
l-23 -53 -23 53 c-20 46 -26 52 -53 52 -17 0 -31 -4 -31 -9z"/>
<path d="M940 13574 c-101 -42 -286 -97 -387 -114 -67 -12 -73 -15 -73 -37 0
-22 3 -23 38 -17 177 30 372 83 451 122 20 10 39 30 47 50 7 17 12 32 11 31
-1 0 -40 -16 -87 -35z"/>
<path d="M26388 10461 c-88 -24 -163 -61 -234 -117 -61 -46 -207 -200 -328
-344 -119 -142 -128 -155 -124 -192 l3 -33 80 94 c160 189 293 337 358 398 91
85 203 139 330 161 80 14 97 20 97 34 0 15 -9 18 -57 17 -32 0 -88 -8 -125
-18z"/>
<path d="M26488 8742 c-322 -453 -603 -1060 -748 -1613 -34 -132 -40 -168 -39
-254 l1 -100 42 170 c165 653 395 1184 746 1716 66 101 80 129 78 156 -3 31
-5 29 -80 -75z"/>
<path d="M895 7812 c-59 -15 -71 -21 -73 -40 -4 -26 0 -27 98 -4 63 15 75 21
78 40 4 27 -6 27 -103 4z"/>
<path d="M26620 6679 c-58 -71 -104 -140 -154 -226 -38 -66 -46 -89 -46 -129
1 -41 2 -46 12 -29 45 82 120 203 170 272 51 71 59 88 56 120 l-3 36 -35 -44z"/>
<path d="M25701 4625 c-1 -86 5 -122 39 -250 86 -327 195 -611 367 -955 126
-253 258 -476 385 -653 70 -97 73 -101 76 -71 2 25 -14 57 -81 160 -360 551
-580 1057 -743 1699 l-43 170 0 -100z"/>
<path d="M26420 4494 c0 -43 8 -63 61 -149 33 -55 86 -134 117 -175 l57 -75 3
38 c3 32 -4 48 -47 107 -28 38 -82 122 -121 187 l-70 117 0 -50z"/>
<path d="M820 3881 c0 -22 8 -25 96 -46 84 -19 84 -19 84 8 0 21 -8 25 -82 40
-102 21 -98 21 -98 -2z"/>
<path d="M25700 1706 c0 -38 22 -69 174 -246 112 -131 492 -512 606 -608 82
-69 85 -71 88 -47 3 21 -10 38 -70 93 -233 212 -487 478 -697 730 -52 61 -95
112 -97 112 -2 0 -4 -15 -4 -34z"/>
<path d="M23030 887 c0 -2 63 -58 139 -125 223 -196 492 -482 666 -709 31 -40
46 -52 68 -53 36 0 34 3 -91 158 -198 244 -411 467 -622 650 -77 67 -100 82
-127 82 -18 0 -33 -1 -33 -3z"/>
</g>
</svg>
