<svg xmlns="http://www.w3.org/2000/svg" xmlns:xlink="http://www.w3.org/1999/xlink" viewBox="0 0 215.4 164.25">
    <defs>
        <linearGradient id="a" x1="184.84" y1="33.14" x2="200.12" y2="33.14" gradientUnits="userSpaceOnUse">
            <stop offset="0" stop-color="#662d91" />
            <stop offset=".98" stop-color="#0ff" />
        </linearGradient>
        <linearGradient id="b" x1="184.84" y1="52.24" x2="200.12" y2="52.24" xlink:href="#a" />
        <linearGradient id="c" x1="184.84" y1="71.34" x2="200.12" y2="71.34" xlink:href="#a" />
        <linearGradient id="d" x1="169.55" y1="14.03" x2="200.12" y2="14.03" xlink:href="#a" />
        <linearGradient id="e" x1="119.89" y1="10.21" x2="127.53" y2="10.21" xlink:href="#a" />
        <linearGradient id="f" x1="0" y1="87.23" x2="177.19" y2="87.23" xlink:href="#a" />
        <linearGradient id="g" x1="95.77" y1="40.84" x2="144.05" y2="40.84" xlink:href="#a" />
        <linearGradient id="h" x1="95.76" y1="59.95" x2="144.04" y2="59.95" xlink:href="#a" />
        <linearGradient id="i" x1="95.76" y1="79.06" x2="144.04" y2="79.06" xlink:href="#a" />
        <linearGradient id="j" x1="95.76" y1="98.17" x2="144.03" y2="98.17" xlink:href="#a" />
        <linearGradient id="k" x1="95.75" y1="117.28" x2="144.03" y2="117.28" xlink:href="#a" />
        <linearGradient id="l" x1="5.27" y1="56.06" x2="62.58" y2="56.06" xlink:href="#a" />
        <linearGradient id="m" x1="5.27" y1="75.16" x2="62.58" y2="75.16" xlink:href="#a" />
        <linearGradient id="n" x1="5.27" y1="94.27" x2="62.58" y2="94.27" xlink:href="#a" />
        <linearGradient id="o" x1="5.27" y1="113.37" x2="62.58" y2="113.37" xlink:href="#a" />
        <linearGradient id="p" x1="5.27" y1="132.47" x2="62.58" y2="132.47" xlink:href="#a" />
        <linearGradient id="q" x1="7.46" y1="14.6" x2="35.64" y2="14.6" xlink:href="#a" />
        <linearGradient id="r" x1="47.3" y1="12.76" x2="96.93" y2="12.76" xlink:href="#a" />
        <linearGradient id="s" x1="59.99" y1="2.64" x2="70.16" y2="2.64" xlink:href="#a" />
        <linearGradient id="t" x1="104.6" y1="7.71" x2="112.24" y2="7.71" xlink:href="#a" />
        <linearGradient id="u" x1="184.84" y1="47.49" x2="215.4" y2="47.49" xlink:href="#a" />
    </defs>
    <g data-name="Capa 2">
        <g style="opacity:.15" data-name="Capa 1">
            <path d="M184.84 29.32h15.28V37h-15.28Z" style="fill:url(#a)" />
            <path d="M184.84 48.42h15.28v7.64h-15.28Z" style="fill:url(#b)" />
            <path d="M184.84 67.52h15.28v7.64h-15.28Z" style="fill:url(#c)" />
            <path d="M169.55 10.21h30.57v7.64h-30.57Z" style="fill:url(#d)" />
            <path d="M119.89 6.39h7.64V14h-7.64Z" style="fill:url(#e)" />
            <path
                d="M173.37 33.14h-3.82v114.61H97.43L159 132.36a3.83 3.83 0 0 0 2.89-3.71V14a3.82 3.82 0 0 0-3.82-3.82 3.57 3.57 0 0 0-.92.12L95.22 25.81a22.89 22.89 0 0 0-15.37 12.88 19 19 0 0 0-13.45-5.55H3.31c-.31.93-.72 1.88-1.13 2.8-.66 1.49-1.36 3-2 4.45 0 .1-.11.25-.16.39H66.4a11.47 11.47 0 0 1 11.46 11.46v99.34a19 19 0 0 0-11.46-3.83H14.32a7.66 7.66 0 0 1 .66.53 26.36 26.36 0 0 0 4.77 2.85 19.14 19.14 0 0 1 5.44 4.26H66.4a11.48 11.48 0 0 1 11.13 8.79c2.82.22 5.53-.2 8.32-.06A11.47 11.47 0 0 1 97 155.39h72.59v8.15a3.63 3.63 0 0 1 .87 0c2.29.17 4.54 0 6.77.06V37a3.82 3.82 0 0 0-3.86-3.86ZM95.22 140.43a22.91 22.91 0 0 0-9.72 5.14V48.05a15.25 15.25 0 0 1 11.58-14.82l57.19-14.3v106.74Z"
                style="fill:url(#f)" />
            <path d="m95.77 44.85 45.86-15.27 2.42 7.25L98.18 52.1Z" style="fill:url(#g)" />
            <path d="m95.76 64 45.87-15.27 2.37 7.21-45.82 15.27Z" style="fill:url(#h)" />
            <path d="m95.76 83.07 45.86-15.27 2.38 7.25-45.83 15.27Z" style="fill:url(#i)" />
            <path d="m95.76 102.18 45.86-15.27 2.38 7.25-45.83 15.27Z" style="fill:url(#j)" />
            <path d="M95.75 121.29 141.61 106l2.42 7.25-45.86 15.29Z" style="fill:url(#k)" />
            <path d="M5.27 52.24h57.31v7.64H5.27Z" style="fill:url(#l)" />
            <path d="M5.27 71.34h57.31V79H5.27Z" style="fill:url(#m)" />
            <path d="M5.27 90.45h57.31v7.64H5.27Z" style="fill:url(#n)" />
            <path d="M5.27 109.55h57.31v7.64H5.27Z" style="fill:url(#o)" />
            <path d="M5.27 128.65h57.31v7.64H5.27Z" style="fill:url(#p)" />
            <path
                d="M13.91 17.59a81 81 0 0 1-6.45 7.65 27.56 27.56 0 0 0 3.54.26A24.87 24.87 0 0 0 35.64 3.7c-3.15 1.41-6.25 2.92-9.27 4.62a17.19 17.19 0 0 1-12.46 9.27Z"
                style="fill:url(#q)" />
            <path
                d="M89.27 1.58a17.17 17.17 0 0 1-17.14 16.27A17.18 17.18 0 0 1 54.94.66V.02c-1.72 0-3.45.11-5.16.27-.78.08-1.62.17-2.48.29v.08a24.83 24.83 0 0 0 49.63 1.28 46.49 46.49 0 0 1-7.66-.36Z"
                style="fill:url(#r)" />
            <path d="m60 0 5.27 5.28 4.9-4.9C66.77.24 63.38.07 60 0Z" style="fill:url(#s)" />
            <path d="M105.41 1.59h-.81V14h7.64V1.38c-2.24.08-4.55.15-6.83.21Z" style="fill:url(#t)" />
            <path
                d="M210.25.74c-.83 0-1.66.07-2.49.08v85.8h-22.92v7.65h26.74a3.82 3.82 0 0 0 3.82-3.82V.71a42.15 42.15 0 0 1-5.15.03Z"
                style="fill:url(#u)" />
        </g>
    </g>
</svg>