<svg xmlns="http://www.w3.org/2000/svg" xmlns:xlink="http://www.w3.org/1999/xlink" viewBox="0 0 205.27 165.05"><defs><style>.cls-1{opacity:0.15;}.cls-2{fill:url(#Degradado_sin_nombre_20);}.cls-3{fill:url(#Degradado_sin_nombre_20-2);}.cls-4{fill:url(#Degradado_sin_nombre_20-3);}.cls-5{fill:url(#Degradado_sin_nombre_20-4);}.cls-6{fill:url(#Degradado_sin_nombre_20-5);}.cls-7{fill:url(#Degradado_sin_nombre_20-6);}.cls-8{fill:url(#Degradado_sin_nombre_20-7);}</style><linearGradient id="Degradado_sin_nombre_20" x1="140.58" y1="115.63" x2="205.27" y2="115.63" gradientUnits="userSpaceOnUse"><stop offset="0" stop-color="#662d91"/><stop offset="0.98" stop-color="aqua"/></linearGradient><linearGradient id="Degradado_sin_nombre_20-2" x1="0" y1="82.52" x2="93.15" y2="82.52" xlink:href="#Degradado_sin_nombre_20"/><linearGradient id="Degradado_sin_nombre_20-3" x1="98.39" y1="5.1" x2="107.61" y2="5.1" xlink:href="#Degradado_sin_nombre_20"/><linearGradient id="Degradado_sin_nombre_20-4" x1="51.95" y1="83.02" x2="190.86" y2="83.02" xlink:href="#Degradado_sin_nombre_20"/><linearGradient id="Degradado_sin_nombre_20-5" x1="132.1" y1="8.08" x2="148.09" y2="8.08" xlink:href="#Degradado_sin_nombre_20"/><linearGradient id="Degradado_sin_nombre_20-6" x1="102.91" y1="56.27" x2="149.8" y2="56.27" xlink:href="#Degradado_sin_nombre_20"/><linearGradient id="Degradado_sin_nombre_20-7" x1="97.56" y1="29.33" x2="122.21" y2="29.33" xlink:href="#Degradado_sin_nombre_20"/></defs><g id="Capa_2" data-name="Capa 2"><g id="Capa_1-2" data-name="Capa 1"><g id="Page-1" class="cls-1"><g id="_021---Brain-Profile" data-name="021---Brain-Profile"><path class="cls-2" d="M205.25,86.18c-.84-6.26-1.46-12.52-.39-18.76a.77.77,0,0,0,0-.15,104.88,104.88,0,0,1-5.77,23.21c-5.8,15.85-15.51,22.44-25.78,29.44a88.3,88.3,0,0,0-15.81,12.63,70.91,70.91,0,0,0-16.9,31.24,38,38,0,0,1,7.68.2A63.53,63.53,0,0,1,163,137.62a81.68,81.68,0,0,1,14.53-11.53c9.88-6.72,21-14.28,27.78-30.9C205.13,92.19,205.19,89.18,205.25,86.18Z"/><path class="cls-3" d="M92.75,137.59a3.62,3.62,0,0,0-2.21-1.84,3.74,3.74,0,0,0-2.86.22,3.78,3.78,0,0,0-1.86,2.18c-1.19,3.67-6,7.94-22.28,7.42-1.15,0-3.44,0-6.48,0-2.84,0-6.35,0-10.21,0h0a309.15,309.15,0,0,1-33.47-1.45,6.63,6.63,0,0,1-5.6-7.28A13.81,13.81,0,0,1,10.44,128a15,15,0,0,0,2.84-7.23,12.32,12.32,0,0,0-4-9.51l-.6-.7a13.59,13.59,0,0,1,2.13-1.72,3.72,3.72,0,0,0,1.64-2.39,3.76,3.76,0,0,0-.56-2.86c-.63-.92-2.11-3.14-3.16-4.81L9.69,98c.88-.77,1.89-1.65,2.94-2.71a13.81,13.81,0,0,0,3.71-7.56c.7-4.62-2.68-8.18-5.16-10.78A21.48,21.48,0,0,1,9,74.47a21.21,21.21,0,0,1-1.67-2.73c.78-2,11.49-7.68,17.24-10.72A29.94,29.94,0,0,0,36.68,48.27a9,9,0,0,1,1-1,11.17,11.17,0,0,0,3.17-4.41,13.09,13.09,0,0,0-2.08-10.68h0c-.95-1.8-1.87-3.52-1.65-4.66a24.32,24.32,0,0,1,4.73-5.91,57.3,57.3,0,0,0,6.9-8.32l.71-1.13a94.58,94.58,0,0,1,6.7-9.67c.67-.83,1.38-1.62,2.09-2.4L57.54,0A5.43,5.43,0,0,1,56,.21c-1.82,0-3.63,0-5.45.08-.77.09-1.54.15-2.32.19C46.44,3,44.7,5.53,43.11,8.18L42.4,9.3a51.08,51.08,0,0,1-6,7.18,22.61,22.61,0,0,0-6.62,9.58,14.33,14.33,0,0,0,2.38,9.67c1.18,2.2,1.92,3.71,1.58,4.73a7.3,7.3,0,0,1-1.26,1.4,11.75,11.75,0,0,0-2.34,2.77h0a22.68,22.68,0,0,1-9,9.74C5.82,62.45,1.21,65.46.1,69.86a10.87,10.87,0,0,0,2.71,8.77A27.16,27.16,0,0,0,5.75,82c1.24,1.31,3.33,3.51,3.18,4.5A6.41,6.41,0,0,1,7.29,90c-.91.92-1.78,1.68-2.54,2.35-2.23,2-5.6,4.92-3.31,8.81.53.94,1.47,2.42,2.34,3.75a9.52,9.52,0,0,0-2.93,4.72,5.39,5.39,0,0,0,.87,4.16,28.09,28.09,0,0,0,1.94,2.39c1.65,1.92,2.27,2.75,2.17,3.94A8,8,0,0,1,4.13,124a21.2,21.2,0,0,0-3.85,12.8,13.85,13.85,0,0,0,12.09,14.73A305.12,305.12,0,0,0,45.21,153c2.19,2.63,3.84,6.59,4.83,11.52a44.46,44.46,0,0,1,7.73.54,55.49,55.49,0,0,0-3.66-12h3c2.93,0,5.16,0,6.24,0,16.77.54,26.74-3.69,29.63-12.59A3.67,3.67,0,0,0,92.75,137.59Z"/><path class="cls-4" d="M100,7a3.76,3.76,0,0,0,5.12-.91,17.63,17.63,0,0,1,2.45-2.93L106,3c-2.47-.1-5-.22-7.42-.36A3.75,3.75,0,0,0,100,7Z"/><path class="cls-5" d="M190.67,56.7a15.3,15.3,0,0,0-7.16-10.65,31.82,31.82,0,0,0-6.18-24.14,5.59,5.59,0,0,1-2.75.66h-.18c1.36,2.14.66,5-1.13,6.8a24.21,24.21,0,0,1,2.94,14.43,15,15,0,0,0-5.37.68,3.74,3.74,0,1,0,2.26,7.13A7.89,7.89,0,1,1,176.22,67a3.74,3.74,0,1,0,.76,7.45,15,15,0,0,0,3.22-.72,16,16,0,0,1-8.3,14l-.09,0a16.19,16.19,0,0,1-19.19-3,15.29,15.29,0,0,1-1.35-1.66,12.73,12.73,0,0,0,5.3-12.1,3.74,3.74,0,1,0-7.42.94,5.58,5.58,0,0,1-4,6.07,5.65,5.65,0,0,1-7-4.65,3.74,3.74,0,1,0-7.41,1,12.88,12.88,0,0,0,13.35,11.35A22.39,22.39,0,0,0,147.21,90,23.08,23.08,0,0,0,163,97.19,23.85,23.85,0,0,1,145.33,101a3.74,3.74,0,0,0-1.91,7.21,2.91,2.91,0,0,0,.58.15,30.69,30.69,0,0,0,6.9.37,32.78,32.78,0,0,1,.51,7,3.75,3.75,0,0,1-.22,1.2,4,4,0,0,1-3.54,2.7,4.23,4.23,0,0,1-4.13-2.83,24,24,0,0,0-7.93-10.5c-6.74-5.23-8.88-8.55-9.26-11.47a35.41,35.41,0,0,0,5.81.76A3.72,3.72,0,0,0,136,92h0a3.72,3.72,0,0,0-3.6-3.88,28.59,28.59,0,0,1-6.49-1,27.54,27.54,0,0,1-11.08-5.87,3.94,3.94,0,0,0-4.31-.4A16,16,0,0,1,92.42,54.59a3.75,3.75,0,0,0-4.79-5.76A23,23,0,0,0,84,52.66a5.64,5.64,0,0,1-3.21-7l0-.09a3.71,3.71,0,0,0-2.31-4.73,3.8,3.8,0,0,0-4.79,2.34,13,13,0,0,0,6.68,16,22.54,22.54,0,0,0-.91,3.64A22.87,22.87,0,0,1,65.45,24.77a15.76,15.76,0,0,0,1.89,3A3.75,3.75,0,1,0,73.11,23a7.93,7.93,0,0,1-1.81-5.09,7.79,7.79,0,0,1,.43-2.57,7.91,7.91,0,0,1,10-4.86,7.78,7.78,0,0,1,4.88,5.08,3.74,3.74,0,0,0,7.15-2.23,15.12,15.12,0,0,0-8-9.17,11.38,11.38,0,0,1,1.88-2.3q-4.35-.33-8.7-.71c-.25.47-.5,1-.71,1.45A15.14,15.14,0,0,0,63.94,16,30.38,30.38,0,0,0,79.37,70.45a23.45,23.45,0,0,0,32.63,18,35.8,35.8,0,0,0,6.87,4c-.46,6.19,2.29,11.3,9.15,17.26A37.24,37.24,0,0,1,120.94,128c-.89,1.48-1.78,2.94-2.61,4.42a96,96,0,0,0-10.77,32.22,62.32,62.32,0,0,1,7.6-.15,88,88,0,0,1,9.7-28.4h0c.78-1.4,1.63-2.81,2.49-4.22a57,57,0,0,0,7.34-15.8,15.89,15.89,0,0,1,1.84,3.42,12,12,0,0,0,5,6,84,84,0,0,1-4.52,8.15q-1.38,2.24-2.62,4.44a92.46,92.46,0,0,0-9.82,26.83c1.63,0,3.27,0,4.92-.07.95-.06,1.89-.14,2.83-.22a83.92,83.92,0,0,1,8.58-22.86c.79-1.41,1.65-2.82,2.51-4.24A80,80,0,0,0,149,127a11.47,11.47,0,0,0,9.27-7.56,11.23,11.23,0,0,0,.64-3.53,41,41,0,0,0-.6-8.28,31.6,31.6,0,0,0,18-13.84,23.16,23.16,0,0,0,10.86-24.7A15.31,15.31,0,0,0,190.67,56.7Z"/><path class="cls-6" d="M140,10.63a7.84,7.84,0,0,1,5.36-3.83,7.69,7.69,0,0,1,2.62,0c0-.14.08-.28.13-.41q-6.78-.45-13.54-1a15.27,15.27,0,0,0-2.25,4.07,3.72,3.72,0,0,0-.2,1.32C134.73,10.69,137.35,10.64,140,10.63Z"/><path id="Shape" class="cls-7" d="M149.26,51.4a3.75,3.75,0,1,0-6.48-3.76,14.92,14.92,0,0,1-9,6.92,15.27,15.27,0,0,1-17.85-8.62,3.75,3.75,0,0,0-6.91,2.9,22.65,22.65,0,0,0,9,10.49,11.16,11.16,0,0,1-10.15,1.42,3.74,3.74,0,1,0-2.48,7.06,18.57,18.57,0,0,0,20.45-5.55,22.58,22.58,0,0,0,23.38-10.84Z"/><path class="cls-8" d="M99.65,27.26A17.39,17.39,0,0,0,97.77,31a3.74,3.74,0,0,0,7.06,2.48,9.75,9.75,0,0,1,12.41-6A3.72,3.72,0,0,0,122,22.65C114.3,23.16,106.5,24.28,99.65,27.26Z"/></g></g></g></g></svg>