<svg xmlns="http://www.w3.org/2000/svg" viewBox="0 0 38 36.1">
    <defs>
      
    </defs>
    <g style="fill: #333;"  id="Capa_2" data-name="Capa 2">
        <g id="Capa_1-2" data-name="Capa 1">
            <circle class="cls-1" cx="19" cy="20.9" r="6.65" />
            <path class="cls-1"
                d="M32.3 5.7H30a2 2 0 0 1-2-2A3.7 3.7 0 0 0 24.33 0H13.67A3.71 3.71 0 0 0 10 3.7a2 2 0 0 1-2 2H5.7A5.71 5.71 0 0 0 0 11.4v19a5.72 5.72 0 0 0 5.7 5.7h26.6a5.72 5.72 0 0 0 5.7-5.7v-19a5.71 5.71 0 0 0-5.7-5.7ZM19 30.4a9.5 9.5 0 1 1 9.5-9.5 9.51 9.51 0 0 1-9.5 9.5Z" />
        </g>
    </g>
</svg>