<svg xmlns="http://www.w3.org/2000/svg" viewBox="0 0 86.57 86.58">
    <defs>
       
    </defs>
    <g style="fill: #333;" id="Capa_2" data-name="Capa 2">
        <g id="Capa_1-2" data-name="Capa 1">
            <path class="cls-1"
                d="M34.16 76.43a1.69 1.69 0 0 0-1.69 1.69 1.67 1.67 0 0 0 1.69 1.69 1.69 1.69 0 0 0 1.69-1.69 1.71 1.71 0 0 0-1.69-1.69Z" />
            <path class="cls-1"
                d="M84.77 23.05a6.17 6.17 0 0 0-8.71 0l-7.75 7.74v-25A5.75 5.75 0 0 0 62.57 0H5.75A5.76 5.76 0 0 0 0 5.75v75.08a5.76 5.76 0 0 0 5.75 5.75h56.82a5.75 5.75 0 0 0 5.74-5.75V48.22l16.46-16.45a6.18 6.18 0 0 0 0-8.72ZM64.93 5.75v28.42l-3.38 3.39V8.45a1.69 1.69 0 0 0-1.69-1.69h-11.3V3.38h14a2.37 2.37 0 0 1 2.37 2.37ZM55.7 52.12 58 47l2.85 2.85ZM45.18 3.38v6.89a1.91 1.91 0 0 1-1.91 1.9H25a1.9 1.9 0 0 1-1.9-1.9V3.38ZM62.57 83.2H5.75a2.38 2.38 0 0 1-2.37-2.37V5.75a2.37 2.37 0 0 1 2.37-2.37h14v3.38H8.45a1.69 1.69 0 0 0-1.69 1.69v69.67a1.69 1.69 0 0 0 1.69 1.69h18.94a1.69 1.69 0 0 0 0-3.38H10.15V10.15h9.61v.12A5.29 5.29 0 0 0 25 15.56h18.27a5.29 5.29 0 0 0 5.29-5.29v-.12h9.61v30.79l-1.93 1.92a2 2 0 0 0-.35.51l-5.07 11.4a1.69 1.69 0 0 0 1.54 2.38 1.81 1.81 0 0 0 .69-.14l5.12-2.28v21.7H40.92a1.69 1.69 0 0 0 0 3.38h18.94a1.69 1.69 0 0 0 1.69-1.69v-24.9l2.9-1.29a1.58 1.58 0 0 0 .48-.33v29.23a2.37 2.37 0 0 1-2.36 2.37Zm13.51-47.52L63.76 48l-3.93-3.93 15.25-15.26L79 32.75Zm6.3-6.3-1 1-3.93-3.93 1-1a2.78 2.78 0 0 1 3.93 3.94Z" />
            <path class="cls-1"
                d="M27.39 20.29H16.57A1.69 1.69 0 0 0 14.88 22v10.8a1.7 1.7 0 0 0 1.69 1.7h10.82a1.69 1.69 0 0 0 1.69-1.7V22a1.69 1.69 0 0 0-1.69-1.71ZM25.7 31.11h-7.44v-7.44h7.44ZM27.39 38.89H16.57a1.69 1.69 0 0 0-1.69 1.69v10.83a1.69 1.69 0 0 0 1.69 1.69h10.82a1.69 1.69 0 0 0 1.69-1.69V40.58a1.69 1.69 0 0 0-1.69-1.69ZM25.7 49.71h-7.44v-7.44h7.44ZM27.39 57.49H16.57a1.69 1.69 0 0 0-1.69 1.69V70a1.69 1.69 0 0 0 1.69 1.69h10.82A1.69 1.69 0 0 0 29.08 70V59.18a1.69 1.69 0 0 0-1.69-1.69ZM25.7 68.31h-7.44v-7.44h7.44ZM39.5 32.41a1.7 1.7 0 0 0 2.39 0l7.63-7.64a1.69 1.69 0 0 0-2.39-2.39l-6.44 6.44-2.56-2.57a1.69 1.69 0 1 0-2.4 2.39ZM39.5 51a1.69 1.69 0 0 0 1.19.49 1.73 1.73 0 0 0 1.2-.49l7.63-7.64A1.69 1.69 0 0 0 47.13 41l-6.44 6.44-2.56-2.57a1.7 1.7 0 1 0-2.4 2.4ZM42.63 67l2.62 2.62a1.69 1.69 0 0 0 2.39-2.39L45 64.59 47.64 62a1.69 1.69 0 0 0-2.39-2.39l-2.62 2.59L40 59.58A1.69 1.69 0 0 0 37.62 62l2.62 2.62-2.62 2.63a1.69 1.69 0 0 0 0 2.39 1.67 1.67 0 0 0 1.19.49 1.7 1.7 0 0 0 1.2-.49Z" />
        </g>
    </g>
</svg>