<svg xmlns="http://www.w3.org/2000/svg" xmlns:xlink="http://www.w3.org/1999/xlink" viewBox="0 0 206 164.66">
    <defs>
        <linearGradient id="a" x1="13.71" y1="41.19" x2="34.35" y2="41.19" gradientUnits="userSpaceOnUse">
            <stop offset="0" stop-color="#662d91" />
            <stop offset=".98" stop-color="#0ff" />
        </linearGradient>
        <linearGradient id="b" x1="13.71" y1="51.49" x2="54.95" y2="51.49" xlink:href="#a" />
        <linearGradient id="c" x1="199.13" y1="83.62" x2="206" y2="83.62" xlink:href="#a" />
        <linearGradient id="d" x1="0" y1="82.6" x2="157.93" y2="82.6" xlink:href="#a" />
        <linearGradient id="e" x1="109.89" y1="3.43" x2="175.2" y2="3.43" xlink:href="#a" />
        <linearGradient id="f" x1="168.23" y1="27.47" x2="188.83" y2="27.47" xlink:href="#a" />
        <linearGradient id="g" x1="168.23" y1="54.93" x2="188.83" y2="54.93" xlink:href="#a" />
        <linearGradient id="h" x1="130.47" y1="154.5" x2="137.33" y2="154.5" xlink:href="#a" />
        <linearGradient id="i" x1="144.2" y1="154.5" x2="151.07" y2="154.5" xlink:href="#a" />
        <linearGradient id="j" x1="157.93" y1="154.5" x2="164.8" y2="154.5" xlink:href="#a" />
        <linearGradient id="k" x1="171.67" y1="154.39" x2="178.53" y2="154.39" xlink:href="#a" />
        <linearGradient id="l" x1="185.4" y1="151.63" x2="192.21" y2="151.63" xlink:href="#a" />
    </defs>
    <g data-name="Capa 2">
        <g data-name="Capa 1">
            <g data-name="016---PC-and-Monitor" style="opacity:.15">
                <path
                    d="M17.17 51.5a3.36 3.36 0 0 0 2.43-1l13.74-13.73a3.45 3.45 0 0 0-4.88-4.87L14.73 45.63a3.42 3.42 0 0 0 0 4.87 3.38 3.38 0 0 0 2.44 1Z"
                    style="fill:url(#a)" />
                <path data-name="Shape"
                    d="M17.17 72.1a3.36 3.36 0 0 0 2.43-1l34.34-34.33a3.45 3.45 0 1 0-4.88-4.87L14.73 66.23a3.42 3.42 0 0 0 0 4.87 3.38 3.38 0 0 0 2.44 1Z"
                    style="fill:url(#b)" />
                <path
                    d="M204.54 133.09a4.69 4.69 0 0 1 1.46-2.51v-97.8c-2.42-3.4-4.64-6.93-6.74-10.56 0-.08-.09-.16-.13-.24v123.28a40.49 40.49 0 0 0 5.41-12.17Z"
                    style="fill:url(#c)" />
                <path
                    d="M140.77 17.17H103V.54c-1.88.08-3.76.17-5.64.33a5.5 5.5 0 0 1-1.23 0v16.3h-79A17.16 17.16 0 0 0 0 34.33v89.27a17.17 17.17 0 0 0 17.17 17.17h37.76v13.73h-10.3a10.3 10.3 0 0 0-10.28 9.93 30.89 30.89 0 0 1 6.86.23 3.43 3.43 0 0 1 3.42-3.29h68.67a3.43 3.43 0 0 1 3.39 3 45.88 45.88 0 0 1 6.84-.28 10.27 10.27 0 0 0-10.23-9.6H103v-13.72h37.77a17.16 17.16 0 0 0 17.16-17.17V34.33a17.16 17.16 0 0 0-17.16-17.16ZM96.13 154.5H61.8v-13.73h34.33Zm44.64-20.6H17.17a10.3 10.3 0 0 1-10.3-10.3h144.2a10.3 10.3 0 0 1-10.3 10.3Zm10.3-17.17H6.87v-82.4A10.3 10.3 0 0 1 17.17 24h123.6a10.3 10.3 0 0 1 10.3 10.3Z"
                    style="fill:url(#d)" />
                <path
                    d="M147.22 0h-5.35c-.87 0-1.75.1-2.64.19a4.91 4.91 0 0 1-2-.19h-9.61c-5.91.37-11.85.33-17.77.38a6.86 6.86 0 0 0 6.84 6.49h58.51C166.12 3.39 157 .47 147.22 0Z"
                    style="fill:url(#e)" />
                <path data-name="Shape"
                    d="M178.53 37.77a10.3 10.3 0 1 0-10.3-10.3 10.3 10.3 0 0 0 10.3 10.3Zm0-13.74a3.44 3.44 0 1 1-3.43 3.44 3.44 3.44 0 0 1 3.43-3.47Z"
                    style="fill:url(#f)" />
                <path data-name="Shape"
                    d="M188.83 54.93a10.3 10.3 0 1 0-10.3 10.3 10.3 10.3 0 0 0 10.3-10.3Zm-10.3 3.44a3.44 3.44 0 1 1 3.47-3.44 3.44 3.44 0 0 1-3.47 3.44Z"
                    style="fill:url(#g)" />
                <path data-name="Shape"
                    d="M133.9 147.63a3.43 3.43 0 0 0-3.43 3.44v6.86a3.43 3.43 0 1 0 6.86 0v-6.86a3.43 3.43 0 0 0-3.43-3.44Z"
                    style="fill:url(#h)" />
                <path data-name="Shape"
                    d="M147.63 147.63a3.44 3.44 0 0 0-3.43 3.44v6.86a3.44 3.44 0 1 0 6.87 0v-6.86a3.44 3.44 0 0 0-3.44-3.44Z"
                    style="fill:url(#i)" />
                <path data-name="Shape"
                    d="M161.37 147.63a3.44 3.44 0 0 0-3.44 3.44v6.86a3.44 3.44 0 1 0 6.87 0v-6.86a3.44 3.44 0 0 0-3.43-3.44Z"
                    style="fill:url(#j)" />
                <path
                    d="M173.92 161.15c1.45-.48 2.85-1 4.21-1.63a3.41 3.41 0 0 0 .4-1.59v-6.86a3.43 3.43 0 1 0-6.86 0v6.86a3.43 3.43 0 0 0 2.25 3.22Z"
                    style="fill:url(#k)" />
                <path d="M192.21 150.47a3.43 3.43 0 0 0-6.81.6v4.55c1.5-.93 3-1.92 4.44-2.94.77-.76 1.55-1.5 2.37-2.21Z"
                    style="fill:url(#l)" />
            </g>
        </g>
    </g>
</svg>