<svg xmlns="http://www.w3.org/2000/svg" viewBox="0 0 62.85 60.23">
    <defs>
        
    </defs>
    <g style="fill: #333;"  id="Capa_2" data-name="Capa 2">
        <g id="Capa_1-2" data-name="Capa 1">
            <path class="cls-1"
                d="M60.23 48.45h-7a9.11 9.11 0 0 0-17.48 0H2.62a2.62 2.62 0 1 0 0 5.24h33.16a9.11 9.11 0 0 0 17.48 0h7a2.62 2.62 0 1 0 0-5.24ZM44.52 55a3.93 3.93 0 1 1 3.93-3.92A3.93 3.93 0 0 1 44.52 55ZM60.23 6.55h-7a9.11 9.11 0 0 0-17.48 0H2.62a2.62 2.62 0 1 0 0 5.23h33.16a9.11 9.11 0 0 0 17.48 0h7a2.62 2.62 0 1 0 0-5.23Zm-15.71 6.54a3.93 3.93 0 1 1 3.93-3.92 3.93 3.93 0 0 1-3.93 3.92ZM60.23 27.5H27.07a9.11 9.11 0 0 0-17.48 0h-7a2.62 2.62 0 1 0 0 5.23h7a9.11 9.11 0 0 0 17.48 0h33.16a2.62 2.62 0 1 0 0-5.23ZM18.33 34a3.93 3.93 0 1 1 3.93-3.92A3.93 3.93 0 0 1 18.33 34Z" />
        </g>
    </g>
</svg>