<svg xmlns="http://www.w3.org/2000/svg" viewBox="0 0 199.93 164.27">
    <defs>
        <linearGradient id="a" y1="82.14" x2="199.93" y2="82.14" gradientUnits="userSpaceOnUse">
            <stop offset="0" stop-color="#662d91" />
            <stop offset=".98" stop-color="#0ff" />
        </linearGradient>
    </defs>
    <g data-name="Capa 2">
        <g style="opacity:.15" data-name="Capa 1">
            <path
                d="M188.58 163.43a49 49 0 0 1 8-.54 20.85 20.85 0 0 1 2.65-4.73 3.71 3.71 0 0 0-3-5.93h-12.87a21.12 21.12 0 0 1 1-23.7 3.7 3.7 0 0 0-3-5.92H140.3a18.55 18.55 0 0 0-18.14-14.82h-11.11v-8.93a73.58 73.58 0 0 0 34.87-17.61l7 6.94L158.1 83l-6.94-7a76.16 76.16 0 0 0 5.47-6.81l-6-4.29a67.46 67.46 0 0 1-4.69 5.85l-5.27-5.27A59.21 59.21 0 0 0 149.48.35a71.52 71.52 0 0 1-8.14.46 51.8 51.8 0 0 1 6.74 25.51 52.44 52.44 0 0 1-.53 7.41h-9.46L129.56 28V15.21a3.72 3.72 0 0 0-.52-1.9l-8-13.26C118.2 0 115.32 0 112.44 0l9.72 16.2V30a3.72 3.72 0 0 0 1.65 3.08l11.11 7.4a3.72 3.72 0 0 0 2.05.63h8.95a51.85 51.85 0 0 1-101-22.22h7.69l3 12a3.7 3.7 0 0 0 3.59 2.81h11.11v11.14a3.74 3.74 0 0 0 .62 2l6.79 10.18v10a3.7 3.7 0 0 0 3.7 3.7h14.81a3.72 3.72 0 0 0 2.9-1.39l14.81-18.51a3.7 3.7 0 0 0-.58-5.21 3.65 3.65 0 0 0-2.31-.81h-7.41V30a3.71 3.71 0 0 0-3.7-3.71H77.72V20l5.68-8.53h12.83a3.71 3.71 0 0 0 3.71-3.7 3.79 3.79 0 0 0-.39-1.66L96.76.58c-2.18.09-4.35.18-6.53.25l-1.6.05 1.61 3.22h-8.82a3.7 3.7 0 0 0-3.08 1.65l-7.41 11.11a3.75 3.75 0 0 0-.62 2.06v7.4h-8.22l-3-12a3.7 3.7 0 0 0-3.59-2.8h-9a51.73 51.73 0 0 1 4.74-11C48.52.4 45.77.31 43 .33a59.22 59.22 0 0 0 92.4 70.4l5.28 5.27A66.65 66.65 0 0 1 34.8.47c-2.88 0-6.06.05-7.89 1.44a5.14 5.14 0 0 1-.75.47 74.14 74.14 0 0 0 17.7 76.31 73.69 73.69 0 0 0 45 21.29v7.81H77.72a18.55 18.55 0 0 0-18.52 18.52 3.7 3.7 0 0 0 3.71 3.7h13.38a28.73 28.73 0 0 0 0 22.22H32.76a21.12 21.12 0 0 1 0-22.22h19v-7.4H8.59a3.71 3.71 0 0 0-3 1.48 28.47 28.47 0 0 0-5.5 19.73 6.57 6.57 0 0 1 .51 1 25.45 25.45 0 0 0 3.4 5.73c5.31 2.57 10 6.21 15.37 8.67a53.13 53.13 0 0 0 5.13 2c.27-.53.55-1.06.86-1.57h13.9a27.66 27.66 0 0 0-1.32 4 38.84 38.84 0 0 1 7.7 0 20.92 20.92 0 0 1 1.93-4.06h43.54a27.55 27.55 0 0 0-1.37 4.08c2.52.13 5 .34 7.55.55a21.26 21.26 0 0 1 2.13-4.63H117a29.47 29.47 0 0 0-1 2.94 29.47 29.47 0 0 1 7.8.15 20.8 20.8 0 0 1 1.56-3.09h64.52a26.81 26.81 0 0 0-1.3 3.84ZM77.72 33.73h18.51v14.81a3.7 3.7 0 0 0 3.71 3.7h3.4l-8.89 11.11h-9.33V56a3.69 3.69 0 0 0-.62-2.06l-6.78-10.22Zm-53.27 118.5H10.54a21.12 21.12 0 0 1 0-22.22h13.91a28.64 28.64 0 0 0 0 22.22Zm71.78-51.88a73.24 73.24 0 0 0 7.41-.37v7.81h-7.41Zm-29 22.26a11.14 11.14 0 0 1 10.48-7.41h44.44a11.13 11.13 0 0 1 10.47 7.41Zm35 29.62H84.61a21.12 21.12 0 0 1 0-22.22h17.61a28.64 28.64 0 0 0 0 22.22Zm8.31 0a20.79 20.79 0 0 1-2.83-7.4h65.35a28.85 28.85 0 0 0 2 7.4Zm62.52-14.81H107.7a20.83 20.83 0 0 1 2.83-7.41H175a28.81 28.81 0 0 0-1.95 7.41Z"
                style="fill:url(#a)" />
        </g>
    </g>
</svg>