<svg xmlns="http://www.w3.org/2000/svg" viewBox="0 0 25.35 27.66">
    <defs>
        <linearGradient id="a" y1="13.83" x2="25.35" y2="13.83" gradientUnits="userSpaceOnUse">
            <stop offset="0" stop-color="#662d91" />
            <stop offset="1" stop-color="#662d91" />
        </linearGradient>
    </defs>
    <g data-name="Capa 2">
        <path
            d="M20.74 18.44a4.57 4.57 0 0 0-3.38 1.49L9 15.17a4.59 4.59 0 0 0 0-2.68l8.34-4.76A4.61 4.61 0 1 0 20.74 0a4.62 4.62 0 0 0-4.61 4.61 4.34 4.34 0 0 0 .14 1.09l-8.45 4.82a4.61 4.61 0 1 0 0 6.62L16.27 22a4.34 4.34 0 0 0-.14 1.09 4.61 4.61 0 1 0 4.61-4.61Z"
            style="fill:url(#a)" data-name="Capa 1" />
    </g>
</svg>