<svg xmlns="http://www.w3.org/2000/svg" xmlns:xlink="http://www.w3.org/1999/xlink" viewBox="0 0 25.35 27.66"><defs><style>.cls-1{fill:url(#Degradado_sin_nombre_23);}</style><linearGradient id="Degradado_sin_nombre_23" y1="13.83" x2="25.35" y2="13.83" gradientUnits="userSpaceOnUse"><stop offset="0" stop-color="#662d91"/><stop offset="1" stop-color="#662d91"/></linearGradient></defs><g id="Capa_2" data-name="Capa 2"><g id="Capa_1-2" data-name="Capa 1"><path class="cls-1" d="M20.74,18.44a4.57,4.57,0,0,0-3.38,1.49L9,15.17a4.59,4.59,0,0,0,0-2.68l8.34-4.76A4.61,4.61,0,1,0,20.74,0a4.62,4.62,0,0,0-4.61,4.61,4.34,4.34,0,0,0,.14,1.09L7.82,10.52a4.61,4.61,0,1,0,0,6.62L16.27,22a4.34,4.34,0,0,0-.14,1.09,4.61,4.61,0,1,0,4.61-4.61Z"/></g></g></svg>