<svg xmlns="http://www.w3.org/2000/svg" viewBox="0 0 31.11 32.2"><defs><style>.cls-1{fill:#662d91;}</style></defs><g id="Capa_2" data-name="Capa 2"><g id="Capa_1-2" data-name="Capa 1"><path class="cls-1" d="M21.31,29.42a.55.55,0,0,0-.55.54.55.55,0,0,0,.55.55.55.55,0,0,0,.54-.55.54.54,0,0,0-.54-.54Z"/><path class="cls-1" d="M.48,25.72h11v4.63a1.85,1.85,0,0,0,1.85,1.85h15.9a1.85,1.85,0,0,0,1.85-1.85V1.85A1.85,1.85,0,0,0,29.26,0H13.36a1.85,1.85,0,0,0-1.85,1.85v9.68H1.85A1.85,1.85,0,0,0,0,13.38V25.24A.47.47,0,0,0,.48,25.72Zm12-23.87A.89.89,0,0,1,13.36,1h15.9a.89.89,0,0,1,.89.89v28.5a.89.89,0,0,1-.89.89H13.36a.89.89,0,0,1-.89-.89V25.72h.94v4.1a.47.47,0,0,0,.48.48h3.57a.48.48,0,0,0,.46-.35l.28-1a.33.33,0,0,1,.33-.25h5.56a.34.34,0,0,1,.33.25l.28,1a.46.46,0,0,0,.46.35h3.57a.48.48,0,0,0,.48-.48V2.38a.48.48,0,0,0-.48-.48H13.89a.47.47,0,0,0-.48.48v9.15h-.94Zm7.47,23.87a1.85,1.85,0,0,0,1.85-1.85V12a.49.49,0,0,0-.48-.48H18.48V7A.48.48,0,0,0,18,6.48a.49.49,0,0,0-.37.18l-3.26,4V2.86H28.25V29.34H25.53l-.19-.66a1.29,1.29,0,0,0-1.25-1H18.53a1.31,1.31,0,0,0-1.26,1l-.18.66H14.37V25.72ZM1,13.38a.89.89,0,0,1,.89-.89H13.92a.49.49,0,0,0,.38-.18l3.22-4V12a.48.48,0,0,0,.48.48h2.83V23.87a.89.89,0,0,1-.89.89H1Z"/><path class="cls-1" d="M13.37,19.23a.51.51,0,0,0-.12-.5l-.83-.8.19-1.14a.48.48,0,0,0-.39-.56.52.52,0,0,0-.3.05l-1,.54-1-.54a.49.49,0,0,0-.65.21.45.45,0,0,0,0,.3l.19,1.14-.83.81a.47.47,0,0,0,0,.67.44.44,0,0,0,.28.14l1.14.17.51,1a.48.48,0,0,0,.65.22.41.41,0,0,0,.21-.22l.52-1L13,19.55A.48.48,0,0,0,13.37,19.23Zm-1.92-.42a.47.47,0,0,0-.36.26l-.2.39-.19-.39a.47.47,0,0,0-.36-.26l-.43-.07.31-.3a.49.49,0,0,0,.14-.43l-.08-.42.39.2a.51.51,0,0,0,.45,0l.38-.2-.07.42a.46.46,0,0,0,.14.43l.31.3Z"/><path class="cls-1" d="M14.84,19.55l1.14.17.51,1a.48.48,0,0,0,.65.22.41.41,0,0,0,.21-.22l.51-1L19,19.55a.47.47,0,0,0,.4-.54.47.47,0,0,0-.14-.28l-.82-.8.19-1.14a.47.47,0,0,0-.39-.55.45.45,0,0,0-.3,0l-1,.54-1-.54a.49.49,0,0,0-.65.21.52.52,0,0,0-.05.3l.2,1.14-.83.81a.47.47,0,0,0,0,.67.44.44,0,0,0,.28.14Zm1.41-1.11a.52.52,0,0,0,.14-.43l-.08-.42.39.2a.51.51,0,0,0,.45,0l.38-.2-.07.42a.48.48,0,0,0,.13.43l.32.3-.43.07a.48.48,0,0,0-.37.26l-.19.39-.19-.39a.47.47,0,0,0-.36-.26l-.43-.07Z"/><path class="cls-1" d="M6.39,17.93l.19-1.14a.47.47,0,0,0-.39-.55.51.51,0,0,0-.3,0l-1,.54-1-.54a.49.49,0,0,0-.65.21.51.51,0,0,0,0,.3l.19,1.14-.83.81a.46.46,0,0,0,0,.67.42.42,0,0,0,.27.14l1.14.17.51,1a.49.49,0,0,0,.65.21.43.43,0,0,0,.21-.21l.52-1L7,19.55A.49.49,0,0,0,7.36,19a.62.62,0,0,0-.14-.28Zm-1,.88a.47.47,0,0,0-.36.26l-.19.39-.2-.39a.47.47,0,0,0-.36-.26l-.43-.07.31-.3A.46.46,0,0,0,4.33,18l-.07-.43.38.21a.51.51,0,0,0,.45,0l.38-.21L5.4,18a.49.49,0,0,0,.14.43l.31.3Z"/></g></g></svg>