<svg xmlns="http://www.w3.org/2000/svg" viewBox="0 0 31.11 32.2">
    <defs>

    </defs>
    <g style=" fill: #662d91" id="Capa_2" data-name="Capa 2">
        <g id="Capa_1-2" data-name="Capa 1">
            <path class="cls-1"
                d="M21.31 29.42a.55.55 0 0 0-.55.54.55.55 0 0 0 .55.55.55.55 0 0 0 .54-.55.54.54 0 0 0-.54-.54Z" />
            <path class="cls-1"
                d="M.48 25.72h11v4.63a1.85 1.85 0 0 0 1.85 1.85h15.9a1.85 1.85 0 0 0 1.85-1.85V1.85A1.85 1.85 0 0 0 29.26 0h-15.9a1.85 1.85 0 0 0-1.85 1.85v9.68H1.85A1.85 1.85 0 0 0 0 13.38v11.86a.47.47 0 0 0 .48.48Zm12-23.87a.89.89 0 0 1 .88-.85h15.9a.89.89 0 0 1 .89.89v28.5a.89.89 0 0 1-.89.89h-15.9a.89.89 0 0 1-.89-.89v-4.67h.94v4.1a.47.47 0 0 0 .48.48h3.57a.48.48 0 0 0 .46-.35l.28-1a.33.33 0 0 1 .33-.25h5.56a.34.34 0 0 1 .33.25l.28 1a.46.46 0 0 0 .46.35h3.57a.48.48 0 0 0 .48-.48V2.38a.48.48 0 0 0-.48-.48H13.89a.47.47 0 0 0-.48.48v9.15h-.94Zm7.47 23.87a1.85 1.85 0 0 0 1.85-1.85V12a.49.49 0 0 0-.48-.48h-2.84V7a.48.48 0 0 0-.48-.52.49.49 0 0 0-.37.18l-3.26 4v-7.8h13.88v26.48h-2.72l-.19-.66a1.29 1.29 0 0 0-1.25-1h-5.56a1.31 1.31 0 0 0-1.26 1l-.18.66h-2.72v-3.62ZM1 13.38a.89.89 0 0 1 .89-.89h12.03a.49.49 0 0 0 .38-.18l3.22-4V12a.48.48 0 0 0 .48.48h2.83v11.39a.89.89 0 0 1-.89.89H1Z" />
            <path class="cls-1"
                d="M13.37 19.23a.51.51 0 0 0-.12-.5l-.83-.8.19-1.14a.48.48 0 0 0-.39-.56.52.52 0 0 0-.3.05l-1 .54-1-.54a.49.49 0 0 0-.65.21.45.45 0 0 0 0 .3l.19 1.14-.83.81a.47.47 0 0 0 0 .67.44.44 0 0 0 .28.14l1.14.17.51 1a.48.48 0 0 0 .65.22.41.41 0 0 0 .21-.22l.52-1 1.06-.17a.48.48 0 0 0 .37-.32Zm-1.92-.42a.47.47 0 0 0-.36.26l-.2.39-.19-.39a.47.47 0 0 0-.36-.26l-.43-.07.31-.3a.49.49 0 0 0 .14-.43l-.08-.42.39.2a.51.51 0 0 0 .45 0l.38-.2-.07.42a.46.46 0 0 0 .14.43l.31.3ZM14.84 19.55l1.14.17.51 1a.48.48 0 0 0 .65.22.41.41 0 0 0 .21-.22l.51-1 1.14-.17a.47.47 0 0 0 .4-.54.47.47 0 0 0-.14-.28l-.82-.8.19-1.14a.47.47 0 0 0-.39-.55.45.45 0 0 0-.3 0l-1 .54-1-.54a.49.49 0 0 0-.65.21.52.52 0 0 0-.05.3l.2 1.14-.83.81a.47.47 0 0 0 0 .67.44.44 0 0 0 .28.14Zm1.41-1.11a.52.52 0 0 0 .14-.43l-.08-.42.39.2a.51.51 0 0 0 .45 0l.38-.2-.07.42a.48.48 0 0 0 .13.43l.32.3-.43.07a.48.48 0 0 0-.37.26l-.19.39-.19-.39a.47.47 0 0 0-.36-.26l-.43-.07ZM6.39 17.93l.19-1.14a.47.47 0 0 0-.39-.55.51.51 0 0 0-.3 0l-1 .54-1-.54a.49.49 0 0 0-.65.21.51.51 0 0 0 0 .3l.19 1.14-.83.81a.46.46 0 0 0 0 .67.42.42 0 0 0 .27.14l1.14.17.51 1a.49.49 0 0 0 .65.21.43.43 0 0 0 .21-.21l.52-1 1.1-.13a.49.49 0 0 0 .36-.55.62.62 0 0 0-.14-.28Zm-1 .88a.47.47 0 0 0-.36.26l-.19.39-.2-.39a.47.47 0 0 0-.36-.26l-.43-.07.31-.3a.46.46 0 0 0 .17-.44l-.07-.43.38.21a.51.51 0 0 0 .45 0l.38-.21-.07.43a.49.49 0 0 0 .14.43l.31.3Z" />
        </g>
    </g>
</svg>