<svg xmlns="http://www.w3.org/2000/svg" viewBox="0 0 22.81 27.34">
    <defs>
   
    </defs>
    <g style=" fill: #662d91" id="Capa_2" data-name="Capa 2">
        <g id="Capa_1-2" data-name="Capa 1">
            <path class="cls-1"
                d="M11.23 13.17a6.38 6.38 0 0 0 4.66-1.93 6.38 6.38 0 0 0 1.93-4.66 6.37 6.37 0 0 0-1.93-4.65A6.38 6.38 0 0 0 11.23 0a6.36 6.36 0 0 0-4.65 1.93 6.37 6.37 0 0 0-1.93 4.65 6.38 6.38 0 0 0 1.93 4.66 6.36 6.36 0 0 0 4.65 1.93ZM7.71 3.06a4.76 4.76 0 0 1 3.52-1.46 4.76 4.76 0 0 1 3.52 1.46 4.73 4.73 0 0 1 1.46 3.52 4.76 4.76 0 0 1-1.46 3.53 4.76 4.76 0 0 1-3.52 1.46 4.76 4.76 0 0 1-3.52-1.46 4.79 4.79 0 0 1-1.46-3.53 4.77 4.77 0 0 1 1.46-3.52Z" />
            <path class="cls-1"
                d="M22.75 21a14.89 14.89 0 0 0-.22-1.73 13.69 13.69 0 0 0-.42-1.73 8.62 8.62 0 0 0-.72-1.62 6.46 6.46 0 0 0-1.07-1.41 5 5 0 0 0-1.55-1 5.47 5.47 0 0 0-2-.35 2 2 0 0 0-1.07.45l-1.12.72a6.17 6.17 0 0 1-1.44.63 5.75 5.75 0 0 1-1.77.29A5.69 5.69 0 0 1 9.64 15a6.17 6.17 0 0 1-1.44-.63l-1.12-.72A2 2 0 0 0 6 13.21a5.47 5.47 0 0 0-2 .35 5 5 0 0 0-1.55 1 6.19 6.19 0 0 0-1.08 1.41 9.27 9.27 0 0 0-.67 1.59 13.69 13.69 0 0 0-.42 1.73c-.11.62-.19 1.2-.23 1.71s0 1.07 0 1.62a4.52 4.52 0 0 0 1.35 3.43 4.84 4.84 0 0 0 3.47 1.27H18a4.84 4.84 0 0 0 3.47-1.27 4.56 4.56 0 0 0 1.35-3.43c-.01-.53-.03-1.08-.07-1.62Zm-2.39 3.89a3.26 3.26 0 0 1-2.37.83H4.82a3.26 3.26 0 0 1-2.37-.83 3 3 0 0 1-.85-2.27v-1.51c0-.51.1-1 .2-1.55a11.8 11.8 0 0 1 .38-1.53 7 7 0 0 1 .58-1.32 4.51 4.51 0 0 1 .79-1 3.11 3.11 0 0 1 1-.64 3.58 3.58 0 0 1 1.26-.24l.32.19 1.13.73a8.12 8.12 0 0 0 1.81.81 7.24 7.24 0 0 0 4.51 0 8.12 8.12 0 0 0 1.81-.81L16.6 15l.32-.19a3.62 3.62 0 0 1 1.26.24 3.22 3.22 0 0 1 1 .64 4.51 4.51 0 0 1 .79 1 7 7 0 0 1 .58 1.32 10.39 10.39 0 0 1 .45 1.57c.1.55.17 1.08.21 1.55 0 .49.05 1 .05 1.51a3 3 0 0 1-.9 2.27Z" />
        </g>
    </g>
</svg>