<svg xmlns="http://www.w3.org/2000/svg" viewBox="0 0 25.57 25.57">
    <defs> 
    </defs>
    <g style=" fill: #662d91" id="Capa_2" data-name="Capa 2">
        <g id="Capa_1-2" data-name="Capa 1">
            <path class="cls-1"
                d="M13.59 25.57H12a2.35 2.35 0 0 1-2.35-2.35v-.54A10.2 10.2 0 0 1 8 22l-.39.39a2.36 2.36 0 0 1-3.33 0l-1.1-1.13a2.35 2.35 0 0 1 0-3.33l.38-.38a10.27 10.27 0 0 1-.66-1.61h-.55A2.35 2.35 0 0 1 0 13.59V12a2.36 2.36 0 0 1 2.35-2.37h.55A10.16 10.16 0 0 1 3.56 8l-.38-.39a2.35 2.35 0 0 1 0-3.33l1.13-1.1a2.35 2.35 0 0 1 3.33 0l.36.38a10.16 10.16 0 0 1 1.6-.66v-.55A2.36 2.36 0 0 1 12 0h1.61a2.35 2.35 0 0 1 2.35 2.35v.55a10.27 10.27 0 0 1 1.61.66l.38-.38a2.34 2.34 0 0 1 3.33 0l1.12 1.13a2.36 2.36 0 0 1 0 3.33L22 8a10.2 10.2 0 0 1 .67 1.6h.54a2.35 2.35 0 0 1 2.36 2.4v1.61a2.35 2.35 0 0 1-2.35 2.35h-.54a10.31 10.31 0 0 1-.68 1.59l.39.38a2.36 2.36 0 0 1 0 3.33l-1.13 1.14a2.36 2.36 0 0 1-3.33 0l-.38-.4a10.31 10.31 0 0 1-1.61.67v.54a2.35 2.35 0 0 1-2.35 2.36Zm-5.31-5.13a8.86 8.86 0 0 0 2.29.95.74.74 0 0 1 .56.72v1.11a.86.86 0 0 0 .85.86h1.61a.87.87 0 0 0 .86-.86v-1.11a.74.74 0 0 1 .56-.72 9.16 9.16 0 0 0 2.29-.95.74.74 0 0 1 .91.11l.78.79a.85.85 0 0 0 1.21 0l1.14-1.14a.85.85 0 0 0 0-1.21l-.79-.78a.74.74 0 0 1-.11-.91 9.16 9.16 0 0 0 .95-2.3.74.74 0 0 1 .72-.56h1.11a.87.87 0 0 0 .86-.86V12a.86.86 0 0 0-.86-.85h-1.11a.74.74 0 0 1-.72-.56 8.86 8.86 0 0 0-.95-2.29.74.74 0 0 1 .11-.91l.79-.79a.85.85 0 0 0 0-1.21L20.2 4.24a.85.85 0 0 0-1.21 0l-.78.76a.76.76 0 0 1-.91.12 8.47 8.47 0 0 0-2.3-.93.76.76 0 0 1-.56-.73V2.35a.86.86 0 0 0-.86-.85H12a.85.85 0 0 0-.85.85v1.11a.76.76 0 0 1-.56.73 8.22 8.22 0 0 0-2.29.95.76.76 0 0 1-.93-.14l-.79-.78a.85.85 0 0 0-1.21 0L4.24 5.37a.85.85 0 0 0 0 1.21l.76.79a.76.76 0 0 1 .12.91 8.22 8.22 0 0 0-.95 2.29.76.76 0 0 1-.73.56H2.35a.85.85 0 0 0-.85.87v1.61a.86.86 0 0 0 .85.86h1.11a.76.76 0 0 1 .73.56 8.47 8.47 0 0 0 .95 2.29.76.76 0 0 1-.12.91l-.78.77a.85.85 0 0 0 0 1.21l1.13 1.14a.85.85 0 0 0 1.21 0l.79-.79a.75.75 0 0 1 .91-.11Z" />
            <path class="cls-1"
                d="M12.79 18.35a5.57 5.57 0 1 1 5.56-5.56 5.57 5.57 0 0 1-5.56 5.56Zm0-9.63a4.07 4.07 0 1 0 4.06 4.07 4.08 4.08 0 0 0-4.06-4.07Z" />
        </g>
    </g>
</svg>