<svg xmlns="http://www.w3.org/2000/svg" viewBox="0 0 33.79 33.79">
    <defs>
        <linearGradient id="a" y1="16.89" x2="33.79" y2="16.89" gradientUnits="userSpaceOnUse">
            <stop offset="0" stop-color="#662d91" />
            <stop offset="1" stop-color="#662d91" />
        </linearGradient>
    </defs>
    <g data-name="Capa 2">
        <path
            d="M25.87 33.79h-18A7.93 7.93 0 0 1 0 25.87V14.76a8 8 0 0 1 3.12-6.3l9-6.84a7.94 7.94 0 0 1 9.61 0l2.85 2.17V2.11a1.32 1.32 0 0 1 2.64 0v4.35a1.31 1.31 0 0 1-.73 1.18 1.34 1.34 0 0 1-1.39-.13l-5-3.79a5.3 5.3 0 0 0-6.41 0l-9 6.84a5.32 5.32 0 0 0-2.08 4.2v11.11a5.29 5.29 0 0 0 5.28 5.28h18a5.29 5.29 0 0 0 5.28-5.28V14.76a5.32 5.32 0 0 0-2-4.21 1.32 1.32 0 1 1 1.6-2.1 8 8 0 0 1 3.09 6.31v11.11a7.93 7.93 0 0 1-7.99 7.92ZM14.26 15.24a1.65 1.65 0 1 0 1.65 1.65 1.65 1.65 0 0 0-1.65-1.65Zm6.93 1.65a1.65 1.65 0 0 1-3.3 0 1.65 1.65 0 0 1 3.3 0Zm-5.28 5.28a1.65 1.65 0 0 1-3.3 0 1.65 1.65 0 0 1 3.3 0Zm5.28 0a1.65 1.65 0 0 1-3.3 0 1.65 1.65 0 0 1 3.3 0Z"
            style="fill:url(#a)" data-name="Capa 1" />
    </g>
</svg>