<svg xmlns="http://www.w3.org/2000/svg" viewBox="0 0 27.57 29.71">
    <defs> 
    </defs>
    <g style=" fill: #662d91" id="Capa_2" data-name="Capa 2">
        <g id="Capa_1-2" data-name="Capa 1">
            <path class="cls-1"
                d="M27.33 15.51a.18.18 0 0 0 .05-.07l.05-.08a.2.2 0 0 0 0-.08.92.92 0 0 1 0-.09.24.24 0 0 0 0-.08.22.22 0 0 1 0-.08v-.27c0-.02 0 0 0 0v-.26l-.05-.07-.05-.07-.07-.08-6-6a1 1 0 1 0-1.47 1.47L24 13.81H7.23a1 1 0 1 0 0 2.08H24l-4.19 4.2a1 1 0 0 0 .74 1.77 1 1 0 0 0 .73-.3l6-6Z" />
            <path class="cls-1"
                d="M5.65 2.08h7.76a1 1 0 0 0 1-1 1 1 0 0 0-1-1H5.65A5.65 5.65 0 0 0 0 5.65v18.41a5.66 5.66 0 0 0 5.65 5.65h7.63a1 1 0 0 0 0-2.08H5.65a3.57 3.57 0 0 1-3.57-3.57V5.65a3.57 3.57 0 0 1 3.57-3.57Z" />
        </g>
    </g>
</svg>