<svg xmlns="http://www.w3.org/2000/svg" viewBox="0 0 87.43 86.13">
    <defs> 
    </defs>
    <g style="fill: #333;"  id="Capa_2" data-name="Capa 2">
        <g id="Capa_1-2" data-name="Capa 1">
            <path class="cls-1"
                d="M80.63 33.79A5.76 5.76 0 0 0 77.44 24l-19.13-2.82a1.16 1.16 0 0 1-.87-.63L48.88 3.21a5.77 5.77 0 0 0-10.34 0L30 20.55a1.16 1.16 0 0 1-.87.63L10 24a5.76 5.76 0 0 0-3.2 9.79l13.84 13.5a1.16 1.16 0 0 1 .33 1l-3.27 19a5.77 5.77 0 0 0 8.37 6.08l17.11-9a1.19 1.19 0 0 1 1.07 0l17.11 9a5.77 5.77 0 0 0 8.37-6.08l-3.27-19a1.16 1.16 0 0 1 .33-1Zm-18.72 15.3 3.27 19a1.12 1.12 0 0 1-.46 1.13 1.13 1.13 0 0 1-1.21.09l-17.11-9a5.79 5.79 0 0 0-5.37 0l-17.11 9a1.13 1.13 0 0 1-1.21-.09 1.12 1.12 0 0 1-.46-1.13l3.27-19A5.78 5.78 0 0 0 23.86 44L10 30.49a1.15 1.15 0 0 1 .63-2l19.13-2.78a5.77 5.77 0 0 0 4.35-3.15l8.57-17.3a1.15 1.15 0 0 1 2.07 0l8.55 17.33a5.77 5.77 0 0 0 4.35 3.15l19.13 2.78a1.15 1.15 0 0 1 .63 2L63.57 44a5.78 5.78 0 0 0-1.66 5.09ZM70.66 3.21a2.3 2.3 0 0 0-3.22.51L65 7.09a2.3 2.3 0 0 0 .51 3.22 2.27 2.27 0 0 0 1.35.44 2.3 2.3 0 0 0 1.87-.95l2.45-3.37a2.3 2.3 0 0 0-.52-3.22ZM22.43 7.08 20 3.71a2.31 2.31 0 0 0-3.73 2.71l2.43 3.37a2.3 2.3 0 0 0 1.87 1 2.27 2.27 0 0 0 1.35-.44 2.3 2.3 0 0 0 .51-3.27ZM8.46 51.74a2.3 2.3 0 0 0-2.9-1.48l-4 1.29a2.31 2.31 0 0 0 .72 4.5 2.56 2.56 0 0 0 .72-.11l4-1.29a2.31 2.31 0 0 0 1.46-2.91ZM43.72 77.35a2.3 2.3 0 0 0-2.31 2.31v4.16a2.31 2.31 0 1 0 4.61 0v-4.16a2.3 2.3 0 0 0-2.3-2.31ZM85.83 51.55l-4-1.28a2.3 2.3 0 1 0-1.42 4.38l4 1.29a2.23 2.23 0 0 0 .71.11 2.3 2.3 0 0 0 .71-4.5Z" />
        </g>
    </g>
</svg>