<svg xmlns="http://www.w3.org/2000/svg" xmlns:xlink="http://www.w3.org/1999/xlink" viewBox="0 0 215.4 164.25"><defs><style>.cls-1{opacity:0.15;}.cls-2{fill:url(#Degradado_sin_nombre_20);}.cls-3{fill:url(#Degradado_sin_nombre_20-2);}.cls-4{fill:url(#Degradado_sin_nombre_20-3);}.cls-5{fill:url(#Degradado_sin_nombre_20-4);}.cls-6{fill:url(#Degradado_sin_nombre_20-5);}.cls-7{fill:url(#Degradado_sin_nombre_20-6);}.cls-8{fill:url(#Degradado_sin_nombre_20-7);}.cls-9{fill:url(#Degradado_sin_nombre_20-8);}.cls-10{fill:url(#Degradado_sin_nombre_20-9);}.cls-11{fill:url(#Degradado_sin_nombre_20-10);}.cls-12{fill:url(#Degradado_sin_nombre_20-11);}.cls-13{fill:url(#Degradado_sin_nombre_20-12);}.cls-14{fill:url(#Degradado_sin_nombre_20-13);}.cls-15{fill:url(#Degradado_sin_nombre_20-14);}.cls-16{fill:url(#Degradado_sin_nombre_20-15);}.cls-17{fill:url(#Degradado_sin_nombre_20-16);}.cls-18{fill:url(#Degradado_sin_nombre_20-17);}.cls-19{fill:url(#Degradado_sin_nombre_20-18);}.cls-20{fill:url(#Degradado_sin_nombre_20-19);}.cls-21{fill:url(#Degradado_sin_nombre_20-20);}.cls-22{fill:url(#Degradado_sin_nombre_20-21);}</style><linearGradient id="Degradado_sin_nombre_20" x1="184.84" y1="33.14" x2="200.12" y2="33.14" gradientUnits="userSpaceOnUse"><stop offset="0" stop-color="#662d91"/><stop offset="0.98" stop-color="aqua"/></linearGradient><linearGradient id="Degradado_sin_nombre_20-2" x1="184.84" y1="52.24" x2="200.12" y2="52.24" xlink:href="#Degradado_sin_nombre_20"/><linearGradient id="Degradado_sin_nombre_20-3" x1="184.84" y1="71.34" x2="200.12" y2="71.34" xlink:href="#Degradado_sin_nombre_20"/><linearGradient id="Degradado_sin_nombre_20-4" x1="169.55" y1="14.03" x2="200.12" y2="14.03" xlink:href="#Degradado_sin_nombre_20"/><linearGradient id="Degradado_sin_nombre_20-5" x1="119.89" y1="10.21" x2="127.53" y2="10.21" xlink:href="#Degradado_sin_nombre_20"/><linearGradient id="Degradado_sin_nombre_20-6" x1="0" y1="87.23" x2="177.19" y2="87.23" xlink:href="#Degradado_sin_nombre_20"/><linearGradient id="Degradado_sin_nombre_20-7" x1="95.77" y1="40.84" x2="144.05" y2="40.84" xlink:href="#Degradado_sin_nombre_20"/><linearGradient id="Degradado_sin_nombre_20-8" x1="95.76" y1="59.95" x2="144.04" y2="59.95" xlink:href="#Degradado_sin_nombre_20"/><linearGradient id="Degradado_sin_nombre_20-9" x1="95.76" y1="79.06" x2="144.04" y2="79.06" xlink:href="#Degradado_sin_nombre_20"/><linearGradient id="Degradado_sin_nombre_20-10" x1="95.76" y1="98.17" x2="144.03" y2="98.17" xlink:href="#Degradado_sin_nombre_20"/><linearGradient id="Degradado_sin_nombre_20-11" x1="95.75" y1="117.28" x2="144.03" y2="117.28" xlink:href="#Degradado_sin_nombre_20"/><linearGradient id="Degradado_sin_nombre_20-12" x1="5.27" y1="56.06" x2="62.58" y2="56.06" xlink:href="#Degradado_sin_nombre_20"/><linearGradient id="Degradado_sin_nombre_20-13" x1="5.27" y1="75.16" x2="62.58" y2="75.16" xlink:href="#Degradado_sin_nombre_20"/><linearGradient id="Degradado_sin_nombre_20-14" x1="5.27" y1="94.27" x2="62.58" y2="94.27" xlink:href="#Degradado_sin_nombre_20"/><linearGradient id="Degradado_sin_nombre_20-15" x1="5.27" y1="113.37" x2="62.58" y2="113.37" xlink:href="#Degradado_sin_nombre_20"/><linearGradient id="Degradado_sin_nombre_20-16" x1="5.27" y1="132.47" x2="62.58" y2="132.47" xlink:href="#Degradado_sin_nombre_20"/><linearGradient id="Degradado_sin_nombre_20-17" x1="7.46" y1="14.6" x2="35.64" y2="14.6" xlink:href="#Degradado_sin_nombre_20"/><linearGradient id="Degradado_sin_nombre_20-18" x1="47.3" y1="12.76" x2="96.93" y2="12.76" xlink:href="#Degradado_sin_nombre_20"/><linearGradient id="Degradado_sin_nombre_20-19" x1="59.99" y1="2.64" x2="70.16" y2="2.64" xlink:href="#Degradado_sin_nombre_20"/><linearGradient id="Degradado_sin_nombre_20-20" x1="104.6" y1="7.71" x2="112.24" y2="7.71" xlink:href="#Degradado_sin_nombre_20"/><linearGradient id="Degradado_sin_nombre_20-21" x1="184.84" y1="47.49" x2="215.4" y2="47.49" xlink:href="#Degradado_sin_nombre_20"/></defs><g id="Capa_2" data-name="Capa 2"><g id="Capa_1-2" data-name="Capa 1"><g id="Outline" class="cls-1"><path class="cls-2" d="M184.84,29.32h15.28V37H184.84Z"/><path class="cls-3" d="M184.84,48.42h15.28v7.64H184.84Z"/><path class="cls-4" d="M184.84,67.52h15.28v7.64H184.84Z"/><path class="cls-5" d="M169.55,10.21h30.57v7.64H169.55Z"/><path class="cls-6" d="M119.89,6.39h7.64V14h-7.64Z"/><path class="cls-7" d="M173.37,33.14h-3.82V147.75H97.43L159,132.36a3.83,3.83,0,0,0,2.89-3.71V14a3.82,3.82,0,0,0-3.82-3.82,3.57,3.57,0,0,0-.92.12L95.22,25.81A22.89,22.89,0,0,0,79.85,38.69,19,19,0,0,0,66.4,33.14H3.31c-.31.93-.72,1.88-1.13,2.8-.66,1.49-1.36,3-2,4.45,0,.1-.11.25-.16.39H66.4A11.47,11.47,0,0,1,77.86,52.24v99.34a19,19,0,0,0-11.46-3.83H14.32a7.66,7.66,0,0,1,.66.53,26.36,26.36,0,0,0,4.77,2.85,19.14,19.14,0,0,1,5.44,4.26H66.4a11.48,11.48,0,0,1,11.13,8.79c2.82.22,5.53-.2,8.32-.06A11.47,11.47,0,0,1,97,155.39h72.59v8.15a3.63,3.63,0,0,1,.87,0c2.29.17,4.54,0,6.77.06V37A3.82,3.82,0,0,0,173.37,33.14ZM95.22,140.43a22.91,22.91,0,0,0-9.72,5.14V48.05A15.25,15.25,0,0,1,97.08,33.23l57.19-14.3V125.67Z"/><path class="cls-8" d="M95.77,44.85l45.86-15.27,2.42,7.25L98.18,52.1Z"/><path class="cls-9" d="M95.76,64l45.87-15.27L144,55.94,98.18,71.21Z"/><path class="cls-10" d="M95.76,83.07,141.62,67.8,144,75.05,98.17,90.32Z"/><path class="cls-11" d="M95.76,102.18l45.86-15.27L144,94.16,98.17,109.43Z"/><path class="cls-12" d="M95.75,121.29,141.61,106l2.42,7.25L98.17,128.54Z"/><path class="cls-13" d="M5.27,52.24H62.58v7.64H5.27Z"/><path class="cls-14" d="M5.27,71.34H62.58V79H5.27Z"/><path class="cls-15" d="M5.27,90.45H62.58v7.64H5.27Z"/><path class="cls-16" d="M5.27,109.55H62.58v7.64H5.27Z"/><path class="cls-17" d="M5.27,128.65H62.58v7.64H5.27Z"/><path class="cls-18" d="M13.91,17.59a81,81,0,0,1-6.45,7.65A27.56,27.56,0,0,0,11,25.5,24.87,24.87,0,0,0,35.64,3.7c-3.15,1.41-6.25,2.92-9.27,4.62A17.19,17.19,0,0,1,13.91,17.59Z"/><path class="cls-19" d="M89.27,1.58A17.17,17.17,0,0,1,72.13,17.85,17.18,17.18,0,0,1,54.94.66c0-.22,0-.43,0-.64-1.72,0-3.45.11-5.16.27C49,.37,48.16.46,47.3.58V.66A24.83,24.83,0,0,0,96.93,1.94,46.49,46.49,0,0,1,89.27,1.58Z"/><path class="cls-20" d="M60,0l5.27,5.28,4.9-4.9C66.77.24,63.38.07,60,0Z"/><path class="cls-21" d="M105.41,1.59l-.81,0V14h7.64V1.38C110,1.46,107.69,1.53,105.41,1.59Z"/><path class="cls-22" d="M210.25.74c-.83,0-1.66.07-2.49.08v85.8H184.84v7.65h26.74a3.82,3.82,0,0,0,3.82-3.82V.71A42.15,42.15,0,0,1,210.25.74Z"/></g></g></g></svg>