<svg xmlns="http://www.w3.org/2000/svg" xmlns:xlink="http://www.w3.org/1999/xlink" viewBox="0 0 199.93 164.27"><defs><style>.cls-1{opacity:0.15;}.cls-2{fill:url(#Degradado_sin_nombre_20);}</style><linearGradient id="Degradado_sin_nombre_20" y1="82.14" x2="199.93" y2="82.14" gradientUnits="userSpaceOnUse"><stop offset="0" stop-color="#662d91"/><stop offset="0.98" stop-color="aqua"/></linearGradient></defs><g id="Capa_2" data-name="Capa 2"><g id="Capa_1-2" data-name="Capa 1"><g id="Outline" class="cls-1"><path class="cls-2" d="M188.58,163.43a49,49,0,0,1,8-.54,20.85,20.85,0,0,1,2.65-4.73,3.71,3.71,0,0,0-3-5.93H183.36a21.12,21.12,0,0,1,1-23.7,3.7,3.7,0,0,0-3-5.92H140.3a18.55,18.55,0,0,0-18.14-14.82H111.05V98.86a73.58,73.58,0,0,0,34.87-17.61l7,6.94L158.1,83,151.16,76a76.16,76.16,0,0,0,5.47-6.81l-6-4.29a67.46,67.46,0,0,1-4.69,5.85l-5.27-5.27A59.21,59.21,0,0,0,149.48.35a71.52,71.52,0,0,1-8.14.46,51.8,51.8,0,0,1,6.74,25.51,52.44,52.44,0,0,1-.53,7.41h-9.46L129.56,28V15.21a3.72,3.72,0,0,0-.52-1.9l-8-13.26C118.2,0,115.32,0,112.44,0l9.72,16.2V30a3.72,3.72,0,0,0,1.65,3.08l11.11,7.4a3.72,3.72,0,0,0,2.05.63h8.95a51.85,51.85,0,0,1-101-22.22h7.69l3,12a3.7,3.7,0,0,0,3.59,2.81H70.31V44.84a3.74,3.74,0,0,0,.62,2l6.79,10.18v10a3.7,3.7,0,0,0,3.7,3.7H96.23a3.72,3.72,0,0,0,2.9-1.39l14.81-18.51a3.7,3.7,0,0,0-.58-5.21,3.65,3.65,0,0,0-2.31-.81h-7.41V30a3.71,3.71,0,0,0-3.7-3.71H77.72V20l5.68-8.53H96.23a3.71,3.71,0,0,0,3.71-3.7,3.79,3.79,0,0,0-.39-1.66L96.76.58c-2.18.09-4.35.18-6.53.25l-1.6.05L90.24,4.1H81.42a3.7,3.7,0,0,0-3.08,1.65L70.93,16.86a3.75,3.75,0,0,0-.62,2.06v7.4H62.09l-3-12a3.7,3.7,0,0,0-3.59-2.8h-9a51.73,51.73,0,0,1,4.74-11C48.52.4,45.77.31,43,.33a59.22,59.22,0,0,0,92.4,70.4L140.68,76A66.65,66.65,0,0,1,34.8.47c-2.88,0-6.06.05-7.89,1.44a5.14,5.14,0,0,1-.75.47,74.14,74.14,0,0,0,17.7,76.31,73.69,73.69,0,0,0,45,21.29v7.81H77.72A18.55,18.55,0,0,0,59.2,126.31a3.7,3.7,0,0,0,3.71,3.7H76.29a28.73,28.73,0,0,0,0,22.22H32.76a21.12,21.12,0,0,1,0-22.22h19v-7.4H8.59a3.71,3.71,0,0,0-3,1.48,28.47,28.47,0,0,0-5.5,19.73,6.57,6.57,0,0,1,.51,1A25.45,25.45,0,0,0,4,150.55c5.31,2.57,10,6.21,15.37,8.67a53.13,53.13,0,0,0,5.13,2c.27-.53.55-1.06.86-1.57H39.26a27.66,27.66,0,0,0-1.32,4,38.84,38.84,0,0,1,7.7,0,20.92,20.92,0,0,1,1.93-4.06H91.11a27.55,27.55,0,0,0-1.37,4.08c2.52.13,5,.34,7.55.55a21.26,21.26,0,0,1,2.13-4.63H117a29.47,29.47,0,0,0-1,2.94,29.47,29.47,0,0,1,7.8.15,20.8,20.8,0,0,1,1.56-3.09h64.52A26.81,26.81,0,0,0,188.58,163.43ZM77.72,33.73H96.23V48.54a3.7,3.7,0,0,0,3.71,3.7h3.4L94.45,63.35H85.12V56a3.69,3.69,0,0,0-.62-2.06L77.72,43.72ZM24.45,152.23H10.54a21.12,21.12,0,0,1,0-22.22H24.45A28.64,28.64,0,0,0,24.45,152.23Zm71.78-51.88a73.24,73.24,0,0,0,7.41-.37v7.81H96.23Zm-29,22.26a11.14,11.14,0,0,1,10.48-7.41h44.44a11.13,11.13,0,0,1,10.47,7.41Zm35,29.62H84.61a21.12,21.12,0,0,1,0-22.22h17.61A28.64,28.64,0,0,0,102.22,152.23Zm8.31,0a20.79,20.79,0,0,1-2.83-7.4h65.35a28.85,28.85,0,0,0,2,7.4Zm62.52-14.81H107.7a20.83,20.83,0,0,1,2.83-7.41H175A28.81,28.81,0,0,0,173.05,137.42Z"/></g></g></g></svg>