<svg xmlns="http://www.w3.org/2000/svg" viewBox="0 0 33.24 31.03"><defs><style>.cls-1{fill:#662d91;}</style></defs><g id="Capa_2" data-name="Capa 2"><g id="Capa_1-2" data-name="Capa 1"><path class="cls-1" d="M19.32.11a1.1,1.1,0,0,0-1.17.13L7.37,8.87H2.22A2.22,2.22,0,0,0,0,11.08V20a2.22,2.22,0,0,0,2.22,2.21H7.37l10.77,8.63a1.18,1.18,0,0,0,.7.24,1.2,1.2,0,0,0,.48-.11,1.12,1.12,0,0,0,.62-1V1.11A1.11,1.11,0,0,0,19.32.11ZM6.65,20H2.22V11.08H6.65Zm11.08,7.66L8.86,20.52v-10l8.87-7.09Z"/><path class="cls-1" d="M25.56,7.68a1.11,1.11,0,0,0-1.57,0,1.1,1.1,0,0,0,0,1.56,8.86,8.86,0,0,1,0,12.52,1.11,1.11,0,0,0,.78,1.9,1.13,1.13,0,0,0,.78-.32,11.07,11.07,0,0,0,0-15.67Z"/><path class="cls-1" d="M28.68,4.56a1.11,1.11,0,1,0-1.56,1.57,13.22,13.22,0,0,1,0,18.77,1.12,1.12,0,0,0,0,1.57,1.12,1.12,0,0,0,1.57,0,15.44,15.44,0,0,0,0-21.91Z"/></g></g></svg>