<svg xmlns="http://www.w3.org/2000/svg" viewBox="0 0 22.73 34.12"><defs><style>.cls-1{fill:#fff;}</style></defs><g id="Capa_2" data-name="Capa 2"><g id="Capa_1-2" data-name="Capa 1"><path class="cls-1" d="M1.1,34.12.84,34a1.42,1.42,0,0,1,.37-2.69,3.71,3.71,0,0,1,.47,0H21.05a2.24,2.24,0,0,1,.82.12,1.32,1.32,0,0,1,.86,1.27A1.35,1.35,0,0,1,21.92,34l-.29.14Z"/><path class="cls-1" d="M12.93,23.59a1.27,1.27,0,0,1,.2-.34c2.34-2.36,4.7-4.7,7-7.06a1.5,1.5,0,0,1,1.49-.5,1.4,1.4,0,0,1,.78,2.22,2.59,2.59,0,0,1-.31.35q-4.8,4.78-9.59,9.59a1.46,1.46,0,0,1-2.34,0L.54,18.2A1.52,1.52,0,0,1,0,16.8a1.42,1.42,0,0,1,2.23-.88,3.92,3.92,0,0,1,.37.34q3.5,3.48,7,7a2.44,2.44,0,0,1,.23.33l.13-.07V1.73A2.7,2.7,0,0,1,10,1a1.38,1.38,0,0,1,1.49-1,1.4,1.4,0,0,1,1.25,1.31c0,.16,0,.33,0,.5V23.49Z"/></g></g></svg>