<svg xmlns="http://www.w3.org/2000/svg" xmlns:xlink="http://www.w3.org/1999/xlink" viewBox="0 0 77.46 50.92"><defs><style>.cls-1{fill:url(#Nueva_muestra_de_degradado_1);}</style><linearGradient id="Nueva_muestra_de_degradado_1" x1="79.16" y1="25.46" x2="0" y2="25.46" gradientUnits="userSpaceOnUse"><stop offset="0.15" stop-color="#6a5538"/><stop offset="0.35" stop-color="#bc975e"/><stop offset="0.45" stop-color="#d9be85"/><stop offset="0.56" stop-color="#e7d491"/><stop offset="0.67" stop-color="#c5a76c"/><stop offset="0.78" stop-color="#bc975e"/><stop offset="1" stop-color="#6a5538"/></linearGradient></defs><g id="Capa_2" data-name="Capa 2"><g id="Capa_1-2" data-name="Capa 1"><path class="cls-1" d="M75.16,0c.44,2.25.78,4.51,1.1,6.76s.6,4.51.86,6.77c.11,1.14.26,2.2.29,3.46a22.61,22.61,0,0,1,0,3.68l-.16,1.85c-.08.61-.24,1.21-.36,1.82l-.39,1.83L75.86,28a32.33,32.33,0,0,1-8,12.59,35.9,35.9,0,0,1-12.64,8c-1.19.38-2.36.82-3.57,1.13s-2.43.59-3.66.78-2.47.33-3.71.41-2.5.09-3.7.08c-4.51-.15-9-.34-13.53-.65A237.22,237.22,0,0,1,0,47.12,237.19,237.19,0,0,1,27.05,44c4.51-.31,9-.5,13.53-.65l3.05-.22c1-.11,2-.31,3-.46s1.95-.46,2.93-.68,1.91-.64,2.86-.94A31.89,31.89,0,0,0,70.06,25.57l.68-1.36.54-1.42c.16-.48.38-.95.52-1.44l.39-1.49a20.45,20.45,0,0,0,.61-3c.2-1,.27-2.18.41-3.29.25-2.26.51-4.51.85-6.77S74.72,2.25,75.16,0Z"/></g></g></svg>