<svg xmlns="http://www.w3.org/2000/svg" viewBox="0 0 32.72 32.72"><defs><style>.cls-1{fill:#333;}</style></defs><g id="Capa_2" data-name="Capa 2"><g id="Capa_1-2" data-name="Capa 1"><path class="cls-1" d="M23.48,14.82a1,1,0,1,1-1-1A1,1,0,0,1,23.48,14.82Z"/><path class="cls-1" d="M22.52,4.62A3.52,3.52,0,0,0,19,8.15h0A.94.94,0,0,0,20,9.1a1,1,0,0,0,1-.95,1.61,1.61,0,1,1,1.61,1.6,1,1,0,0,0-1,1v1a1,1,0,1,0,1.92,0v-.2a3.53,3.53,0,0,0-1-6.92Z"/><path class="cls-1" d="M9.2,24.46a5.07,5.07,0,1,0-6.21,0,6.1,6.1,0,0,0-3,5.25v2.05a1,1,0,0,0,1,1H11.23a1,1,0,0,0,1-1V29.71A6.11,6.11,0,0,0,9.2,24.46Zm-6.26-4a3.15,3.15,0,1,1,3.15,3.15A3.16,3.16,0,0,1,2.94,20.47ZM10.27,30.8H1.92V29.71a4.18,4.18,0,1,1,8.35,0V30.8Z"/><path class="cls-1" d="M28.68,0H16.36a4,4,0,0,0-4,4V22.52a1,1,0,0,0,1.54.77l3.85-2.89h11a4,4,0,0,0,4-4V4A4,4,0,0,0,28.68,0ZM30.8,16.36a2.11,2.11,0,0,1-2.12,2.12H17.39a1,1,0,0,0-.58.19L14.24,20.6V4a2.12,2.12,0,0,1,2.12-2.12H28.68A2.12,2.12,0,0,1,30.8,4Z"/></g></g></svg>