<svg xmlns="http://www.w3.org/2000/svg" xmlns:xlink="http://www.w3.org/1999/xlink" viewBox="0 0 839.45 238.37"><defs><style>.cls-1{fill:url(#Nueva_muestra_de_degradado_1);}</style><linearGradient id="Nueva_muestra_de_degradado_1" x1="-2.55" y1="119.18" x2="839.45" y2="119.18" gradientUnits="userSpaceOnUse"><stop offset="0.15" stop-color="#6a5538"/><stop offset="0.35" stop-color="#bc975e"/><stop offset="0.45" stop-color="#d9be85"/><stop offset="0.56" stop-color="#e7d491"/><stop offset="0.67" stop-color="#c5a76c"/><stop offset="0.78" stop-color="#bc975e"/><stop offset="1" stop-color="#6a5538"/></linearGradient></defs><g id="Capa_2" data-name="Capa 2"><g id="Capa_1-2" data-name="Capa 1"><path class="cls-1" d="M839.45,2.28l-528,1.5-264,.76c-2.74,0-5.56,0-8.08.14a37.4,37.4,0,0,0-7.63,1.39,37,37,0,0,0-13.57,7.3A37.66,37.66,0,0,0,8.7,25.51a37,37,0,0,0-3.76,14.9c0,.65,0,1.25,0,1.94L5,44.41l.13,4.13.25,8.24.51,16.5,1,33L11,238.19l-10,.18-.64-132-.16-33L.07,56.83l0-8.25,0-4.12V42.4c0-.69,0-1.46.05-2.19A41.77,41.77,0,0,1,4.39,23.38,42.48,42.48,0,0,1,15.16,9.76,41.81,41.81,0,0,1,30.48,1.63,42.39,42.39,0,0,1,39.06.12C42-.08,44.72,0,47.47,0l264,.76Z"/></g></g></svg>