<svg xmlns="http://www.w3.org/2000/svg" xmlns:xlink="http://www.w3.org/1999/xlink" viewBox="0 0 30.37 29.81"><defs><style>.cls-1{fill:url(#Nueva_muestra_de_degradado_1);}.cls-2{fill:url(#Nueva_muestra_de_degradado_1-2);}.cls-3{fill:url(#Nueva_muestra_de_degradado_1-3);}.cls-4{fill:url(#Nueva_muestra_de_degradado_1-4);}.cls-5{fill:url(#Nueva_muestra_de_degradado_1-5);}.cls-6{fill:url(#Nueva_muestra_de_degradado_1-6);}</style><linearGradient id="Nueva_muestra_de_degradado_1" y1="7.68" x2="17.67" y2="7.68" gradientUnits="userSpaceOnUse"><stop offset="0.15" stop-color="#6a5538"/><stop offset="0.35" stop-color="#bc975e"/><stop offset="0.45" stop-color="#d9be85"/><stop offset="0.56" stop-color="#e7d491"/><stop offset="0.67" stop-color="#c5a76c"/><stop offset="0.78" stop-color="#bc975e"/><stop offset="1" stop-color="#6a5538"/></linearGradient><linearGradient id="Nueva_muestra_de_degradado_1-2" x1="0.78" y1="23.14" x2="21.64" y2="23.14" xlink:href="#Nueva_muestra_de_degradado_1"/><linearGradient id="Nueva_muestra_de_degradado_1-3" x1="18.1" y1="13.74" x2="27.32" y2="13.74" xlink:href="#Nueva_muestra_de_degradado_1"/><linearGradient id="Nueva_muestra_de_degradado_1-4" x1="3.98" y1="5.83" x2="12.3" y2="5.83" xlink:href="#Nueva_muestra_de_degradado_1"/><linearGradient id="Nueva_muestra_de_degradado_1-5" x1="22.05" y1="13.26" x2="30.37" y2="13.26" xlink:href="#Nueva_muestra_de_degradado_1"/><linearGradient id="Nueva_muestra_de_degradado_1-6" x1="6.36" y1="25.65" x2="14.69" y2="25.65" xlink:href="#Nueva_muestra_de_degradado_1"/></defs><g id="Capa_2" data-name="Capa 2"><g id="Capa_1-2" data-name="Capa 1"><path class="cls-1" d="M17.66,1.27A1.33,1.33,0,0,0,15,1.39a10.87,10.87,0,0,1-3.92,8.85,10.88,10.88,0,0,1-9.43,2.15A1.33,1.33,0,0,0,1,15a13.54,13.54,0,0,0,11.75-2.69A13.5,13.5,0,0,0,17.66,1.27Z"/><path class="cls-2" d="M1.39,19.57a1.33,1.33,0,1,0,1.44,2.24A10.8,10.8,0,0,1,19,27.88a1.33,1.33,0,0,0,1.65.9,1.38,1.38,0,0,0,.48-.25,1.35,1.35,0,0,0,.43-1.4,13.48,13.48,0,0,0-20.2-7.56Z"/><path class="cls-3" d="M23.71,3.2a1.33,1.33,0,0,0-1.88,0,13.47,13.47,0,0,0,3.55,21.27,1.32,1.32,0,0,0,1.45-.16,1.36,1.36,0,0,0,.34-.41,1.34,1.34,0,0,0-.57-1.8A10.8,10.8,0,0,1,23.75,5.08,1.33,1.33,0,0,0,23.71,3.2Z"/><circle class="cls-4" cx="8.14" cy="5.83" r="4.16"/><circle class="cls-5" cx="26.21" cy="13.26" r="4.16"/><circle class="cls-6" cx="10.53" cy="25.65" r="4.16"/></g></g></svg>