<svg xmlns="http://www.w3.org/2000/svg" xmlns:xlink="http://www.w3.org/1999/xlink" viewBox="0 0 649 158"><defs><style>.cls-1{fill:url(#Degradado_sin_nombre_2);}.cls-2{fill:url(#Degradado_sin_nombre_2-2);}.cls-3{fill:url(#Degradado_sin_nombre_2-3);}.cls-4{fill:url(#Degradado_sin_nombre_2-4);}.cls-5{fill:url(#Degradado_sin_nombre_2-5);}.cls-6{fill:url(#Degradado_sin_nombre_2-6);}.cls-7{fill:#3c3c3b;}</style><linearGradient id="Degradado_sin_nombre_2" y1="40.69" x2="93.66" y2="40.69" gradientUnits="userSpaceOnUse"><stop offset="0.15" stop-color="#6a5538"/><stop offset="0.35" stop-color="#bc975e"/><stop offset="0.45" stop-color="#d9be85"/><stop offset="0.56" stop-color="#e7d491"/><stop offset="0.67" stop-color="#c5a76c"/><stop offset="0.78" stop-color="#bc975e"/><stop offset="1" stop-color="#6a5538"/></linearGradient><linearGradient id="Degradado_sin_nombre_2-2" x1="4.13" y1="122.63" x2="114.68" y2="122.63" xlink:href="#Degradado_sin_nombre_2"/><linearGradient id="Degradado_sin_nombre_2-3" x1="95.89" y1="72.82" x2="144.77" y2="72.82" xlink:href="#Degradado_sin_nombre_2"/><linearGradient id="Degradado_sin_nombre_2-4" x1="21.07" y1="30.91" x2="65.2" y2="30.91" xlink:href="#Degradado_sin_nombre_2"/><linearGradient id="Degradado_sin_nombre_2-5" x1="116.83" y1="70.26" x2="160.96" y2="70.26" xlink:href="#Degradado_sin_nombre_2"/><linearGradient id="Degradado_sin_nombre_2-6" x1="33.72" y1="135.93" x2="77.86" y2="135.93" xlink:href="#Degradado_sin_nombre_2"/></defs><g id="Capa_2" data-name="Capa 2"><g id="Capa_1-2" data-name="Capa 1"><path class="cls-1" d="M93.58,6.72a7.05,7.05,0,0,0-14.09.66A57.49,57.49,0,0,1,58.7,54.24a57.51,57.51,0,0,1-50,11.43,7.05,7.05,0,1,0-3.35,13.7A71.68,71.68,0,0,0,67.67,65.13,71.66,71.66,0,0,0,93.58,6.72Z"/><path class="cls-2" d="M7.38,103.72A7.05,7.05,0,1,0,15,115.59a57.26,57.26,0,0,1,85.86,32.14,7,7,0,0,0,8.75,4.79,6.9,6.9,0,0,0,2.5-1.32,7.06,7.06,0,0,0,2.29-7.42,71.35,71.35,0,0,0-107-40.06Z"/><path class="cls-3" d="M125.64,16.94a7.08,7.08,0,0,0-10,.22,71.37,71.37,0,0,0,18.82,112.71A7.05,7.05,0,0,0,141,117.34a57.25,57.25,0,0,1-15.1-90.43A7.06,7.06,0,0,0,125.64,16.94Z"/><circle class="cls-4" cx="43.13" cy="30.91" r="22.07"/><circle class="cls-5" cx="138.9" cy="70.26" r="22.07"/><circle class="cls-6" cx="55.79" cy="135.93" r="22.07"/><path class="cls-7" d="M201.41,130.82v2.25h-7.13v24.82H191.7V133.07h-7.17v-2.25Z"/><path class="cls-7" d="M287.35,157.89,281,146.58h-4.74v11.31h-2.58V130.82h7.73c2.86,0,5,.73,6.53,2.17a7.62,7.62,0,0,1,2.22,5.69,7.94,7.94,0,0,1-1.6,5,7.56,7.56,0,0,1-4.73,2.69l6.63,11.5Zm-11.11-13.51h5.18a6.14,6.14,0,0,0,4.55-1.55,5.7,5.7,0,0,0,1.52-4.15,5.53,5.53,0,0,0-1.47-4.12,6.38,6.38,0,0,0-4.63-1.45h-5.15Z"/><path class="cls-7" d="M379.35,151.46h-11.7l-2.25,6.43h-2.72l9.38-26.72H375l9.34,26.72h-2.72Zm-.78-2.24-5.07-14.64-5.08,14.64Z"/><path class="cls-7" d="M479,130.82l-9.75,27.07h-2.94l-9.75-27.07h2.79L467.78,155l8.5-24.13Z"/><path class="cls-7" d="M553.82,133v10.11h9.75v2.24h-9.75v10.26h10.85v2.25H551.24v-27.1h13.43V133Z"/><path class="cls-7" d="M639.49,155.68h9.23v2.21h-11.8V130.82h2.57Z"/><path class="cls-7" d="M278.34,67.17a20.41,20.41,0,0,1,8.56,1.75,21.15,21.15,0,0,1,6.59,4.66,21,21,0,0,1,5.72,14.35,20.51,20.51,0,0,1-1.47,7.61,21.41,21.41,0,0,1-4.18,6.66,20.63,20.63,0,0,1-6.57,4.73,20.4,20.4,0,0,1-8.65,1.79h-9.95v9.78a1.13,1.13,0,0,1-1.28,1.27H265.8a1.12,1.12,0,0,1-1.27-1.27v-50c0-.73.32-1.13,1-1.2l.22-.11Zm-9.95,37.65h10a16.68,16.68,0,0,0,7.05-1.45,16.87,16.87,0,0,0,8.78-21.68,17.13,17.13,0,0,0-3.43-5.43,16.91,16.91,0,0,0-5.44-3.85A17.35,17.35,0,0,0,278.09,71h-9.7Z"/><path class="cls-7" d="M343.73,67.17a1.18,1.18,0,0,1,1.35,1.31v1.24a1.37,1.37,0,0,1-.34,1,1.34,1.34,0,0,1-1,.35H312.17V97.46h25.5a1.48,1.48,0,0,1,1,.31,1.3,1.3,0,0,1,.37,1v1.28a1.29,1.29,0,0,1-.35,1,1.35,1.35,0,0,1-1,.36h-25.5v14.52H344.3a1.17,1.17,0,0,1,1.34,1.31v1.28c0,.85-.43,1.27-1.31,1.27h-35a1.06,1.06,0,0,1-.87-.33,1.49,1.49,0,0,1-.26-.91V68.44c0-.54.13-.89.4-1a1.89,1.89,0,0,1,.91-.23Z"/><path class="cls-7" d="M392.93,87a20.15,20.15,0,0,1-.6,4.89,19.33,19.33,0,0,1-1.77,4.57,20.35,20.35,0,0,1-2.87,4,17.86,17.86,0,0,1-3.9,3.21l6.8,14.38a1.09,1.09,0,0,1,.08.28,2.6,2.6,0,0,1,0,.36,1.08,1.08,0,0,1-.26.7.94.94,0,0,1-.77.32h-2.09a1.11,1.11,0,0,1-1-.74l-6.38-13.5a20.08,20.08,0,0,1-7.51,1.31H358.22v11.59a1.2,1.2,0,0,1-1.38,1.34h-1.31a1.19,1.19,0,0,1-1.35-1.34V68.62a1.43,1.43,0,0,1,.37-1,1.27,1.27,0,0,1,.87-.44h17.25a20.56,20.56,0,0,1,8.43,1.66,19.85,19.85,0,0,1,6.4,4.45,19.43,19.43,0,0,1,4,6.36A20,20,0,0,1,392.93,87ZM372.67,102.8a16.94,16.94,0,0,0,6.87-1.32,15.29,15.29,0,0,0,8.26-8.59,16.27,16.27,0,0,0,0-11.71,15.76,15.76,0,0,0-3.17-5.08,15.53,15.53,0,0,0-5.09-3.58,16.61,16.61,0,0,0-6.87-1.35H358.22V102.8Z"/><path class="cls-7" d="M404,68.44a1.22,1.22,0,0,1,.34-.93,1.27,1.27,0,0,1,1-.34h1.27a1.31,1.31,0,0,1,1,.34,1.19,1.19,0,0,1,.35.93V118.5c0,.85-.43,1.27-1.31,1.27h-1.27A1.14,1.14,0,0,1,404,118.5Z"/><path class="cls-7" d="M454.64,67.17A1.17,1.17,0,0,1,456,68.48v1.24A1.19,1.19,0,0,1,454.64,71H423.08V97.46h25.5a1.43,1.43,0,0,1,1,.31,1.3,1.3,0,0,1,.38,1v1.28a1.26,1.26,0,0,1-.36,1,1.31,1.31,0,0,1-1,.36h-25.5v14.52H455.2a1.18,1.18,0,0,1,1.35,1.31v1.28a1.14,1.14,0,0,1-1.31,1.27h-35a1.06,1.06,0,0,1-.87-.33,1.43,1.43,0,0,1-.27-.91V68.44c0-.54.14-.89.41-1a1.84,1.84,0,0,1,.91-.23Z"/><path class="cls-7" d="M469.05,74.68V118.5c0,.85-.43,1.27-1.31,1.27H466.5a1.14,1.14,0,0,1-1.31-1.27V67.17a2.33,2.33,0,0,1,.16-.8c.11-.27.36-.4.76-.4a1.24,1.24,0,0,1,.89.38q9.5,11.6,18.9,23.05l18.9,23v-44c0-.85.43-1.27,1.31-1.27h1.27a1.13,1.13,0,0,1,1.28,1.27v51.62a2.64,2.64,0,0,1-.21.72.77.77,0,0,1-.78.37,1.14,1.14,0,0,1-1-.46Z"/><path class="cls-7" d="M561.29,72.34a1.23,1.23,0,0,1,.57,1,1.38,1.38,0,0,1-.35.78,2.69,2.69,0,0,0-.25.34,6.31,6.31,0,0,1-.44.57,5.58,5.58,0,0,1-.55.54.83.83,0,0,1-.53.25h-.15a.87.87,0,0,1-.28,0,1.49,1.49,0,0,1-.42-.23,26,26,0,0,0-6.54-3.67,20.92,20.92,0,0,0-7.46-1.33,23.05,23.05,0,0,0-6.25.84,23.7,23.7,0,0,0-5.6,2.35,23.2,23.2,0,0,0-4.71,3.65,23.51,23.51,0,0,0-3.61,4.7,23,23,0,0,0-2.32,5.49,22.45,22.45,0,0,0-.81,6,22,22,0,0,0,.83,6.11,22.93,22.93,0,0,0,2.35,5.47,23.42,23.42,0,0,0,8.29,8.22,23.16,23.16,0,0,0,5.44,2.3,22.11,22.11,0,0,0,6,.81,23.56,23.56,0,0,0,14-4.78l.89-.49a1.31,1.31,0,0,1,.56-.18,1,1,0,0,1,.59.28,4.82,4.82,0,0,1,.65.69,3.9,3.9,0,0,1,.53.87,1.9,1.9,0,0,1,.22.82.84.84,0,0,1-.18.54,2.92,2.92,0,0,1-.46.48,28.09,28.09,0,0,1-7.67,4.24,27.49,27.49,0,0,1-19.52-.61,26.87,26.87,0,0,1-8.55-5.77,27.21,27.21,0,0,1-5.76-8.57,27.18,27.18,0,0,1-1.15-17.66,27.07,27.07,0,0,1,6.92-11.9A26.59,26.59,0,0,1,531,70.23a27.35,27.35,0,0,1,6.45-2.72,26.24,26.24,0,0,1,7.17-1,25.37,25.37,0,0,1,8.93,1.56A30.8,30.8,0,0,1,561.29,72.34Z"/><path class="cls-7" d="M605.75,67.17a1.17,1.17,0,0,1,1.34,1.31v1.24A1.19,1.19,0,0,1,605.75,71H574.19V97.46h25.5a1.48,1.48,0,0,1,1,.31,1.33,1.33,0,0,1,.37,1v1.28a1.26,1.26,0,0,1-.36,1,1.31,1.31,0,0,1-1,.36h-25.5v14.52h32.13a1.17,1.17,0,0,1,1.34,1.31v1.28a1.14,1.14,0,0,1-1.31,1.27h-35a1.06,1.06,0,0,1-.87-.33,1.43,1.43,0,0,1-.26-.91V68.44c0-.54.13-.89.4-1a1.84,1.84,0,0,1,.91-.23Z"/><path class="cls-7" d="M614.67,109.78a6.6,6.6,0,0,1,.75-.76,1.49,1.49,0,0,1,1-.41,2.33,2.33,0,0,1,.66.18,1.52,1.52,0,0,1,.69.46,26.91,26.91,0,0,0,2.72,3.23,14.92,14.92,0,0,0,3.1,2.37,14.26,14.26,0,0,0,3.69,1.45,18.8,18.8,0,0,0,4.51.5,20.27,20.27,0,0,0,5.14-.64,12.44,12.44,0,0,0,4.22-2,9.47,9.47,0,0,0,2.86-3.4,10.57,10.57,0,0,0,1.07-4.9,7.77,7.77,0,0,0-.89-3.81,9.77,9.77,0,0,0-2.41-2.87A16.17,16.17,0,0,0,638.21,97q-2-1-4.3-1.88-3.54-1.43-6.61-2.73a24.85,24.85,0,0,1-5.33-3,12.8,12.8,0,0,1-3.56-4,11.85,11.85,0,0,1-1.29-5.78,13.92,13.92,0,0,1,1.1-5.67,12.21,12.21,0,0,1,3-4.25A13.22,13.22,0,0,1,625.83,67a17.27,17.27,0,0,1,5.74-.92,17.94,17.94,0,0,1,4,.44,18.15,18.15,0,0,1,3.76,1.29,16.82,16.82,0,0,1,6.11,4.93,1.89,1.89,0,0,1,.24.4,1.1,1.1,0,0,1,.08.45c0,.07-.08.17-.22.31s-.3.31-.49.48-.4.36-.62.53l-.55.45a.82.82,0,0,1-.71.19,1.38,1.38,0,0,1-.57-.33,17.29,17.29,0,0,0-4.78-3.76A13.31,13.31,0,0,0,631.57,70a12.63,12.63,0,0,0-4.32.71,10.28,10.28,0,0,0-3.35,2,8.73,8.73,0,0,0-2.16,3,9.34,9.34,0,0,0-.76,3.82,7.39,7.39,0,0,0,1.12,4.18,10.28,10.28,0,0,0,3.13,3,29,29,0,0,0,4.8,2.45l6.08,2.48a50.28,50.28,0,0,1,5.29,2.53,18.48,18.48,0,0,1,4.07,3,12.07,12.07,0,0,1,2.61,3.79,12.39,12.39,0,0,1,.92,4.93,14.58,14.58,0,0,1-1.35,6.43A13.57,13.57,0,0,1,644,117a15.62,15.62,0,0,1-5.46,2.85,22.66,22.66,0,0,1-6.68,1,21.55,21.55,0,0,1-9.72-2.18,19.56,19.56,0,0,1-7.6-7.14,2.19,2.19,0,0,1-.26-.46,1.22,1.22,0,0,1-.09-.49A.84.84,0,0,1,614.67,109.78Z"/><path class="cls-7" d="M220.65,115.9H188.47V101.35H214a1.22,1.22,0,0,0,1.35-1.31V98.76a1.3,1.3,0,0,0-.37-1,1.46,1.46,0,0,0-1-.31H188.47V71h31.61a1.31,1.31,0,0,0,1-.36,1.29,1.29,0,0,0,.34-1V68.39a1.18,1.18,0,0,0-1.35-1.31H185.84a1.83,1.83,0,0,0-.9.23c-.27.16-.41.51-.41,1v50.17a1.4,1.4,0,0,0,.27.9,1,1,0,0,0,.87.34h35a1.15,1.15,0,0,0,1.32-1.28v-1.28A1.18,1.18,0,0,0,220.65,115.9Z"/><path class="cls-7" d="M243.53,87.8,208.32,1.15a1.14,1.14,0,0,0-1.06-.78.67.67,0,0,0-.46.25,2.89,2.89,0,0,0-.48.62,7.42,7.42,0,0,0-.45.79c-.14.29-.26.54-.35.75l-21,49.92a1.26,1.26,0,0,0-.14.6c0,.31.23.57.71.8a4.58,4.58,0,0,0,1.91.33,1.55,1.55,0,0,0,1.39-1.09l2.8-6.78h31.54l18.34,45.51.28.63-.16.36-10.68,25a1.27,1.27,0,0,0-.14.61c0,.31.23.57.71.8a4.58,4.58,0,0,0,1.91.33c.59,0,1.05-.36,1.39-1.1l9.09-21.09,9.2,21.09c.33.74.79,1.1,1.38,1.1a4.67,4.67,0,0,0,1.92-.33c.47-.23.71-.49.71-.8a1.28,1.28,0,0,0-.15-.61l-10.77-25-.16-.36.28-.63,9.45-23.25a1.27,1.27,0,0,0,.15-.6c0-.31-.24-.58-.71-.8a4.49,4.49,0,0,0-1.92-.34,1.54,1.54,0,0,0-1.38,1.1ZM192.84,42.66,207.19,8.31a.06.06,0,0,1,.07-.07c.21.48.42,1,.62,1.44l.58,1.44,12.69,31.54Z"/><path class="cls-7" d="M298.59,6.53A19.69,19.69,0,0,0,292.19,2,20.64,20.64,0,0,0,283.75.37H266.47a1.27,1.27,0,0,0-.87.44,1.47,1.47,0,0,0-.37,1V53.08a1.19,1.19,0,0,0,1.35,1.35h1.31a1.21,1.21,0,0,0,1.38-1.35V40.36h14.48A20.13,20.13,0,0,0,291.27,39l6.39,14.65a1.1,1.1,0,0,0,1,.74h2.1a.92.92,0,0,0,.76-.32,1.07,1.07,0,0,0,.27-.71,3,3,0,0,0,0-.36,1.08,1.08,0,0,0-.07-.28l-6.81-15.54a18.23,18.23,0,0,0,3.9-3.24,19.86,19.86,0,0,0,2.87-4,19.58,19.58,0,0,0,1.78-4.6,20.57,20.57,0,0,0-.8-12.39A19.38,19.38,0,0,0,298.59,6.53Zm.31,19.76a15.94,15.94,0,0,1-3.18,5.09A15.26,15.26,0,0,1,290.63,35a16.82,16.82,0,0,1-6.88,1.34H269.27V4.4h14.48a16.5,16.5,0,0,1,6.88,1.36,15.48,15.48,0,0,1,5.09,3.6,16,16,0,0,1,3.18,5.13,16.37,16.37,0,0,1,0,11.8Z"/><path class="cls-7" d="M339.47,4.26h15.46V53.15a1.13,1.13,0,0,0,1.28,1.28h1.28a1.14,1.14,0,0,0,1.31-1.28V4.26h15a1.36,1.36,0,0,0,1-.38,1.35,1.35,0,0,0,.36-1V1.65a1.16,1.16,0,0,0-.39-1,1.61,1.61,0,0,0-1-.3h-34.3a1.15,1.15,0,0,0-1.32,1.28V2.9A1.18,1.18,0,0,0,339.47,4.26Z"/></g></g></svg>