<svg xmlns="http://www.w3.org/2000/svg" xmlns:xlink="http://www.w3.org/1999/xlink" viewBox="0 0 27.15 26.65"><defs><style>.cls-1{fill:url(#Nueva_muestra_de_degradado_1);}.cls-2{fill:url(#Nueva_muestra_de_degradado_1-2);}.cls-3{fill:url(#Nueva_muestra_de_degradado_1-3);}.cls-4{fill:url(#Nueva_muestra_de_degradado_1-4);}.cls-5{fill:url(#Nueva_muestra_de_degradado_1-5);}.cls-6{fill:url(#Nueva_muestra_de_degradado_1-6);}</style><linearGradient id="Nueva_muestra_de_degradado_1" y1="6.86" x2="15.8" y2="6.86" gradientUnits="userSpaceOnUse"><stop offset="0.15" stop-color="#6a5538"/><stop offset="0.35" stop-color="#bc975e"/><stop offset="0.45" stop-color="#d9be85"/><stop offset="0.56" stop-color="#e7d491"/><stop offset="0.67" stop-color="#c5a76c"/><stop offset="0.78" stop-color="#bc975e"/><stop offset="1" stop-color="#6a5538"/></linearGradient><linearGradient id="Nueva_muestra_de_degradado_1-2" x1="0.7" y1="20.69" x2="19.35" y2="20.69" xlink:href="#Nueva_muestra_de_degradado_1"/><linearGradient id="Nueva_muestra_de_degradado_1-3" x1="16.18" y1="12.29" x2="24.42" y2="12.29" xlink:href="#Nueva_muestra_de_degradado_1"/><linearGradient id="Nueva_muestra_de_degradado_1-4" x1="3.55" y1="5.21" x2="11" y2="5.21" xlink:href="#Nueva_muestra_de_degradado_1"/><linearGradient id="Nueva_muestra_de_degradado_1-5" x1="19.71" y1="11.85" x2="27.15" y2="11.85" xlink:href="#Nueva_muestra_de_degradado_1"/><linearGradient id="Nueva_muestra_de_degradado_1-6" x1="5.69" y1="22.93" x2="13.13" y2="22.93" xlink:href="#Nueva_muestra_de_degradado_1"/></defs><g id="Capa_2" data-name="Capa 2"><g id="Capa_1-2" data-name="Capa 1"><path class="cls-1" d="M15.79,1.13a1.19,1.19,0,0,0-2.38.12A9.66,9.66,0,0,1,1.47,11.08,1.19,1.19,0,0,0,0,12a1.2,1.2,0,0,0,.88,1.44A12.09,12.09,0,0,0,11.42,11,12.13,12.13,0,0,0,15.79,1.13Z"/><path class="cls-2" d="M1.25,17.5a1.17,1.17,0,0,0-.36,1.64,1.19,1.19,0,0,0,1.64.36A9.66,9.66,0,0,1,17,24.92a1.2,1.2,0,0,0,1.9.59,1.18,1.18,0,0,0,.39-1.25,12,12,0,0,0-18-6.76Z"/><path class="cls-3" d="M21.19,2.86a1.18,1.18,0,0,0-1.68,0,12,12,0,0,0,3.18,19,1.2,1.2,0,0,0,1.3-.14,1.22,1.22,0,0,0,.3-.37,1.19,1.19,0,0,0-.51-1.6A9.67,9.67,0,0,1,21.23,4.54,1.18,1.18,0,0,0,21.19,2.86Z"/><circle class="cls-4" cx="7.28" cy="5.21" r="3.72"/><circle class="cls-5" cx="23.43" cy="11.85" r="3.72"/><circle class="cls-6" cx="9.41" cy="22.93" r="3.72"/></g></g></svg>