<svg xmlns="http://www.w3.org/2000/svg" viewBox="0 0 1280.06 185.98"><defs><style>.cls-1{font-size:25px;fill:#999;font-family:Poppins-Light, Poppins;font-weight:300;}.cls-2{letter-spacing:-0.02em;}.cls-3{letter-spacing:-0.02em;}.cls-4{letter-spacing:0.04em;}.cls-5{letter-spacing:0.04em;}.cls-6{letter-spacing:0.01em;}.cls-7{letter-spacing:0.01em;}.cls-8{letter-spacing:0.05em;}.cls-9{letter-spacing:0.05em;}.cls-10{letter-spacing:0em;}.cls-11{letter-spacing:0.03em;}</style></defs><g id="Capa_2" data-name="Capa 2"><g id="Capa_1-2" data-name="Capa 1"><text class="cls-1" transform="translate(0 21.25)">Lorem<tspan class="cls-2" x="76.72" y="0"> </tspan><tspan x="83.11" y="0">ipsum</tspan><tspan class="cls-2" x="159.83" y="0"> </tspan><tspan x="166.21" y="0">dolor</tspan><tspan class="cls-3" x="229.96" y="0"> </tspan><tspan x="236.35" y="0">sit</tspan><tspan class="cls-2" x="263.72" y="0"> </tspan><tspan x="270.1" y="0">amet,</tspan><tspan class="cls-2" x="341.3" y="0"> </tspan><tspan x="347.69" y="0">consectetuer</tspan><tspan class="cls-2" x="512.28" y="0"> </tspan><tspan x="518.67" y="0">adipiscing</tspan><tspan class="cls-3" x="647.24" y="0"> </tspan><tspan x="653.63" y="0">elit,</tspan><tspan class="cls-2" x="693.85" y="0"> </tspan><tspan x="700.23" y="0">sed</tspan><tspan class="cls-2" x="745.41" y="0"> </tspan><tspan x="751.79" y="0">diam</tspan><tspan class="cls-2" x="816.81" y="0"> </tspan><tspan x="823.2" y="0">nonummy</tspan><tspan class="cls-2" x="951.45" y="0"> </tspan><tspan x="957.83" y="0">nibh</tspan><tspan class="cls-3" x="1012.08" y="0"> </tspan><tspan x="1018.46" y="0">euismod</tspan><tspan class="cls-2" x="1126.79" y="0"> </tspan><tspan x="1133.17" y="0">tincidunt</tspan><tspan class="cls-2" x="1242.09" y="0"> </tspan><tspan x="1248.48" y="0">ut </tspan><tspan x="0" y="30">laoreet</tspan><tspan class="cls-4" x="87.7" y="30"> </tspan><tspan x="95.65" y="30">dolore</tspan><tspan class="cls-5" x="174.95" y="30"> </tspan><tspan x="182.9" y="30">magna</tspan><tspan class="cls-4" x="274.9" y="30"> </tspan><tspan x="282.85" y="30">aliquam</tspan><tspan class="cls-5" x="386.3" y="30"> </tspan><tspan x="394.26" y="30">erat</tspan><tspan class="cls-4" x="444.63" y="30"> </tspan><tspan x="452.58" y="30">volutpat.</tspan><tspan class="cls-4" x="559.96" y="30"> </tspan><tspan x="567.91" y="30">Ut</tspan><tspan class="cls-5" x="593.33" y="30"> </tspan><tspan x="601.29" y="30">wisi</tspan><tspan class="cls-4" x="645.86" y="30"> </tspan><tspan x="653.81" y="30">enim</tspan><tspan class="cls-4" x="716.46" y="30"> </tspan><tspan x="724.41" y="30">ad</tspan><tspan class="cls-5" x="758.16" y="30"> </tspan><tspan x="766.12" y="30">minim</tspan><tspan class="cls-4" x="844.49" y="30"> </tspan><tspan x="852.44" y="30">veniam,</tspan><tspan class="cls-5" x="949.97" y="30"> </tspan><tspan x="957.92" y="30">quis</tspan><tspan class="cls-4" x="1009.09" y="30"> </tspan><tspan x="1017.05" y="30">nostrud</tspan><tspan class="cls-4" x="1112.32" y="30"> </tspan><tspan x="1120.27" y="30">exerci</tspan><tspan class="cls-5" x="1192.97" y="30"> </tspan><tspan x="1200.93" y="30">tation </tspan><tspan x="0" y="60">ullamcorper</tspan><tspan class="cls-6" x="151.6" y="60"> </tspan><tspan x="158.77" y="60">suscipit</tspan><tspan class="cls-7" x="252.65" y="60"> </tspan><tspan x="259.82" y="60">lobortis</tspan><tspan class="cls-6" x="350.94" y="60"> </tspan><tspan x="358.11" y="60">nisl</tspan><tspan class="cls-7" x="398.14" y="60"> </tspan><tspan x="405.31" y="60">ut</tspan><tspan class="cls-6" x="430.03" y="60"> </tspan><tspan x="437.21" y="60">aliquip</tspan><tspan class="cls-6" x="520.83" y="60"> </tspan><tspan x="528" y="60">ex</tspan><tspan class="cls-7" x="555.05" y="60"> </tspan><tspan x="562.23" y="60">ea</tspan><tspan class="cls-6" x="594.65" y="60"> </tspan><tspan x="601.82" y="60">commodo</tspan><tspan class="cls-6" x="733.27" y="60"> </tspan><tspan x="740.45" y="60">consequat.</tspan><tspan class="cls-7" x="878.97" y="60"> </tspan><tspan x="886.14" y="60">Duis</tspan><tspan class="cls-6" x="938.09" y="60"> </tspan><tspan x="945.26" y="60">autem</tspan><tspan class="cls-7" x="1027.96" y="60"> </tspan><tspan x="1035.13" y="60">vel</tspan><tspan class="cls-6" x="1070.08" y="60"> </tspan><tspan x="1077.26" y="60">eum</tspan><tspan class="cls-6" x="1134.18" y="60"> </tspan><tspan x="1141.35" y="60">iriure</tspan><tspan class="cls-7" x="1202.28" y="60"> </tspan><tspan x="1209.45" y="60">dolor </tspan><tspan x="0" y="90">in</tspan><tspan class="cls-8" x="21.55" y="90"> </tspan><tspan x="29.58" y="90">hendrerit</tspan><tspan class="cls-9" x="141.93" y="90"> </tspan><tspan x="149.96" y="90">in</tspan><tspan class="cls-8" x="171.51" y="90"> </tspan><tspan x="179.54" y="90">vulputate</tspan><tspan class="cls-9" x="297.69" y="90"> </tspan><tspan x="305.72" y="90">velit</tspan><tspan class="cls-8" x="355.29" y="90"> </tspan><tspan x="363.32" y="90">esse</tspan><tspan class="cls-9" x="419.92" y="90"> </tspan><tspan x="427.95" y="90">molestie</tspan><tspan class="cls-8" x="533.75" y="90"> </tspan><tspan x="541.78" y="90">consequat,</tspan><tspan class="cls-9" x="680.08" y="90"> </tspan><tspan x="688.11" y="90">vel</tspan><tspan class="cls-8" x="723.06" y="90"> </tspan><tspan x="731.09" y="90">illum</tspan><tspan class="cls-9" x="789.64" y="90"> </tspan><tspan x="797.67" y="90">dolore</tspan><tspan class="cls-8" x="876.97" y="90"> </tspan><tspan x="885" y="90">eu</tspan><tspan class="cls-9" x="916.38" y="90"> </tspan><tspan x="924.41" y="90">feugiat</tspan><tspan class="cls-8" x="1012.28" y="90"> </tspan><tspan x="1020.31" y="90">nulla</tspan><tspan class="cls-9" x="1080.29" y="90"> </tspan><tspan x="1088.32" y="90">facilisis</tspan><tspan class="cls-8" x="1177.04" y="90"> </tspan><tspan x="1185.07" y="90">at</tspan><tspan class="cls-8" x="1210.85" y="90"> </tspan><tspan class="cls-10" x="1218.88" y="90">vero </tspan><tspan x="0" y="120">eros</tspan><tspan class="cls-11" x="53.4" y="120"> </tspan><tspan x="61.11" y="120">et</tspan><tspan class="cls-11" x="85.56" y="120"> </tspan><tspan x="93.26" y="120">accumsan</tspan><tspan class="cls-11" x="227.62" y="120"> </tspan><tspan x="235.32" y="120">et</tspan><tspan class="cls-11" x="259.77" y="120"> </tspan><tspan x="267.48" y="120">iusto</tspan><tspan class="cls-11" x="326.73" y="120"> </tspan><tspan x="334.44" y="120">odio</tspan><tspan class="cls-11" x="389.14" y="120"> </tspan><tspan x="396.84" y="120">dignissim</tspan><tspan class="cls-11" x="514.64" y="120"> </tspan><tspan x="522.35" y="120">qui</tspan><tspan class="cls-11" x="560.78" y="120"> </tspan><tspan x="568.48" y="120">blandit</tspan><tspan class="cls-11" x="655.28" y="120"> </tspan><tspan x="662.99" y="120">praesent</tspan><tspan class="cls-11" x="774.37" y="120"> </tspan><tspan x="782.07" y="120">luptatum</tspan><tspan class="cls-11" x="896.55" y="120"> </tspan><tspan x="904.25" y="120">zzril</tspan><tspan class="cls-11" x="946.8" y="120"> </tspan><tspan x="954.51" y="120">delenit</tspan><tspan class="cls-11" x="1038.66" y="120"> </tspan><tspan x="1046.37" y="120">augue</tspan><tspan class="cls-11" x="1127.32" y="120"> </tspan><tspan x="1135.03" y="120">duis</tspan><tspan class="cls-11" x="1186.2" y="120"> </tspan><tspan x="1193.91" y="120">dolore </tspan><tspan x="0" y="150">te feugait nulla </tspan></text></g></g></svg>