<svg xmlns="http://www.w3.org/2000/svg" xmlns:xlink="http://www.w3.org/1999/xlink" viewBox="0 0 88.38 88.39"><defs><style>.cls-1{fill:url(#Nueva_muestra_de_degradado_1);}</style><linearGradient id="Nueva_muestra_de_degradado_1" x1="-0.55" y1="44.2" x2="88.38" y2="44.2" gradientUnits="userSpaceOnUse"><stop offset="0.15" stop-color="#6a5538"/><stop offset="0.35" stop-color="#bc975e"/><stop offset="0.45" stop-color="#d9be85"/><stop offset="0.56" stop-color="#e7d491"/><stop offset="0.67" stop-color="#c5a76c"/><stop offset="0.78" stop-color="#bc975e"/><stop offset="1" stop-color="#6a5538"/></linearGradient></defs><g id="Capa_2" data-name="Capa 2"><g id="Capa_1-2" data-name="Capa 1"><path class="cls-1" d="M3.45,88.39C1.78,75.63,1,62.86.31,50.1L.1,45.31C0,43.72,0,42.16,0,40.37c0-.87,0-1.74.08-2.61l.32-2.6.18-1.3c.07-.43.19-.85.28-1.28L1.48,30A42.38,42.38,0,0,1,12,12,42.28,42.28,0,0,1,30,1.48l2.56-.6c.42-.09.85-.2,1.28-.28l1.3-.17L37.75.1c.86-.06,1.74,0,2.61-.08C42.15,0,43.71,0,45.3.1l4.79.21C62.85.94,75.62,1.78,88.38,3.46,75.62,5.13,62.85,6,50.09,6.6l-4.79.21-2.39.09-.6,0-.54,0-1.09.1c-.72.07-1.45.11-2.17.21l-2.13.39-1.07.19c-.35.08-.69.2-1,.29l-2.08.6c-.69.2-1.34.52-2,.76a17.33,17.33,0,0,0-2,.82,31.37,31.37,0,0,0-3.78,2.06,36.24,36.24,0,0,0-6.75,5.28,37.15,37.15,0,0,0-5.29,6.75,34.44,34.44,0,0,0-2.06,3.78,17.18,17.18,0,0,0-.82,2c-.24.68-.56,1.33-.76,2l-.59,2.08c-.1.35-.22.69-.3,1l-.19,1.07-.39,2.13c-.11.72-.14,1.45-.21,2.17L7,41.78l0,.54,0,.6-.09,2.39L6.58,50.1C5.94,62.86,5.11,75.63,3.45,88.39Z"/></g></g></svg>