<svg xmlns="http://www.w3.org/2000/svg" xmlns:xlink="http://www.w3.org/1999/xlink" viewBox="0 0 98.94 98.95"><defs><style>.cls-1{fill:url(#Nueva_muestra_de_degradado_1);}</style><linearGradient id="Nueva_muestra_de_degradado_1" x1="-0.56" y1="49.48" x2="98.94" y2="49.48" gradientUnits="userSpaceOnUse"><stop offset="0.15" stop-color="#6a5538"/><stop offset="0.35" stop-color="#bc975e"/><stop offset="0.45" stop-color="#d9be85"/><stop offset="0.56" stop-color="#e7d491"/><stop offset="0.67" stop-color="#c5a76c"/><stop offset="0.78" stop-color="#bc975e"/><stop offset="1" stop-color="#6a5538"/></linearGradient></defs><g id="Capa_2" data-name="Capa 2"><g id="Capa_1-2" data-name="Capa 1"><path class="cls-1" d="M3.44,99C1.78,84.6,1,70.25.31,55.9L.1,50.51C0,48.72,0,47,0,45c0-1,0-1.94.1-2.9L.5,39.18l.19-1.45c.09-.48.21-.95.32-1.43l.67-2.84a47.38,47.38,0,0,1,11.73-20,47.36,47.36,0,0,1,20-11.74L36.29,1c.48-.1,1-.23,1.43-.32L39.16.5l2.9-.37C43,.05,44,.06,45,0,47,0,48.71,0,50.5.1l5.39.21c14.35.63,28.7,1.47,43.05,3.14C84.59,5.13,70.24,6,55.89,6.6l-5.39.21-2.69.09-.67,0-.62,0-1.23.11c-.83.08-1.65.11-2.47.22l-2.42.44L39.18,8c-.4.09-.79.22-1.18.32L35.63,9c-.78.23-1.53.59-2.3.86a20.24,20.24,0,0,0-2.26.93,37,37,0,0,0-4.3,2.33,41.87,41.87,0,0,0-7.7,6,42.14,42.14,0,0,0-6,7.69,37.25,37.25,0,0,0-2.34,4.3,23.5,23.5,0,0,0-.93,2.27c-.27.77-.63,1.51-.86,2.3L8.26,38c-.1.4-.23.79-.32,1.19L7.73,40.4l-.45,2.43c-.11.82-.14,1.64-.22,2.47L7,46.53l0,.62,0,.67-.09,2.69L6.58,55.9C5.94,70.25,5.11,84.6,3.44,99Z"/></g></g></svg>