<svg xmlns="http://www.w3.org/2000/svg" xmlns:xlink="http://www.w3.org/1999/xlink" viewBox="0 0 93.52 67.18"><defs><style>.cls-1{fill:url(#Nueva_muestra_de_degradado_1);}</style><linearGradient id="Nueva_muestra_de_degradado_1" x1="95.11" y1="33.59" x2="0" y2="33.59" gradientUnits="userSpaceOnUse"><stop offset="0.15" stop-color="#6a5538"/><stop offset="0.35" stop-color="#bc975e"/><stop offset="0.45" stop-color="#d9be85"/><stop offset="0.56" stop-color="#e7d491"/><stop offset="0.67" stop-color="#c5a76c"/><stop offset="0.78" stop-color="#bc975e"/><stop offset="1" stop-color="#6a5538"/></linearGradient></defs><g id="Capa_2" data-name="Capa 2"><g id="Capa_1-2" data-name="Capa 1"><path class="cls-1" d="M91.11,0c.44,2.85.78,5.69,1.1,8.54s.6,5.69.86,8.54l.35,4.27c.08,1.46.07,3,.1,4.51s-.24,3-.37,4.54-.56,3-.87,4.5A42.07,42.07,0,0,1,84,51.29a44.56,44.56,0,0,1-6.64,6.53,35,35,0,0,1-3.82,2.69l-2,1.22c-.67.4-1.39.7-2.09,1.06l-2.11,1c-.73.29-1.47.54-2.2.81s-1.46.53-2.2.78L60.64,66c-.76.17-1.51.39-2.28.52l-2.31.32c-.78.09-1.54.24-2.32.28l-2.33.07c-.76,0-1.58,0-2.29,0L47,67.12,42.7,67c-2.85-.1-5.69-.23-8.54-.38C22.77,66,11.39,65.11,0,63.44c11.39-1.66,22.77-2.53,34.16-3.14,2.85-.15,5.69-.28,8.54-.38L47,59.77l2.14-.06c.7,0,1.31-.1,2-.15L53,59.42c.65-.05,1.28-.21,1.91-.31l1.91-.32c.63-.13,1.25-.34,1.87-.5l1.87-.49,1.81-.67c.6-.23,1.21-.44,1.8-.68l1.73-.85A40.82,40.82,0,0,0,86.28,33.06c.37-1.25.84-2.5,1.19-3.78s.61-2.59.84-3.9.34-2.64.49-4l.35-4.27c.26-2.85.52-5.69.86-8.54S90.67,2.85,91.11,0Z"/></g></g></svg>