<svg xmlns="http://www.w3.org/2000/svg" viewBox="0 0 636.12 61.82"><defs><style>.cls-1{font-size:15px;fill:#999;font-family:Poppins-ExtraLight, Poppins;font-weight:200;}.cls-2{letter-spacing:0.17em;}.cls-3{letter-spacing:0.17em;}.cls-4{letter-spacing:0.18em;}.cls-5{letter-spacing:0.18em;}</style></defs><g id="Capa_2" data-name="Capa 2"><g id="Capa_1-2" data-name="Capa 1"><text class="cls-1" transform="translate(0 12.75)">Lorem<tspan class="cls-2" x="45.61" y="0"> </tspan><tspan x="52.42" y="0">ipsum</tspan><tspan class="cls-2" x="97.66" y="0"> </tspan><tspan x="104.46" y="0">dolor</tspan><tspan class="cls-2" x="142.3" y="0"> </tspan><tspan x="149.1" y="0">sit</tspan><tspan class="cls-2" x="164.91" y="0"> </tspan><tspan x="171.71" y="0">amet,</tspan><tspan class="cls-2" x="213.73" y="0"> </tspan><tspan x="220.53" y="0">consectetuer</tspan><tspan class="cls-3" x="318.76" y="0"> </tspan><tspan x="325.56" y="0">adipiscing</tspan><tspan class="cls-2" x="401.51" y="0"> </tspan><tspan x="408.31" y="0">elit,</tspan><tspan class="cls-2" x="431.33" y="0"> </tspan><tspan x="438.14" y="0">sed</tspan><tspan class="cls-2" x="465.06" y="0"> </tspan><tspan x="471.86" y="0">diam</tspan><tspan class="cls-2" x="510.4" y="0"> </tspan><tspan x="517.2" y="0">nonummy</tspan><tspan class="cls-2" x="593.16" y="0"> </tspan><tspan x="599.96" y="0">nibh </tspan><tspan x="0" y="18">euismod</tspan><tspan class="cls-4" x="64.29" y="18"> </tspan><tspan x="71.18" y="18">tincidunt</tspan><tspan class="cls-4" x="135.33" y="18"> </tspan><tspan x="142.22" y="18">ut</tspan><tspan class="cls-5" x="156.77" y="18"> </tspan><tspan x="163.67" y="18">laoreet</tspan><tspan class="cls-4" x="215.79" y="18"> </tspan><tspan x="222.68" y="18">dolore</tspan><tspan class="cls-4" x="269.9" y="18"> </tspan><tspan x="276.79" y="18">magna</tspan><tspan class="cls-4" x="331.61" y="18"> </tspan><tspan x="338.51" y="18">aliquam</tspan><tspan class="cls-4" x="399.63" y="18"> </tspan><tspan x="406.52" y="18">erat</tspan><tspan class="cls-5" x="436.44" y="18"> </tspan><tspan x="443.34" y="18">volutpat.</tspan><tspan class="cls-4" x="506.3" y="18"> </tspan><tspan x="513.19" y="18">Ut</tspan><tspan class="cls-4" x="528.07" y="18"> </tspan><tspan x="534.97" y="18">wisi</tspan><tspan class="cls-4" x="560.85" y="18"> </tspan><tspan x="567.75" y="18">enim</tspan><tspan class="cls-4" x="604.81" y="18"> </tspan><tspan x="611.7" y="18">ad </tspan><tspan x="1.04" y="36">minim veniam, quis nostrud exerci tation ullamcorper suscipit lobortis nisl ut aliquip ex.</tspan></text></g></g></svg>