<svg xmlns="http://www.w3.org/2000/svg" viewBox="0 0 36.65 36.65"><defs><style>.cls-1{fill:#fff;}</style></defs><g id="Capa_2" data-name="Capa 2"><g id="Capa_1-2" data-name="Capa 1"><path class="cls-1" d="M26,36.65H10.67l-.09,0a2.49,2.49,0,0,1-2-2.61V28.06H2.66A2.5,2.5,0,0,1,0,25.39v-13A2.49,2.49,0,0,1,2.66,9.74H4.58V2.66A2.5,2.5,0,0,1,7.25,0H29.4a2.5,2.5,0,0,1,2.67,2.66V9.74h2.09a2.47,2.47,0,0,1,2.4,1.84l.09.23V26a.12.12,0,0,0,0,.05,2.49,2.49,0,0,1-2.72,2H28.06v6.07a2.5,2.5,0,0,1-1.88,2.45Zm2.08-10.88h5.85c.35,0,.45-.1.45-.45,0-4.28,0-8.57,0-12.85,0-.45,0-.45-.47-.45H2.76c-.46,0-.47,0-.47.45q0,6.42,0,12.85c0,.34.11.45.45.45,1.85,0,3.7,0,5.55,0h.31V22.6a2.48,2.48,0,0,1,2.56-2.55q7.17,0,14.35,0a2.79,2.79,0,0,1,.81.12,2.46,2.46,0,0,1,1.75,2.35C28.07,23.59,28.06,24.66,28.06,25.77ZM18.36,2.29h-11c-.46,0-.47,0-.47.46V9.26c0,.47,0,.48.48.48H29.29c.48,0,.49,0,.49-.48V2.78c0-.49,0-.49-.51-.49ZM18.3,34.36h7c.45,0,.46,0,.46-.46V22.8c0-.46,0-.46-.46-.46h-14c-.47,0-.47,0-.47.48V33.88c0,.48,0,.48.47.48Z"/><path class="cls-1" d="M30.05,13.75H31a1.14,1.14,0,0,1,0,2.28c-.58,0-1.16,0-1.75,0a1.14,1.14,0,0,1,0-2.28Z"/><path class="cls-1" d="M18.33,26.92H15a1.17,1.17,0,0,1-1.27-1.17A1.16,1.16,0,0,1,15,24.63h6.66a1.15,1.15,0,0,1,1.24,1.14,1.16,1.16,0,0,1-1.24,1.15Z"/><path class="cls-1" d="M18.33,32.07H15a1.15,1.15,0,1,1,0-2.29h6.62a1.15,1.15,0,1,1,0,2.29Z"/></g></g></svg>