<svg xmlns="http://www.w3.org/2000/svg" xmlns:xlink="http://www.w3.org/1999/xlink" viewBox="0 0 842 935.81"><defs><style>.cls-1{fill:url(#Nueva_muestra_de_degradado_1);}</style><linearGradient id="Nueva_muestra_de_degradado_1" y1="467.9" x2="842" y2="467.9" gradientUnits="userSpaceOnUse"><stop offset="0.15" stop-color="#6a5538"/><stop offset="0.35" stop-color="#bc975e"/><stop offset="0.45" stop-color="#d9be85"/><stop offset="0.56" stop-color="#e7d491"/><stop offset="0.67" stop-color="#c5a76c"/><stop offset="0.78" stop-color="#bc975e"/><stop offset="1" stop-color="#6a5538"/></linearGradient></defs><g id="Capa_2" data-name="Capa 2"><g id="Capa_1-2" data-name="Capa 1"><path class="cls-1" d="M842,4.92Q623.15,8,404.29,8.8l-109.42.49-109.43.35L76,9.8l-27.35,0H45.24c-.61,0-1.05,0-1.56.06l-1.5.08a19.58,19.58,0,0,0-3,.35l-1.49.22-1.44.38a34.47,34.47,0,0,0-10.9,4.82A35.44,35.44,0,0,0,11.45,34.63l-.75,2.9-.45,3A9.16,9.16,0,0,0,10.11,42L10,43.47C10,44,10,44.42,10,45V60.4L9.73,279.25,9.38,388.68l-.19,54.71L8.9,498.1Q7.81,717,5,935.81,1.88,717,1.1,498.1L.8,443.39.62,388.68.26,279.25,0,60.4V45c0-.55.05-1.25.07-1.87l.1-1.92A13.85,13.85,0,0,1,.37,39.3c.19-1.26.37-2.53.6-3.8l1-3.72a45.38,45.38,0,0,1,18-24.25,44.47,44.47,0,0,1,14-6.16L35.75.9l1.9-.3A28.87,28.87,0,0,1,41.46.16l1.92-.1C44,0,44.7,0,45.24,0h3.42L76,0,185.44.19,294.87.55,404.29,1Q623.14,2.13,842,4.92Z"/></g></g></svg>