<svg xmlns="http://www.w3.org/2000/svg" viewBox="0 0 32.66 32.66"><defs><style>.cls-1{fill:#333;}</style></defs><g id="Capa_2" data-name="Capa 2"><g id="Capa_1-2" data-name="Capa 1"><path class="cls-1" d="M13.61,20.69H14.7v1.09H13.61Z"/><path class="cls-1" d="M15.79,20.69h1.09v1.09H15.79Z"/><path class="cls-1" d="M18,20.69h1.08v1.09H18Z"/><path class="cls-1" d="M13.61,22.86H14.7V24H13.61Z"/><path class="cls-1" d="M15.79,22.86h1.09V24H15.79Z"/><path class="cls-1" d="M18,22.86h1.08V24H18Z"/><path class="cls-1" d="M13.61,25H14.7v1.09H13.61Z"/><path class="cls-1" d="M15.79,25h1.09v1.09H15.79Z"/><path class="cls-1" d="M18,25h1.08v1.09H18Z"/><path class="cls-1" d="M13.61,16.33H14.7v1.09H13.61Z"/><path class="cls-1" d="M15.79,16.33h1.09v1.09H15.79Z"/><path class="cls-1" d="M18,16.33h1.08v1.09H18Z"/><path class="cls-1" d="M13.61,18.51H14.7V19.6H13.61Z"/><path class="cls-1" d="M15.79,18.51h1.09V19.6H15.79Z"/><path class="cls-1" d="M18,18.51h1.08V19.6H18Z"/><path class="cls-1" d="M11,4.52l2.26,2.21-.54,3.11a.55.55,0,0,0,.45.63.56.56,0,0,0,.34-.05L16.33,9l2.8,1.47a.55.55,0,0,0,.74-.23.6.6,0,0,0,.05-.35l-.53-3.11,2.26-2.21a.55.55,0,0,0,0-.77.58.58,0,0,0-.31-.16l-3.13-.45L16.82.3a.54.54,0,0,0-.73-.24.58.58,0,0,0-.25.24L14.45,3.14l-3.13.45a.54.54,0,0,0-.46.62.51.51,0,0,0,.15.31Zm3.86-.35a.51.51,0,0,0,.41-.29l1-2.11,1,2.11a.52.52,0,0,0,.41.29l2.32.34L18.42,6.15a.53.53,0,0,0-.16.48l.4,2.31L16.59,7.85a.57.57,0,0,0-.51,0L14,8.94l.4-2.31a.53.53,0,0,0-.16-.48L12.57,4.51Z"/><path class="cls-1" d="M21.26,8.85a.53.53,0,0,0,.14.56l1.5,1.47L22.55,13a.54.54,0,0,0,.44.62.6.6,0,0,0,.35-.05l1.86-1,1.86,1a.55.55,0,0,0,.74-.23.58.58,0,0,0,.05-.34l-.35-2.08L29,9.41a.55.55,0,0,0,0-.77.65.65,0,0,0-.32-.16l-2.08-.3-.93-1.89A.55.55,0,0,0,25,6a.6.6,0,0,0-.25.25l-.93,1.89-2.08.3A.54.54,0,0,0,21.26,8.85Zm3,.37a.56.56,0,0,0,.41-.3l.57-1.16.57,1.16a.56.56,0,0,0,.41.3l1.28.18-.93.9a.54.54,0,0,0-.15.48l.21,1.27-1.14-.6a.55.55,0,0,0-.5,0l-1.14.6L24,10.78a.55.55,0,0,0-.16-.48L23,9.4Z"/><path class="cls-1" d="M27.34,14.78a.55.55,0,0,0-.46.61.65.65,0,0,0,.16.32l1,.94L27.78,18a.54.54,0,0,0,.45.62.49.49,0,0,0,.34-.05l1.2-.63,1.2.63a.53.53,0,0,0,.73-.23.51.51,0,0,0,.06-.34l-.23-1.34,1-.94a.55.55,0,0,0,0-.77.47.47,0,0,0-.31-.16l-1.34-.2-.6-1.21a.55.55,0,0,0-.73-.25.6.6,0,0,0-.25.25l-.6,1.21Zm2.19.54.24-.48.24.48a.56.56,0,0,0,.41.3l.53.08-.38.37a.55.55,0,0,0-.16.48l.09.53L30,16.83a.55.55,0,0,0-.5,0l-.48.25.09-.53a.57.57,0,0,0-.15-.48l-.39-.37.53-.08a.56.56,0,0,0,.41-.3Z"/><path class="cls-1" d="M3.66,9.41l1.51,1.47L4.81,13a.54.54,0,0,0,.44.62.6.6,0,0,0,.35-.05l1.86-1,1.87,1a.54.54,0,0,0,.73-.23.52.52,0,0,0,.06-.34l-.36-2.08,1.51-1.47a.55.55,0,0,0,0-.77A.66.66,0,0,0,11,8.48l-2.09-.3L8,6.29A.55.55,0,0,0,7.22,6,.53.53,0,0,0,7,6.29L6,8.18,4,8.48a.55.55,0,0,0-.46.62.52.52,0,0,0,.16.31Zm2.82-.19a.56.56,0,0,0,.41-.3l.57-1.16L8,8.92a.57.57,0,0,0,.41.3l1.28.18-.92.9a.55.55,0,0,0-.16.48l.22,1.27-1.14-.6a.57.57,0,0,0-.51,0l-1.14.6.22-1.27a.55.55,0,0,0-.16-.48l-.92-.9Z"/><path class="cls-1" d="M.16,15.71l1,.94L.91,18a.53.53,0,0,0,.44.62.49.49,0,0,0,.34-.05l1.2-.63,1.2.63a.55.55,0,0,0,.74-.23.58.58,0,0,0,0-.34l-.23-1.34,1-.94a.54.54,0,0,0,0-.77.47.47,0,0,0-.31-.16L4,14.58l-.6-1.21a.55.55,0,0,0-.73-.25.53.53,0,0,0-.24.25l-.6,1.21-1.34.2A.54.54,0,0,0,0,15.4.56.56,0,0,0,.16,15.71Zm2.09-.09a.57.57,0,0,0,.41-.3l.23-.48.24.48a.56.56,0,0,0,.41.3l.53.08-.38.37a.55.55,0,0,0-.16.48l.09.53-.47-.25a.57.57,0,0,0-.51,0l-.48.25.1-.53a.55.55,0,0,0-.16-.48l-.39-.37Z"/><path class="cls-1" d="M8.71,18.51h1.63V19.6H8.71Z"/><path class="cls-1" d="M8.71,21.23h1.63v1.09H8.71Z"/><path class="cls-1" d="M8.71,24h1.63V25H8.71Z"/><path class="cls-1" d="M8.71,26.68h1.63v1.08H8.71Z"/><path class="cls-1" d="M30.49,25.59H29.4a2.18,2.18,0,0,0-2.18,2.17v1.13a2.54,2.54,0,0,0-1.09.44V26.68H25V29.4H21.23V16.88H25v8.71h1.09V16.33a.54.54,0,0,0-.54-.54H21.23V13.07a.55.55,0,0,0-.54-.55H19.05V11.43a.54.54,0,0,0-.54-.54H14.15a.54.54,0,0,0-.54.54v1.09H12a.55.55,0,0,0-.55.55v2.72H7.08a.55.55,0,0,0-.55.54V19.6H7.62V16.88h3.81V29.4H7.62V20.69H6.53v8.64a2.49,2.49,0,0,0-1.09-.44V27.76a2.17,2.17,0,0,0-2.17-2.17H2.18A2.18,2.18,0,0,0,0,27.76v4.36a.54.54,0,0,0,.54.54H32.12a.54.54,0,0,0,.54-.54V27.76a2.17,2.17,0,0,0-2.17-2.17ZM14.7,12H18v2.17H14.7ZM1.09,27.76a1.08,1.08,0,0,1,1.09-1.08H3.27a1.09,1.09,0,0,1,1.09,1.08v1.13a2.58,2.58,0,0,0-2.18,2.55v.14H1.09Zm2.18,3.82v-.14a1.5,1.5,0,0,1,1.49-1.5H5a1.5,1.5,0,0,1,1.49,1.5v.14Zm4.35-1.09h3.81v1.09H7.62Zm4.9-16.88h1.09V14.7a.54.54,0,0,0,.54.54h4.36a.54.54,0,0,0,.54-.54V13.61h1.09v18H18.51V27.76a.54.54,0,0,0-.54-.54H14.7a.55.55,0,0,0-.55.54v3.82H12.52Zm2.72,18V28.31h2.18v3.27Zm6-1.09H25v1.09H21.23Zm4.9,1.09v-.14a1.5,1.5,0,0,1,1.5-1.5h.27a1.5,1.5,0,0,1,1.5,1.5v.14Zm5.45,0H30.49v-.14a2.6,2.6,0,0,0-2.18-2.55V27.76a1.08,1.08,0,0,1,1.09-1.08h1.09a1.09,1.09,0,0,1,1.09,1.08Z"/><path class="cls-1" d="M22.32,24H24V25H22.32Z"/><path class="cls-1" d="M22.32,26.68H24v1.08H22.32Z"/><path class="cls-1" d="M22.32,18.51H24V19.6H22.32Z"/><path class="cls-1" d="M22.32,21.23H24v1.09H22.32Z"/></g></g></svg>