<svg xmlns="http://www.w3.org/2000/svg" viewBox="0 0 29.89 38.94"><defs><style>.cls-1{fill:#333;}</style></defs><g id="Capa_2" data-name="Capa 2"><g id="Capa_1-2" data-name="Capa 1"><path class="cls-1" d="M29.32,12.73a.58.58,0,0,0,.57-.57v-4a1.72,1.72,0,0,0-1.71-1.71H27.6V4.94a1.71,1.71,0,0,0-1.71-1.71h-.57V1.71A1.71,1.71,0,0,0,23.61,0H1.71A1.72,1.72,0,0,0,0,1.71V4.86a.58.58,0,0,0,.57.57.57.57,0,0,0,.57-.57V1.71a.58.58,0,0,1,.57-.57h21.9a.57.57,0,0,1,.57.57V30.76a.56.56,0,0,1-.57.57H1.71a.57.57,0,0,1-.57-.57V7.29a.57.57,0,0,0-.57-.57A.58.58,0,0,0,0,7.29V30.76a1.72,1.72,0,0,0,1.71,1.71h.57V34A1.71,1.71,0,0,0,4,35.7h.57v1.52a1.72,1.72,0,0,0,1.71,1.72H28.18a1.72,1.72,0,0,0,1.71-1.72V14.58a.57.57,0,0,0-.57-.57.56.56,0,0,0-.57.57V37.22a.58.58,0,0,1-.57.58H6.27a.58.58,0,0,1-.57-.58V35.7H19.8a.56.56,0,0,0,.57-.57.57.57,0,0,0-.57-.57H4A.57.57,0,0,1,3.42,34V32.47H23.61a1.71,1.71,0,0,0,1.71-1.71V4.37h.57a.57.57,0,0,1,.57.57V34a.56.56,0,0,1-.57.57H22.22a.57.57,0,0,0-.57.57.56.56,0,0,0,.57.57h3.67A1.7,1.7,0,0,0,27.6,34V7.6h.58a.58.58,0,0,1,.57.57v4A.57.57,0,0,0,29.32,12.73ZM3.84,9.43v4a.87.87,0,0,0,.87.88h4a.87.87,0,0,0,.87-.88V10.44l1.17-1a.58.58,0,0,0,.07-.81A.57.57,0,0,0,10,8.58L9.45,9a.88.88,0,0,0-.78-.47h-4A.87.87,0,0,0,3.84,9.43ZM5,9.7H8.4v.22l-1.13,1-.54-.58a.57.57,0,0,0-.84.77l.92,1a.55.55,0,0,0,.78,0l.81-.69v1.7H5V9.7Zm15.93-.23H11.79a.56.56,0,0,0-.57.57.57.57,0,0,0,.57.57h9.12a.57.57,0,0,0,.57-.57A.56.56,0,0,0,20.91,9.47Zm0,2.43H11.79a.57.57,0,0,0-.57.57.56.56,0,0,0,.57.57h9.12a.56.56,0,0,0,.57-.57A.57.57,0,0,0,20.91,11.9ZM3.84,20.76a.88.88,0,0,0,.87.88h4a.88.88,0,0,0,.87-.88v-4a.87.87,0,0,0-.87-.88h-4a.87.87,0,0,0-.87.88ZM5,17.07H8.4v3.42H5Zm15.93-.23H11.79a.57.57,0,0,0-.57.57.56.56,0,0,0,.57.57h9.12a.56.56,0,0,0,.57-.57A.57.57,0,0,0,20.91,16.84Zm0,2.44H11.79a.56.56,0,0,0-.57.57.57.57,0,0,0,.57.57h9.12a.57.57,0,0,0,.57-.57A.56.56,0,0,0,20.91,19.28ZM3.84,28.14a.87.87,0,0,0,.87.87h4a.87.87,0,0,0,.87-.87v-4a.87.87,0,0,0-.87-.87h-4a.87.87,0,0,0-.87.87ZM5,24.45H8.4v3.42H5Zm15.93-.23H11.79a.57.57,0,0,0-.57.57.56.56,0,0,0,.57.57h9.12a.56.56,0,0,0,.57-.57A.57.57,0,0,0,20.91,24.22Zm0,2.43H11.79a.57.57,0,0,0-.57.57.56.56,0,0,0,.57.57h9.12a.56.56,0,0,0,.57-.57A.57.57,0,0,0,20.91,26.65ZM18,2.7H7.53a1.9,1.9,0,1,0,0,3.8H18a1.9,1.9,0,1,0,0-3.8Zm0,2.66H7.53a.76.76,0,0,1,0-1.52H18a.76.76,0,0,1,0,1.52Z"/></g></g></svg>