<svg xmlns="http://www.w3.org/2000/svg" xmlns:xlink="http://www.w3.org/1999/xlink" viewBox="0 0 99.82 99.83"><defs><style>.cls-1{fill:url(#Nueva_muestra_de_degradado_1);}</style><linearGradient id="Nueva_muestra_de_degradado_1" x1="-0.68" y1="49.92" x2="99.82" y2="49.92" gradientUnits="userSpaceOnUse"><stop offset="0.15" stop-color="#6a5538"/><stop offset="0.35" stop-color="#bc975e"/><stop offset="0.45" stop-color="#d9be85"/><stop offset="0.56" stop-color="#e7d491"/><stop offset="0.67" stop-color="#c5a76c"/><stop offset="0.78" stop-color="#bc975e"/><stop offset="1" stop-color="#6a5538"/></linearGradient></defs><g id="Capa_2" data-name="Capa 2"><g id="Capa_1-2" data-name="Capa 1"><path class="cls-1" d="M4.32,99.83C2.25,85.48,1.17,71.13.4,56.77L.14,51.39,0,48.7,0,48v-.74l0-1.48c0-1,0-2,.08-3l.36-3,.19-1.48c.09-.49.21-1,.32-1.45l.67-2.91A47.9,47.9,0,0,1,13.58,13.59l2.22-2,1.12-1c.38-.33.8-.61,1.19-.91L20.52,7.9c.82-.57,1.7-1.05,2.55-1.57a45.22,45.22,0,0,1,5.34-2.69,25.55,25.55,0,0,1,2.8-1.06c.94-.32,1.87-.69,2.84-.93L37,1c.49-.11,1-.23,1.46-.32L39.88.47,42.83.11c1-.07,2-.06,3-.08l1.48,0H48l.67,0,2.69.1L56.76.4c14.35.77,28.71,1.85,43.06,3.93C85.47,6.42,71.11,7.49,56.76,8.26l-5.38.27-2.69.11-.67,0-.61.06-1.21.12c-.8.08-1.61.12-2.41.24l-2.37.45-1.18.21c-.39.09-.77.22-1.16.33l-2.3.67c-.77.22-1.49.58-2.24.85a20.14,20.14,0,0,0-2.21.91,36.89,36.89,0,0,0-4.18,2.3,40.5,40.5,0,0,0-7.5,5.86,41.33,41.33,0,0,0-5.87,7.5,35.31,35.31,0,0,0-2.29,4.18,18.41,18.41,0,0,0-.92,2.21c-.27.75-.63,1.47-.86,2.24l-.66,2.3c-.11.39-.24.77-.33,1.16L9.5,41.44c-.14.78-.28,1.58-.45,2.37s-.15,1.6-.24,2.4L8.7,47.42,8.64,48l0,.67L8.5,51.39l-.26,5.38C7.46,71.13,6.39,85.48,4.32,99.83Z"/></g></g></svg>