<svg xmlns="http://www.w3.org/2000/svg" viewBox="0 0 1268.05 155.35"><defs><style>.cls-1{font-size:25px;font-family:Poppins-Light, Poppins;font-weight:300;}.cls-2{letter-spacing:0.04em;}.cls-3{letter-spacing:0.04em;}.cls-4{letter-spacing:0.14em;}.cls-5{letter-spacing:0.14em;}.cls-6{letter-spacing:0em;}.cls-7{letter-spacing:-0.04em;}.cls-8{letter-spacing:-0.04em;}.cls-9{letter-spacing:-0.01em;}.cls-10{letter-spacing:0em;}.cls-11{letter-spacing:-0.01em;}</style></defs><g id="Capa_2" data-name="Capa 2"><g id="Capa_1-2" data-name="Capa 1"><text class="cls-1" transform="translate(0 21.25)">Lorem<tspan class="cls-2" x="76.72" y="0"> </tspan><tspan x="84.58" y="0">ipsum</tspan><tspan class="cls-2" x="161.3" y="0"> </tspan><tspan x="169.15" y="0">dolor</tspan><tspan class="cls-3" x="232.9" y="0"> </tspan><tspan x="240.76" y="0">sit</tspan><tspan class="cls-2" x="268.13" y="0"> </tspan><tspan x="275.98" y="0">amet,</tspan><tspan class="cls-2" x="347.18" y="0"> </tspan><tspan x="355.03" y="0">consectetuer</tspan><tspan class="cls-2" x="519.63" y="0"> </tspan><tspan x="527.49" y="0">adipiscing</tspan><tspan class="cls-3" x="656.06" y="0"> </tspan><tspan x="663.91" y="0">elit,</tspan><tspan class="cls-2" x="704.14" y="0"> </tspan><tspan x="711.99" y="0">sed</tspan><tspan class="cls-2" x="757.16" y="0"> </tspan><tspan x="765.02" y="0">diam</tspan><tspan class="cls-2" x="830.04" y="0"> </tspan><tspan x="837.89" y="0">nonummy</tspan><tspan class="cls-2" x="966.14" y="0"> </tspan><tspan x="974" y="0">nibh</tspan><tspan class="cls-3" x="1028.25" y="0"> </tspan><tspan x="1036.1" y="0">euismod</tspan><tspan class="cls-2" x="1144.42" y="0"> </tspan><tspan x="1152.28" y="0">tincidunt </tspan><tspan x="0" y="30">ut</tspan><tspan class="cls-4" x="24.72" y="30"> </tspan><tspan x="35.05" y="30">laoreet</tspan><tspan class="cls-4" x="122.75" y="30"> </tspan><tspan x="133.07" y="30">dolore</tspan><tspan class="cls-4" x="212.37" y="30"> </tspan><tspan x="222.69" y="30">magna</tspan><tspan class="cls-5" x="314.69" y="30"> </tspan><tspan x="325.01" y="30">aliquam</tspan><tspan class="cls-4" x="428.46" y="30"> </tspan><tspan x="438.78" y="30">erat</tspan><tspan class="cls-4" x="489.16" y="30"> </tspan><tspan x="499.48" y="30">volutpat.</tspan><tspan class="cls-4" x="606.85" y="30"> </tspan><tspan x="617.17" y="30">Ut</tspan><tspan class="cls-4" x="642.6" y="30"> </tspan><tspan x="652.92" y="30">wisi</tspan><tspan class="cls-4" x="697.5" y="30"> </tspan><tspan x="707.82" y="30">enim</tspan><tspan class="cls-4" x="770.47" y="30"> </tspan><tspan x="780.79" y="30">ad</tspan><tspan class="cls-4" x="814.54" y="30"> </tspan><tspan x="824.86" y="30">minim</tspan><tspan class="cls-5" x="903.24" y="30"> </tspan><tspan class="cls-6" x="913.56" y="30">veniam,</tspan><tspan class="cls-5" x="1011.08" y="30"> </tspan><tspan x="1021.41" y="30">quis</tspan><tspan class="cls-4" x="1072.58" y="30"> </tspan><tspan x="1082.9" y="30">nostrud</tspan><tspan class="cls-4" x="1178.18" y="30"> </tspan><tspan x="1188.5" y="30">exerci </tspan><tspan x="0" y="60">tation</tspan><tspan class="cls-7" x="72.27" y="60"> </tspan><tspan x="78.08" y="60">ullamcorper</tspan><tspan class="cls-8" x="229.68" y="60"> </tspan><tspan x="235.48" y="60">suscipit</tspan><tspan class="cls-7" x="329.35" y="60"> </tspan><tspan x="335.16" y="60">lobortis</tspan><tspan class="cls-8" x="426.28" y="60"> </tspan><tspan x="432.09" y="60">nisl</tspan><tspan class="cls-7" x="472.11" y="60"> </tspan><tspan x="477.91" y="60">ut</tspan><tspan class="cls-8" x="502.64" y="60"> </tspan><tspan x="508.44" y="60">aliquip</tspan><tspan class="cls-7" x="592.07" y="60"> </tspan><tspan x="597.87" y="60">ex</tspan><tspan class="cls-7" x="624.92" y="60"> </tspan><tspan x="630.72" y="60">ea</tspan><tspan class="cls-8" x="663.15" y="60"> </tspan><tspan x="668.95" y="60">commodo</tspan><tspan class="cls-7" x="800.4" y="60"> </tspan><tspan x="806.21" y="60">consequat.</tspan><tspan class="cls-8" x="944.73" y="60"> </tspan><tspan x="950.54" y="60">Duis</tspan><tspan class="cls-7" x="1002.49" y="60"> </tspan><tspan x="1008.29" y="60">autem</tspan><tspan class="cls-8" x="1090.99" y="60"> </tspan><tspan x="1096.79" y="60">vel</tspan><tspan class="cls-7" x="1131.74" y="60"> </tspan><tspan x="1137.55" y="60">eum</tspan><tspan class="cls-8" x="1194.47" y="60"> </tspan><tspan x="1200.28" y="60">iriure </tspan><tspan x="0" y="90">dolor</tspan><tspan class="cls-9" x="63.75" y="90"> </tspan><tspan x="70.44" y="90">in</tspan><tspan class="cls-9" x="91.99" y="90"> </tspan><tspan class="cls-10" x="98.68" y="90">hendrerit</tspan><tspan class="cls-9" x="211.03" y="90"> </tspan><tspan x="217.72" y="90">in</tspan><tspan class="cls-9" x="239.27" y="90"> </tspan><tspan x="245.96" y="90">vulputate</tspan><tspan class="cls-9" x="364.11" y="90"> </tspan><tspan x="370.8" y="90">velit</tspan><tspan class="cls-9" x="420.38" y="90"> </tspan><tspan class="cls-10" x="427.07" y="90">esse</tspan><tspan class="cls-11" x="483.67" y="90"> </tspan><tspan x="490.36" y="90">molestie</tspan><tspan class="cls-9" x="596.16" y="90"> </tspan><tspan x="602.85" y="90">consequat,</tspan><tspan class="cls-9" x="741.15" y="90"> </tspan><tspan x="747.84" y="90">vel</tspan><tspan class="cls-11" x="782.79" y="90"> </tspan><tspan x="789.48" y="90">illum</tspan><tspan class="cls-9" x="848.03" y="90"> </tspan><tspan x="854.72" y="90">dolore</tspan><tspan class="cls-9" x="934.02" y="90"> </tspan><tspan x="940.71" y="90">eu</tspan><tspan class="cls-9" x="972.09" y="90"> </tspan><tspan x="978.78" y="90">feugiat</tspan><tspan class="cls-11" x="1066.65" y="90"> </tspan><tspan class="cls-6" x="1073.35" y="90">nulla</tspan><tspan class="cls-9" x="1133.32" y="90"> </tspan><tspan x="1140.01" y="90">facilisis</tspan><tspan class="cls-9" x="1228.74" y="90"> </tspan><tspan x="1235.43" y="90">at </tspan><tspan x="0" y="120">vero eros et accumsan et iusto odio </tspan></text></g></g></svg>