<svg xmlns="http://www.w3.org/2000/svg" xmlns:xlink="http://www.w3.org/1999/xlink" viewBox="0 0 78.54 71.91"><defs><style>.cls-1{fill:url(#Nueva_muestra_de_degradado_1);}</style><linearGradient id="Nueva_muestra_de_degradado_1" x1="-0.62" y1="35.95" x2="78.54" y2="35.95" gradientUnits="userSpaceOnUse"><stop offset="0.15" stop-color="#6a5538"/><stop offset="0.35" stop-color="#bc975e"/><stop offset="0.45" stop-color="#d9be85"/><stop offset="0.56" stop-color="#e7d491"/><stop offset="0.67" stop-color="#c5a76c"/><stop offset="0.78" stop-color="#bc975e"/><stop offset="1" stop-color="#6a5538"/></linearGradient></defs><g id="Capa_2" data-name="Capa 2"><g id="Capa_1-2" data-name="Capa 1"><path class="cls-1" d="M3.38,71.91C1.72,61.12.86,50.33.24,39.54L0,35.5c-.06-.64,0-1.44,0-2.18s0-1.52.07-2.27l.29-2.26c0-.37.09-.75.16-1.13l.28-1.1.57-2.21.78-2.14A34,34,0,0,1,13,7.87,38,38,0,0,1,29.27.64a18.55,18.55,0,0,1,2.2-.33L33.68.07c1.47-.08,3-.08,4.4-.06q4.05.15,8.09.38C57,1,67.75,1.87,78.54,3.53,67.75,5.2,57,6.06,46.17,6.68q-4,.23-8.09.38c-1.28.1-2.46.21-3.68.32l-1.8.31a12,12,0,0,0-1.78.38,32.09,32.09,0,0,0-3.47,1c-.56.21-1.14.39-1.7.61L24,10.46l-.82.37c-.27.13-.52.29-.79.43l-1.56.88c-.52.3-1,.67-1.49,1a14.71,14.71,0,0,0-1.44,1,27.21,27.21,0,0,0-2.68,2.34c-.41.42-.87.81-1.25,1.26l-1.14,1.36a11.29,11.29,0,0,0-1.06,1.41c-.33.49-.69,1-1,1.46l-.86,1.54c-.13.26-.29.51-.42.77l-.36.81-.71,1.61-.53,1.68-.28.84-.18.87-.38,1.73c-.09.58-.12,1.18-.19,1.77s-.14,1.15-.16,1.86l-.21,4C5.89,50.33,5,61.12,3.38,71.91Z"/></g></g></svg>