<svg xmlns="http://www.w3.org/2000/svg" viewBox="0 0 699.85 125.35"><defs><style>.cls-1{font-size:25px;fill:#333;font-family:Poppins-Light, Poppins;font-weight:300;}.cls-2{letter-spacing:-0.02em;}.cls-3{letter-spacing:-0.02em;}.cls-4{letter-spacing:0.13em;}.cls-5{letter-spacing:0.13em;}.cls-6{letter-spacing:0.2em;}</style></defs><g id="Capa_2" data-name="Capa 2"><g id="Capa_1-2" data-name="Capa 1"><text class="cls-1" transform="translate(0 21.25)">Lorem<tspan class="cls-2" x="76.72" y="0"> </tspan><tspan x="82.99" y="0">ipsum</tspan><tspan class="cls-3" x="159.71" y="0"> </tspan><tspan x="165.97" y="0">dolor</tspan><tspan class="cls-2" x="229.72" y="0"> </tspan><tspan x="235.98" y="0">sit</tspan><tspan class="cls-3" x="263.36" y="0"> </tspan><tspan x="269.62" y="0">amet,</tspan><tspan class="cls-2" x="340.82" y="0"> </tspan><tspan x="347.08" y="0">consectetuer</tspan><tspan class="cls-3" x="511.68" y="0"> </tspan><tspan x="517.94" y="0">adipiscing</tspan><tspan class="cls-2" x="646.52" y="0"> </tspan><tspan x="652.78" y="0">elit, </tspan><tspan x="0" y="30">sed</tspan><tspan class="cls-4" x="45.17" y="30"> </tspan><tspan x="55.27" y="30">diam</tspan><tspan class="cls-5" x="120.29" y="30"> </tspan><tspan x="130.38" y="30">nonummy</tspan><tspan class="cls-4" x="258.63" y="30"> </tspan><tspan x="268.72" y="30">nibh</tspan><tspan class="cls-4" x="322.97" y="30"> </tspan><tspan x="333.06" y="30">euismod</tspan><tspan class="cls-5" x="441.39" y="30"> </tspan><tspan x="451.48" y="30">tincidunt</tspan><tspan class="cls-4" x="560.4" y="30"> </tspan><tspan x="570.49" y="30">ut</tspan><tspan class="cls-4" x="595.21" y="30"> </tspan><tspan x="605.31" y="30">laoreet </tspan><tspan x="0" y="60">dolore</tspan><tspan class="cls-6" x="79.3" y="60"> </tspan><tspan x="91.06" y="60">magna</tspan><tspan class="cls-6" x="183.06" y="60"> </tspan><tspan x="194.83" y="60">aliquam</tspan><tspan class="cls-6" x="298.28" y="60"> </tspan><tspan x="310.04" y="60">erat</tspan><tspan class="cls-6" x="360.41" y="60"> </tspan><tspan x="372.18" y="60">volutpat.</tspan><tspan class="cls-6" x="479.55" y="60"> </tspan><tspan x="491.31" y="60">Ut</tspan><tspan class="cls-6" x="516.74" y="60"> </tspan><tspan x="528.5" y="60">wisi</tspan><tspan class="cls-6" x="573.08" y="60"> </tspan><tspan x="584.84" y="60">enim</tspan><tspan class="cls-6" x="647.49" y="60"> </tspan><tspan x="659.25" y="60">ad </tspan><tspan x="0" y="90">minim veniam, quis nostrud exerci tation ullamcorper.</tspan></text></g></g></svg>