<svg xmlns="http://www.w3.org/2000/svg" xmlns:xlink="http://www.w3.org/1999/xlink" viewBox="0 0 26.4 25.91"><defs><style>.cls-1{fill:url(#Nueva_muestra_de_degradado_1);}.cls-2{fill:url(#Nueva_muestra_de_degradado_1-2);}.cls-3{fill:url(#Nueva_muestra_de_degradado_1-3);}.cls-4{fill:url(#Nueva_muestra_de_degradado_1-4);}.cls-5{fill:url(#Nueva_muestra_de_degradado_1-5);}.cls-6{fill:url(#Nueva_muestra_de_degradado_1-6);}</style><linearGradient id="Nueva_muestra_de_degradado_1" y1="6.67" x2="15.36" y2="6.67" gradientUnits="userSpaceOnUse"><stop offset="0.15" stop-color="#6a5538"/><stop offset="0.35" stop-color="#bc975e"/><stop offset="0.45" stop-color="#d9be85"/><stop offset="0.56" stop-color="#e7d491"/><stop offset="0.67" stop-color="#c5a76c"/><stop offset="0.78" stop-color="#bc975e"/><stop offset="1" stop-color="#6a5538"/></linearGradient><linearGradient id="Nueva_muestra_de_degradado_1-2" x1="0.68" y1="20.11" x2="18.81" y2="20.11" xlink:href="#Nueva_muestra_de_degradado_1"/><linearGradient id="Nueva_muestra_de_degradado_1-3" x1="15.73" y1="11.94" x2="23.74" y2="11.94" xlink:href="#Nueva_muestra_de_degradado_1"/><linearGradient id="Nueva_muestra_de_degradado_1-4" x1="3.45" y1="5.07" x2="10.69" y2="5.07" xlink:href="#Nueva_muestra_de_degradado_1"/><linearGradient id="Nueva_muestra_de_degradado_1-5" x1="19.16" y1="11.52" x2="26.4" y2="11.52" xlink:href="#Nueva_muestra_de_degradado_1"/><linearGradient id="Nueva_muestra_de_degradado_1-6" x1="5.53" y1="22.29" x2="12.77" y2="22.29" xlink:href="#Nueva_muestra_de_degradado_1"/></defs><g id="Capa_2" data-name="Capa 2"><g id="Capa_1-2" data-name="Capa 1"><path class="cls-1" d="M15.35,1.1A1.16,1.16,0,1,0,13,1.21,9.48,9.48,0,0,1,9.63,8.9a9.44,9.44,0,0,1-8.2,1.87A1.16,1.16,0,1,0,.88,13,11.77,11.77,0,0,0,11.1,10.68,11.76,11.76,0,0,0,15.35,1.1Z"/><path class="cls-2" d="M1.21,17A1.16,1.16,0,0,0,2.46,19a9.39,9.39,0,0,1,14.08,5.27A1.15,1.15,0,0,0,18,25a1.12,1.12,0,0,0,.79-1.43A11.7,11.7,0,0,0,1.21,17Z"/><path class="cls-3" d="M20.6,2.78a1.15,1.15,0,0,0-1.63,0A11.7,11.7,0,0,0,22.05,21.3a1.15,1.15,0,0,0,1.27-.14.94.94,0,0,0,.29-.36,1.16,1.16,0,0,0-.49-1.56A9.39,9.39,0,0,1,20.64,4.41,1.15,1.15,0,0,0,20.6,2.78Z"/><circle class="cls-4" cx="7.07" cy="5.07" r="3.62"/><circle class="cls-5" cx="22.78" cy="11.52" r="3.62"/><circle class="cls-6" cx="9.15" cy="22.29" r="3.62"/></g></g></svg>