<svg xmlns="http://www.w3.org/2000/svg" xmlns:xlink="http://www.w3.org/1999/xlink" viewBox="0 0 94.56 94.57"><defs><style>.cls-1{fill:url(#Nueva_muestra_de_degradado_1);}</style><linearGradient id="Nueva_muestra_de_degradado_1" x1="-0.56" y1="47.28" x2="94.56" y2="47.28" gradientUnits="userSpaceOnUse"><stop offset="0.15" stop-color="#6a5538"/><stop offset="0.35" stop-color="#bc975e"/><stop offset="0.45" stop-color="#d9be85"/><stop offset="0.56" stop-color="#e7d491"/><stop offset="0.67" stop-color="#c5a76c"/><stop offset="0.78" stop-color="#bc975e"/><stop offset="1" stop-color="#6a5538"/></linearGradient></defs><g id="Capa_2" data-name="Capa 2"><g id="Capa_1-2" data-name="Capa 1"><path class="cls-1" d="M3.44,94.57C1.78,80.87,1,67.18.31,53.49L.1,48.35C0,46.64,0,45,0,43.06c0-.93,0-1.86.09-2.78l.35-2.77.18-1.39c.08-.46.2-.91.31-1.36L1.6,32A44,44,0,0,1,32,1.6L34.74,1c.46-.1.91-.22,1.37-.31L37.49.47,40.26.11c.93-.06,1.86,0,2.79-.08C45,0,46.63,0,48.34.1l5.14.21C67.17.94,80.86,1.78,94.56,3.45,80.86,5.13,67.17,6,53.48,6.6l-5.14.21-2.56.09-.65,0-.58,0-1.18.1c-.78.08-1.56.12-2.34.22l-2.3.42-1.16.21c-.38.08-.75.21-1.12.31l-2.25.64c-.74.21-1.45.55-2.18.81a19.09,19.09,0,0,0-2.15.89,34.17,34.17,0,0,0-4.08,2.22,37.88,37.88,0,0,0-13,13,35.66,35.66,0,0,0-2.22,4.08A20.19,20.19,0,0,0,9.67,32c-.26.73-.61,1.43-.82,2.18l-.64,2.25c-.1.37-.23.74-.31,1.12l-.2,1.15L7.27,41c-.11.78-.14,1.56-.22,2.34L7,44.56l0,.58,0,.65-.09,2.56-.21,5.14C5.94,67.18,5.11,80.87,3.44,94.57Z"/></g></g></svg>