<svg xmlns="http://www.w3.org/2000/svg" viewBox="0 0 34.28 35.99"><defs><style>.cls-1{fill:#333;}</style></defs><g id="Capa_2" data-name="Capa 2"><g id="Capa_1-2" data-name="Capa 1"><path class="cls-1" d="M7,17.55H18.89a.77.77,0,0,0,0-1.54H7a.77.77,0,1,0,0,1.54Z"/><path class="cls-1" d="M14.12,21H7a.77.77,0,1,0,0,1.53h7.1a.77.77,0,1,0,0-1.53Z"/><path class="cls-1" d="M27.42,19.29V6.06a3.83,3.83,0,0,0-3.83-3.83H20.45V.77A.77.77,0,0,0,19.68,0a.76.76,0,0,0-.76.77V2.23H8.5V.77A.77.77,0,1,0,7,.77V2.23H3.83A3.82,3.82,0,0,0,0,6.06V26.8a3.82,3.82,0,0,0,3.83,3.83H18a8.43,8.43,0,1,0,9.42-11.34ZM3.84,3.76H7V5.22a.77.77,0,1,0,1.53,0V3.76H18.92V5.22a.77.77,0,0,0,1.54,0V3.76H23.6a2.3,2.3,0,0,1,2.29,2.3V7.91H1.54V6.06A2.3,2.3,0,0,1,3.84,3.76Zm0,25.34a2.3,2.3,0,0,1-2.3-2.3V9.44H25.89v9.71h0a8.43,8.43,0,0,0-8.28,10Zm22,5.36a6.89,6.89,0,1,1,6.89-6.89A6.89,6.89,0,0,1,25.86,34.46Z"/><path class="cls-1" d="M29.41,24.82l-4.55,4.34L22.51,26.8a.78.78,0,0,0-1.08,0,.76.76,0,0,0,0,1.08l2.89,2.89a.68.68,0,0,0,.54.22.74.74,0,0,0,.53-.21l5.08-4.86a.79.79,0,0,0,.24-.54.76.76,0,0,0-.21-.54A.78.78,0,0,0,29.41,24.82Z"/></g></g></svg>