<svg xmlns="http://www.w3.org/2000/svg" xmlns:xlink="http://www.w3.org/1999/xlink" viewBox="0 0 98.94 98.95"><defs><style>.cls-1{fill:url(#Nueva_muestra_de_degradado_1);}</style><linearGradient id="Nueva_muestra_de_degradado_1" x1="99.5" y1="49.48" x2="0" y2="49.48" gradientUnits="userSpaceOnUse"><stop offset="0.15" stop-color="#6a5538"/><stop offset="0.35" stop-color="#bc975e"/><stop offset="0.45" stop-color="#d9be85"/><stop offset="0.56" stop-color="#e7d491"/><stop offset="0.67" stop-color="#c5a76c"/><stop offset="0.78" stop-color="#bc975e"/><stop offset="1" stop-color="#6a5538"/></linearGradient></defs><g id="Capa_2" data-name="Capa 2"><g id="Capa_1-2" data-name="Capa 1"><path class="cls-1" d="M95.5,0c1.67,14.35,2.5,28.7,3.13,43.06l.22,5.38c.06,1.79.14,3.54.06,5.54,0,1,0,1.94-.09,2.91l-.37,2.89-.2,1.45c-.08.47-.21.94-.32,1.42l-.67,2.85a47.24,47.24,0,0,1-11.73,20,47.36,47.36,0,0,1-20,11.74l-2.85.67c-.47.11-.94.23-1.42.32l-1.45.2-2.89.37c-1,.07-1.94.06-2.91.09-2,.08-3.75,0-5.54-.06l-5.38-.21C28.7,98,14.35,97.18,0,95.5,14.35,93.82,28.7,93,43.06,92.35l5.38-.21,2.69-.08.67,0,.62-.06,1.24-.1c.82-.09,1.64-.12,2.46-.23l2.43-.44L59.76,91c.4-.09.79-.22,1.19-.33L63.31,90c.79-.23,1.53-.58,2.3-.85a21.28,21.28,0,0,0,2.27-.94,38.76,38.76,0,0,0,4.3-2.33,40.09,40.09,0,0,0,13.7-13.7,37.25,37.25,0,0,0,2.34-4.3,19.64,19.64,0,0,0,.93-2.27c.27-.77.64-1.51.86-2.29L90.68,61c.11-.4.24-.79.33-1.19l.21-1.21.44-2.43c.11-.81.15-1.64.23-2.46l.1-1.24.06-.62,0-.67.08-2.69.22-5.38C93,28.7,93.83,14.35,95.5,0Z"/></g></g></svg>