<svg xmlns="http://www.w3.org/2000/svg" xmlns:xlink="http://www.w3.org/1999/xlink" viewBox="0 0 88.38 88.39"><defs><style>.cls-1{fill:url(#Nueva_muestra_de_degradado_1);}</style><linearGradient id="Nueva_muestra_de_degradado_1" x1="88.94" y1="44.2" x2="0" y2="44.2" gradientUnits="userSpaceOnUse"><stop offset="0.15" stop-color="#6a5538"/><stop offset="0.35" stop-color="#bc975e"/><stop offset="0.45" stop-color="#d9be85"/><stop offset="0.56" stop-color="#e7d491"/><stop offset="0.67" stop-color="#c5a76c"/><stop offset="0.78" stop-color="#bc975e"/><stop offset="1" stop-color="#6a5538"/></linearGradient></defs><g id="Capa_2" data-name="Capa 2"><g id="Capa_1-2" data-name="Capa 1"><path class="cls-1" d="M84.94,0c1.66,12.77,2.49,25.53,3.13,38.29l.21,4.79c.07,1.6.14,3.15.08,5,0,.87,0,1.74-.08,2.61L88,53.23l-.17,1.3c-.08.43-.19.86-.29,1.28l-.6,2.56A41.12,41.12,0,0,1,58.38,86.91l-2.56.6c-.43.1-.85.21-1.28.28l-1.3.18-2.6.32c-.87.07-1.74,0-2.61.08-1.8.06-3.35,0-5-.08l-4.79-.21C25.53,87.45,12.76,86.61,0,84.94c12.76-1.68,25.53-2.51,38.29-3.15l4.79-.21,2.39-.09.6,0,.55,0,1.08-.1c.73-.07,1.45-.1,2.17-.2l2.13-.4,1.07-.19c.35-.08.69-.2,1-.29l2.08-.59c.69-.21,1.34-.52,2-.76a18.17,18.17,0,0,0,2-.83A33.48,33.48,0,0,0,64,76a37.51,37.51,0,0,0,6.76-5.28A36.73,36.73,0,0,0,76,64a32,32,0,0,0,2.06-3.77,18.1,18.1,0,0,0,.82-2c.24-.68.56-1.33.77-2l.59-2.08c.09-.34.21-.69.29-1L80.73,52l.4-2.14c.1-.72.13-1.44.2-2.16l.1-1.09,0-.55,0-.59.09-2.4.21-4.79C82.44,25.53,83.27,12.77,84.94,0Z"/></g></g></svg>