<svg xmlns="http://www.w3.org/2000/svg" xmlns:xlink="http://www.w3.org/1999/xlink" viewBox="0 0 527.22 128.35"><defs><style>.cls-1{fill:url(#Degradado_sin_nombre_2);}.cls-2{fill:url(#Degradado_sin_nombre_2-2);}.cls-3{fill:url(#Degradado_sin_nombre_2-3);}.cls-4{fill:url(#Degradado_sin_nombre_2-4);}.cls-5{fill:url(#Degradado_sin_nombre_2-5);}.cls-6{fill:url(#Degradado_sin_nombre_2-6);}.cls-7{fill:#3c3c3b;}</style><linearGradient id="Degradado_sin_nombre_2" y1="33.06" x2="76.09" y2="33.06" gradientUnits="userSpaceOnUse"><stop offset="0.15" stop-color="#6a5538"/><stop offset="0.35" stop-color="#bc975e"/><stop offset="0.45" stop-color="#d9be85"/><stop offset="0.56" stop-color="#e7d491"/><stop offset="0.67" stop-color="#c5a76c"/><stop offset="0.78" stop-color="#bc975e"/><stop offset="1" stop-color="#6a5538"/></linearGradient><linearGradient id="Degradado_sin_nombre_2-2" x1="3.36" y1="99.62" x2="93.16" y2="99.62" xlink:href="#Degradado_sin_nombre_2"/><linearGradient id="Degradado_sin_nombre_2-3" x1="77.9" y1="59.16" x2="117.61" y2="59.16" xlink:href="#Degradado_sin_nombre_2"/><linearGradient id="Degradado_sin_nombre_2-4" x1="17.11" y1="25.11" x2="52.97" y2="25.11" xlink:href="#Degradado_sin_nombre_2"/><linearGradient id="Degradado_sin_nombre_2-5" x1="94.91" y1="57.07" x2="130.76" y2="57.07" xlink:href="#Degradado_sin_nombre_2"/><linearGradient id="Degradado_sin_nombre_2-6" x1="27.39" y1="110.43" x2="63.25" y2="110.43" xlink:href="#Degradado_sin_nombre_2"/></defs><g id="Capa_2" data-name="Capa 2"><g id="Capa_1-2" data-name="Capa 1"><path class="cls-1" d="M76,5.46A5.73,5.73,0,0,0,64.58,6,46.73,46.73,0,0,1,47.69,44.06a46.77,46.77,0,0,1-40.6,9.29A5.73,5.73,0,1,0,4.37,64.48,58.25,58.25,0,0,0,55,52.91,58.23,58.23,0,0,0,76,5.46Z"/><path class="cls-2" d="M6,84.25a5.73,5.73,0,0,0,6.18,9.65A46.51,46.51,0,0,1,81.93,120a5.73,5.73,0,1,0,11-3.21A58,58,0,0,0,6,84.25Z"/><path class="cls-3" d="M102.06,13.76a5.73,5.73,0,0,0-8.1.18,58,58,0,0,0,15.29,91.56,5.73,5.73,0,0,0,5.26-10.18,46.52,46.52,0,0,1-12.27-73.46A5.72,5.72,0,0,0,102.06,13.76Z"/><circle class="cls-4" cx="35.04" cy="25.11" r="17.93"/><circle class="cls-5" cx="112.83" cy="57.07" r="17.93"/><circle class="cls-6" cx="45.32" cy="110.43" r="17.93"/><path class="cls-7" d="M163.62,106.28v1.82h-5.8v20.16h-2.09V108.1h-5.82v-1.82Z"/><path class="cls-7" d="M233.43,128.26l-5.17-9.18H224.4v9.18h-2.09v-22h6.28a7.26,7.26,0,0,1,5.3,1.76,6.15,6.15,0,0,1,1.81,4.62,6.47,6.47,0,0,1-1.3,4.08,6.14,6.14,0,0,1-3.84,2.18l5.38,9.34Zm-9-11h4.22a5,5,0,0,0,3.69-1.26,4.58,4.58,0,0,0,1.24-3.37,4.49,4.49,0,0,0-1.2-3.35,5.2,5.2,0,0,0-3.76-1.18H224.4Z"/><path class="cls-7" d="M308.17,123h-9.51l-1.82,5.22h-2.21l7.62-21.7h2.36l7.59,21.7H310Zm-.63-1.82-4.13-11.89-4.12,11.89Z"/><path class="cls-7" d="M389.12,106.28l-7.92,22h-2.39l-7.92-22h2.27L380,125.87l6.9-19.59Z"/><path class="cls-7" d="M449.9,108.07v8.21h7.92v1.82H449.9v8.34h8.82v1.82H447.81v-22h10.91v1.82Z"/><path class="cls-7" d="M519.5,126.47H527v1.79h-9.59v-22h2.09Z"/><path class="cls-7" d="M226.12,54.57A16.5,16.5,0,0,1,233.06,56a16.85,16.85,0,0,1,5.36,3.79,17,17,0,0,1,3.44,5.39,16.87,16.87,0,0,1,1.2,6.26,16.65,16.65,0,0,1-1.19,6.19,17.47,17.47,0,0,1-3.4,5.41,16.67,16.67,0,0,1-5.33,3.84,16.48,16.48,0,0,1-7,1.45H218v7.94a.92.92,0,0,1-1,1h-1.06a.92.92,0,0,1-1-1V55.63c0-.59.26-.92.78-1l.17-.08ZM218,85.16h8.11A13.65,13.65,0,0,0,231.87,84a13.88,13.88,0,0,0,4.36-3.11,14,14,0,0,0,2.78-4.4,13.53,13.53,0,0,0,0-10.11A14.23,14.23,0,0,0,236.22,62a13.6,13.6,0,0,0-4.42-3.12,14.08,14.08,0,0,0-5.89-1.18H218Z"/><path class="cls-7" d="M279.23,54.57c.73,0,1.1.35,1.1,1.06v1a1,1,0,0,1-1.1,1.06H253.6V79.17h20.71a1.22,1.22,0,0,1,.8.26,1,1,0,0,1,.3.83v1a1.07,1.07,0,0,1-.29.78,1.09,1.09,0,0,1-.81.28H253.6v11.8h26.1a1,1,0,0,1,1.09,1.07v1a.94.94,0,0,1-1.07,1h-28.4a.84.84,0,0,1-.7-.27,1.14,1.14,0,0,1-.22-.74V55.6c0-.44.11-.72.33-.85a1.53,1.53,0,0,1,.74-.18Z"/><path class="cls-7" d="M319.2,70.71a16.59,16.59,0,0,1-.48,4,16,16,0,0,1-1.44,3.71A16.81,16.81,0,0,1,315,81.66a14.52,14.52,0,0,1-3.17,2.6L317.31,96s0,.11.05.23a1.67,1.67,0,0,1,0,.28.88.88,0,0,1-.21.58.78.78,0,0,1-.62.26h-1.7a.9.9,0,0,1-.83-.61l-5.18-11a16.44,16.44,0,0,1-6.11,1.07H291v9.41a1,1,0,0,1-1.12,1.09h-1.06a1,1,0,0,1-1.1-1.09V55.75a1.13,1.13,0,0,1,.31-.82,1,1,0,0,1,.7-.36h14a16.72,16.72,0,0,1,6.85,1.35,15.72,15.72,0,0,1,8.48,8.78A16.28,16.28,0,0,1,319.2,70.71ZM302.74,83.52a13.7,13.7,0,0,0,5.59-1.08,12.37,12.37,0,0,0,6.7-7A13.15,13.15,0,0,0,315,66a12.47,12.47,0,0,0-6.7-7,13.53,13.53,0,0,0-5.59-1.09H291v25.7Z"/><path class="cls-7" d="M328.15,55.6a1,1,0,0,1,.28-.76,1.07,1.07,0,0,1,.79-.27h1a1.09,1.09,0,0,1,.78.27,1,1,0,0,1,.29.76V96.26a.94.94,0,0,1-1.07,1h-1a.94.94,0,0,1-1.07-1Z"/><path class="cls-7" d="M369.33,54.57c.73,0,1.1.35,1.1,1.06v1a1.13,1.13,0,0,1-.28.78,1.07,1.07,0,0,1-.82.28H343.69V79.17h20.72a1.17,1.17,0,0,1,.79.26,1,1,0,0,1,.3.83v1a1.07,1.07,0,0,1-.28.78,1.11,1.11,0,0,1-.81.28H343.69v11.8h26.1a1,1,0,0,1,1.1,1.07v1a.94.94,0,0,1-1.07,1h-28.4a.86.86,0,0,1-.71-.27,1.2,1.2,0,0,1-.21-.74V55.6c0-.44.11-.72.33-.85a1.49,1.49,0,0,1,.73-.18Z"/><path class="cls-7" d="M381,60.67V96.26a.93.93,0,0,1-1.06,1h-1a.93.93,0,0,1-1.06-1V54.57a1.71,1.71,0,0,1,.13-.65c.08-.22.29-.33.62-.33a1,1,0,0,1,.71.31q7.72,9.42,15.36,18.72l15.35,18.72V55.6a.92.92,0,0,1,1.06-1h1a.91.91,0,0,1,1,1V97.53a1.73,1.73,0,0,1-.18.59q-.14.3-.63.3a.92.92,0,0,1-.78-.37Z"/><path class="cls-7" d="M456,58.77a1,1,0,0,1,.46.8,1.14,1.14,0,0,1-.29.64,1.83,1.83,0,0,0-.2.27c-.1.14-.22.3-.36.46s-.3.31-.45.45a.7.7,0,0,1-.43.2h-.12a1,1,0,0,1-.23-.05,1.13,1.13,0,0,1-.34-.18,20.81,20.81,0,0,0-5.31-3,16.88,16.88,0,0,0-6.06-1.08,18.93,18.93,0,0,0-5.08.68A19.22,19.22,0,0,0,433,59.89a18.75,18.75,0,0,0-3.83,3,19.74,19.74,0,0,0-2.94,3.82,18.73,18.73,0,0,0-1.88,4.46,18.23,18.23,0,0,0,1.93,14.31,18.89,18.89,0,0,0,2.95,3.77A18.67,18.67,0,0,0,433,92.12,19,19,0,0,0,437.46,94a17.91,17.91,0,0,0,4.88.66,19.11,19.11,0,0,0,11.33-3.88l.72-.41a1.21,1.21,0,0,1,.46-.14.81.81,0,0,1,.48.23,3.58,3.58,0,0,1,.53.56,3.45,3.45,0,0,1,.43.71,1.56,1.56,0,0,1,.18.66.67.67,0,0,1-.15.44,2.66,2.66,0,0,1-.37.39,22.48,22.48,0,0,1-6.23,3.44,22.36,22.36,0,0,1-15.86-.49,21.8,21.8,0,0,1-6.95-4.69,22.12,22.12,0,0,1-4.67-7A21.25,21.25,0,0,1,420.52,76a21.52,21.52,0,0,1,.78-5.82,21.94,21.94,0,0,1,2.2-5.22,22.3,22.3,0,0,1,3.43-4.45,21.62,21.62,0,0,1,4.43-3.43,22.2,22.2,0,0,1,5.24-2.22,21.24,21.24,0,0,1,5.82-.79,20.66,20.66,0,0,1,7.25,1.26A25,25,0,0,1,456,58.77Z"/><path class="cls-7" d="M492.09,54.57a1,1,0,0,1,1.09,1.06v1a1.12,1.12,0,0,1-.27.78,1.09,1.09,0,0,1-.82.28H466.45V79.17h20.72a1.19,1.19,0,0,1,.79.26,1,1,0,0,1,.3.83v1a1,1,0,0,1-.29.78,1.08,1.08,0,0,1-.8.28H466.45v11.8h26.1a1,1,0,0,1,1.09,1.07v1a.93.93,0,0,1-1.06,1h-28.4a.86.86,0,0,1-.71-.27,1.2,1.2,0,0,1-.21-.74V55.6c0-.44.11-.72.33-.85a1.49,1.49,0,0,1,.73-.18Z"/><path class="cls-7" d="M499.34,89.18a5.64,5.64,0,0,1,.6-.61,1.22,1.22,0,0,1,.81-.34,1.82,1.82,0,0,1,.53.15,1.14,1.14,0,0,1,.56.37,21.67,21.67,0,0,0,2.22,2.62,11.89,11.89,0,0,0,2.52,1.93,11.73,11.73,0,0,0,3,1.18,15.22,15.22,0,0,0,3.67.4,16,16,0,0,0,4.17-.52,9.94,9.94,0,0,0,3.43-1.59A7.87,7.87,0,0,0,523.17,90a8.68,8.68,0,0,0,.86-4,6.3,6.3,0,0,0-.72-3.09,8,8,0,0,0-2-2.34,13.23,13.23,0,0,0-2.89-1.79c-1.1-.52-2.27-1-3.49-1.53q-2.88-1.15-5.37-2.21a20.11,20.11,0,0,1-4.33-2.47,10.38,10.38,0,0,1-2.89-3.29,9.59,9.59,0,0,1-1.05-4.69,11.27,11.27,0,0,1,.89-4.6,9.74,9.74,0,0,1,2.46-3.46,10.81,10.81,0,0,1,3.72-2.16,14.42,14.42,0,0,1,4.67-.74,14.74,14.74,0,0,1,3.26.36,14.46,14.46,0,0,1,3,1.05,13.81,13.81,0,0,1,2.71,1.69,14.13,14.13,0,0,1,2.26,2.31,2.23,2.23,0,0,1,.2.33.84.84,0,0,1,.06.36s-.06.14-.18.26l-.4.38c-.15.15-.32.29-.5.44s-.33.26-.45.36a.66.66,0,0,1-.57.15,1,1,0,0,1-.47-.27,14.12,14.12,0,0,0-3.88-3,10.77,10.77,0,0,0-5.09-1.12,10.26,10.26,0,0,0-3.51.57,8.22,8.22,0,0,0-2.72,1.6,7,7,0,0,0-1.76,2.43,7.71,7.71,0,0,0-.62,3.11,6,6,0,0,0,.91,3.39,8.33,8.33,0,0,0,2.55,2.45,23.83,23.83,0,0,0,3.89,2l4.94,2a41.15,41.15,0,0,1,4.3,2.06,15,15,0,0,1,3.31,2.43A9.81,9.81,0,0,1,526.48,82a10,10,0,0,1,.74,4,11.82,11.82,0,0,1-1.09,5.22,11,11,0,0,1-3,3.8,12.74,12.74,0,0,1-4.43,2.32,18.78,18.78,0,0,1-5.42.77,17.47,17.47,0,0,1-7.9-1.77,15.9,15.9,0,0,1-6.17-5.79,1.93,1.93,0,0,1-.22-.38,1,1,0,0,1-.07-.4A.69.69,0,0,1,499.34,89.18Z"/><path class="cls-7" d="M179.25,94.15H153.11V82.34h20.75a1.09,1.09,0,0,0,.8-.29,1,1,0,0,0,.29-.78v-1a1,1,0,0,0-.3-.83,1.14,1.14,0,0,0-.79-.26H153.11V57.64h25.67a1.12,1.12,0,0,0,.83-.29,1.09,1.09,0,0,0,.27-.78v-1a1,1,0,0,0-1.1-1.07H151a1.5,1.5,0,0,0-.73.19c-.22.13-.33.41-.33.85V96.29a1.17,1.17,0,0,0,.21.73.86.86,0,0,0,.71.27h28.44c.72,0,1.07-.34,1.07-1v-1A1,1,0,0,0,179.25,94.15Z"/><path class="cls-7" d="M197.83,71.33,169.23.93a.92.92,0,0,0-.86-.63.59.59,0,0,0-.38.2,3.11,3.11,0,0,0-.39.5c-.12.21-.24.42-.36.65s-.21.43-.28.61l-17,40.55a1,1,0,0,0-.12.49c0,.25.19.46.58.65a3.7,3.7,0,0,0,1.56.27,1.26,1.26,0,0,0,1.12-.89l2.28-5.51H181l14.9,37,.22.51-.13.29L187.3,95.89a1,1,0,0,0-.12.49c0,.25.19.46.58.65a3.7,3.7,0,0,0,1.56.27c.48,0,.85-.3,1.12-.89l7.39-17.14,7.47,17.14c.27.59.64.89,1.12.89A3.74,3.74,0,0,0,208,97c.38-.19.58-.4.58-.65a1,1,0,0,0-.12-.49L199.68,75.6l-.12-.29.22-.51,7.69-18.89a1.21,1.21,0,0,0,.11-.49c0-.25-.19-.47-.58-.65a3.67,3.67,0,0,0-1.55-.28,1.26,1.26,0,0,0-1.13.9ZM156.65,34.65l11.66-27.9s0,0,.06,0c.17.38.34.77.5,1.16s.32.79.48,1.17l10.3,25.62Z"/><path class="cls-7" d="M242.57,5.3a16.07,16.07,0,0,0-5.2-3.64A16.67,16.67,0,0,0,230.51.3h-14a1.07,1.07,0,0,0-.71.36,1.19,1.19,0,0,0-.3.83V43.12a1,1,0,0,0,1.1,1.1h1.06a1,1,0,0,0,1.13-1.1V32.79h11.76a16.28,16.28,0,0,0,6.11-1.08l5.18,11.9a.91.91,0,0,0,.84.61h1.7A.76.76,0,0,0,245,44a.91.91,0,0,0,.22-.58,1.78,1.78,0,0,0,0-.29.88.88,0,0,0-.06-.23l-5.53-12.63a14.85,14.85,0,0,0,3.17-2.62,16.52,16.52,0,0,0,2.33-3.29,15.48,15.48,0,0,0,1.44-3.75,16.35,16.35,0,0,0,.49-4,16.55,16.55,0,0,0-1.14-6.06A16,16,0,0,0,242.57,5.3Zm.24,16.06a12.61,12.61,0,0,1-2.58,4.13,12.36,12.36,0,0,1-4.13,2.9,13.6,13.6,0,0,1-5.59,1.09H218.75V3.58h11.76a13.44,13.44,0,0,1,5.59,1.1,12.43,12.43,0,0,1,4.13,2.93,12.64,12.64,0,0,1,2.58,4.16,13.22,13.22,0,0,1,0,9.59Z"/><path class="cls-7" d="M275.77,3.46h12.57V43.18a.91.91,0,0,0,1,1h1a.94.94,0,0,0,1.07-1V3.46h12.16a1.1,1.1,0,0,0,.84-.31,1.09,1.09,0,0,0,.28-.79v-1a1,1,0,0,0-.31-.8,1.3,1.3,0,0,0-.81-.24H275.77a.94.94,0,0,0-1.07,1v1A1,1,0,0,0,275.77,3.46Z"/></g></g></svg>