<svg xmlns="http://www.w3.org/2000/svg" viewBox="0 0 31.63 32.16"><defs><style>.cls-1{fill:#333;}</style></defs><g id="Capa_2" data-name="Capa 2"><g id="Capa_1-2" data-name="Capa 1"><path class="cls-1" d="M30.9,11.09A15.81,15.81,0,1,0,.72,20.54l1-.32a14.73,14.73,0,1,1,1.7,3.62l-.9.58a15.87,15.87,0,0,0,13.3,7.2,15.79,15.79,0,0,0,14-8.48A15.65,15.65,0,0,0,30.9,11.09Z"/><path class="cls-1" d="M12.71,7.5l.31-1L7.66,4.87A.52.52,0,0,0,7.13,5L6.06,6.07a.53.53,0,0,0,.16.87L11,9.08l.43-1L7.37,6.28,7.66,6Z"/><path class="cls-1" d="M17.69,4.31a.54.54,0,0,0-.54-.54h0A4.36,4.36,0,0,0,14,5.07L9.49,9.61,7.64,9.14a.53.53,0,0,0-.51.15L6.06,10.36a.52.52,0,0,0-.16.44.53.53,0,0,0,.26.39l2.56,1.54,1.54,2.57a.54.54,0,0,0,.4.25h.06a.55.55,0,0,0,.38-.16l1.07-1.07a.53.53,0,0,0,.14-.51L11.85,12,16.47,7.4A4.43,4.43,0,0,0,17.69,4.31Zm-6.81,7.12a.53.53,0,0,0-.14.51l.46,1.85-.37.37L9.57,12.07a.47.47,0,0,0-.18-.19L7.3,10.63l.37-.37,1.85.46a.53.53,0,0,0,.51-.14l4.76-4.76a3.35,3.35,0,0,1,1.78-.93,3.27,3.27,0,0,1-.87,1.76Z"/><path class="cls-1" d="M16.59,13.87,15,8.44l-1,.31,1.51,5.09-.33.29L13.36,10l-1,.42,2.08,4.82a.52.52,0,0,0,.37.31l.12,0a.54.54,0,0,0,.36-.14l1.13-1A.52.52,0,0,0,16.59,13.87Z"/><path class="cls-1" d="M10.2,29.54c-3.81,1.8-6.8,2-8.21.64-2.42-2.43.21-9.49,6.14-16.42l-.82-.69c-6.5,7.6-9,14.94-6.07,17.86a4.58,4.58,0,0,0,3.39,1.23,14.68,14.68,0,0,0,6-1.66Z"/><path class="cls-1" d="M28.34,18.52a.55.55,0,0,0-.48-.29H26.05l-1.46-2.91a.53.53,0,0,0-.48-.3H18.76a.54.54,0,0,0-.54.54v4.28a.54.54,0,0,0,.54.54h1.6v5.89a.54.54,0,0,0,.54.54h2.68a.57.57,0,0,0,.38-.16l2.14-2.14a.57.57,0,0,0,.16-.38v-2l2-3.08A.54.54,0,0,0,28.34,18.52Zm-3.07,3.17a.58.58,0,0,0-.09.29v1.93l-1.82,1.82H21.43V19.84a.53.53,0,0,0-.53-.53H19.29V16.09h4.49L25.24,19a.55.55,0,0,0,.48.3h1.14Z"/><path class="cls-1" d="M28.71,14l-2-3.48a.53.53,0,0,0-.46-.27H23a.52.52,0,0,0-.44.24l-.92,1.37H20.36V9.13H23A.55.55,0,0,0,23.42,9l2-2h2.45V5.91H25.18a.52.52,0,0,0-.37.16l-2,2h-3a.54.54,0,0,0-.54.53v3.75a.54.54,0,0,0,.54.54H22a.54.54,0,0,0,.45-.24l.91-1.37h2.61l2,3.48a.55.55,0,0,0,.47.27h2.14V14Z"/><path class="cls-1" d="M15.54,19.31h-3L11.1,17.86a.55.55,0,0,0-.38-.16H8a.53.53,0,0,0-.53.53V22a.54.54,0,0,0,.53.54h2.15v5.36a.55.55,0,0,0,.29.48.69.69,0,0,0,.24.05.53.53,0,0,0,.32-.1l2.15-1.61a.55.55,0,0,0,.21-.43V24.92l2.48-2a.56.56,0,0,0,.2-.42V19.84A.54.54,0,0,0,15.54,19.31Zm-.53,3-2.48,2a.55.55,0,0,0-.2.42V26l-1.07.81V22a.54.54,0,0,0-.54-.53H8.58V18.77H10.5L12,20.22a.55.55,0,0,0,.38.16H15v1.88Z"/><path class="cls-1" d="M4.75,11.53,3.15,8.85a.55.55,0,0,0-.46-.26H2.15V9.66h.23l1.24,2.06L2.31,13a.52.52,0,0,0-.16.37V15H.54v1.07H2.69a.53.53,0,0,0,.53-.53V13.64l1.45-1.45A.53.53,0,0,0,4.75,11.53Z"/><path class="cls-1" d="M16.61.56v.65l-1.73.44a.51.51,0,0,0-.17.07l-1.35.9L10.43,1.15l-.48,1,3.21,1.61a.69.69,0,0,0,.24,0,.55.55,0,0,0,.3-.09l1.53-1,2.05-.51a.53.53,0,0,0,.41-.52V.56Z"/></g></g></svg>