<svg xmlns="http://www.w3.org/2000/svg" xmlns:xlink="http://www.w3.org/1999/xlink" viewBox="0 0 99.82 99.83"><defs><style>.cls-1{fill:url(#Nueva_muestra_de_degradado_1);}</style><linearGradient id="Nueva_muestra_de_degradado_1" x1="100.5" y1="49.92" x2="0" y2="49.92" gradientUnits="userSpaceOnUse"><stop offset="0.15" stop-color="#6a5538"/><stop offset="0.35" stop-color="#bc975e"/><stop offset="0.45" stop-color="#d9be85"/><stop offset="0.56" stop-color="#e7d491"/><stop offset="0.67" stop-color="#c5a76c"/><stop offset="0.78" stop-color="#bc975e"/><stop offset="1" stop-color="#6a5538"/></linearGradient></defs><g id="Capa_2" data-name="Capa 2"><g id="Capa_1-2" data-name="Capa 1"><path class="cls-1" d="M95.5,0c2.07,14.35,3.15,28.7,3.92,43.06l.26,5.38.11,2.69,0,.67v.74l0,1.48c0,1,0,2-.08,3l-.36,3-.19,1.48c-.09.49-.21,1-.32,1.45l-.67,2.91A48,48,0,0,1,86.24,86.24l-2.23,2-1.11,1c-.38.32-.8.6-1.19.9L79.3,91.93c-.82.57-1.7,1.06-2.55,1.57a46.87,46.87,0,0,1-5.34,2.7c-.89.45-1.87.7-2.8,1.06s-1.87.68-2.84.92l-2.91.67c-.48.11-1,.23-1.45.32l-1.48.19-3,.37c-1,.06-2,0-3,.07l-1.48,0H51.8l-.67,0-2.69-.1-5.38-.27C28.7,98.66,14.35,97.58,0,95.5c14.35-2.08,28.7-3.16,43.06-3.93l5.38-.27,2.69-.1.67,0,.61-.06L53.62,91c.8-.08,1.61-.12,2.4-.24l2.37-.45,1.19-.21c.39-.09.77-.22,1.15-.33L63,89.09c.76-.22,1.49-.58,2.24-.85a19.21,19.21,0,0,0,2.2-.91A36.18,36.18,0,0,0,71.67,85a40.84,40.84,0,0,0,7.5-5.86A41.77,41.77,0,0,0,85,71.67a34.54,34.54,0,0,0,2.29-4.18,18.41,18.41,0,0,0,.92-2.21c.27-.75.63-1.47.86-2.24l.66-2.3c.11-.39.24-.77.33-1.16l.21-1.18c.15-.79.29-1.58.46-2.37s.15-1.61.24-2.41l.11-1.21.06-.61,0-.67.11-2.69.26-5.38C92.35,28.7,93.43,14.35,95.5,0Z"/></g></g></svg>