<svg xmlns="http://www.w3.org/2000/svg" viewBox="0 0 180.82 28.85"><defs><style>.cls-1{fill:#e4e4e4;}</style></defs><g id="Capa_2" data-name="Capa 2"><g id="Capa_1-2" data-name="Capa 1"><path class="cls-1" d="M14.53,14.56A3.73,3.73,0,0,0,12.93,13a5.27,5.27,0,0,0-2.45-.55A5.07,5.07,0,0,0,6.57,14a6.11,6.11,0,0,0-1.46,4.27,6.14,6.14,0,0,0,1.54,4.45,5.6,5.6,0,0,0,4.24,1.6A5.09,5.09,0,0,0,14,23.42a5.22,5.22,0,0,0,1.87-2.7H9.51V17H20.43v4.67a10,10,0,0,1-5.29,6.1,10.39,10.39,0,0,1-4.63,1,11,11,0,0,1-5.45-1.33,9.5,9.5,0,0,1-3.72-3.72A10.77,10.77,0,0,1,0,18.31a10.86,10.86,0,0,1,1.34-5.44A9.5,9.5,0,0,1,5.05,9.14a10.87,10.87,0,0,1,5.43-1.33A10.49,10.49,0,0,1,16.71,9.6a8.41,8.41,0,0,1,3.37,5ZM36,25H28.35l-1.23,3.64H21.87L29.32,8h5.81l7.46,20.61H37.27Zm-1.29-3.88L32.2,13.59l-2.53,7.54Zm15.12,3.64h6.57v3.88H44.85V8h5Zm21.8.24H64l-1.23,3.64H57.5L65,8h5.81l7.46,20.61H72.91ZM71.26,3.9l-7.07,3V3.4L71.26,0Zm-.88,17.23-2.55-7.54L65.3,21.13Zm25-3.18a6,6,0,0,1-2.53,2.39,8.81,8.81,0,0,1-4.22.91H85.5v7.4h-5V8h8.13a9.31,9.31,0,0,1,4.16.85,5.86,5.86,0,0,1,2.56,2.35,6.8,6.8,0,0,1,.85,3.44A6.62,6.62,0,0,1,95.36,18Zm-5-1.37a2.5,2.5,0,0,0,.7-1.9,2.51,2.51,0,0,0-.7-1.91,3,3,0,0,0-2.14-.68H85.5v5.17h2.73A3,3,0,0,0,90.37,16.58ZM111.62,25h-7.69l-1.23,3.64H97.44L104.9,8h5.81l7.45,20.61h-5.31Zm-1.29-3.88-2.56-7.54-2.52,7.54Zm23.77-6.57A3.73,3.73,0,0,0,132.5,13a5.24,5.24,0,0,0-2.45-.55,5.05,5.05,0,0,0-3.9,1.6,6.07,6.07,0,0,0-1.47,4.27,6.14,6.14,0,0,0,1.54,4.45,5.6,5.6,0,0,0,4.24,1.6,5.12,5.12,0,0,0,3.13-.94,5.26,5.26,0,0,0,1.86-2.7h-6.37V17H140v4.67a9.93,9.93,0,0,1-5.28,6.1,10.43,10.43,0,0,1-4.64,1,11,11,0,0,1-5.45-1.33,9.5,9.5,0,0,1-3.72-3.72,10.87,10.87,0,0,1-1.34-5.43,11,11,0,0,1,1.34-5.44,9.5,9.5,0,0,1,3.71-3.73,10.87,10.87,0,0,1,5.43-1.33,10.52,10.52,0,0,1,6.24,1.79,8.44,8.44,0,0,1,3.36,5ZM147.2,27.5a10.14,10.14,0,0,1-3.84-3.77,10.52,10.52,0,0,1-1.42-5.44,10.43,10.43,0,0,1,1.42-5.43A10.12,10.12,0,0,1,147.2,9.1a11.2,11.2,0,0,1,10.66,0,9.9,9.9,0,0,1,3.81,3.76,10.61,10.61,0,0,1,1.4,5.43,10.61,10.61,0,0,1-1.41,5.44,10,10,0,0,1-3.82,3.77,10.64,10.64,0,0,1-5.31,1.35A10.77,10.77,0,0,1,147.2,27.5Zm9.28-4.87A6.23,6.23,0,0,0,158,18.29a6.21,6.21,0,0,0-1.48-4.36,5.06,5.06,0,0,0-3.95-1.63,5.17,5.17,0,0,0-4,1.61,6.28,6.28,0,0,0-1.48,4.38,6.25,6.25,0,0,0,1.48,4.35,5.63,5.63,0,0,0,7.93,0Zm12.78,5.49A6.66,6.66,0,0,1,166.4,26a5.92,5.92,0,0,1-1.13-3.47h5.34a2.59,2.59,0,0,0,.79,1.75,2.56,2.56,0,0,0,1.76.6,2.8,2.8,0,0,0,1.77-.51,1.73,1.73,0,0,0,.64-1.43,1.68,1.68,0,0,0-.51-1.26,4.29,4.29,0,0,0-1.26-.82,18.67,18.67,0,0,0-2.13-.73,24.39,24.39,0,0,1-3.26-1.24A5.89,5.89,0,0,1,166.24,17a5,5,0,0,1-.91-3.14,5.39,5.39,0,0,1,2.08-4.5,8.54,8.54,0,0,1,5.43-1.63,8.64,8.64,0,0,1,5.49,1.63,5.81,5.81,0,0,1,2.23,4.53h-5.43a2.13,2.13,0,0,0-.73-1.57,2.6,2.6,0,0,0-1.73-.57,2.17,2.17,0,0,0-1.47.48,1.77,1.77,0,0,0-.56,1.4,1.72,1.72,0,0,0,.94,1.55,14.83,14.83,0,0,0,2.93,1.21,27.41,27.41,0,0,1,3.25,1.29,6.13,6.13,0,0,1,2.15,1.79,4.76,4.76,0,0,1,.91,3,5.89,5.89,0,0,1-.89,3.2,6.28,6.28,0,0,1-2.6,2.29,8.83,8.83,0,0,1-4,.85A10.56,10.56,0,0,1,169.26,28.12Z"/></g></g></svg>