<svg xmlns="http://www.w3.org/2000/svg" viewBox="0 0 29.13 34.21"><defs><style>.cls-1{fill:#333;}</style></defs><g id="Capa_2" data-name="Capa 2"><g id="Capa_1-2" data-name="Capa 1"><g id="surface1"><path class="cls-1" d="M29.1,9.28v0c0-.33,0-.68,0-1.07a3.64,3.64,0,0,0-3.42-3.55,14,14,0,0,1-9.57-4l0,0a2.2,2.2,0,0,0-3,0l0,0a14.07,14.07,0,0,1-9.58,4A3.62,3.62,0,0,0,.07,8.19c0,.39,0,.73,0,1.07v.06c-.07,4-.17,9,1.5,13.53a17.21,17.21,0,0,0,4.14,6.44,21.39,21.39,0,0,0,8.08,4.78,1.89,1.89,0,0,0,.34.09,2.52,2.52,0,0,0,.48.05,2.61,2.61,0,0,0,.48-.05,2,2,0,0,0,.33-.09,21.73,21.73,0,0,0,8.08-4.78,17.39,17.39,0,0,0,4.13-6.44C29.27,18.3,29.17,13.3,29.1,9.28ZM25.71,22.15c-1.76,4.78-5.36,8.06-11,10h-.07a.25.25,0,0,1-.17,0h-.07c-5.64-2-9.23-5.25-11-10C1.88,18,2,13.4,2,9.36v0q0-.51,0-1.11A1.62,1.62,0,0,1,3.59,6.64a17.53,17.53,0,0,0,6-1.31,15.69,15.69,0,0,0,4.87-3.27.17.17,0,0,1,.25,0,15.69,15.69,0,0,0,4.87,3.27,17.53,17.53,0,0,0,6,1.31,1.61,1.61,0,0,1,1.52,1.58q0,.6,0,1.11C27.17,13.38,27.25,18,25.71,22.15Z"/><path class="cls-1" d="M14.57,8.58a8.53,8.53,0,1,0,8.52,8.53A8.53,8.53,0,0,0,14.57,8.58Zm0,15a6.52,6.52,0,1,1,6.51-6.51A6.52,6.52,0,0,1,14.57,23.62Z"/><path class="cls-1" d="M17,14.46l-4,4L12,17.34a1,1,0,1,0-1.42,1.42l1.79,1.79a1,1,0,0,0,.71.29,1,1,0,0,0,.71-.29l4.67-4.67A1,1,0,0,0,17,14.46Z"/></g></g></g></svg>