<svg xmlns="http://www.w3.org/2000/svg" viewBox="0 0 25.12 25.85"><g id="Capa_2" data-name="Capa 2"><g id="Capa_1-2" data-name="Capa 1"><path d="M16.68,14.59a2.37,2.37,0,0,1,0-3.33l7.86-7.85A2,2,0,0,0,21.71.59L13.85,8.44a6.29,6.29,0,0,0-1.29,1.89,6.29,6.29,0,0,0-1.29-1.89L3.41.59A2,2,0,0,0,.59.59a2,2,0,0,0,0,2.82l7.85,7.85a2.37,2.37,0,0,1,0,3.33L.59,22.44a2,2,0,0,0,0,2.82A2,2,0,0,0,2,25.85a2,2,0,0,0,1.41-.59l7.86-7.85a6.29,6.29,0,0,0,1.29-1.89,6.15,6.15,0,0,0,1.3,1.89l7.85,7.85a2,2,0,0,0,1.41.59,2,2,0,0,0,1.42-3.41Z"/></g></g></svg>