<svg xmlns="http://www.w3.org/2000/svg" xmlns:xlink="http://www.w3.org/1999/xlink" viewBox="0 0 95.18 124"><defs><linearGradient id="Degradado_sin_nombre_95" y1="62" x2="95.18" y2="62" gradientUnits="userSpaceOnUse"><stop offset="0" stop-color="#1a1a1a"/><stop offset="0.46" stop-color="#0c0c0c"/><stop offset="1"/></linearGradient></defs><g id="Capa_2" data-name="Capa 2"><g id="Capa_1-2" data-name="Capa 1"><path d="M93.36,40.53a1.81,1.81,0,0,0,1.82-1.81V26a5.45,5.45,0,0,0-5.45-5.45H87.91V15.74a5.46,5.46,0,0,0-5.45-5.45H80.65V5.45A5.46,5.46,0,0,0,75.2,0H5.45A5.45,5.45,0,0,0,0,5.45v10a1.82,1.82,0,0,0,3.63,0v-10A1.83,1.83,0,0,1,5.45,3.63H75.2A1.83,1.83,0,0,1,77,5.45V98a1.82,1.82,0,0,1-1.82,1.82H5.45A1.82,1.82,0,0,1,3.63,98V23.22a1.82,1.82,0,1,0-3.63,0V98a5.45,5.45,0,0,0,5.45,5.45H7.27v4.85a5.45,5.45,0,0,0,5.44,5.45h1.82v4.84A5.46,5.46,0,0,0,20,124H89.73a5.45,5.45,0,0,0,5.45-5.45V46.42a1.82,1.82,0,0,0-3.63,0v72.13a1.83,1.83,0,0,1-1.82,1.82H20a1.83,1.83,0,0,1-1.82-1.82v-4.84h44.9a1.82,1.82,0,0,0,0-3.64H12.71a1.81,1.81,0,0,1-1.81-1.81v-4.85H75.2A5.46,5.46,0,0,0,80.65,98v-84h1.81a1.81,1.81,0,0,1,1.82,1.81v92.52a1.81,1.81,0,0,1-1.82,1.81H70.76a1.82,1.82,0,0,0,0,3.64h11.7a5.46,5.46,0,0,0,5.45-5.45v-84h1.82A1.82,1.82,0,0,1,91.55,26V38.72A1.81,1.81,0,0,0,93.36,40.53ZM12.23,30v12.6A2.79,2.79,0,0,0,15,45.41H27.61a2.78,2.78,0,0,0,2.78-2.78V33.26l3.73-3.18a1.82,1.82,0,1,0-2.36-2.76l-1.68,1.43a2.79,2.79,0,0,0-2.47-1.5H15A2.79,2.79,0,0,0,12.23,30Zm3.63.85h10.9v.7l-3.6,3.08L21.44,32.8a1.82,1.82,0,1,0-2.67,2.46l2.9,3.15a1.83,1.83,0,0,0,2.52.15l2.57-2.2v5.42H15.86V30.88Zm50.74-.73H37.54a1.82,1.82,0,1,0,0,3.64H66.6a1.82,1.82,0,1,0,0-3.64Zm0,7.75H37.54a1.82,1.82,0,1,0,0,3.64H66.6a1.82,1.82,0,1,0,0-3.64ZM12.23,66.12A2.79,2.79,0,0,0,15,68.9H27.61a2.78,2.78,0,0,0,2.78-2.78V53.52a2.78,2.78,0,0,0-2.78-2.78H15a2.79,2.79,0,0,0-2.79,2.78Zm3.63-11.75h10.9v10.9H15.86Zm50.74-.73H37.54a1.82,1.82,0,0,0,0,3.64H66.6a1.82,1.82,0,1,0,0-3.64Zm0,7.75H37.54a1.82,1.82,0,0,0,0,3.64H66.6a1.82,1.82,0,1,0,0-3.64ZM12.23,89.61A2.78,2.78,0,0,0,15,92.39H27.61a2.77,2.77,0,0,0,2.78-2.78V77a2.78,2.78,0,0,0-2.78-2.79H15A2.79,2.79,0,0,0,12.23,77Zm3.63-11.75h10.9v10.9H15.86Zm50.74-.72H37.54a1.82,1.82,0,1,0,0,3.63H66.6a1.82,1.82,0,1,0,0-3.63Zm0,7.75H37.54a1.82,1.82,0,1,0,0,3.63H66.6a1.82,1.82,0,1,0,0-3.63ZM57.4,8.6H24a6.06,6.06,0,1,0,0,12.11H57.4a6.06,6.06,0,0,0,0-12.11Zm0,8.47H24a2.42,2.42,0,1,1,0-4.84H57.4a2.42,2.42,0,1,1,0,4.84Z" style="fill:url(#Degradado_sin_nombre_95)"/></g></g></svg>