<svg xmlns="http://www.w3.org/2000/svg" viewBox="0 0 27.57 29.71"><g id="Capa_2" data-name="Capa 2"><g id="Capa_1-2" data-name="Capa 1"><path d="M27.33,15.51h0a.18.18,0,0,0,.05-.07h0l.05-.08h0a.2.2,0,0,0,0-.08h0a.92.92,0,0,1,0-.09h0a.24.24,0,0,0,0-.08,0,0,0,0,1,0,0,.22.22,0,0,1,0-.08v-.2s0-.05,0-.07,0,0,0,0,0-.06,0-.09h0l0-.09h0l0-.08h0l-.05-.07v0l-.05-.07h0l-.07-.08-6-6a1,1,0,1,0-1.47,1.47L24,13.81H7.23a1,1,0,1,0,0,2.08H24l-4.19,4.2a1,1,0,0,0,.74,1.77,1,1,0,0,0,.73-.3l6-6Z"/><path d="M5.65,2.08h7.76a1,1,0,0,0,1-1,1,1,0,0,0-1-1H5.65A5.65,5.65,0,0,0,0,5.65V24.06a5.66,5.66,0,0,0,5.65,5.65h7.63a1,1,0,0,0,0-2.08H5.65a3.57,3.57,0,0,1-3.57-3.57V5.65A3.57,3.57,0,0,1,5.65,2.08Z"/></g></g></svg>