<svg xmlns="http://www.w3.org/2000/svg" xmlns:xlink="http://www.w3.org/1999/xlink" viewBox="0 0 50.21 50.21"><defs><linearGradient id="Degradado_sin_nombre_2" y1="8.37" x2="23.01" y2="8.37" gradientUnits="userSpaceOnUse"><stop offset="0.15" stop-color="#6a5538"/><stop offset="0.35" stop-color="#bc975e"/><stop offset="0.45" stop-color="#d9be85"/><stop offset="0.56" stop-color="#e7d491"/><stop offset="0.67" stop-color="#c5a76c"/><stop offset="0.78" stop-color="#bc975e"/><stop offset="1" stop-color="#6a5538"/></linearGradient><linearGradient id="Degradado_sin_nombre_2-2" y1="35.57" x2="23.01" y2="35.57" xlink:href="#Degradado_sin_nombre_2"/><linearGradient id="Degradado_sin_nombre_2-3" x1="27.2" y1="41.84" x2="50.21" y2="41.84" xlink:href="#Degradado_sin_nombre_2"/><linearGradient id="Degradado_sin_nombre_2-4" x1="27.2" y1="14.65" x2="50.21" y2="14.65" xlink:href="#Degradado_sin_nombre_2"/></defs><g id="Capa_2" data-name="Capa 2"><g id="Capa_1-2" data-name="Capa 1"><path d="M19.88,16.74H3.14A3.15,3.15,0,0,1,0,13.6V3.14A3.15,3.15,0,0,1,3.14,0H19.88A3.14,3.14,0,0,1,23,3.14V13.6A3.14,3.14,0,0,1,19.88,16.74ZM3.14,2.09A1,1,0,0,0,2.09,3.14V13.6a1,1,0,0,0,1.05,1.05H19.88a1,1,0,0,0,1-1.05V3.14a1,1,0,0,0-1-1.05Z" style="fill:url(#Degradado_sin_nombre_2)"/><path d="M19.88,50.21H3.14A3.15,3.15,0,0,1,0,47.07v-23a3.15,3.15,0,0,1,3.14-3.14H19.88A3.14,3.14,0,0,1,23,24.06v23A3.14,3.14,0,0,1,19.88,50.21ZM3.14,23a1,1,0,0,0-1.05,1v23a1,1,0,0,0,1.05,1H19.88a1,1,0,0,0,1-1v-23a1,1,0,0,0-1-1Z" style="fill:url(#Degradado_sin_nombre_2-2)"/><path d="M47.07,50.21H30.34a3.15,3.15,0,0,1-3.14-3.14V36.61a3.14,3.14,0,0,1,3.14-3.13H47.07a3.14,3.14,0,0,1,3.14,3.13V47.07A3.15,3.15,0,0,1,47.07,50.21ZM30.34,35.57a1,1,0,0,0-1.05,1V47.07a1,1,0,0,0,1.05,1H47.07a1,1,0,0,0,1-1V36.61a1,1,0,0,0-1-1Z" style="fill:url(#Degradado_sin_nombre_2-3)"/><path d="M47.07,29.29H30.34a3.15,3.15,0,0,1-3.14-3.14v-23A3.15,3.15,0,0,1,30.34,0H47.07a3.15,3.15,0,0,1,3.14,3.14v23A3.15,3.15,0,0,1,47.07,29.29ZM30.34,2.09a1,1,0,0,0-1.05,1.05v23a1,1,0,0,0,1.05,1.05H47.07a1,1,0,0,0,1-1.05v-23a1,1,0,0,0-1-1.05Z" style="fill:url(#Degradado_sin_nombre_2-4)"/></g></g></svg>