<svg xmlns="http://www.w3.org/2000/svg" viewBox="0 0 216.28 339.83"><g id="Capa_2" data-name="Capa 2"><g id="Capa_1-2" data-name="Capa 1"><path d="M114.5,161.57l9.09-9.1V139.76l-15.45,15.45L92.61,139.68V152.4l9.17,9.17L90.25,173.1a25.31,25.31,0,1,0,35.79,0Zm5.18,41A16.32,16.32,0,0,1,96.6,179.46l11.54-11.54,11.54,11.54a16.33,16.33,0,0,1,0,23.07Zm89.2-76.48a25.3,25.3,0,0,1-35.78,0l-24.59-24.58V88.75l30.94,30.94a16.37,16.37,0,1,0-4.15-16l-.12.42-7-7,.08-.16a24.76,24.76,0,0,1,4.81-6.76,25.3,25.3,0,1,1,35.78,35.79ZM101.78,54.74l-9.17,9.17V76.62L108.14,61.1l15.45,15.45V63.83l-9.09-9.09L126,43.2A25.31,25.31,0,0,0,108.14,0,25.32,25.32,0,0,0,82.83,25.3a25.1,25.1,0,0,0,7.42,17.9Zm17.9-17.89L108.14,48.38,96.6,36.85a16.32,16.32,0,0,1,23.08-23.08,16.34,16.34,0,0,1,0,23.08Zm-76.49,89.2A25.41,25.41,0,1,1,48,97l.08.16-7,7-.11-.42a16.46,16.46,0,0,0-4.16-7.12,16.32,16.32,0,1,0,0,23.08L50.52,106h0L67.69,88.83v12.72Zm139,34.92a25.31,25.31,0,1,1-50.62,0v-43.9H84.65V161a25.31,25.31,0,1,1-25.3-25.31A25,25,0,0,1,67.52,137l.17.06V147l-.38-.21a16.31,16.31,0,1,0,8.35,14.44V117.07H63.37l9-9h3.3V59.31A16.35,16.35,0,1,0,67.31,73.8l.38-.22v9.86l-.17.06A25.3,25.3,0,1,1,84.65,59.57v48.5h46.9V59.61a25.31,25.31,0,1,1,25.31,25.27,25,25,0,0,1-8.17-1.38l-.18-.06V73.58l.39.22a16.31,16.31,0,1,0-8.36-14.39v48.66h3.31l9,9H140.54v44.12a16.36,16.36,0,1,0,8.36-14.45l-.39.21V137.1l.18-.06a24.94,24.94,0,0,1,8.17-1.38A25.33,25.33,0,0,1,182.17,161Z" style="fill:#fff"/><path d="M24.69,305.22H19.48l-2.27-18.47h-7.1L7.89,305.22H2.69l2.16-18.47H2v-5.37H5.41l4.84-43.75h6.88Zm-8-23.84-2.95-31.73-3.32,31.73Z" style="fill:#fff"/><path d="M50.27,246.36v30.82a8.35,8.35,0,0,1-3.86,6.88A8.61,8.61,0,0,1,50.27,291v14.27H44.9V290.28a3.57,3.57,0,0,0-3.36-3.7H38v18.64H32.64V286.58h-3v-5.2h3V237.63h8.9A8.78,8.78,0,0,1,50.27,246.36Zm-5.37,0a3.41,3.41,0,0,0-3.36-3.53H38v38.55h3.53a3.52,3.52,0,0,0,3.36-3.53Z" style="fill:#fff"/><path d="M57.21,237.63H74.68v5.2H68.47v62.39H63.09V242.83H57.21Z" style="fill:#fff"/><path d="M93.21,237.63h5.37v67.59H93.21V286.58h-6v18.64H81.79V286.58h-3v-5.2h3V237.63h5.37v43.75h6Z" style="fill:#fff"/><path d="M124.67,245.85v51a8.81,8.81,0,0,1-8.73,8.89,9,9,0,0,1-8.9-8.89v-51a8.93,8.93,0,0,1,8.9-8.73A8.67,8.67,0,0,1,124.67,245.85Zm-5.38,0a3.39,3.39,0,0,0-3.35-3.52,3.44,3.44,0,0,0-3.53,3.52v51a3.44,3.44,0,0,0,3.53,3.52,3.39,3.39,0,0,0,3.35-3.52Z" style="fill:#fff"/><path d="M131.11,237.63h17.46v5.2h-6.21v62.39H137V242.83h-5.88Z" style="fill:#fff"/><path d="M156,237.63h14.44v5.2H161.4v38.55h8.39v5.2H161.4v13.27h9.06v5.37H156V286.58h-3v-5.2h3Z" style="fill:#fff"/><path d="M183.45,299.85h9.07v5.37H178.08V237.63h5.37Z" style="fill:#fff"/><path d="M214.26,293.47v1c0,6.22-2.85,11.25-8.89,11.25-5.87,0-8.9-5-8.9-10.91v-9.4h5.38v11.42a3.44,3.44,0,0,0,3.52,3.52,3.55,3.55,0,0,0,3.53-3.52v-3.36c0-6.72-2.52-13.44-5-19.48l-1.84-4.2c0-.17-.17-.34-.17-.5-2.69-6.22-5.38-12.76-5.38-20.32V247.7c0-5.55,2.35-10.58,8.73-10.58a8.12,8.12,0,0,1,8.4,8.4v2.58h-5.38v-2.58c0-2.19-1.17-3.19-3-3.19a3,3,0,0,0-3.35,3.19V249c0,7,2.68,13.6,5.7,20.15C210.58,275.84,214.26,283.73,214.26,293.47Z" style="fill:#fff"/><path d="M20.88,327.27a3.75,3.75,0,0,0-1.21-1,3.48,3.48,0,0,0-1.59-.37,3.49,3.49,0,0,0-2.43.91v-5.09H13.77V335.1l.06,0a7.23,7.23,0,0,0,1.55.51,8.28,8.28,0,0,0,1.74.18,5,5,0,0,0,2.07-.4,4.19,4.19,0,0,0,1.51-1.09,4.71,4.71,0,0,0,.92-1.6,6,6,0,0,0,.31-2,6.69,6.69,0,0,0-.27-1.94A5,5,0,0,0,20.88,327.27Zm-.83,3.51a3.93,3.93,0,0,1-.74,2.48,2.61,2.61,0,0,1-2.19.93,4.2,4.2,0,0,1-.86-.07,3.25,3.25,0,0,1-.61-.17v-5.64a2.83,2.83,0,0,1,.84-.57,2.7,2.7,0,0,1,1.18-.25,2.17,2.17,0,0,1,1,.25,2.09,2.09,0,0,1,.75.7,3.46,3.46,0,0,1,.44,1.05A5.93,5.93,0,0,1,20.05,330.78Z" style="fill:#fff"/><path d="M32.73,331.36a6.61,6.61,0,0,0,.19-1.6,5,5,0,0,0-.22-1.52A3.47,3.47,0,0,0,32,327a3.28,3.28,0,0,0-1.11-.82,3.66,3.66,0,0,0-1.53-.3,3.89,3.89,0,0,0-1.76.39,3.83,3.83,0,0,0-1.32,1.08,5,5,0,0,0-.82,1.6,6.5,6.5,0,0,0-.29,1.94,6.6,6.6,0,0,0,.28,1.92,4.56,4.56,0,0,0,.82,1.56,3.91,3.91,0,0,0,1.4,1.06,4.69,4.69,0,0,0,2,.39,8.25,8.25,0,0,0,1.65-.17,5.75,5.75,0,0,0,1.4-.46l.07,0-.25-1.51-.13.05a8.76,8.76,0,0,1-1.16.39,5.73,5.73,0,0,1-1.34.15,3.47,3.47,0,0,1-1.28-.21,2.11,2.11,0,0,1-.85-.58,2.58,2.58,0,0,1-.49-.91,4.43,4.43,0,0,1-.18-1.09h5.59Zm-3.4-4a1.75,1.75,0,0,1,.89.2,1.44,1.44,0,0,1,.58.54,2.32,2.32,0,0,1,.28.83,4,4,0,0,1,0,.92h-4a3.9,3.9,0,0,1,.19-.9,2.61,2.61,0,0,1,.45-.84,2,2,0,0,1,.67-.55A1.8,1.8,0,0,1,29.33,327.4Z" style="fill:#fff"/><polygon points="39.85 333.46 37.6 326.08 35.65 326.08 38.95 335.62 37.59 339.63 39.45 339.63 43.98 326.21 44.03 326.08 42.07 326.08 39.85 333.46" style="fill:#fff"/><path d="M54.37,327.37a4.05,4.05,0,0,0-1.4-1.09,4.59,4.59,0,0,0-3.75,0,4.11,4.11,0,0,0-1.39,1.09A5,5,0,0,0,47,329a6.37,6.37,0,0,0,0,3.8,4.83,4.83,0,0,0,.86,1.58,4.11,4.11,0,0,0,1.39,1.09,4.22,4.22,0,0,0,1.88.4,4.28,4.28,0,0,0,1.88-.4,4.11,4.11,0,0,0,1.39-1.09,4.66,4.66,0,0,0,.86-1.58,6.17,6.17,0,0,0,0-3.8A4.66,4.66,0,0,0,54.37,327.37Zm-3.27,6.88A2.3,2.3,0,0,1,50,334a2.37,2.37,0,0,1-.79-.72,3.49,3.49,0,0,1-.48-1.07,5.69,5.69,0,0,1,0-2.68,3.5,3.5,0,0,1,.48-1.09,2.37,2.37,0,0,1,.79-.72,2.3,2.3,0,0,1,1.11-.25,2.34,2.34,0,0,1,1.12.25,2.25,2.25,0,0,1,.78.72,3.5,3.5,0,0,1,.48,1.09,5.21,5.21,0,0,1,.17,1.33,5.31,5.31,0,0,1-.17,1.35,3.49,3.49,0,0,1-.48,1.07,2.25,2.25,0,0,1-.78.72A2.34,2.34,0,0,1,51.1,334.25Z" style="fill:#fff"/><path d="M66.52,327.3a3.14,3.14,0,0,0-1-1,2.72,2.72,0,0,0-1.48-.39,3.34,3.34,0,0,0-1.69.42,3.77,3.77,0,0,0-1,.92v-1.14H59.48v9.55h1.88v-6.92a4.22,4.22,0,0,1,.86-.81,2,2,0,0,1,1.24-.39,1.66,1.66,0,0,1,.89.23,1.79,1.79,0,0,1,.59.63,3.12,3.12,0,0,1,.34,1,6.57,6.57,0,0,1,.11,1.3v5h1.88v-5a8.79,8.79,0,0,0-.18-1.8A4.64,4.64,0,0,0,66.52,327.3Z" style="fill:#fff"/><path d="M77.42,326.08c-.22-.06-.45-.11-.68-.15a5.78,5.78,0,0,0-1-.07,4.75,4.75,0,0,0-1.82.34,4.24,4.24,0,0,0-1.47,1,4.45,4.45,0,0,0-1,1.6,6.14,6.14,0,0,0-.35,2.13,7.1,7.1,0,0,0,.25,2,5.05,5.05,0,0,0,.73,1.55,3.55,3.55,0,0,0,1.13,1,3,3,0,0,0,1.46.36,3.4,3.4,0,0,0,1.76-.44,4.81,4.81,0,0,0,1-.86v1.11H79.3V321.68H77.42Zm-.63,1.47a3.62,3.62,0,0,1,.63.16V333a4.66,4.66,0,0,1-.92.82,2.27,2.27,0,0,1-1.33.39,1.73,1.73,0,0,1-1.62-.87,4.74,4.74,0,0,1-.53-2.4,3.68,3.68,0,0,1,.8-2.55,2.74,2.74,0,0,1,2.13-.88A5.73,5.73,0,0,1,76.79,327.55Z" style="fill:#fff"/><path d="M93.22,325.88a7,7,0,0,0-1.63.18,4.84,4.84,0,0,0-1.47.64l-.06,0,.45,1.49.11-.07a5.92,5.92,0,0,1,1.1-.48,4.3,4.3,0,0,1,1.2-.17,1.72,1.72,0,0,1,1.51.63,3,3,0,0,1,.46,1.8v.3l-1,0-1.18.06a4.25,4.25,0,0,0-2.36.78,2.41,2.41,0,0,0-.91,2,3.09,3.09,0,0,0,.21,1.11A2.4,2.4,0,0,0,91,335.63a2.81,2.81,0,0,0,1.06.19,3.87,3.87,0,0,0,1-.12,3.82,3.82,0,0,0,.86-.32,3.42,3.42,0,0,0,.69-.45c.12-.09.23-.2.33-.29v1h1.84V329.9a4.23,4.23,0,0,0-1-3A3.35,3.35,0,0,0,93.22,325.88Zm1.67,5.73v1.57a3.81,3.81,0,0,1-1,.82,2.76,2.76,0,0,1-1.3.33,1.4,1.4,0,0,1-1-.3,1.1,1.1,0,0,1-.34-.9,1.2,1.2,0,0,1,.13-.59,1.07,1.07,0,0,1,.35-.38,1.86,1.86,0,0,1,.57-.25,3.57,3.57,0,0,1,.71-.14l1-.09Z" style="fill:#fff"/><path d="M114.49,334.52a2.86,2.86,0,0,0-.95-.43,6.84,6.84,0,0,0-1.19-.21l-1.83-.16a1.55,1.55,0,0,1-.72-.18.5.5,0,0,1-.18-.43,1.21,1.21,0,0,1,.22-.67,3.36,3.36,0,0,0,.65.05,4.21,4.21,0,0,0,1.43-.24,3.33,3.33,0,0,0,1.16-.67,2.88,2.88,0,0,0,.78-1,3.18,3.18,0,0,0,.28-1.32,2.91,2.91,0,0,0-.15-1,3.71,3.71,0,0,0-.3-.68h1.47v-1.51h-3.41a3.29,3.29,0,0,0-.6-.15,4.65,4.65,0,0,0-.66-.05,4.17,4.17,0,0,0-1.43.25,3.51,3.51,0,0,0-1.15.7,3.39,3.39,0,0,0-.78,1.06,3.31,3.31,0,0,0,.29,3.19,3.25,3.25,0,0,0,1.32,1.05,2.34,2.34,0,0,0-.53.46,1.37,1.37,0,0,0-.33,1,1.47,1.47,0,0,0,.27.91,1.79,1.79,0,0,0,.45.42c-.22.07-.43.16-.65.25a3.78,3.78,0,0,0-.83.49,2.58,2.58,0,0,0-.62.7,1.92,1.92,0,0,0-.25,1,2,2,0,0,0,.33,1.14,2.47,2.47,0,0,0,.87.79,4.07,4.07,0,0,0,1.26.46,7.52,7.52,0,0,0,1.54.15,7,7,0,0,0,1.89-.25,6,6,0,0,0,1.62-.69,3.88,3.88,0,0,0,1.15-1.09,2.62,2.62,0,0,0,.43-1.44,2.44,2.44,0,0,0-.22-1.09A2,2,0,0,0,114.49,334.52Zm-4.17,3.87a3.54,3.54,0,0,1-1.67-.32,1,1,0,0,1-.57-1,1.08,1.08,0,0,1,.16-.6,1.91,1.91,0,0,1,.42-.48,3.46,3.46,0,0,1,.58-.39l.62-.33,1.79.15.73.1a2,2,0,0,1,.6.18,1.22,1.22,0,0,1,.41.32.78.78,0,0,1,.15.5,1.2,1.2,0,0,1-.29.79,2.44,2.44,0,0,1-.74.59,4.54,4.54,0,0,1-1,.35A6.57,6.57,0,0,1,110.32,338.39Zm-1.78-9.19a1.69,1.69,0,0,1,.55-1.37,2.11,2.11,0,0,1,1.4-.47,2,2,0,0,1,1.4.49,1.92,1.92,0,0,1,0,2.7,2.07,2.07,0,0,1-1.39.49,2.11,2.11,0,0,1-1.4-.48A1.68,1.68,0,0,1,108.54,329.2Z" style="fill:#fff"/><path d="M123.24,326a2.81,2.81,0,0,0-1.76.51,3.15,3.15,0,0,0-.86,1v-1.42h-1.8v9.55h1.88V329.3a3,3,0,0,1,1.15-1.19,3.3,3.3,0,0,1,1.65-.38H124v-1.64l-.07,0A2.2,2.2,0,0,0,123.24,326Z" style="fill:#fff"/><path d="M134.37,331.36a7.14,7.14,0,0,0,.19-1.6,5.32,5.32,0,0,0-.22-1.52,3.47,3.47,0,0,0-.67-1.24,3.28,3.28,0,0,0-1.11-.82,3.71,3.71,0,0,0-1.54-.3,3.88,3.88,0,0,0-1.75.39,3.74,3.74,0,0,0-1.32,1.08,4.87,4.87,0,0,0-.83,1.6,6.5,6.5,0,0,0-.28,1.94,6.6,6.6,0,0,0,.27,1.92,4.41,4.41,0,0,0,.83,1.56,3.74,3.74,0,0,0,1.4,1.06,4.69,4.69,0,0,0,2,.39,8.07,8.07,0,0,0,1.64-.17,5.83,5.83,0,0,0,1.41-.46l.07,0-.26-1.51-.12.05a9.28,9.28,0,0,1-1.16.39,5.79,5.79,0,0,1-1.34.15,3.48,3.48,0,0,1-1.29-.21,2.14,2.14,0,0,1-.84-.58,2.3,2.3,0,0,1-.49-.91,4.43,4.43,0,0,1-.18-1.09h5.59Zm-3.4-4a1.75,1.75,0,0,1,.89.2,1.48,1.48,0,0,1,.57.54,2.15,2.15,0,0,1,.28.83,3.5,3.5,0,0,1,0,.92h-4a5.33,5.33,0,0,1,.19-.9,2.81,2.81,0,0,1,.45-.84,2,2,0,0,1,.67-.55A1.84,1.84,0,0,1,131,327.4Z" style="fill:#fff"/><path d="M141.79,325.88a6.9,6.9,0,0,0-1.63.18,4.73,4.73,0,0,0-1.47.64l-.07,0,.46,1.49.11-.07a5.64,5.64,0,0,1,1.1-.48,4.24,4.24,0,0,1,1.2-.17,1.72,1.72,0,0,1,1.51.63,3.11,3.11,0,0,1,.46,1.8v.3l-1,0-1.18.06a4.25,4.25,0,0,0-2.36.78,2.4,2.4,0,0,0-.9,2,2.88,2.88,0,0,0,.2,1.11,2.4,2.4,0,0,0,1.38,1.39,2.78,2.78,0,0,0,1.06.19,3.93,3.93,0,0,0,1-.12,4,4,0,0,0,.86-.32,3.42,3.42,0,0,0,.69-.45c.12-.09.23-.2.33-.29v1h1.84V329.9a4.27,4.27,0,0,0-1-3A3.38,3.38,0,0,0,141.79,325.88Zm1.67,5.73v1.57a3.81,3.81,0,0,1-1,.82,2.79,2.79,0,0,1-1.3.33,1.43,1.43,0,0,1-1-.3,1.13,1.13,0,0,1-.33-.9,1.2,1.2,0,0,1,.13-.59,1,1,0,0,1,.35-.38,1.8,1.8,0,0,1,.56-.25,3.83,3.83,0,0,1,.72-.14l1-.09Z" style="fill:#fff"/><path d="M152.27,323.68h-1.88v2.4h-1.6v1.63h1.6v4.72a5.76,5.76,0,0,0,.15,1.35,3.14,3.14,0,0,0,.49,1.08,2.41,2.41,0,0,0,.87.71,3,3,0,0,0,1.26.25,5.1,5.1,0,0,0,1.09-.11,4.07,4.07,0,0,0,.87-.25l.07,0-.17-1.54-.13.05a3.56,3.56,0,0,1-1.37.25,1.42,1.42,0,0,1-.64-.13,1.16,1.16,0,0,1-.37-.36,1.8,1.8,0,0,1-.18-.58,4.38,4.38,0,0,1-.06-.75v-4.66h2.93v-1.63h-2.93Z" style="fill:#fff"/><path d="M169.79,330.7a5.79,5.79,0,0,0-1-.57l-.72-.33-.56-.27a5.25,5.25,0,0,1-.53-.29,1.86,1.86,0,0,1-.38-.35.69.69,0,0,1-.14-.43.76.76,0,0,1,.39-.76,2.19,2.19,0,0,1,1-.23,4.48,4.48,0,0,1,1.15.15,5.13,5.13,0,0,1,1.11.41l.12.06.32-1.54-.07,0a5,5,0,0,0-1.23-.47,5.48,5.48,0,0,0-2.61,0,3.09,3.09,0,0,0-1,.47,2.5,2.5,0,0,0-.74.84,2.45,2.45,0,0,0-.28,1.22,2.34,2.34,0,0,0,.26,1.12,3.09,3.09,0,0,0,.68.81,4.09,4.09,0,0,0,.89.6,10.15,10.15,0,0,0,1,.44l.68.31a2.76,2.76,0,0,1,.54.33,1.74,1.74,0,0,1,.37.4,1,1,0,0,1,.13.5.92.92,0,0,1-.49.87,2.67,2.67,0,0,1-1.29.29,5.09,5.09,0,0,1-1.35-.17,8,8,0,0,1-1.09-.39l-.12-.05-.33,1.59.08,0a5.47,5.47,0,0,0,.6.23l.72.18a4.88,4.88,0,0,0,.75.12,6.24,6.24,0,0,0,.72,0,4.77,4.77,0,0,0,1.44-.21A3.67,3.67,0,0,0,170,335a2.66,2.66,0,0,0,1.05-2.17,2.15,2.15,0,0,0-.37-1.28A3.66,3.66,0,0,0,169.79,330.7Z" style="fill:#fff"/><path d="M177.23,323.68h-1.88v2.4h-1.59v1.63h1.59v4.72a5.76,5.76,0,0,0,.15,1.35,3.14,3.14,0,0,0,.49,1.08,2.47,2.47,0,0,0,.86.71,3.06,3.06,0,0,0,1.27.25,5.1,5.1,0,0,0,1.09-.11,4.07,4.07,0,0,0,.87-.25l.07,0-.17-1.54-.13.05a3.56,3.56,0,0,1-1.37.25,1.42,1.42,0,0,1-.64-.13,1.16,1.16,0,0,1-.37-.36,1.58,1.58,0,0,1-.18-.58,4.38,4.38,0,0,1-.06-.75v-4.66h2.93v-1.63h-2.93Z" style="fill:#fff"/><path d="M187.31,325.88a6.87,6.87,0,0,0-1.62.18,4.63,4.63,0,0,0-1.47.64l-.07,0,.45,1.49.12-.07a5.64,5.64,0,0,1,1.1-.48,4.24,4.24,0,0,1,1.2-.17,1.74,1.74,0,0,1,1.51.63,3.11,3.11,0,0,1,.46,1.8v.3l-1,0c-.39,0-.79,0-1.18.06a4.28,4.28,0,0,0-2.37.78,2.43,2.43,0,0,0-.9,2,3.08,3.08,0,0,0,.2,1.11,2.52,2.52,0,0,0,.56.85,2.39,2.39,0,0,0,.83.54,2.78,2.78,0,0,0,1.06.19,4,4,0,0,0,1.83-.44,3.5,3.5,0,0,0,.7-.45c.12-.09.23-.2.33-.29v1h1.84V329.9a4.23,4.23,0,0,0-1-3A3.35,3.35,0,0,0,187.31,325.88Zm1.68,5.73v1.57a4,4,0,0,1-1,.82,2.79,2.79,0,0,1-1.3.33,1.43,1.43,0,0,1-1-.3,1.13,1.13,0,0,1-.33-.9,1.32,1.32,0,0,1,.12-.59,1.09,1.09,0,0,1,.36-.38,1.7,1.7,0,0,1,.56-.25,3.88,3.88,0,0,1,.71-.14l1-.09Z" style="fill:#fff"/><polygon points="200.56 326.08 198.34 333.46 196.08 326.08 194.13 326.08 197.43 335.62 196.08 339.63 197.94 339.63 202.46 326.21 202.51 326.08 200.56 326.08" style="fill:#fff"/></g></g></svg>