<svg xmlns="http://www.w3.org/2000/svg" viewBox="0 0 29.91 26.6"><g id="Capa_2" data-name="Capa 2"><g id="Capa_1-2" data-name="Capa 1"><path d="M27.29,0H2.63A2.63,2.63,0,0,0,0,2.63V18.89a2.63,2.63,0,0,0,2.63,2.63h8.85v3.33H10.16a.88.88,0,1,0,0,1.75h9.59a.88.88,0,1,0,0-1.75H18.43V21.52h8.86a2.62,2.62,0,0,0,2.62-2.63V2.63A2.62,2.62,0,0,0,27.29,0ZM16.68,24.85H13.23V21.52h3.45Zm11.48-6a.87.87,0,0,1-.87.87H2.63a.88.88,0,0,1-.88-.87V17.56H28.16Zm0-3.09H1.75V2.63a.89.89,0,0,1,.88-.88H27.29a.88.88,0,0,1,.87.88Z"/><path d="M10.65,11,8.28,9.39l2.37-1.62a.87.87,0,1,0-1-1.44L6.23,8.67a.88.88,0,0,0,0,1.45l3.43,2.34a.82.82,0,0,0,.49.16.89.89,0,0,0,.73-.39A.87.87,0,0,0,10.65,11Z"/><path d="M23.69,8.67,20.25,6.33a.87.87,0,0,0-1,1.44L21.64,9.4,19.27,11A.86.86,0,0,0,19,12.23a.87.87,0,0,0,.72.39.82.82,0,0,0,.49-.16l3.44-2.34a.88.88,0,0,0,0-1.45Z"/><path d="M17.15,5.5a.88.88,0,0,0-1.2.34L12.43,12.1a.88.88,0,0,0,.34,1.19.92.92,0,0,0,.43.11A.87.87,0,0,0,14,13L17.48,6.7A.88.88,0,0,0,17.15,5.5Z"/></g></g></svg>