<svg xmlns="http://www.w3.org/2000/svg" viewBox="0 0 50.02 57.17"><g id="Capa_2" data-name="Capa 2"><g id="Capa_1-2" data-name="Capa 1"><path d="M32.79,26.27a14.29,14.29,0,1,0-15.56,0A25,25,0,0,0,0,50v7.15H50V50A25,25,0,0,0,32.79,26.27ZM35,46.45,27.85,53.6h-.37L34.94,31a21.6,21.6,0,0,1,3.59,2.36l-.85,4.84L31.14,42.6ZM12.35,38.24l-.86-4.84A21.68,21.68,0,0,1,15.09,31L22.54,53.6h-.36L15,46.45l3.86-3.85Zm1.94-24A10.72,10.72,0,1,1,25,25,10.73,10.73,0,0,1,14.29,14.29ZM31.63,29.64,25,49.69l-6.62-20a21.2,21.2,0,0,1,13.24,0ZM3.57,50A21.34,21.34,0,0,1,8.41,36.48l.68,3.89,4.18,2.79L10,46.45l7.15,7.15H3.57ZM46.45,53.6H32.9L40,46.45l-3.29-3.3,4.18-2.78.69-3.89A21.39,21.39,0,0,1,46.45,50Z"/></g></g></svg>