<svg xmlns="http://www.w3.org/2000/svg" viewBox="0 0 24.68 29.25"><g id="Capa_2" data-name="Capa 2"><g id="Capa_1-2" data-name="Capa 1"><path d="M16.49,12.51a.91.91,0,0,0-1.29,0l-1.71,1.71A8.25,8.25,0,0,1,10.26,11L12,9.27A.91.91,0,0,0,12,8L8.41,4.43a.91.91,0,0,0-1.29,0L5.18,6.36c-1,1-1.08,2.57-.33,4.51C7,16.47,15.08,22.32,18.11,19.29l1.94-1.94a.91.91,0,0,0,0-1.29ZM16.82,18c-.4.4-1.38.37-2.56-.08a15.44,15.44,0,0,1-7.7-7.7C6.11,9,6.07,8.06,6.48,7.66l1.29-1.3L10,8.63,8.74,9.92c-.35.34-.62,1,0,2.21,1,1.76,4.33,5,5.76,3.61l1.3-1.3,2.26,2.27Z"/><path d="M19.65,0H5A5,5,0,0,0,0,5V19.65a5,5,0,0,0,5,5H9.08l2.48,4.13a.91.91,0,0,0,1.56,0l2.48-4.13h4a5,5,0,0,0,5-5V5a5,5,0,0,0-5-5Zm3.2,19.65a3.2,3.2,0,0,1-3.2,3.2H15.08a.9.9,0,0,0-.78.45l-2,3.26-2-3.26a.9.9,0,0,0-.78-.45H5a3.2,3.2,0,0,1-3.2-3.2V5A3.2,3.2,0,0,1,5,1.83H19.65A3.2,3.2,0,0,1,22.85,5Z"/></g></g></svg>