<?xml version="1.0" encoding="UTF-8"?>
<svg xmlns="http://www.w3.org/2000/svg" width="512" height="512" viewBox="0 0 512 512"><g><path d="M448,72a8,8,0,0,0,8-8V40a8,8,0,0,0-8-8H304V16a8,8,0,0,0-8-8H216a8,8,0,0,0-8,8V32H64a8,8,0,0,0-8,8V64a8,8,0,0,0,8,8h8V320H64a8,8,0,0,0-8,8v24a8,8,0,0,0,8,8h84.9L104.41,493.47A8,8,0,0,0,112,504h48a8,8,0,0,0,7.59-5.47L213.77,360H224V496a8,8,0,0,0,8,8h48a8,8,0,0,0,8-8V360h10.23l46.18,138.53A8,8,0,0,0,352,504h48a8,8,0,0,0,7.59-10.53L363.1,360H448a8,8,0,0,0,8-8V328a8,8,0,0,0-8-8h-8V72ZM224,24h64v8H224ZM154.23,488H123.1l42.67-128H196.9ZM272,488H240V360h32Zm116.9,0H357.77L315.1,360h31.13ZM440,344H72v-8H440ZM88,320V72H424V320ZM72,56V48H440v8Z"/><path d="M256,312A104.118,104.118,0,0,0,360,208a8,8,0,0,0-8-8H264V112a8,8,0,0,0-8-8,104,104,0,0,0,0,208Zm-8-191.64V208a8,8,0,0,0,8,8h87.64A88,88,0,1,1,248,120.36Z"/><path d="M280,192h96a8,8,0,0,0,8-8A104.118,104.118,0,0,0,280,80a8,8,0,0,0-8,8v96A8,8,0,0,0,280,192Zm8-95.64A88.148,88.148,0,0,1,367.64,176H288Z"/></g></svg>
