<svg xmlns="http://www.w3.org/2000/svg" xmlns:xlink="http://www.w3.org/1999/xlink" viewBox="0 0 338.42 338.43"><defs><style>.cls-1{fill:url(#Degradado_sin_nombre_95);}.cls-2{fill:url(#Degradado_sin_nombre_95-2);}.cls-3{fill:url(#Degradado_sin_nombre_95-3);}.cls-4{fill:url(#Degradado_sin_nombre_95-4);}.cls-5{fill:url(#Degradado_sin_nombre_95-5);}.cls-6{fill:url(#Degradado_sin_nombre_95-6);}.cls-7{fill:url(#Degradado_sin_nombre_95-7);}.cls-8{fill:url(#Degradado_sin_nombre_95-8);}.cls-9{fill:url(#Degradado_sin_nombre_95-9);}.cls-10{fill:url(#Degradado_sin_nombre_95-10);}</style><linearGradient id="Degradado_sin_nombre_95" y1="169.21" x2="280.26" y2="169.21" gradientUnits="userSpaceOnUse"><stop offset="0" stop-color="#1a1a1a"/><stop offset="0.46" stop-color="#0c0c0c"/><stop offset="1"/></linearGradient><linearGradient id="Degradado_sin_nombre_95-2" x1="79.32" y1="96.5" x2="200.94" y2="96.5" xlink:href="#Degradado_sin_nombre_95"/><linearGradient id="Degradado_sin_nombre_95-3" x1="133.52" y1="296.12" x2="182.43" y2="296.12" xlink:href="#Degradado_sin_nombre_95"/><linearGradient id="Degradado_sin_nombre_95-4" x1="75.35" y1="259.11" x2="182.43" y2="259.11" xlink:href="#Degradado_sin_nombre_95"/><linearGradient id="Degradado_sin_nombre_95-5" x1="75.35" y1="222.09" x2="182.43" y2="222.09" xlink:href="#Degradado_sin_nombre_95"/><linearGradient id="Degradado_sin_nombre_95-6" x1="47.12" y1="185.08" x2="60.34" y2="185.08" xlink:href="#Degradado_sin_nombre_95"/><linearGradient id="Degradado_sin_nombre_95-7" x1="47.12" y1="222.09" x2="60.34" y2="222.09" xlink:href="#Degradado_sin_nombre_95"/><linearGradient id="Degradado_sin_nombre_95-8" x1="47.12" y1="259.11" x2="60.34" y2="259.11" xlink:href="#Degradado_sin_nombre_95"/><linearGradient id="Degradado_sin_nombre_95-9" x1="75.35" y1="185.08" x2="182.43" y2="185.08" xlink:href="#Degradado_sin_nombre_95"/><linearGradient id="Degradado_sin_nombre_95-10" x1="196.7" y1="192.57" x2="338.42" y2="192.57" xlink:href="#Degradado_sin_nombre_95"/></defs><g id="Capa_2" data-name="Capa 2"><g id="Capa_1-2" data-name="Capa 1"><path class="cls-1" d="M273.65,98.32a6.61,6.61,0,0,0,6.61-6.61V19.83A19.86,19.86,0,0,0,260.43,0H19.83A19.86,19.86,0,0,0,0,19.83V318.6a19.86,19.86,0,0,0,19.83,19.83h240.6a19.86,19.86,0,0,0,19.83-19.83V269.9a6.61,6.61,0,0,0-13.22,0v48.7a6.62,6.62,0,0,1-6.61,6.61H19.83a6.62,6.62,0,0,1-6.61-6.61V19.83a6.61,6.61,0,0,1,6.61-6.61h240.6A6.62,6.62,0,0,1,267,19.83V91.71A6.61,6.61,0,0,0,273.65,98.32Z"/><path class="cls-2" d="M140.13,35.69a60.78,60.78,0,0,0-41.72,105,5.55,5.55,0,0,0,.71.66,60.7,60.7,0,0,0,82,0,6.31,6.31,0,0,0,.71-.66,60.78,60.78,0,0,0-41.72-105Zm0,108.41a47.34,47.34,0,0,1-28.75-9.7,33.06,33.06,0,0,1,57.5,0A47.36,47.36,0,0,1,140.13,144.1ZM129.55,93.86v-4.3a10.58,10.58,0,0,1,21.16,0v4.3a10.58,10.58,0,0,1-21.16,0Zm48.88,30.86A45.87,45.87,0,0,0,159,108.39a23.61,23.61,0,0,0,5-14.53v-4.3a23.8,23.8,0,0,0-47.59,0v4.3a23.62,23.62,0,0,0,5,14.53,45.87,45.87,0,0,0-19.48,16.33,47.59,47.59,0,1,1,76.6,0Z"/><path class="cls-3" d="M175.82,289.51H140.13a6.61,6.61,0,1,0,0,13.22h35.69a6.61,6.61,0,0,0,0-13.22Z"/><path class="cls-4" d="M175.82,252.5H82a6.61,6.61,0,1,0,0,13.22h93.86a6.61,6.61,0,0,0,0-13.22Z"/><path class="cls-5" d="M175.82,215.48H82a6.61,6.61,0,0,0,0,13.22h93.86a6.61,6.61,0,0,0,0-13.22Z"/><path class="cls-6" d="M58.4,180.4a6.61,6.61,0,0,0-9.35,9.35,6.61,6.61,0,1,0,9.35-9.35Z"/><path class="cls-7" d="M58.4,217.42a6.59,6.59,0,1,0,1.94,4.67A6.65,6.65,0,0,0,58.4,217.42Z"/><path class="cls-8" d="M58.4,254.43a6.6,6.6,0,1,0,1.94,4.68A6.64,6.64,0,0,0,58.4,254.43Z"/><path class="cls-9" d="M175.82,178.47H82a6.61,6.61,0,0,0,0,13.22h93.86a6.61,6.61,0,1,0,0-13.22Z"/><path class="cls-10" d="M324.54,86.14A27.77,27.77,0,0,0,286.62,96.3L203.44,240.37a6.73,6.73,0,0,0-.85,2.57l-5.85,52.45a6.62,6.62,0,0,0,10.49,6.06l42.49-31.3a6.57,6.57,0,0,0,1.8-2L334.7,124.06A27.78,27.78,0,0,0,324.54,86.14Zm-113,195.7,3.06-27.38,19.13,11Zm31.83-26-25.19-14.54,66.75-115.62,25.19,14.55Zm79.87-138.35-6.51,11.29L291.55,114.2l6.52-11.29a14.54,14.54,0,1,1,25.18,14.54Z"/></g></g></svg>