<?xml version="1.0" encoding="UTF-8"?>
<svg xmlns="http://www.w3.org/2000/svg" width="512" height="512" viewBox="0 0 128 128"><g><path d="M43,15.419a1.99,1.99,0,1,0-1.99-1.99A1.99,1.99,0,0,0,43,15.419Z"/><path d="M119,28.9H78.75V12A6.758,6.758,0,0,0,72,5.25H14A6.758,6.758,0,0,0,7.25,12V116A6.758,6.758,0,0,0,14,122.75H72A6.758,6.758,0,0,0,78.75,116V80.677H114a6.758,6.758,0,0,0,6.75-6.75V30.65A1.751,1.751,0,0,0,119,28.9ZM75.25,116A3.254,3.254,0,0,1,72,119.25H14A3.254,3.254,0,0,1,10.75,116V12A3.254,3.254,0,0,1,14,8.75H72A3.254,3.254,0,0,1,75.25,12V28.9H71.821V13.929a1.75,1.75,0,0,0-1.75-1.75H57.055a1.749,1.749,0,0,0-1.688,1.288l-1.02,3.722a1.252,1.252,0,0,1-1.2.919H32.858a1.252,1.252,0,0,1-1.2-.919l-1.02-3.722a1.749,1.749,0,0,0-1.688-1.288H15.929a1.75,1.75,0,0,0-1.75,1.75V114.071a1.75,1.75,0,0,0,1.75,1.75H70.071a1.75,1.75,0,0,0,1.75-1.75V80.677H75.25ZM48,28.9a6.758,6.758,0,0,0-6.75,6.75V78.927A1.75,1.75,0,0,0,43,80.677H53.319V97.35a1.75,1.75,0,0,0,3.112,1.1l11.89-14.728v28.6H17.679V15.679H27.61l.667,2.433a4.76,4.76,0,0,0,4.581,3.5H53.142a4.76,4.76,0,0,0,4.581-3.5l.667-2.433h9.931V28.9Zm69.25,45.027a3.254,3.254,0,0,1-3.25,3.25H69.942a1.751,1.751,0,0,0-1.361.65L56.819,92.4V78.927a1.749,1.749,0,0,0-1.75-1.75H44.75V35.65A3.254,3.254,0,0,1,48,32.4h69.25Z"/><path d="M71.979,52.6a1.752,1.752,0,0,0,.443,1.794l3.02,2.943-.713,4.155a1.75,1.75,0,0,0,2.539,1.845L81,61.371l3.732,1.962a1.75,1.75,0,0,0,2.539-1.845l-.713-4.155,3.02-2.943a1.75,1.75,0,0,0-.971-2.985L84.435,50.8l-1.866-3.78a1.749,1.749,0,0,0-3.138,0L77.565,50.8l-4.172.606A1.75,1.75,0,0,0,71.979,52.6Zm7,1.534a1.746,1.746,0,0,0,1.318-.957l.7-1.426.7,1.426a1.744,1.744,0,0,0,1.317.957l1.574.228L83.456,55.47a1.746,1.746,0,0,0-.5,1.549l.269,1.566-1.408-.739a1.751,1.751,0,0,0-1.629,0l-1.407.739.269-1.566a1.752,1.752,0,0,0-.5-1.549l-1.139-1.112Z"/><path d="M66.607,51.405,62.435,50.8l-1.866-3.78a1.749,1.749,0,0,0-3.138,0L55.565,50.8l-4.172.606a1.75,1.75,0,0,0-.971,2.985l3.02,2.943-.713,4.155a1.75,1.75,0,0,0,2.539,1.845L59,61.371l3.732,1.962a1.75,1.75,0,0,0,2.539-1.845l-.713-4.155,3.02-2.943a1.75,1.75,0,0,0-.971-2.985ZM61.456,55.47a1.746,1.746,0,0,0-.5,1.549l.269,1.566-1.408-.739a1.751,1.751,0,0,0-1.629,0l-1.407.739.269-1.566a1.752,1.752,0,0,0-.5-1.549l-1.139-1.112,1.573-.228a1.746,1.746,0,0,0,1.318-.957l.7-1.426.7,1.426a1.744,1.744,0,0,0,1.317.957l1.574.228Z"/><path d="M97.442,57.333l-.713,4.155a1.75,1.75,0,0,0,2.539,1.845L103,61.371l3.732,1.962a1.75,1.75,0,0,0,2.539-1.845l-.713-4.155,3.02-2.943a1.75,1.75,0,0,0-.971-2.985l-4.172-.606-1.866-3.78a1.749,1.749,0,0,0-3.138,0L99.565,50.8l-4.172.606a1.75,1.75,0,0,0-.971,2.985Zm3.536-3.2a1.746,1.746,0,0,0,1.318-.957l.7-1.426.7,1.426a1.744,1.744,0,0,0,1.317.957l1.574.228-1.139,1.112a1.746,1.746,0,0,0-.5,1.549l.269,1.566-1.408-.739a1.751,1.751,0,0,0-1.629,0l-1.407.739.269-1.566a1.752,1.752,0,0,0-.5-1.549l-1.139-1.112Z"/></g></svg>
