<svg xmlns="http://www.w3.org/2000/svg" viewBox="0 0 342.37 343.49"><g id="Capa_2" data-name="Capa 2"><g id="Capa_1-2" data-name="Capa 1"><path d="M237.45,299.31h93.88v16.57a16.59,16.59,0,0,1-16.57,16.57H27.61A16.6,16.6,0,0,1,11,315.88V299.31h93.88v-11H0v27.61a27.65,27.65,0,0,0,27.61,27.61H314.76a27.64,27.64,0,0,0,27.61-27.61V288.27H237.45Z"/><path d="M132.53,321.4h77.31a16.58,16.58,0,0,0,16.57-16.57V288.27H116v16.56A16.58,16.58,0,0,0,132.53,321.4ZM127,299.31h88.35v5.52a5.53,5.53,0,0,1-5.52,5.53H132.53a5.53,5.53,0,0,1-5.52-5.53v-5.52Z"/><path d="M22.09,106A16.58,16.58,0,0,1,38.66,89.47h127v-11h-127A27.64,27.64,0,0,0,11,106V277.22H22.09Z"/><rect x="320.29" y="172.3" width="11.04" height="104.92"/><path d="M165.66,100.51H44.18a11.07,11.07,0,0,0-11,11V277.22h11V111.56H165.66Z"/><rect x="298.2" y="188.87" width="11.04" height="88.35"/><path d="M332.49,23.2A125.49,125.49,0,0,1,262.61,2l-3.07-2-3.06,2A125.53,125.53,0,0,1,186.59,23.2h-9.88V106a82.83,82.83,0,0,0,165.66,0V23.2ZM331.33,106a71.79,71.79,0,0,1-143.58,0V34.24a136.45,136.45,0,0,0,71.79-21,136.45,136.45,0,0,0,71.79,21Z"/><path d="M256.91,27.53a146.61,146.61,0,0,1-53.23,16.78l-4.88.56V106a60.75,60.75,0,0,0,121.49,0V44.87l-4.9-.57a146.71,146.71,0,0,1-53.23-16.77l-2.62-1.42Zm52.33,27.11V106a49.7,49.7,0,1,1-99.4,0V54.64a157.42,157.42,0,0,0,49.7-16A157.75,157.75,0,0,0,309.24,54.64Z"/><polygon points="235.24 101.62 228.62 110.45 255.27 130.44 297.2 70.55 288.15 64.22 252.77 114.76 235.24 101.62"/><path d="M82.83,277.22H149.1a16.58,16.58,0,0,0,16.56-16.56V205.44a16.56,16.56,0,0,0-11-15.56V172.3a38.66,38.66,0,0,0-77.31,0v17.58a16.56,16.56,0,0,0-11,15.56v55.22A16.58,16.58,0,0,0,82.83,277.22ZM88.35,172.3a27.62,27.62,0,0,1,55.23,0v16.57H88.35Zm-11,33.14a5.53,5.53,0,0,1,5.52-5.53H149.1a5.53,5.53,0,0,1,5.52,5.53v55.22a5.52,5.52,0,0,1-5.52,5.52H82.83a5.52,5.52,0,0,1-5.52-5.52Z"/><path d="M110.44,243.07v12.06h11V243.07a16.57,16.57,0,1,0-11,0ZM116,222a5.53,5.53,0,1,1-5.53,5.52A5.53,5.53,0,0,1,116,222Z"/><rect x="44.18" y="310.36" width="11.04" height="11.04"/><rect x="66.27" y="310.36" width="11.04" height="11.04"/><rect x="88.35" y="310.36" width="11.04" height="11.04"/></g></g></svg>