<svg xmlns="http://www.w3.org/2000/svg" viewBox="0 0 24.8 29.12"><g id="Capa_2" data-name="Capa 2"><g id="Capa_1-2" data-name="Capa 1"><g id="surface1"><path d="M24.77,7.9v0c0-.28,0-.58,0-.91a3.08,3.08,0,0,0-2.9-3A12,12,0,0,1,13.69.51h0a1.86,1.86,0,0,0-2.54,0h0A12,12,0,0,1,3,4,3.08,3.08,0,0,0,.06,7c0,.33,0,.63,0,.91v0C0,11.35-.12,15.6,1.3,19.45a14.77,14.77,0,0,0,3.52,5.48A18.3,18.3,0,0,0,11.71,29a1.29,1.29,0,0,0,.28.08,2.12,2.12,0,0,0,.82,0,1.29,1.29,0,0,0,.28-.08A18.26,18.26,0,0,0,20,24.93a14.73,14.73,0,0,0,3.52-5.48C24.92,15.58,24.83,11.32,24.77,7.9Zm-2.88,11c-1.5,4.06-4.56,6.85-9.36,8.53l-.06,0a.38.38,0,0,1-.15,0l-.05,0c-4.8-1.67-7.86-4.46-9.36-8.53C1.6,15.31,1.67,11.41,1.74,8h0c0-.3,0-.61,0-1A1.36,1.36,0,0,1,3.06,5.66,15.31,15.31,0,0,0,8.15,4.54a13.38,13.38,0,0,0,4.14-2.79.18.18,0,0,1,.22,0,13.38,13.38,0,0,0,4.14,2.79,15.31,15.31,0,0,0,5.09,1.12A1.36,1.36,0,0,1,23,7c0,.34,0,.65,0,1C23.13,11.39,23.2,15.29,21.89,18.86Z"/><path d="M12.4,7.3a7.26,7.26,0,1,0,7.26,7.26A7.27,7.27,0,0,0,12.4,7.3Zm0,12.81A5.55,5.55,0,1,1,18,14.56,5.56,5.56,0,0,1,12.4,20.11Z"/><path d="M14.49,12.31l-3.38,3.37-.91-.92A.86.86,0,1,0,9,16l1.52,1.52a.86.86,0,0,0,1.21,0l4-4a.85.85,0,0,0,0-1.21A.83.83,0,0,0,14.49,12.31Z"/></g></g></g></svg>