<svg xmlns="http://www.w3.org/2000/svg" viewBox="0 0 24.98 30.97"><g id="Capa_2" data-name="Capa 2"><g id="Capa_1-2" data-name="Capa 1"><path d="M24.48,4a.5.5,0,0,0,.5-.5V2a.5.5,0,0,0-.5-.5h-9V.5A.5.5,0,0,0,15,0H10a.5.5,0,0,0-.5.5v1H.5A.5.5,0,0,0,0,2V3.5A.5.5,0,0,0,.5,4H1V19.48H.5A.5.5,0,0,0,0,20v1.5a.5.5,0,0,0,.5.5H5.8L3,30.32a.51.51,0,0,0,.32.63l.16,0h3A.5.5,0,0,0,7,30.63L9.85,22h.64v8.49a.5.5,0,0,0,.5.5h3a.5.5,0,0,0,.5-.5V22h.64L18,30.63a.49.49,0,0,0,.47.34h3a.5.5,0,0,0,.5-.5.77.77,0,0,0,0-.15L19.18,22h5.3a.5.5,0,0,0,.5-.5V20a.5.5,0,0,0-.5-.5H24V4Zm-14-3h4v.5h-4ZM6.13,30H4.19l2.66-8h2Zm7.36,0h-2V22h2Zm7.3,0H18.84l-2.66-8h1.94ZM24,21H1v-.5H24ZM2,19.48V4H23V19.48ZM1,3V2.5H24V3Z"/><path d="M12.49,19A6.5,6.5,0,0,0,19,12.49a.5.5,0,0,0-.5-.5H13V6.49a.5.5,0,0,0-.5-.5,6.5,6.5,0,1,0,0,13ZM12,7v5.47a.5.5,0,0,0,.5.5H18a5.49,5.49,0,1,1-6-6Z"/><path d="M14,11.49h6a.5.5,0,0,0,.5-.5A6.5,6.5,0,0,0,14,4.5a.5.5,0,0,0-.5.5v6A.5.5,0,0,0,14,11.49Zm.5-6a5.49,5.49,0,0,1,5,5h-5Z"/></g></g></svg>