<svg xmlns="http://www.w3.org/2000/svg" viewBox="0 0 43.49 49.42"><g id="Capa_2" data-name="Capa 2"><g id="Capa_1-2" data-name="Capa 1"><path d="M42.53,20H9.6l31.63-9.16a1,1,0,0,0,.57-.47.93.93,0,0,0,.09-.73L40.23,3.88A5.4,5.4,0,0,0,35.06,0a5.29,5.29,0,0,0-1.48.21L3.88,8.81A5.4,5.4,0,0,0,.21,15.47l1.62,5.58v23A5.38,5.38,0,0,0,7.2,49.42H18.8a1,1,0,1,0,0-1.93H7.2a3.44,3.44,0,0,1-3.44-3.44V30.91h37.8V44.05a3.44,3.44,0,0,1-3.44,3.44H26.52a1,1,0,0,0,0,1.93h11.6a5.38,5.38,0,0,0,5.37-5.37V20.91A1,1,0,0,0,42.53,20Zm-17,9,4.1-7.1h5.33L30.84,29Zm-7.57,0,4.1-7.1h5.34L23.28,29Zm-7.56,0,4.1-7.1h5.34L15.71,29ZM14,16.49,7.1,9.89,12.25,8.4a1.58,1.58,0,0,0,.12.15l6.87,6.6L14.1,16.64A.64.64,0,0,0,14,16.49ZM26.9,4.34l6.87,6.6-5.14,1.49a.64.64,0,0,0-.13-.15l-6.87-6.6,5.15-1.49A1.58,1.58,0,0,0,26.9,4.34Zm-7.26,2.1L26.51,13l-5.15,1.49-.13-.15L14.37,7.79,19.51,6.3A.86.86,0,0,0,19.64,6.44ZM34.11,2.07a3.41,3.41,0,0,1,1-.14,3.47,3.47,0,0,1,3.32,2.48L39.76,9.2l-3.87,1.12-.13-.15L28.9,3.58ZM2.36,12.32a3.42,3.42,0,0,1,2.06-1.65L5,10.5a.64.64,0,0,0,.13.15L12,17.25,3.45,19.72,2.07,14.93A3.4,3.4,0,0,1,2.36,12.32Zm1.4,9.56h8.49L8.15,29H3.76ZM33.07,29l4.1-7.1h4.39V29Z" style="fill:#fff;fill-rule:evenodd"/><path d="M29.34,39.1a1,1,0,0,0-.49-.83l-8.48-4.9a1,1,0,0,0-1,0,1,1,0,0,0-.48.84V44a1,1,0,0,0,.48.83,1,1,0,0,0,1,0l8.48-4.89A1,1,0,0,0,29.34,39.1Zm-8.48,3.23V35.88l5.58,3.22Z" style="fill:#fff;fill-rule:evenodd"/><path d="M22.66,47.49a1,1,0,1,0,1,1A1,1,0,0,0,22.66,47.49Z" style="fill:#fff;fill-rule:evenodd"/></g></g></svg>