<svg xmlns="http://www.w3.org/2000/svg" viewBox="0 0 50.21 50.21"><g id="Capa_2" data-name="Capa 2"><g id="Capa_1-2" data-name="Capa 1"><path d="M19.88,16.74H3.14A3.15,3.15,0,0,1,0,13.6V3.14A3.15,3.15,0,0,1,3.14,0H19.88A3.14,3.14,0,0,1,23,3.14V13.6A3.14,3.14,0,0,1,19.88,16.74ZM3.14,2.09A1,1,0,0,0,2.09,3.14V13.6a1,1,0,0,0,1.05,1.05H19.88a1,1,0,0,0,1-1.05V3.14a1,1,0,0,0-1-1.05Z" style="fill:#fff"/><path d="M19.88,50.21H3.14A3.15,3.15,0,0,1,0,47.07v-23a3.15,3.15,0,0,1,3.14-3.14H19.88A3.14,3.14,0,0,1,23,24.06v23A3.14,3.14,0,0,1,19.88,50.21ZM3.14,23a1,1,0,0,0-1.05,1v23a1,1,0,0,0,1.05,1H19.88a1,1,0,0,0,1-1v-23a1,1,0,0,0-1-1Z" style="fill:#fff"/><path d="M47.07,50.21H30.34a3.15,3.15,0,0,1-3.14-3.14V36.61a3.14,3.14,0,0,1,3.14-3.13H47.07a3.14,3.14,0,0,1,3.14,3.13V47.07A3.15,3.15,0,0,1,47.07,50.21ZM30.34,35.57a1,1,0,0,0-1.05,1V47.07a1,1,0,0,0,1.05,1H47.07a1,1,0,0,0,1-1V36.61a1,1,0,0,0-1-1Z" style="fill:#fff"/><path d="M47.07,29.29H30.34a3.15,3.15,0,0,1-3.14-3.14v-23A3.15,3.15,0,0,1,30.34,0H47.07a3.15,3.15,0,0,1,3.14,3.14v23A3.15,3.15,0,0,1,47.07,29.29ZM30.34,2.09a1,1,0,0,0-1.05,1.05v23a1,1,0,0,0,1.05,1.05H47.07a1,1,0,0,0,1-1.05v-23a1,1,0,0,0-1-1.05Z" style="fill:#fff"/></g></g></svg>