<svg xmlns="http://www.w3.org/2000/svg" viewBox="0 0 49.83 49.83"><g id="Capa_2" data-name="Capa 2"><g id="Capa_1-2" data-name="Capa 1"><path d="M14.89,38.6A6.36,6.36,0,1,0,3.22,35.11,6.25,6.25,0,0,0,4.28,38.6,6.94,6.94,0,0,0,0,45v3.89a1,1,0,0,0,1,1H18.19a1,1,0,0,0,1-1V45a6.94,6.94,0,0,0-4.27-6.37ZM9.58,30.7a4.41,4.41,0,1,1-4.41,4.41A4.42,4.42,0,0,1,9.58,30.7Zm7.63,17.18H2V45a5,5,0,0,1,3.79-4.8,6.36,6.36,0,0,0,7.68,0A5,5,0,0,1,17.21,45Z" style="fill:#fff"/><path d="M45.55,38.6a6.36,6.36,0,1,0-10.61,0A6.94,6.94,0,0,0,30.67,45v3.89a1,1,0,0,0,1,1H48.86a1,1,0,0,0,1-1V45a7,7,0,0,0-4.28-6.37Zm-5.3-7.9a4.41,4.41,0,1,1-4.41,4.41A4.42,4.42,0,0,1,40.25,30.7Zm7.63,17.18H32.61V45a5,5,0,0,1,3.8-4.8,6.36,6.36,0,0,0,7.68,0A5,5,0,0,1,47.88,45v2.91Z" style="fill:#fff"/><path d="M40.27,25.72a1,1,0,0,0,.53.15,1.07,1.07,0,0,0,.46-.11,1,1,0,0,0,.51-.84L41.83,22a5.88,5.88,0,0,0-.24-11.48,8.4,8.4,0,0,0,.21-1.88A8.63,8.63,0,0,0,33.18,0H26.54a1,1,0,0,0,0,2h6.64a6.67,6.67,0,0,1,6.43,8.44H26.32a5.9,5.9,0,0,0-5.8,4.9H17.91a1,1,0,0,0-.61.22l-5.76,4.58-.08-3.87a1,1,0,0,0-.89-.95A6.67,6.67,0,0,1,11.16,2H17.8A1,1,0,0,0,17.8,0H11.16A8.62,8.62,0,0,0,9.53,17.09l.1,5a1,1,0,0,0,1,.95,1,1,0,0,0,.61-.21l7-5.6h2.27a5.9,5.9,0,0,0,5.8,4.91H34.7ZM22.39,16.27a3.93,3.93,0,0,1,3.93-3.93H40.44a3.93,3.93,0,0,1,.35,7.84,1,1,0,0,0-.89,1l0,2L35.5,20.35A.93.93,0,0,0,35,20.2H26.32a3.93,3.93,0,0,1-3.93-3.93Z" style="fill:#fff"/><path d="M27.86,15.29a1,1,0,1,0,0,1.95,1,1,0,0,0,1-1h0a1,1,0,0,0-1-1Z" style="fill:#fff"/><path d="M33.38,15.29a1,1,0,1,0,1,1h0a1,1,0,0,0-1-1Z" style="fill:#fff"/><path d="M38.9,17.24a1,1,0,0,0,1-1h0a1,1,0,1,0-1,1Z" style="fill:#fff"/><path d="M22.17,2h0a1,1,0,1,0-1-1A1,1,0,0,0,22.17,2Z" style="fill:#fff"/></g></g></svg>