<svg xmlns="http://www.w3.org/2000/svg" viewBox="0 0 778.21 1256.52"><defs><style>.cls-1{opacity:0.15;}.cls-2{fill:#fff;}</style></defs><g id="Capa_2" data-name="Capa 2"><g id="Capa_1-2" data-name="Capa 1"><g class="cls-1"><path class="cls-2" d="M778.21,327.73a147.39,147.39,0,0,1-63.62,14.35c-81.82,0-148.39-66.57-148.39-148.39s66.57-148.4,148.39-148.4a147.53,147.53,0,0,1,63.62,14.35V20.87A183.16,183.16,0,0,0,714.59,9.54c-101.54,0-184.15,82.61-184.15,184.15s82.61,184.15,184.15,184.15a183.39,183.39,0,0,0,63.62-11.33Z"/><path class="cls-2" d="M70.36,182.36A60.79,60.79,0,1,0,9.57,121.58,60.85,60.85,0,0,0,70.36,182.36Zm0-85.81a25,25,0,1,1-25,25A25.05,25.05,0,0,1,70.36,96.55Z"/><path class="cls-2" d="M28.05,900.61a115.31,115.31,0,0,0-28,3.45v23.29a93.08,93.08,0,1,1,0,177.52v23.3A115.51,115.51,0,1,0,28.05,900.61Z"/><rect class="cls-2" x="242" width="11.92" height="11.92"/><rect class="cls-2" x="272.99" width="11.92" height="11.92"/><rect class="cls-2" x="303.98" width="11.92" height="11.92"/><rect class="cls-2" x="334.96" width="11.92" height="11.92"/><rect class="cls-2" x="242" y="30.39" width="11.92" height="11.92"/><rect class="cls-2" x="272.99" y="30.39" width="11.92" height="11.92"/><rect class="cls-2" x="303.98" y="30.39" width="11.92" height="11.92"/><rect class="cls-2" x="334.96" y="30.39" width="11.92" height="11.92"/><rect class="cls-2" x="242" y="60.79" width="11.92" height="11.92"/><rect class="cls-2" x="272.99" y="60.79" width="11.92" height="11.92"/><rect class="cls-2" x="303.98" y="60.79" width="11.92" height="11.92"/><rect class="cls-2" x="334.96" y="60.79" width="11.92" height="11.92"/><rect class="cls-2" x="242" y="91.18" width="11.92" height="11.92"/><rect class="cls-2" x="272.99" y="91.18" width="11.92" height="11.92"/><rect class="cls-2" x="303.98" y="91.18" width="11.92" height="11.92"/><rect class="cls-2" x="334.96" y="91.18" width="11.92" height="11.92"/><rect class="cls-2" x="666.32" y="546.5" width="11.92" height="11.92"/><rect class="cls-2" x="697.31" y="546.5" width="11.92" height="11.92"/><rect class="cls-2" x="728.3" y="546.5" width="11.92" height="11.92"/><rect class="cls-2" x="759.29" y="546.5" width="11.92" height="11.92"/><rect class="cls-2" x="666.32" y="576.89" width="11.92" height="11.92"/><rect class="cls-2" x="697.31" y="576.89" width="11.92" height="11.92"/><rect class="cls-2" x="728.3" y="576.89" width="11.92" height="11.92"/><rect class="cls-2" x="759.29" y="576.89" width="11.92" height="11.92"/><rect class="cls-2" x="666.32" y="607.28" width="11.92" height="11.92"/><rect class="cls-2" x="697.31" y="607.28" width="11.92" height="11.92"/><rect class="cls-2" x="728.3" y="607.28" width="11.92" height="11.92"/><rect class="cls-2" x="759.29" y="607.28" width="11.92" height="11.92"/><rect class="cls-2" x="666.32" y="637.68" width="11.92" height="11.92"/><rect class="cls-2" x="697.31" y="637.68" width="11.92" height="11.92"/><rect class="cls-2" x="728.3" y="637.68" width="11.92" height="11.92"/><rect class="cls-2" x="759.29" y="637.68" width="11.92" height="11.92"/><rect class="cls-2" x="177.63" y="238.38" width="30.99" height="30.99"/><rect class="cls-2" x="556.66" y="741.38" width="30.99" height="30.99"/><path class="cls-2" d="M78.7,550.67A82.27,82.27,0,0,0,0,609v47.8A82.24,82.24,0,1,0,78.7,550.67Z"/><circle class="cls-2" cx="719.96" cy="450.55" r="41.72" transform="translate(-115 295.07) rotate(-21.49)"/><path class="cls-2" d="M244.38,685.35a15.5,15.5,0,1,1-15.5-15.49A15.5,15.5,0,0,1,244.38,685.35Z"/><rect class="cls-2" x="370.72" y="166.87" width="104.89" height="9.54"/><rect class="cls-2" x="580.5" y="185.94" width="104.89" height="9.54" transform="translate(823.65 -442.24) rotate(90)"/><path class="cls-2" d="M776.17,893.94a260.29,260.29,0,0,0-92-16.69c-144.17,0-261,116.87-261,261a260,260,0,0,0,28.25,118.24H776.17Z"/></g></g></g></svg>