<svg xmlns="http://www.w3.org/2000/svg" viewBox="0 0 51.11 50.11"><g id="Capa_2" data-name="Capa 2"><g id="Capa_1-2" data-name="Capa 1"><path d="M26.38,50.11H51.11V30.71H26.38Zm9.89-17.78h4.94v1.61H36.27Zm-8.24,0h6.59v3.23h8.24V32.33h6.6V48.49H28Z" style="fill:#fff"/><path d="M46.16,45.26h1.65v1.61H46.16Z" style="fill:#fff"/><path d="M42.86,45.26h1.65v1.61H42.86Z" style="fill:#fff"/><path d="M39.57,45.26h1.64v1.61H39.57Z" style="fill:#fff"/><path d="M49.46,16.16H47.81V0H26.38V16.16H24.73V0H3.3V16.16H1.65A1.64,1.64,0,0,0,0,17.78V19.4A1.63,1.63,0,0,0,1.65,21H6a6.21,6.21,0,0,0-.22,1.62,6.44,6.44,0,0,0,3,5.39A12.17,12.17,0,0,0,0,39.6a4.05,4.05,0,0,0,2.47,3.7v6.81H24.73V39.6A12.17,12.17,0,0,0,16,28a6.44,6.44,0,0,0,3-5.39A6.21,6.21,0,0,0,18.74,21H49.46a1.63,1.63,0,0,0,1.65-1.61V17.78A1.64,1.64,0,0,0,49.46,16.16ZM34.62,1.62h5V3.23h-5ZM28,1.62H33V4.85h8.24V1.62h4.95V16.16H41.21V12.93H33v3.23H28ZM39.57,16.16h-5V14.55h5Zm-28-14.54h4.95V3.23H11.54ZM5,1.62H9.89V4.85h8.24V1.62h4.95V16.16H18.13V12.93H9.89v3.23H5Zm6.59,14.54V14.55h4.95v1.61ZM1.65,19.4V17.78H8A6.41,6.41,0,0,0,6.66,19.4ZM4.12,43.64h3.3v4.85H4.12ZM12,38H9.07v-4h5.77v4H19V48.49H9.07V43.64H12A2.83,2.83,0,1,0,12,38Zm4.54-2.89,1.3,1.28h-1.3Zm6.59,4.51v8.89H20.61V36.84L16,32.33H7.42V38H5V39.6h7A1.21,1.21,0,1,1,12,42H4.12A2.45,2.45,0,0,1,1.65,39.6,10.63,10.63,0,0,1,12.36,29.09,10.63,10.63,0,0,1,23.08,39.6ZM12.36,27.48a4.85,4.85,0,1,1,4.95-4.85A4.91,4.91,0,0,1,12.36,27.48Zm37.1-8.08H18.07a6.41,6.41,0,0,0-1.36-1.62H49.46Z" style="fill:#fff"/><path d="M39.57,42h8.24v1.62H39.57Z" style="fill:#fff"/></g></g></svg>