<svg xmlns="http://www.w3.org/2000/svg" viewBox="0 0 31.22 35.47"><g id="Capa_2" data-name="Capa 2"><g id="Capa_1-2" data-name="Capa 1"><path d="M30.53,14.32H6.89l22.7-6.58a.69.69,0,0,0,.48-.86l-1.19-4.1A3.87,3.87,0,0,0,24.1.15L2.78,6.33A3.86,3.86,0,0,0,.15,11.1l1.16,4V31.62a3.86,3.86,0,0,0,3.86,3.85H13.5a.69.69,0,1,0,0-1.38H5.17A2.48,2.48,0,0,1,2.7,31.62V22.19H29.83v9.43a2.47,2.47,0,0,1-2.47,2.47H19a.69.69,0,0,0,0,1.38h8.32a3.86,3.86,0,0,0,3.86-3.85V15A.69.69,0,0,0,30.53,14.32ZM18.31,20.8l2.94-5.09h3.83L22.14,20.8Zm-5.43,0,2.94-5.09h3.83L16.71,20.8Zm-5.43,0,2.94-5.09h3.83L11.28,20.8Zm2.58-9L5.1,7.1,8.79,6l.09.11,4.93,4.73-3.69,1.07Zm9.28-8.71,4.93,4.73L20.55,8.92l-.09-.11L15.53,4.08,19.22,3ZM14.1,4.63,19,9.36l-3.7,1.07a.44.44,0,0,0-.09-.11L10.31,5.59,14,4.52A.44.44,0,0,0,14.1,4.63ZM24.49,1.48a2.59,2.59,0,0,1,.68-.09,2.5,2.5,0,0,1,2.38,1.78l1,3.43-2.78.81a.44.44,0,0,0-.09-.11L20.74,2.57ZM1.7,8.84A2.44,2.44,0,0,1,3.17,7.66l.41-.12a.44.44,0,0,0,.09.11L8.6,12.38,2.48,14.15l-1-3.43A2.47,2.47,0,0,1,1.7,8.84Zm1,6.87H8.79L5.85,20.8H2.7Zm21,5.09,2.94-5.09h3.15V20.8Z" style="fill:#fff;fill-rule:evenodd"/><path d="M21.06,28.07a.68.68,0,0,0-.35-.6L14.62,24a.71.71,0,0,0-.69,0,.72.72,0,0,0-.35.6v7a.7.7,0,0,0,.35.6.74.74,0,0,0,.35.1.67.67,0,0,0,.34-.1l6.09-3.51A.69.69,0,0,0,21.06,28.07ZM15,30.38V25.75l4,2.32Z" style="fill:#fff;fill-rule:evenodd"/><path d="M16.27,34.09a.69.69,0,1,0,.69.69A.69.69,0,0,0,16.27,34.09Z" style="fill:#fff;fill-rule:evenodd"/></g></g></svg>