<svg id="Capa_1" data-name="Capa 1" xmlns="http://www.w3.org/2000/svg" xmlns:xlink="http://www.w3.org/1999/xlink" viewBox="0 0 750 1334"><defs><style>.cls-1{fill:#f2f2f2;}.cls-2{fill:url(#Degradado_sin_nombre_20);}.cls-3{font-size:30px;font-family:Poppins-SemiBold, Poppins;font-weight:600;}.cls-3,.cls-4{fill:#fff;}.cls-5{fill:#fafafa;stroke:#000;stroke-width:0.5px;}.cls-5,.cls-8{stroke-miterlimit:10;}.cls-6{font-size:31.8px;font-family:Seravek-Medium, Seravek;font-weight:500;}.cls-7{letter-spacing:-0.01em;}.cls-8{fill:none;stroke:#efefef;}.cls-15,.cls-9{font-size:27.61px;fill:#999;font-family:Seravek-Light, Seravek;font-weight:300;}.cls-10{letter-spacing:0em;}.cls-11{fill:#662d91;}.cls-12,.cls-15{letter-spacing:0em;}.cls-13{letter-spacing:0em;}.cls-14{letter-spacing:0em;}.cls-16{fill:#ccc;}</style><linearGradient id="Degradado_sin_nombre_20" x1="374.91" y1="201.1" x2="374.91" y2="-1.09" gradientUnits="userSpaceOnUse"><stop offset="0" stop-color="#662d91"/><stop offset="0.98" stop-color="aqua"/></linearGradient></defs><rect class="cls-1" x="-10.09" y="-10.6" width="770" height="1354"/><path class="cls-2" d="M759.91-4.1h-770v204h3.87A74.7,74.7,0,0,1,64.58,149H685.24A74.68,74.68,0,0,1,756,199.9h3.88Z"/><text class="cls-3" transform="translate(98.81 83.99)">Configuración</text><path class="cls-4" d="M82.43,72.93H58L68.71,62.16a1.47,1.47,0,0,0,0-2.09,1.49,1.49,0,0,0-2.09,0L53.34,73.36a1.39,1.39,0,0,0-.32.48A1.48,1.48,0,0,0,53,75a1.39,1.39,0,0,0,.32.48L66.62,88.73a1.49,1.49,0,0,0,1,.44,1.48,1.48,0,0,0,1-2.52L58,75.88H82.43a1.48,1.48,0,1,0,0-2.95Z"/><path class="cls-4" d="M634.33,137.87a14.15,14.15,0,0,1-6.73-1.72l-15.12-8.25a14,14,0,0,1-1.93-1.27,32.92,32.92,0,0,1-8.67,2.72,39.05,39.05,0,0,1-6.5.54,47.48,47.48,0,0,1-22.81-6.29c-10.77-5.87-18-13.71-21.41-23.31-3.6-10.05-2.57-20.75,3-30.94a37.69,37.69,0,0,1,16.44-15.82,53.21,53.21,0,0,1,19.12-5.48c.23-.34.55-.85.94-1.56a14.09,14.09,0,0,1,2.91-3.7A14,14,0,0,1,595.15,38l7-12.86a14.08,14.08,0,0,1,19.11-5.62l15.12,8.25A13.77,13.77,0,0,1,638.33,29,32.6,32.6,0,0,1,647,26.32c9.51-1.62,19.37.32,29.31,5.74,10.76,5.87,18,13.71,21.41,23.3v0c3.59,10.05,2.56,20.75-3,30.93a37.77,37.77,0,0,1-16.44,15.83,53.2,53.2,0,0,1-19.12,5.47c-.23.35-.55.86-.94,1.57a14,14,0,0,1-2.91,3.69,14.28,14.28,0,0,1-1.58,4.8l-7,12.86A14.1,14.1,0,0,1,634.33,137.87ZM610.73,125l.34.28a13.11,13.11,0,0,0,2.06,1.4L628.25,135a12.74,12.74,0,0,0,17.27-5.08l7-12.86a12.88,12.88,0,0,0,1.46-4.57l0-.26.19-.17a12.56,12.56,0,0,0,2.8-3.49,19.23,19.23,0,0,1,1.19-1.93l.15-.21.26-.06.21,0h.07a51.85,51.85,0,0,0,18.76-5.35,36.35,36.35,0,0,0,15.86-15.27c5.37-9.84,6.37-20.15,2.91-29.82v0c-3.32-9.26-10.31-16.86-20.77-22.56-9.67-5.27-19.24-7.16-28.45-5.6a32,32,0,0,0-8.68,2.79l-.39.19-.34-.28a12.24,12.24,0,0,0-2.06-1.4l-15.12-8.24a12.72,12.72,0,0,0-17.27,5.08l-7,12.85a12.83,12.83,0,0,0-1.47,4.57l0,.26-.2.17a13.08,13.08,0,0,0-2.8,3.49,21.72,21.72,0,0,1-1.18,1.94l-.16.21-.25,0-.22.05H590a51.91,51.91,0,0,0-18.77,5.35A36.33,36.33,0,0,0,555.34,70c-5.37,9.84-6.37,20.16-2.9,29.84,3.32,9.27,10.31,16.87,20.78,22.58,7.45,4.06,14.9,6.12,22.16,6.12a37.58,37.58,0,0,0,6.28-.53,31.47,31.47,0,0,0,8.68-2.78Z"/><path class="cls-4" d="M634.33,134.62a10.75,10.75,0,0,1-5.17-1.33L614,125.05a11.16,11.16,0,0,1-3-2.36,29.64,29.64,0,0,1-9.74,3.45,34.83,34.83,0,0,1-6,.5,44.32,44.32,0,0,1-21.25-5.89c-10-5.48-16.75-12.73-19.91-21.55C550.94,90,551.9,80.26,557,70.91a34.48,34.48,0,0,1,15-14.48,49.85,49.85,0,0,1,18.2-5.16,7.83,7.83,0,0,0,1.35-.35A15.8,15.8,0,0,0,593.5,48a10.76,10.76,0,0,1,3.18-3.59,10.72,10.72,0,0,1,1.32-4.9l7-12.86a10.85,10.85,0,0,1,14.7-4.32l15.12,8.25a10.63,10.63,0,0,1,3,2.36,29.43,29.43,0,0,1,9.74-3.46c8.78-1.49,17.93.33,27.22,5.39,10,5.48,16.73,12.73,19.9,21.54h0v0h0c3.28,9.15,2.32,18.93-2.78,28.29a34.51,34.51,0,0,1-15,14.47,49.87,49.87,0,0,1-18.2,5.17,7.31,7.31,0,0,0-1.35.35,15,15,0,0,0-1.9,2.87,10.86,10.86,0,0,1-3.17,3.6,10.85,10.85,0,0,1-1.33,4.89l-7,12.86A10.85,10.85,0,0,1,634.33,134.62Zm-22-17.54,1.09,1.87a6.66,6.66,0,0,0,2.6,2.53l15.13,8.25a6.7,6.7,0,0,0,3.22.82,6.79,6.79,0,0,0,6-3.52l7-12.86a6.83,6.83,0,0,0,.8-3.86L648,109l1.17-.64a6.8,6.8,0,0,0,2.65-2.67,15.07,15.07,0,0,1,3-4.16l.12-.11.14-.08a8.66,8.66,0,0,1,3-1l.17,0A45.83,45.83,0,0,0,675,95.61a30.47,30.47,0,0,0,13.32-12.8c4.53-8.3,5.4-16.93,2.53-25h0C688,50,682,43.47,672.8,38.48c-8.46-4.62-16.74-6.28-24.59-4.95a25.13,25.13,0,0,0-9.83,3.86l-1.8,1.19-1.08-1.86a6.75,6.75,0,0,0-2.61-2.53l-15.12-8.25a6.78,6.78,0,0,0-9.19,2.7l-7,12.86a6.65,6.65,0,0,0-.8,3.85l.12,1.32-1.16.65A6.64,6.64,0,0,0,597.07,50a15,15,0,0,1-3,4.16l-.12.1-.13.08a8.52,8.52,0,0,1-3,1l-.18,0a45.88,45.88,0,0,0-16.81,4.75,30.52,30.52,0,0,0-13.32,12.8c-4.53,8.3-5.4,16.93-2.52,25,2.81,7.85,8.88,14.37,18,19.35a40.38,40.38,0,0,0,19.31,5.4,32,32,0,0,0,5.28-.44,25.48,25.48,0,0,0,9.84-3.86ZM591.76,50.85Z"/><rect class="cls-4" x="609.09" y="31.66" width="18.98" height="21.56" rx="2.17" transform="translate(285.11 565.16) rotate(-61.39)"/><path class="cls-4" d="M615.39,101.62l-14.61-8a2.15,2.15,0,0,0-2.92.84h0c-1.32,2.34-2.91,3.68-4.88,4.1a8.73,8.73,0,0,1-6.2-1c-2.56-1.4-4.07-3.1-4.61-5.2s-.11-4.51,1.35-7.19a13.86,13.86,0,0,1,5.54-5.66,29.07,29.07,0,0,1,8.67-3c6.18-1,10.58-2.23,13.43-3.84s5.84-5,8.72-10.21h0a2.17,2.17,0,0,0-.86-2.95l-15-8.16a2.17,2.17,0,0,0-2.94.86h0A19.18,19.18,0,0,1,597,57.74a11.75,11.75,0,0,1-5.55,2.12l-.17,0A41.29,41.29,0,0,0,576,64.17a26,26,0,0,0-11.35,10.89c-3.93,7.22-4.69,14.36-2.23,21.21s7.77,12.44,15.9,16.87a35.69,35.69,0,0,0,17.1,4.83,27,27,0,0,0,4.51-.37c7-1.19,12.51-5.46,16.31-12.7h0a2.34,2.34,0,0,0,.21-.63l.06-.36A2.16,2.16,0,0,0,615.39,101.62Z"/><path class="cls-4" d="M686.49,59.39c-2.42-6.76-7.77-12.44-15.89-16.87-7.54-4.11-14.81-5.61-21.62-4.45-7,1.19-12.51,5.46-16.31,12.7h0a2.18,2.18,0,0,0-.22.62l-.06.37A2.14,2.14,0,0,0,633.48,54l14.61,8a2.17,2.17,0,0,0,2.93-.84h0c1.31-2.35,2.91-3.69,4.87-4.1a8.77,8.77,0,0,1,6.21,1c2.55,1.39,4.06,3.09,4.6,5.19s.11,4.51-1.35,7.19a13.83,13.83,0,0,1-5.54,5.67,28.72,28.72,0,0,1-8.66,3c-6.19,1-10.58,2.23-13.44,3.85s-5.84,5-8.71,10.21h0a2.16,2.16,0,0,0,.85,3l15,8.17a2.17,2.17,0,0,0,2.94-.87h0a19.11,19.11,0,0,1,4.12-5.54,11.69,11.69,0,0,1,5.55-2.12l.18,0a41.43,41.43,0,0,0,15.3-4.29,26,26,0,0,0,11.35-10.9C688.2,73.38,689,66.25,686.49,59.39Z"/><rect class="cls-4" x="620.8" y="102.45" width="18.98" height="21.56" rx="2.17" transform="translate(229.07 612.34) rotate(-61.39)"/><path class="cls-4" d="M662.76-10.55,641.7,27.54a.54.54,0,0,0,.21.74.58.58,0,0,0,.26.06.55.55,0,0,0,.48-.28L664-10.55Z"/><path class="cls-4" d="M659.2-10.55l-22.11,40a.54.54,0,0,0,.22.73.48.48,0,0,0,.26.07A.53.53,0,0,0,638,30l22.4-40.51Z"/><path class="cls-4" d="M638.79-10.55,622,19.86a.53.53,0,0,0,.21.73.48.48,0,0,0,.26.07.55.55,0,0,0,.48-.28L640-10.55Z"/><path class="cls-4" d="M693.35-10.55l-17,30.9a.54.54,0,0,0,.21.74.59.59,0,0,0,.26.07.57.57,0,0,0,.48-.28l17.3-31.43Z"/><path class="cls-4" d="M594,149.55,605.81,128a.54.54,0,0,0-.95-.52l-12.14,22.06Z"/><path class="cls-4" d="M599.91,149.55,611.77,128a.54.54,0,0,0-.95-.52l-12.14,22.06Z"/><path class="cls-4" d="M627.22,149.55l6.49-11.78a.54.54,0,0,0-1-.53L626,149.55Z"/><path class="cls-4" d="M649.57,146.13a.58.58,0,0,0,.26.06.52.52,0,0,0,.47-.28l17.37-31.54a.54.54,0,0,0-.21-.74.55.55,0,0,0-.74.21l-17.36,31.55A.54.54,0,0,0,649.57,146.13Z"/><path class="cls-4" d="M701.56-10.55l-23.9,43.16a1.63,1.63,0,0,0,2.85,1.57l24.76-44.73Z"/><path class="cls-4" d="M698.55-10.55l-23.4,42.18a.55.55,0,0,0,.21.74.68.68,0,0,0,.27.07.53.53,0,0,0,.47-.28l23.69-42.71Z"/><path class="cls-4" d="M707.06-10.55l-25.3,45.62a.54.54,0,0,0,.21.73.54.54,0,0,0,.27.07.53.53,0,0,0,.47-.28L708.3-10.55Z"/><path class="cls-4" d="M549.28,149.55l16.58-30A1.63,1.63,0,1,0,563,118l-17.45,31.52Z"/><path class="cls-4" d="M543.89,149.55l18.85-34a.54.54,0,0,0-1-.53l-19.14,34.52Z"/><path class="cls-4" d="M552.34,149.55l16.2-29.21a.54.54,0,0,0-.95-.52L551.1,149.55Z"/><path class="cls-4" d="M709.91-3.79,698.53,16.89a.53.53,0,0,0,.21.73.48.48,0,0,0,.26.07.55.55,0,0,0,.48-.28L709.91-1.54Z"/><path class="cls-4" d="M577.15,52.05a.48.48,0,0,1-.26-.07.54.54,0,0,1-.22-.73L594,19.7a.54.54,0,0,1,.74-.21.53.53,0,0,1,.21.73L577.62,51.77A.53.53,0,0,1,577.15,52.05Z"/><path class="cls-4" d="M586.36,49.34a.48.48,0,0,1-.26-.07.54.54,0,0,1-.22-.73L603.25,17a.54.54,0,0,1,.74-.21.53.53,0,0,1,.21.73L586.83,49.06A.53.53,0,0,1,586.36,49.34Z"/><path class="cls-4" d="M539.33,149.55l9.61-17.46a.53.53,0,0,0-.21-.73.54.54,0,0,0-.74.21l-9.89,18Z"/><path class="cls-4" d="M596.65,16.3a.48.48,0,0,1-.26-.07.54.54,0,0,1-.22-.74l6.25-11.25a.55.55,0,0,1,.74-.21.54.54,0,0,1,.21.74L597.12,16A.53.53,0,0,1,596.65,16.3Z"/><path class="cls-4" d="M618.49-10.55,608.71,7.26a.55.55,0,0,0,.22.74.58.58,0,0,0,.26.06.53.53,0,0,0,.47-.28l10.07-18.33Z"/><path class="cls-4" d="M558.72,149.55l12.42-22.62a.54.54,0,1,0-.95-.52l-12.7,23.14Z"/><rect class="cls-5" x="97.91" y="318.9" width="549.5" height="224" rx="12"/><text class="cls-6" transform="translate(97.32 273.51)">Gene<tspan class="cls-7" x="72.4" y="0">r</tspan><tspan x="84.13" y="0">al</tspan></text><rect class="cls-5" x="96.88" y="649.9" width="549.5" height="522" rx="12"/><text class="cls-6" transform="translate(95.32 611.51)">Gene<tspan class="cls-7" x="72.4" y="0">r</tspan><tspan x="84.13" y="0">al</tspan></text><line class="cls-8" x1="99.91" y1="429.9" x2="649.91" y2="429.9"/><line class="cls-8" x1="99.91" y1="753.9" x2="649.91" y2="753.9"/><line class="cls-8" x1="99.91" y1="858.9" x2="649.91" y2="858.9"/><line class="cls-8" x1="99.91" y1="963.9" x2="649.91" y2="963.9"/><line class="cls-8" x1="99.91" y1="1067.9" x2="649.91" y2="1067.9"/><text class="cls-9" transform="translate(203.37 1126.65)"><tspan class="cls-10">L</tspan><tspan x="12.56" y="0">ogout</tspan></text><path class="cls-11" d="M160.1,1119.81h0l0-.06,0,0,0-.08h0a.2.2,0,0,0,0-.08h0l0-.08v0a.24.24,0,0,0,0-.08,0,0,0,0,1,0,0,.15.15,0,0,1,0-.07.41.41,0,0,0,0-.11.38.38,0,0,0,0-.1s0,0,0-.07a0,0,0,0,0,0,0,.29.29,0,0,0,0-.09h0l0-.08v0l0-.08h0l0-.07,0,0,0-.07h0l-.07-.08-6-6a1,1,0,0,0-1.47,1.48l4.22,4.22H140a1,1,0,0,0-1,1,1,1,0,0,0,1,1h16.79l-4.19,4.19a1,1,0,0,0,0,1.47,1,1,0,0,0,1.46,0l6-6Z"/><path class="cls-11" d="M138.42,1106.38h7.76a1,1,0,1,0,0-2.08h-7.76a5.66,5.66,0,0,0-5.65,5.65v18.41a5.66,5.66,0,0,0,5.65,5.65h7.63a1,1,0,1,0,0-2.08h-7.63a3.57,3.57,0,0,1-3.57-3.57V1110A3.58,3.58,0,0,1,138.42,1106.38Z"/><text class="cls-9" transform="translate(189.37 814.68)">Sto<tspan class="cls-12" x="39.12" y="0">r</tspan><tspan x="48.59" y="0">age</tspan></text><text class="cls-9" transform="translate(189.37 707.68)">User and <tspan class="cls-12" x="108.28" y="0">A</tspan><tspan class="cls-13" x="126.19" y="0">ccou</tspan><tspan class="cls-14" x="180.44" y="0">n</tspan><tspan x="195.35" y="0">t</tspan></text><text class="cls-15" transform="translate(189.37 492.68)">A<tspan class="cls-13" x="17.92" y="0">uto check</tspan></text><text class="cls-9" transform="translate(189.37 380.68)">Sound</text><text class="cls-9" transform="translate(189.37 917.68)"><tspan class="cls-12">A</tspan><tspan x="17.92" y="0">ditional Settings</tspan></text><text class="cls-9" transform="translate(189.37 1020.68)">Rate App</text><g id="surface1"><path class="cls-11" d="M158.93,799.31v0c0-.28,0-.57,0-.9a3.09,3.09,0,0,0-2.9-3,12,12,0,0,1-8.16-3.43v0a1.88,1.88,0,0,0-2.54,0l0,0a11.91,11.91,0,0,1-8.15,3.43,3.09,3.09,0,0,0-2.9,3c0,.33,0,.62,0,.9v.06c-.07,3.41-.15,7.66,1.27,11.52a14.85,14.85,0,0,0,3.52,5.48,18.56,18.56,0,0,0,6.89,4.07l.28.08a2.12,2.12,0,0,0,.82,0l.28-.08a18.4,18.4,0,0,0,6.88-4.08,14.65,14.65,0,0,0,3.52-5.48C159.07,807,159,802.73,158.93,799.31Zm-2.89,11c-1.49,4.07-4.56,6.86-9.35,8.54h-.06a.38.38,0,0,1-.15,0h0c-4.8-1.68-7.86-4.47-9.36-8.53-1.31-3.56-1.24-7.46-1.17-10.9v0c0-.3,0-.61,0-1a1.38,1.38,0,0,1,1.3-1.34,14.83,14.83,0,0,0,5.09-1.12,13.52,13.52,0,0,0,4.14-2.78.14.14,0,0,1,.21,0,13.56,13.56,0,0,0,4.15,2.78,14.83,14.83,0,0,0,5.09,1.12,1.36,1.36,0,0,1,1.29,1.34c0,.35,0,.66,0,1C157.29,802.79,157.36,806.7,156,810.26Z"/><path class="cls-11" d="M146.56,798.71a7.26,7.26,0,1,0,7.26,7.26A7.27,7.27,0,0,0,146.56,798.71Zm0,12.8a5.55,5.55,0,1,1,5.55-5.54A5.55,5.55,0,0,1,146.56,811.51Z"/><path class="cls-11" d="M148.64,803.71l-3.37,3.37-.91-.91a.85.85,0,0,0-1.21,0,.86.86,0,0,0,0,1.21l1.52,1.52a.87.87,0,0,0,.6.25.9.9,0,0,0,.61-.25l4-4a.85.85,0,0,0,0-1.21A.86.86,0,0,0,148.64,803.71Z"/></g><path class="cls-11" d="M601.17,894.24a2,2,0,0,1,1.42.58l7.85,7.85a6.37,6.37,0,0,1,0,9l-7.85,7.85a2,2,0,1,1-2.83-2.83l7.85-7.85a2.34,2.34,0,0,0,0-3.32l-7.85-7.85a2,2,0,0,1,0-2.83A2,2,0,0,1,601.17,894.24Z"/><path class="cls-11" d="M601.17,1003.24a2,2,0,0,1,1.42.58l7.85,7.85a6.37,6.37,0,0,1,0,9l-7.85,7.85a2,2,0,1,1-2.83-2.83l7.85-7.85a2.34,2.34,0,0,0,0-3.32l-7.85-7.85a2,2,0,0,1,0-2.83A2,2,0,0,1,601.17,1003.24Z"/><path class="cls-11" d="M601.17,793.24a2,2,0,0,1,1.42.58l7.85,7.85a6.37,6.37,0,0,1,0,9l-7.85,7.85a2,2,0,1,1-2.83-2.83l7.85-7.85a2.34,2.34,0,0,0,0-3.32l-7.85-7.85a2,2,0,0,1,0-2.83A2,2,0,0,1,601.17,793.24Z"/><path class="cls-11" d="M601.17,688.24a2,2,0,0,1,1.42.58l7.85,7.85a6.37,6.37,0,0,1,0,9l-7.85,7.85a2,2,0,1,1-2.83-2.83l7.85-7.85a2.34,2.34,0,0,0,0-3.32l-7.85-7.85a2,2,0,0,1,0-2.83A2,2,0,0,1,601.17,688.24Z"/><rect class="cls-16" x="569.91" y="362.4" width="43" height="14" rx="7"/><circle class="cls-11" cx="603.91" cy="369.4" r="14"/><rect class="cls-16" x="569.91" y="475.4" width="43" height="14" rx="7"/><circle class="cls-11" cx="603.91" cy="482.4" r="14"/><path class="cls-11" d="M146.39,700.39a6.59,6.59,0,1,0-4.66-1.93A6.36,6.36,0,0,0,146.39,700.39Zm-3.53-10.1a5,5,0,1,1-1.46,3.52A4.76,4.76,0,0,1,142.86,690.29Z"/><path class="cls-11" d="M157.91,708.25a16.72,16.72,0,0,0-.22-1.73,13.83,13.83,0,0,0-.43-1.74,9.27,9.27,0,0,0-.71-1.62,6.13,6.13,0,0,0-1.08-1.4,4.59,4.59,0,0,0-1.55-1,5.27,5.27,0,0,0-2-.36,2,2,0,0,0-1.07.45l-1.12.72a6.38,6.38,0,0,1-1.44.64,5.68,5.68,0,0,1-1.76.28,5.74,5.74,0,0,1-1.77-.28,6.59,6.59,0,0,1-1.44-.64c-.41-.26-.79-.5-1.11-.72a2,2,0,0,0-1.07-.45,5.32,5.32,0,0,0-2,.36,4.65,4.65,0,0,0-1.54,1,6.13,6.13,0,0,0-1.08,1.4,8,8,0,0,0-.71,1.62,12.3,12.3,0,0,0-.43,1.74,16.72,16.72,0,0,0-.22,1.73c0,.52-.06,1.06-.06,1.61a4.58,4.58,0,0,0,1.35,3.44,4.86,4.86,0,0,0,3.48,1.26h13.16a4.84,4.84,0,0,0,3.47-1.26,4.54,4.54,0,0,0,1.35-3.44C158,709.31,157.94,708.77,157.91,708.25Zm-2.4,3.88a3.25,3.25,0,0,1-2.37.83H140a3.28,3.28,0,0,1-2.37-.82,3,3,0,0,1-.85-2.28c0-.51,0-1,.05-1.5a13.9,13.9,0,0,1,.2-1.56,12.25,12.25,0,0,1,.37-1.53A7,7,0,0,1,138,704a4.67,4.67,0,0,1,.79-1,3.05,3.05,0,0,1,1-.64A3.87,3.87,0,0,1,141,702l.32.2,1.13.72a7.4,7.4,0,0,0,6.32.81,7.56,7.56,0,0,0,1.82-.81l1.12-.72.32-.2a3.81,3.81,0,0,1,1.26.25,3,3,0,0,1,1,.64,4.39,4.39,0,0,1,.79,1,7,7,0,0,1,.59,1.32,12.25,12.25,0,0,1,.37,1.53,13.9,13.9,0,0,1,.2,1.56h0c0,.48.05,1,.05,1.5A3,3,0,0,1,155.51,712.13Z"/><path class="cls-11" d="M149.26,354.51a1.12,1.12,0,0,0-1.18.14l-10.78,8.62h-5.15a2.21,2.21,0,0,0-2.21,2.22v8.86a2.22,2.22,0,0,0,2.21,2.22h5.15l10.78,8.62a1.11,1.11,0,0,0,.69.24,1.06,1.06,0,0,0,.49-.11,1.1,1.1,0,0,0,.62-1V355.51A1.12,1.12,0,0,0,149.26,354.51Zm-12.67,19.84h-4.44v-8.86h4.44ZM147.67,382l-8.87-7.1v-10l8.87-7.09Z"/><path class="cls-11" d="M155.49,362.08a1.11,1.11,0,0,0-1.55,1.58,8.86,8.86,0,0,1,0,12.52,1.1,1.1,0,0,0,0,1.57,1.11,1.11,0,0,0,.78.32,1.06,1.06,0,0,0,.78-.32,11,11,0,0,0,0-15.67Z"/><path class="cls-11" d="M158.62,359a1.11,1.11,0,0,0-1.57,0,1.1,1.1,0,0,0,0,1.56,13.24,13.24,0,0,1,0,18.77,1.11,1.11,0,0,0,.78,1.9,1.13,1.13,0,0,0,.78-.32,15.45,15.45,0,0,0,0-21.92Z"/><path class="cls-11" d="M159,472.92l-14,14a2.65,2.65,0,0,1-3.74,0l-7.21-7.21a2.65,2.65,0,0,1,3.75-3.75l5.33,5.34,12.09-12.09a2.65,2.65,0,0,1,3.75,3.75Z"/><path class="cls-11" d="M147.36,923.91h-1.6a2.36,2.36,0,0,1-2.36-2.35V921a10.2,10.2,0,0,1-1.6-.67l-.39.39a2.36,2.36,0,0,1-3.33,0L137,919.6a2.35,2.35,0,0,1,0-3.33l.38-.38a10.27,10.27,0,0,1-.66-1.61h-.54a2.36,2.36,0,0,1-2.36-2.35v-1.6a2.36,2.36,0,0,1,2.36-2.36h.54a11.21,11.21,0,0,1,.66-1.6L137,906a2.35,2.35,0,0,1,0-3.33l1.13-1.13a2.35,2.35,0,0,1,3.33,0l.39.38a10.16,10.16,0,0,1,1.6-.66v-.55a2.36,2.36,0,0,1,2.36-2.35h1.6a2.36,2.36,0,0,1,2.36,2.35v.55a10.57,10.57,0,0,1,1.6.66l.38-.38a2.35,2.35,0,0,1,3.33,0l1.14,1.13a2.36,2.36,0,0,1,0,3.33l-.39.39a10.2,10.2,0,0,1,.67,1.6H157a2.36,2.36,0,0,1,2.36,2.36v1.6a2.36,2.36,0,0,1-2.36,2.35h-.54a10.31,10.31,0,0,1-.67,1.61l.39.38a2.36,2.36,0,0,1,0,3.33L155,920.74a2.35,2.35,0,0,1-3.33,0l-.38-.39a10.62,10.62,0,0,1-1.6.67v.54A2.36,2.36,0,0,1,147.36,923.91Zm-5.31-5.13a8.86,8.86,0,0,0,2.29,1,.74.74,0,0,1,.56.72v1.11a.86.86,0,0,0,.86.86h1.6a.87.87,0,0,0,.86-.86v-1.11a.74.74,0,0,1,.56-.72,9.16,9.16,0,0,0,2.29-1,.74.74,0,0,1,.91.11l.78.79a.85.85,0,0,0,1.21,0l1.14-1.14a.85.85,0,0,0,0-1.21l-.79-.78a.76.76,0,0,1-.11-.91,9.16,9.16,0,0,0,.95-2.29.75.75,0,0,1,.73-.56H157a.87.87,0,0,0,.86-.86v-1.6a.86.86,0,0,0-.86-.86h-1.1a.75.75,0,0,1-.73-.56,8.86,8.86,0,0,0-.95-2.29.75.75,0,0,1,.11-.91l.79-.79a.85.85,0,0,0,0-1.21L154,902.58a.85.85,0,0,0-1.21,0l-.78.78a.76.76,0,0,1-.91.12,8.47,8.47,0,0,0-2.29-1,.76.76,0,0,1-.56-.73v-1.11a.86.86,0,0,0-.86-.85h-1.6a.85.85,0,0,0-.86.85v1.11a.76.76,0,0,1-.56.73,8.22,8.22,0,0,0-2.29,1,.76.76,0,0,1-.91-.12l-.79-.78a.85.85,0,0,0-1.21,0L138,903.71a.85.85,0,0,0,0,1.21l.78.79a.76.76,0,0,1,.12.91,8.22,8.22,0,0,0-.95,2.29.76.76,0,0,1-.73.56h-1.1a.85.85,0,0,0-.86.86v1.6a.86.86,0,0,0,.86.86h1.1a.76.76,0,0,1,.73.56,8.47,8.47,0,0,0,.95,2.29.76.76,0,0,1-.12.91l-.78.78a.85.85,0,0,0,0,1.21l1.13,1.14a.85.85,0,0,0,1.21,0l.79-.79a.76.76,0,0,1,.91-.11Z"/><path class="cls-11" d="M146.56,916.69a5.57,5.57,0,1,1,5.56-5.56A5.57,5.57,0,0,1,146.56,916.69Zm0-9.63a4.07,4.07,0,1,0,4.06,4.07,4.08,4.08,0,0,0-4.06-4.07Z"/><path class="cls-11" d="M152.31,1027.19a.54.54,0,0,0-.54.54.55.55,0,1,0,1.09,0,.54.54,0,0,0-.55-.54Z"/><path class="cls-11" d="M131.48,1023.49h11v4.63a1.85,1.85,0,0,0,1.85,1.85h15.89a1.85,1.85,0,0,0,1.85-1.85v-28.5a1.85,1.85,0,0,0-1.85-1.85H144.37a1.85,1.85,0,0,0-1.85,1.85v9.68h-9.66a1.85,1.85,0,0,0-1.85,1.85V1023A.47.47,0,0,0,131.48,1023.49Zm12-23.87a.89.89,0,0,1,.89-.89h15.89a.89.89,0,0,1,.89.89v28.5a.89.89,0,0,1-.89.89H144.37a.88.88,0,0,1-.89-.89v-4.63h.94v4.11a.47.47,0,0,0,.47.47h3.57a.46.46,0,0,0,.46-.35l.28-1a.34.34,0,0,1,.33-.25h5.56a.33.33,0,0,1,.33.25l.28,1a.48.48,0,0,0,.46.35h3.57a.47.47,0,0,0,.48-.47v-27.45a.47.47,0,0,0-.48-.48H144.89a.47.47,0,0,0-.47.48v9.15h-.94Zm7.46,23.87a1.85,1.85,0,0,0,1.85-1.85v-11.86a.48.48,0,0,0-.48-.48h-2.82v-4.57a.49.49,0,0,0-.48-.48.49.49,0,0,0-.38.18l-3.26,4v-7.84h13.88v26.49h-2.72l-.18-.67a1.31,1.31,0,0,0-1.26-1h-5.56a1.29,1.29,0,0,0-1.25,1l-.18.67h-2.73v-3.63Zm-19-12.34a.9.9,0,0,1,.9-.89h12.07a.46.46,0,0,0,.37-.18l3.23-4v3.69a.47.47,0,0,0,.48.48h2.82v11.38a.89.89,0,0,1-.89.89H132Z"/><path class="cls-11" d="M144.37,1017a.46.46,0,0,0-.12-.49l-.83-.81.2-1.14a.49.49,0,0,0-.7-.51l-1,.54-1-.53a.47.47,0,0,0-.65.2.45.45,0,0,0,0,.3l.2,1.14-.83.81a.47.47,0,0,0,0,.67.42.42,0,0,0,.27.14l1.15.17.51,1a.48.48,0,0,0,.64.21.45.45,0,0,0,.22-.21l.51-1,1.14-.17A.45.45,0,0,0,144.37,1017Zm-1.92-.42a.48.48,0,0,0-.36.26l-.19.39-.19-.39a.48.48,0,0,0-.36-.26l-.43-.07.31-.3a.47.47,0,0,0,.13-.42l-.07-.43.39.2a.49.49,0,0,0,.44,0l.39-.2-.08.43a.51.51,0,0,0,.14.42l.31.3Z"/><path class="cls-11" d="M145.84,1017.32l1.15.17.51,1a.48.48,0,0,0,.64.21.45.45,0,0,0,.22-.21l.51-1,1.14-.17a.47.47,0,0,0,.27-.81l-.83-.81.2-1.14a.48.48,0,0,0-.39-.55.55.55,0,0,0-.31,0l-1,.54-1-.53a.47.47,0,0,0-.65.2.45.45,0,0,0,0,.3l.2,1.14-.83.81a.47.47,0,0,0,0,.67.42.42,0,0,0,.27.14Zm1.42-1.11a.47.47,0,0,0,.13-.42l-.07-.43.38.2a.51.51,0,0,0,.45,0l.39-.2-.08.43a.51.51,0,0,0,.14.42l.31.3-.43.07a.48.48,0,0,0-.36.26l-.19.39-.19-.39a.48.48,0,0,0-.36-.26l-.44-.07Z"/><path class="cls-11" d="M137.39,1015.7l.2-1.14a.48.48,0,0,0-.7-.5l-1,.53-1-.53a.47.47,0,0,0-.65.2.45.45,0,0,0,0,.3l.2,1.14-.83.81a.47.47,0,0,0,0,.67.42.42,0,0,0,.28.14l1.14.17.51,1a.48.48,0,0,0,.64.21.45.45,0,0,0,.22-.21l.51-1,1.14-.17a.47.47,0,0,0,.41-.54.42.42,0,0,0-.14-.27Zm-1,.88a.48.48,0,0,0-.36.26l-.19.39-.19-.39a.48.48,0,0,0-.36-.26l-.43-.07.31-.3a.52.52,0,0,0,.14-.43l-.08-.42.39.2a.49.49,0,0,0,.44,0l.39-.2-.07.42a.48.48,0,0,0,.13.43l.32.3Z"/></svg>