<svg id="Capa_1" data-name="Capa 1" xmlns="http://www.w3.org/2000/svg" xmlns:xlink="http://www.w3.org/1999/xlink" viewBox="0 0 750 1334"><defs><style>.cls-1{fill:#f2f2f2;}.cls-2{fill:url(#Degradado_sin_nombre_20);}.cls-3{font-size:30px;font-family:Poppins-SemiBold, Poppins;font-weight:600;}.cls-3,.cls-4{fill:#fff;}.cls-5{fill:none;stroke-miterlimit:10;stroke-width:2px;stroke:url(#Degradado_sin_nombre_20-2);}.cls-6{font-size:27px;fill:#333;font-family:Poppins-Light, Poppins;font-weight:300;}.cls-7{letter-spacing:0.39em;}.cls-8{letter-spacing:0.54em;}.cls-9{letter-spacing:0.22em;}.cls-10{letter-spacing:0.22em;}.cls-11{letter-spacing:0.05em;}.cls-12{letter-spacing:0.05em;}.cls-13{letter-spacing:1.47em;}.cls-14{letter-spacing:1.47em;}.cls-15{letter-spacing:0.07em;}.cls-16{letter-spacing:0.07em;}.cls-17{letter-spacing:-0.04em;}.cls-18{letter-spacing:0.06em;}.cls-19{letter-spacing:0.06em;}.cls-20{letter-spacing:0.65em;}.cls-21{letter-spacing:0.65em;}.cls-22{letter-spacing:0.85em;}.cls-23{letter-spacing:0.85em;}.cls-24{letter-spacing:0.04em;}.cls-25{letter-spacing:0.04em;}.cls-26{letter-spacing:0.35em;}.cls-27{letter-spacing:0.35em;}.cls-28{letter-spacing:0.28em;}.cls-29{letter-spacing:0.28em;}.cls-30{letter-spacing:0.54em;}</style><linearGradient id="Degradado_sin_nombre_20" x1="380" y1="201.69" x2="380" y2="-0.5" gradientUnits="userSpaceOnUse"><stop offset="0" stop-color="#662d91"/><stop offset="0.98" stop-color="aqua"/></linearGradient><linearGradient id="Degradado_sin_nombre_20-2" x1="32.92" y1="745.5" x2="727.08" y2="745.5" xlink:href="#Degradado_sin_nombre_20"/></defs><rect class="cls-1" x="-5" y="-10" width="770" height="1354"/><path class="cls-2" d="M765-3.5H-5v204h3.88a74.68,74.68,0,0,1,70.79-50.93H690.33a74.68,74.68,0,0,1,70.79,50.93H765Z"/><text class="cls-3" transform="translate(103.9 84.59)">Términos y Condiciomes</text><path class="cls-4" d="M87.52,73.52H63L73.81,62.76a1.49,1.49,0,0,0,0-2.09,1.47,1.47,0,0,0-2.09,0L58.43,74a1.61,1.61,0,0,0-.32.48,1.45,1.45,0,0,0,0,1.12,1.61,1.61,0,0,0,.32.48L71.72,89.33a1.45,1.45,0,0,0,1,.43,1.48,1.48,0,0,0,1-.43,1.49,1.49,0,0,0,0-2.09L63,76.48H87.52a1.48,1.48,0,0,0,0-3Z"/><path class="cls-4" d="M639.43,138.46a14,14,0,0,1-6.73-1.72l-15.12-8.24a14.71,14.71,0,0,1-1.94-1.27,33,33,0,0,1-8.66,2.71,38.11,38.11,0,0,1-6.5.55,47.63,47.63,0,0,1-22.82-6.29c-10.76-5.87-18-13.71-21.41-23.31-3.6-10-2.56-20.75,3-30.94a37.66,37.66,0,0,1,16.44-15.83,53,53,0,0,1,19.11-5.47c.23-.35.55-.86.94-1.57a14.25,14.25,0,0,1,2.91-3.69,14.3,14.3,0,0,1,1.59-4.8l7-12.86a14.08,14.08,0,0,1,19.11-5.62l15.13,8.25a15.29,15.29,0,0,1,1.93,1.27,33,33,0,0,1,8.66-2.72c9.51-1.61,19.37.32,29.32,5.75,10.76,5.86,18,13.7,21.4,23.29v0c3.6,10.05,2.56,20.74-3,30.93a37.59,37.59,0,0,1-16.44,15.82,53.16,53.16,0,0,1-19.11,5.48c-.23.34-.55.85-.94,1.57a14.2,14.2,0,0,1-2.91,3.68,14.35,14.35,0,0,1-1.59,4.81l-7,12.85A14.09,14.09,0,0,1,639.43,138.46Zm-23.6-12.83.33.28a13.11,13.11,0,0,0,2.06,1.4l15.13,8.25a12.74,12.74,0,0,0,17.27-5.08l7-12.86A13,13,0,0,0,659.1,113l0-.25.19-.17a12.93,12.93,0,0,0,2.81-3.49,18.24,18.24,0,0,1,1.18-1.93l.15-.22.26,0,.21-.05H664a51.8,51.8,0,0,0,18.76-5.35,36.35,36.35,0,0,0,15.87-15.26c5.36-9.84,6.37-20.15,2.9-29.83v0c-3.32-9.26-10.31-16.85-20.77-22.56-9.67-5.27-19.24-7.15-28.44-5.59A31.47,31.47,0,0,0,643.63,31l-.4.2L642.9,31a13.11,13.11,0,0,0-2.06-1.4L625.71,21.3a12.73,12.73,0,0,0-17.27,5.08l-7,12.86A12.9,12.9,0,0,0,600,43.81l0,.26-.19.17a12.78,12.78,0,0,0-2.81,3.49,18.24,18.24,0,0,1-1.18,1.93l-.15.21-.26.06-.21,0h-.07a51.85,51.85,0,0,0-18.76,5.35A36.38,36.38,0,0,0,560.43,70.6c-5.36,9.84-6.37,20.15-2.9,29.83,3.32,9.28,10.32,16.87,20.78,22.58a46.29,46.29,0,0,0,22.17,6.12,37.45,37.45,0,0,0,6.27-.52,31.48,31.48,0,0,0,8.68-2.79Z"/><path class="cls-4" d="M639.43,135.21a10.93,10.93,0,0,1-5.18-1.32l-15.12-8.25a10.73,10.73,0,0,1-3-2.36,29.43,29.43,0,0,1-9.74,3.46,36,36,0,0,1-6,.5,44.38,44.38,0,0,1-21.26-5.89c-10.05-5.48-16.74-12.73-19.91-21.56C556,90.64,557,80.86,562.1,71.51a34.43,34.43,0,0,1,15-14.48,49.87,49.87,0,0,1,18.2-5.17,7.56,7.56,0,0,0,1.35-.35,15,15,0,0,0,1.9-2.87,10.76,10.76,0,0,1,3.17-3.6,10.84,10.84,0,0,1,1.32-4.89l7-12.86A10.82,10.82,0,0,1,624.81,23l15.12,8.24a11,11,0,0,1,3,2.37,29.43,29.43,0,0,1,9.74-3.46c8.78-1.49,17.94.33,27.22,5.39,10,5.48,16.74,12.72,19.9,21.54h0C703,66.22,702.06,76,697,85.35a34.48,34.48,0,0,1-15.05,14.48,50.06,50.06,0,0,1-18.2,5.17,7.88,7.88,0,0,0-1.35.34,15.59,15.59,0,0,0-1.9,2.88,10.62,10.62,0,0,1-3.17,3.59,10.85,10.85,0,0,1-1.32,4.9l-7,12.86A10.84,10.84,0,0,1,639.43,135.21Zm-22-17.53,1.08,1.87a6.75,6.75,0,0,0,2.61,2.53l15.12,8.24a6.77,6.77,0,0,0,9.19-2.7l7-12.86a6.73,6.73,0,0,0,.8-3.85l-.12-1.32,1.16-.65a6.76,6.76,0,0,0,2.66-2.67,15,15,0,0,1,3-4.15L660,102l.14-.08a8.43,8.43,0,0,1,3-1l.18,0a46.09,46.09,0,0,0,16.81-4.76,30.48,30.48,0,0,0,13.31-12.79c4.53-8.31,5.41-16.94,2.54-25v0c-2.81-7.85-8.88-14.37-18-19.35-8.47-4.62-16.74-6.29-24.6-5A25.5,25.5,0,0,0,643.47,38l-1.8,1.2-1.08-1.87A6.75,6.75,0,0,0,638,34.78l-15.12-8.25a6.78,6.78,0,0,0-9.19,2.7l-7,12.86a6.75,6.75,0,0,0-.8,3.86l.12,1.32-1.16.64a6.83,6.83,0,0,0-2.66,2.67,15.14,15.14,0,0,1-2.95,4.16l-.12.11-.14.08a8.66,8.66,0,0,1-3,1l-.18,0A45.88,45.88,0,0,0,579,60.65a30.5,30.5,0,0,0-13.31,12.8c-4.53,8.31-5.41,16.94-2.53,25,2.81,7.86,8.88,14.37,18,19.36,6.57,3.58,13.06,5.4,19.32,5.4a31,31,0,0,0,5.28-.45,25.19,25.19,0,0,0,9.83-3.86ZM596.86,51.45Z"/><rect class="cls-4" x="614.18" y="32.25" width="18.98" height="21.56" rx="2.17" transform="translate(287.24 569.94) rotate(-61.39)"/><path class="cls-4" d="M620.48,102.22l-14.6-8a2.17,2.17,0,0,0-2.93.84h0c-1.32,2.35-2.91,3.69-4.88,4.1a8.79,8.79,0,0,1-6.2-1c-2.56-1.4-4.06-3.1-4.6-5.2s-.12-4.51,1.34-7.19a13.85,13.85,0,0,1,5.55-5.67,28.9,28.9,0,0,1,8.66-3c6.19-1,10.58-2.23,13.43-3.84s5.84-5,8.72-10.22h0a2.16,2.16,0,0,0-.86-2.95l-15-8.17a2.17,2.17,0,0,0-2.94.87h0a19.51,19.51,0,0,1-4.12,5.55,11.79,11.79,0,0,1-5.56,2.11l-.17,0a41.38,41.38,0,0,0-15.3,4.29,26,26,0,0,0-11.35,10.9C565.77,82.88,565,90,567.47,96.87s7.78,12.44,15.9,16.87a35.84,35.84,0,0,0,17.11,4.83,26.07,26.07,0,0,0,4.51-.38c7-1.19,12.51-5.46,16.31-12.7h0a2.16,2.16,0,0,0,.21-.62l.07-.37A2.18,2.18,0,0,0,620.48,102.22Z"/><path class="cls-4" d="M691.59,60c-2.43-6.76-7.78-12.44-15.9-16.87-7.53-4.11-14.81-5.61-21.62-4.46-7,1.19-12.51,5.46-16.31,12.7h0a2.34,2.34,0,0,0-.21.63l-.07.36a2.18,2.18,0,0,0,1.1,2.29l14.6,8a2.17,2.17,0,0,0,2.93-.85h0c1.32-2.34,2.91-3.68,4.88-4.1a8.75,8.75,0,0,1,6.2,1c2.56,1.4,4.06,3.1,4.6,5.2s.12,4.51-1.35,7.19a13.74,13.74,0,0,1-5.54,5.66,28.91,28.91,0,0,1-8.66,3c-6.19,1-10.58,2.23-13.43,3.84s-5.84,5-8.72,10.22h0a2.16,2.16,0,0,0,.86,3l15,8.16a2.16,2.16,0,0,0,2.94-.86h0A19.36,19.36,0,0,1,657,98.52a11.9,11.9,0,0,1,5.56-2.12l.17,0A41.19,41.19,0,0,0,678,92.09,25.93,25.93,0,0,0,689.35,81.2C693.29,74,694,66.84,691.59,60Z"/><rect class="cls-4" x="625.9" y="103.05" width="18.98" height="21.56" rx="2.17" transform="translate(231.2 617.12) rotate(-61.39)"/><path class="cls-4" d="M667.85-10,646.79,28.13a.54.54,0,0,0,.22.74.48.48,0,0,0,.26.07.53.53,0,0,0,.47-.28L669.09-10Z"/><path class="cls-4" d="M664.29-10l-22.1,40a.54.54,0,0,0,.21.74.58.58,0,0,0,.26.06.56.56,0,0,0,.48-.27L665.53-10Z"/><path class="cls-4" d="M643.89-10,627.07,20.45a.55.55,0,0,0,.21.74.68.68,0,0,0,.27.07A.53.53,0,0,0,628,21L645.12-10Z"/><path class="cls-4" d="M698.45-10,681.43,21a.53.53,0,0,0,.22.73.48.48,0,0,0,.26.07.53.53,0,0,0,.47-.28L699.68-10Z"/><path class="cls-4" d="M599.05,150.14l11.85-21.53a.54.54,0,0,0-.21-.74.56.56,0,0,0-.74.22l-12.14,22Z"/><path class="cls-4" d="M605,150.14l11.85-21.53a.54.54,0,0,0-.21-.74.56.56,0,0,0-.74.22l-12.14,22Z"/><path class="cls-4" d="M632.32,150.14l6.48-11.78a.53.53,0,0,0-.21-.73.54.54,0,0,0-.74.21l-6.77,12.3Z"/><path class="cls-4" d="M654.66,146.72a.51.51,0,0,0,.26.07.55.55,0,0,0,.48-.28L672.77,115a.54.54,0,0,0-.22-.73.53.53,0,0,0-.73.21L654.45,146A.53.53,0,0,0,654.66,146.72Z"/><path class="cls-4" d="M706.65-10,682.76,33.2a1.62,1.62,0,0,0,.63,2.21,1.6,1.6,0,0,0,.79.2,1.63,1.63,0,0,0,1.42-.83L710.37-10Z"/><path class="cls-4" d="M703.64-10,680.25,32.23a.53.53,0,0,0,.21.73.48.48,0,0,0,.26.07.52.52,0,0,0,.47-.28L704.88-10Z"/><path class="cls-4" d="M712.15-10,686.86,35.66a.54.54,0,0,0,.21.74.59.59,0,0,0,.26.07.53.53,0,0,0,.47-.28L713.39-10Z"/><path class="cls-4" d="M554.37,150.14,571,120.2a1.62,1.62,0,0,0-2.84-1.58l-17.46,31.52Z"/><path class="cls-4" d="M549,150.14l18.85-34a.54.54,0,0,0-.21-.74.53.53,0,0,0-.73.22l-19.14,34.51Z"/><path class="cls-4" d="M557.44,150.14l16.19-29.2a.54.54,0,0,0-.21-.74.55.55,0,0,0-.74.21L556.2,150.14Z"/><path class="cls-4" d="M715-3.19,703.62,17.48a.55.55,0,0,0,.21.74.68.68,0,0,0,.26.07.57.57,0,0,0,.48-.28L715-.94Z"/><path class="cls-4" d="M582.24,52.64a.58.58,0,0,1-.26-.06.54.54,0,0,1-.21-.74l17.37-31.55a.54.54,0,0,1,.73-.21.55.55,0,0,1,.22.74L582.72,52.36A.55.55,0,0,1,582.24,52.64Z"/><path class="cls-4" d="M591.45,49.94a.59.59,0,0,1-.26-.07.54.54,0,0,1-.21-.74l17.37-31.54a.53.53,0,0,1,.73-.22.54.54,0,0,1,.21.74L591.93,49.66A.57.57,0,0,1,591.45,49.94Z"/><path class="cls-4" d="M544.43,150.14,554,132.69a.55.55,0,0,0-.22-.74.54.54,0,0,0-.73.21l-9.9,18Z"/><path class="cls-4" d="M601.74,16.89a.58.58,0,0,1-.26-.06.54.54,0,0,1-.21-.74l6.25-11.25a.54.54,0,1,1,.94.53l-6.24,11.25A.56.56,0,0,1,601.74,16.89Z"/><path class="cls-4" d="M623.59-10,613.81,7.86a.53.53,0,0,0,.21.73.48.48,0,0,0,.26.07.55.55,0,0,0,.48-.28L624.82-10Z"/><path class="cls-4" d="M563.82,150.14l12.41-22.61a.54.54,0,0,0-.21-.74.55.55,0,0,0-.74.21l-12.7,23.14Z"/><rect class="cls-4" x="33.92" y="182" width="692.17" height="1127" rx="60.17"/><rect class="cls-5" x="33.92" y="182" width="692.17" height="1127" rx="60.17"/><text class="cls-6" transform="translate(70.83 257.62)">Lorem<tspan class="cls-7" x="82.86" y="0"> </tspan><tspan x="100.77" y="0">ipsum</tspan><tspan class="cls-7" x="183.63" y="0"> </tspan><tspan x="201.54" y="0">dolor</tspan><tspan class="cls-7" x="270.39" y="0"> </tspan><tspan x="288.3" y="0">sit</tspan><tspan class="cls-7" x="317.86" y="0"> </tspan><tspan x="335.77" y="0">amet,</tspan><tspan class="cls-7" x="412.67" y="0"> </tspan><tspan x="430.57" y="0">consectetuer </tspan><tspan x="0" y="40">adipiscing</tspan><tspan class="cls-8" x="138.86" y="40"> </tspan><tspan x="160.84" y="40">elit,</tspan><tspan class="cls-8" x="204.28" y="40"> </tspan><tspan x="226.27" y="40">sed</tspan><tspan class="cls-8" x="275.06" y="40"> </tspan><tspan x="297.04" y="40">diam</tspan><tspan class="cls-8" x="367.27" y="40"> </tspan><tspan x="389.25" y="40">nonummy</tspan><tspan class="cls-8" x="527.76" y="40"> </tspan><tspan x="549.75" y="40">nibh </tspan><tspan x="0" y="80">euismod</tspan><tspan class="cls-9" x="116.99" y="80"> </tspan><tspan x="130.45" y="80">tincidunt</tspan><tspan class="cls-9" x="248.08" y="80"> </tspan><tspan x="261.54" y="80">ut</tspan><tspan class="cls-10" x="288.25" y="80"> </tspan><tspan x="301.7" y="80">laoreet</tspan><tspan class="cls-9" x="396.42" y="80"> </tspan><tspan x="409.88" y="80">dolore</tspan><tspan class="cls-9" x="495.52" y="80"> </tspan><tspan x="508.98" y="80">magna </tspan><tspan x="0" y="120">aliquam</tspan><tspan class="cls-11" x="111.72" y="120"> </tspan><tspan x="120.57" y="120">erat</tspan><tspan class="cls-12" x="174.97" y="120"> </tspan><tspan x="183.81" y="120">volutpat.</tspan><tspan class="cls-11" x="299.77" y="120"> </tspan><tspan x="308.62" y="120">Ut</tspan><tspan class="cls-12" x="336.08" y="120"> </tspan><tspan x="344.92" y="120">wisi</tspan><tspan class="cls-11" x="393.06" y="120"> </tspan><tspan x="401.9" y="120">enim</tspan><tspan class="cls-12" x="469.56" y="120"> </tspan><tspan x="478.4" y="120">ad</tspan><tspan class="cls-11" x="514.85" y="120"> </tspan><tspan x="523.69" y="120">minim </tspan><tspan x="0" y="160">veniam,</tspan><tspan class="cls-13" x="105.33" y="160"> </tspan><tspan x="152.39" y="160">quis</tspan><tspan class="cls-14" x="207.66" y="160"> </tspan><tspan x="254.73" y="160">nostrud</tspan><tspan class="cls-13" x="357.63" y="160"> </tspan><tspan x="404.7" y="160">exerci</tspan><tspan class="cls-13" x="483.21" y="160"> </tspan><tspan x="530.28" y="160">tation </tspan><tspan x="0" y="200">ullamcorper</tspan><tspan class="cls-15" x="163.73" y="200"> </tspan><tspan x="172.95" y="200">suscipit</tspan><tspan class="cls-16" x="274.34" y="200"> </tspan><tspan x="283.56" y="200">lobortis</tspan><tspan class="cls-15" x="381.98" y="200"> </tspan><tspan x="391.2" y="200">nisl</tspan><tspan class="cls-15" x="434.43" y="200"> </tspan><tspan x="443.66" y="200">ut</tspan><tspan class="cls-16" x="470.36" y="200"> </tspan><tspan x="479.58" y="200">aliquip</tspan><tspan class="cls-15" x="569.9" y="200"> </tspan><tspan x="579.13" y="200">ex </tspan><tspan x="0" y="240">ea</tspan><tspan class="cls-17" x="35.02" y="240"> </tspan><tspan x="41.2" y="240">commodo</tspan><tspan class="cls-17" x="183.17" y="240"> </tspan><tspan x="189.35" y="240">consequat.</tspan><tspan class="cls-17" x="338.96" y="240"> </tspan><tspan x="345.14" y="240">Duis</tspan><tspan class="cls-17" x="401.25" y="240"> </tspan><tspan x="407.43" y="240">autem</tspan><tspan class="cls-17" x="496.75" y="240"> </tspan><tspan x="502.93" y="240">vel</tspan><tspan class="cls-17" x="540.67" y="240"> </tspan><tspan x="546.86" y="240">eum </tspan><tspan x="0" y="280">iriure</tspan><tspan class="cls-18" x="65.8" y="280"> </tspan><tspan x="74.88" y="280">dolor</tspan><tspan class="cls-19" x="143.73" y="280"> </tspan><tspan x="152.8" y="280">in</tspan><tspan class="cls-18" x="176.08" y="280"> </tspan><tspan x="185.15" y="280">hendrerit</tspan><tspan class="cls-18" x="306.49" y="280"> </tspan><tspan x="315.57" y="280">in</tspan><tspan class="cls-18" x="338.84" y="280"> </tspan><tspan x="347.92" y="280">vulputate</tspan><tspan class="cls-19" x="475.52" y="280"> </tspan><tspan x="484.6" y="280">velit</tspan><tspan class="cls-18" x="538.13" y="280"> </tspan><tspan x="547.21" y="280">esse </tspan><tspan x="0" y="320">molestie</tspan><tspan class="cls-20" x="114.26" y="320"> </tspan><tspan x="139.1" y="320">consequat,</tspan><tspan class="cls-20" x="288.46" y="320"> </tspan><tspan x="313.31" y="320">vel</tspan><tspan class="cls-21" x="351.05" y="320"> </tspan><tspan x="375.89" y="320">illum</tspan><tspan class="cls-20" x="439.13" y="320"> </tspan><tspan x="463.97" y="320">dolore</tspan><tspan class="cls-20" x="549.61" y="320"> </tspan><tspan x="574.45" y="320">eu </tspan><tspan x="0" y="360">feugiat</tspan><tspan class="cls-22" x="94.9" y="360"> </tspan><tspan x="125.28" y="360">nulla</tspan><tspan class="cls-23" x="190.05" y="360"> </tspan><tspan x="220.43" y="360">facilisis</tspan><tspan class="cls-22" x="316.25" y="360"> </tspan><tspan x="346.63" y="360">at</tspan><tspan class="cls-22" x="374.46" y="360"> </tspan><tspan x="404.84" y="360">vero</tspan><tspan class="cls-22" x="463.51" y="360"> </tspan><tspan x="493.89" y="360">eros</tspan><tspan class="cls-23" x="551.56" y="360"> </tspan><tspan x="581.93" y="360">et </tspan><tspan x="0" y="400">accumsan</tspan><tspan class="cls-24" x="145.1" y="400"> </tspan><tspan x="153.65" y="400">et</tspan><tspan class="cls-25" x="180.05" y="400"> </tspan><tspan x="188.61" y="400">iusto</tspan><tspan class="cls-24" x="252.59" y="400"> </tspan><tspan x="261.15" y="400">odio</tspan><tspan class="cls-25" x="320.22" y="400"> </tspan><tspan x="328.77" y="400">dignissim</tspan><tspan class="cls-24" x="455.99" y="400"> </tspan><tspan x="464.55" y="400">qui</tspan><tspan class="cls-24" x="506.04" y="400"> </tspan><tspan x="514.6" y="400">blandit </tspan><tspan x="0" y="440">praesent</tspan><tspan class="cls-26" x="120.28" y="440"> </tspan><tspan x="137.26" y="440">luptatum</tspan><tspan class="cls-27" x="260.89" y="440"> </tspan><tspan x="277.87" y="440">zzril</tspan><tspan class="cls-26" x="323.83" y="440"> </tspan><tspan x="340.81" y="440">delenit</tspan><tspan class="cls-27" x="431.69" y="440"> </tspan><tspan x="448.67" y="440">augue</tspan><tspan class="cls-26" x="536.09" y="440"> </tspan><tspan x="553.07" y="440">duis </tspan><tspan x="0" y="480">dolore te feugait nulla facilisi. </tspan><tspan x="0" y="560">Lorem</tspan><tspan class="cls-28" x="82.86" y="560"> </tspan><tspan x="97.79" y="560">ipsum</tspan><tspan class="cls-29" x="180.65" y="560"> </tspan><tspan x="195.57" y="560">dolor</tspan><tspan class="cls-28" x="264.42" y="560"> </tspan><tspan x="279.34" y="560">sit</tspan><tspan class="cls-29" x="308.91" y="560"> </tspan><tspan x="323.83" y="560">amet,</tspan><tspan class="cls-28" x="400.73" y="560"> </tspan><tspan x="415.65" y="560">cons</tspan><tspan class="cls-28" x="480.39" y="560"> </tspan><tspan x="495.32" y="560">ectetuer </tspan><tspan x="0" y="600">adipiscing</tspan><tspan class="cls-8" x="138.86" y="600"> </tspan><tspan x="160.84" y="600">elit,</tspan><tspan class="cls-8" x="204.28" y="600"> </tspan><tspan x="226.27" y="600">sed</tspan><tspan class="cls-8" x="275.06" y="600"> </tspan><tspan x="297.04" y="600">diam</tspan><tspan class="cls-30" x="367.27" y="600"> </tspan><tspan x="389.25" y="600">nonummy</tspan><tspan class="cls-8" x="527.76" y="600"> </tspan><tspan x="549.75" y="600">nibh </tspan><tspan x="0" y="640">euismod</tspan><tspan class="cls-9" x="116.99" y="640"> </tspan><tspan x="130.45" y="640">tincidunt</tspan><tspan class="cls-9" x="248.08" y="640"> </tspan><tspan x="261.54" y="640">ut</tspan><tspan class="cls-10" x="288.25" y="640"> </tspan><tspan x="301.7" y="640">laoreet</tspan><tspan class="cls-9" x="396.42" y="640"> </tspan><tspan x="409.88" y="640">dolore</tspan><tspan class="cls-9" x="495.52" y="640"> </tspan><tspan x="508.98" y="640">magna </tspan><tspan x="0" y="680">aliquam</tspan><tspan class="cls-11" x="111.72" y="680"> </tspan><tspan x="120.57" y="680">erat</tspan><tspan class="cls-12" x="174.97" y="680"> </tspan><tspan x="183.81" y="680">volutpat.</tspan><tspan class="cls-11" x="299.77" y="680"> </tspan><tspan x="308.62" y="680">Ut</tspan><tspan class="cls-12" x="336.08" y="680"> </tspan><tspan x="344.92" y="680">wisi</tspan><tspan class="cls-11" x="393.06" y="680"> </tspan><tspan x="401.9" y="680">enim</tspan><tspan class="cls-12" x="469.56" y="680"> </tspan><tspan x="478.4" y="680">ad</tspan><tspan class="cls-11" x="514.85" y="680"> </tspan><tspan x="523.69" y="680">minim </tspan><tspan x="0" y="720">veniam,</tspan><tspan class="cls-13" x="105.33" y="720"> </tspan><tspan x="152.39" y="720">quis</tspan><tspan class="cls-14" x="207.66" y="720"> </tspan><tspan x="254.73" y="720">nostrud</tspan><tspan class="cls-13" x="357.63" y="720"> </tspan><tspan x="404.7" y="720">exerci</tspan><tspan class="cls-14" x="483.21" y="720"> </tspan><tspan x="530.28" y="720">tation </tspan><tspan x="0" y="760">ullamcorper</tspan><tspan class="cls-15" x="163.73" y="760"> </tspan><tspan x="172.95" y="760">suscipit</tspan><tspan class="cls-16" x="274.34" y="760"> </tspan><tspan x="283.56" y="760">lobortis</tspan><tspan class="cls-15" x="381.98" y="760"> </tspan><tspan x="391.2" y="760">nisl</tspan><tspan class="cls-15" x="434.43" y="760"> </tspan><tspan x="443.66" y="760">ut</tspan><tspan class="cls-16" x="470.36" y="760"> </tspan><tspan x="479.58" y="760">aliquip</tspan><tspan class="cls-15" x="569.9" y="760"> </tspan><tspan x="579.13" y="760">ex </tspan><tspan x="0" y="800">ea commodo consequat.</tspan><tspan x="0" y="880">Lorem</tspan><tspan class="cls-7" x="82.86" y="880"> </tspan><tspan x="100.77" y="880">ipsum</tspan><tspan class="cls-7" x="183.63" y="880"> </tspan><tspan x="201.54" y="880">dolor</tspan><tspan class="cls-7" x="270.39" y="880"> </tspan><tspan x="288.3" y="880">sit</tspan><tspan class="cls-7" x="317.86" y="880"> </tspan><tspan x="335.77" y="880">amet,</tspan><tspan class="cls-7" x="412.67" y="880"> </tspan><tspan x="430.57" y="880">consectetuer </tspan><tspan x="0" y="920">adipiscing</tspan><tspan class="cls-8" x="138.86" y="920"> </tspan><tspan x="160.84" y="920">elit,</tspan><tspan class="cls-8" x="204.28" y="920"> </tspan><tspan x="226.27" y="920">sed</tspan><tspan class="cls-8" x="275.06" y="920"> </tspan><tspan x="297.04" y="920">diam</tspan><tspan class="cls-8" x="367.27" y="920"> </tspan><tspan x="389.25" y="920">nonummy</tspan><tspan class="cls-8" x="527.76" y="920"> </tspan><tspan x="549.75" y="920">nibh </tspan><tspan x="0" y="960">euismod tincidunt ut </tspan></text></svg>