<svg id="Capa_1" data-name="Capa 1" xmlns="http://www.w3.org/2000/svg" xmlns:xlink="http://www.w3.org/1999/xlink" viewBox="0 0 750 1334"><defs><style>.cls-1{fill:#f2f2f2;}.cls-2{fill:url(#Degradado_sin_nombre_20);}.cls-3,.cls-6{font-size:30px;}.cls-3,.cls-4{fill:#fff;}.cls-3{font-family:Poppins-SemiBold, Poppins;font-weight:600;}.cls-5{fill:none;stroke-miterlimit:10;stroke-width:2px;stroke:url(#Degradado_sin_nombre_20-2);}.cls-6{fill:#333;font-family:Poppins-ExtraBold, Poppins;font-weight:800;}.cls-7{font-size:27px;font-family:Poppins-Light, Poppins;font-weight:300;}.cls-8{letter-spacing:0.88em;}.cls-9{letter-spacing:0.13em;}.cls-10{letter-spacing:0.13em;}.cls-11{letter-spacing:0.13em;}.cls-12{letter-spacing:0.2em;}.cls-13{letter-spacing:0.2em;}.cls-14{letter-spacing:0.44em;}.cls-15{letter-spacing:0.44em;}.cls-16{letter-spacing:0.51em;}.cls-17{letter-spacing:0.35em;}.cls-18{letter-spacing:0.35em;}.cls-19{letter-spacing:0.21em;}.cls-20{letter-spacing:0.17em;}.cls-21{letter-spacing:0.17em;}.cls-22{letter-spacing:0em;}.cls-23{letter-spacing:0.05em;}.cls-24{letter-spacing:0.05em;}.cls-25{letter-spacing:0.07em;}.cls-26{letter-spacing:0.07em;}.cls-27{letter-spacing:0.65em;}.cls-28{letter-spacing:0.65em;}.cls-29{letter-spacing:0.39em;}.cls-30{letter-spacing:0.54em;}</style><linearGradient id="Degradado_sin_nombre_20" x1="376" y1="201.69" x2="376" y2="-0.5" gradientUnits="userSpaceOnUse"><stop offset="0" stop-color="#662d91"/><stop offset="0.98" stop-color="aqua"/></linearGradient><linearGradient id="Degradado_sin_nombre_20-2" x1="28.92" y1="745.5" x2="723.08" y2="745.5" xlink:href="#Degradado_sin_nombre_20"/></defs><rect class="cls-1" x="-9" y="-10" width="770" height="1354"/><path class="cls-2" d="M761-3.5H-9v204h3.88a74.68,74.68,0,0,1,70.79-50.93H686.33a74.68,74.68,0,0,1,70.79,50.93H761Z"/><text class="cls-3" transform="translate(99.9 84.59)">Politicas de Privacidad</text><path class="cls-4" d="M83.52,73.52H59L69.81,62.76a1.49,1.49,0,0,0,0-2.09,1.47,1.47,0,0,0-2.09,0L54.43,74a1.61,1.61,0,0,0-.32.48,1.45,1.45,0,0,0,0,1.12,1.61,1.61,0,0,0,.32.48L67.72,89.33a1.45,1.45,0,0,0,1,.43,1.48,1.48,0,0,0,1-.43,1.49,1.49,0,0,0,0-2.09L59,76.48H83.52a1.48,1.48,0,0,0,0-3Z"/><path class="cls-4" d="M635.43,138.46a14,14,0,0,1-6.73-1.72l-15.12-8.24a14.71,14.71,0,0,1-1.94-1.27,33,33,0,0,1-8.66,2.71,38.11,38.11,0,0,1-6.5.55,47.63,47.63,0,0,1-22.82-6.29c-10.76-5.87-18-13.71-21.41-23.31-3.6-10-2.56-20.75,3-30.94a37.66,37.66,0,0,1,16.44-15.83,53,53,0,0,1,19.11-5.47c.23-.35.55-.86.94-1.57a14.25,14.25,0,0,1,2.91-3.69,14.3,14.3,0,0,1,1.59-4.8l7-12.86a14.08,14.08,0,0,1,19.11-5.62l15.13,8.25a15.29,15.29,0,0,1,1.93,1.27,33,33,0,0,1,8.66-2.72c9.51-1.61,19.37.32,29.32,5.75,10.76,5.86,18,13.7,21.4,23.29v0c3.6,10.05,2.56,20.74-3,30.93a37.59,37.59,0,0,1-16.44,15.82,53.16,53.16,0,0,1-19.11,5.48c-.23.34-.55.85-.94,1.57a14.2,14.2,0,0,1-2.91,3.68,14.35,14.35,0,0,1-1.59,4.81l-7,12.85A14.09,14.09,0,0,1,635.43,138.46Zm-23.6-12.83.33.28a13.11,13.11,0,0,0,2.06,1.4l15.13,8.25a12.74,12.74,0,0,0,17.27-5.08l7-12.86A13,13,0,0,0,655.1,113l0-.25.19-.17a12.93,12.93,0,0,0,2.81-3.49,18.24,18.24,0,0,1,1.18-1.93l.15-.22.26,0,.21-.05H660a51.8,51.8,0,0,0,18.76-5.35,36.35,36.35,0,0,0,15.87-15.26c5.36-9.84,6.37-20.15,2.9-29.83v0c-3.32-9.26-10.31-16.85-20.77-22.56-9.67-5.27-19.24-7.15-28.44-5.59A31.47,31.47,0,0,0,639.63,31l-.4.2L638.9,31a13.11,13.11,0,0,0-2.06-1.4L621.71,21.3a12.73,12.73,0,0,0-17.27,5.08l-7,12.86A12.9,12.9,0,0,0,596,43.81l0,.26-.19.17a12.78,12.78,0,0,0-2.81,3.49,18.24,18.24,0,0,1-1.18,1.93l-.15.21-.26.06-.21,0h-.07a51.85,51.85,0,0,0-18.76,5.35A36.38,36.38,0,0,0,556.43,70.6c-5.36,9.84-6.37,20.15-2.9,29.83,3.32,9.28,10.32,16.87,20.78,22.58a46.29,46.29,0,0,0,22.17,6.12,37.45,37.45,0,0,0,6.27-.52,31.48,31.48,0,0,0,8.68-2.79Z"/><path class="cls-4" d="M635.43,135.21a10.93,10.93,0,0,1-5.18-1.32l-15.12-8.25a10.73,10.73,0,0,1-3-2.36,29.43,29.43,0,0,1-9.74,3.46,36,36,0,0,1-6,.5,44.38,44.38,0,0,1-21.26-5.89c-10.05-5.48-16.74-12.73-19.91-21.56C552,90.64,553,80.86,558.1,71.51a34.43,34.43,0,0,1,15-14.48,49.87,49.87,0,0,1,18.2-5.17,7.56,7.56,0,0,0,1.35-.35,15,15,0,0,0,1.9-2.87,10.76,10.76,0,0,1,3.17-3.6,10.84,10.84,0,0,1,1.32-4.89l7-12.86A10.82,10.82,0,0,1,620.81,23l15.12,8.24a11,11,0,0,1,3,2.37,29.43,29.43,0,0,1,9.74-3.46c8.78-1.49,17.94.33,27.22,5.39,10,5.48,16.74,12.72,19.9,21.54h0C699,66.22,698.06,76,693,85.35a34.48,34.48,0,0,1-15.05,14.48,50.06,50.06,0,0,1-18.2,5.17,7.88,7.88,0,0,0-1.35.34,15.59,15.59,0,0,0-1.9,2.88,10.62,10.62,0,0,1-3.17,3.59,10.85,10.85,0,0,1-1.32,4.9l-7,12.86A10.84,10.84,0,0,1,635.43,135.21Zm-22-17.53,1.08,1.87a6.75,6.75,0,0,0,2.61,2.53l15.12,8.24a6.77,6.77,0,0,0,9.19-2.7l7-12.86a6.73,6.73,0,0,0,.8-3.85l-.12-1.32,1.16-.65a6.76,6.76,0,0,0,2.66-2.67,15,15,0,0,1,3-4.15L656,102l.14-.08a8.43,8.43,0,0,1,3-1l.18,0a46.09,46.09,0,0,0,16.81-4.76,30.48,30.48,0,0,0,13.31-12.79c4.53-8.31,5.41-16.94,2.54-25v0c-2.81-7.85-8.88-14.37-18-19.35-8.47-4.62-16.74-6.29-24.6-5A25.5,25.5,0,0,0,639.47,38l-1.8,1.2-1.08-1.87A6.75,6.75,0,0,0,634,34.78l-15.12-8.25a6.78,6.78,0,0,0-9.19,2.7l-7,12.86a6.75,6.75,0,0,0-.8,3.86l.12,1.32-1.16.64a6.83,6.83,0,0,0-2.66,2.67,15.14,15.14,0,0,1-2.95,4.16l-.12.11-.14.08a8.66,8.66,0,0,1-3,1l-.18,0A45.88,45.88,0,0,0,575,60.65a30.5,30.5,0,0,0-13.31,12.8c-4.53,8.31-5.41,16.94-2.53,25,2.81,7.86,8.88,14.37,18,19.36,6.57,3.58,13.06,5.4,19.32,5.4a31,31,0,0,0,5.28-.45,25.19,25.19,0,0,0,9.83-3.86ZM592.86,51.45Z"/><rect class="cls-4" x="610.18" y="32.25" width="18.98" height="21.56" rx="2.17" transform="translate(285.16 566.43) rotate(-61.39)"/><path class="cls-4" d="M616.48,102.22l-14.6-8a2.17,2.17,0,0,0-2.93.84h0c-1.32,2.35-2.91,3.69-4.88,4.1a8.79,8.79,0,0,1-6.2-1c-2.56-1.4-4.06-3.1-4.6-5.2s-.12-4.51,1.34-7.19a13.85,13.85,0,0,1,5.55-5.67,28.9,28.9,0,0,1,8.66-3c6.19-1,10.58-2.23,13.43-3.84s5.84-5,8.72-10.22h0a2.16,2.16,0,0,0-.86-2.95l-15-8.17a2.17,2.17,0,0,0-2.94.87h0a19.51,19.51,0,0,1-4.12,5.55,11.79,11.79,0,0,1-5.56,2.11l-.17,0a41.38,41.38,0,0,0-15.3,4.29,26,26,0,0,0-11.35,10.9C561.77,82.88,561,90,563.47,96.87s7.78,12.44,15.9,16.87a35.84,35.84,0,0,0,17.11,4.83,26.07,26.07,0,0,0,4.51-.38c7-1.19,12.51-5.46,16.31-12.7h0a2.16,2.16,0,0,0,.21-.62l.07-.37A2.18,2.18,0,0,0,616.48,102.22Z"/><path class="cls-4" d="M687.59,60c-2.43-6.76-7.78-12.44-15.9-16.87-7.53-4.11-14.81-5.61-21.62-4.46-7,1.19-12.51,5.46-16.31,12.7h0a2.34,2.34,0,0,0-.21.63l-.07.36a2.18,2.18,0,0,0,1.1,2.29l14.6,8a2.17,2.17,0,0,0,2.93-.85h0c1.32-2.34,2.91-3.68,4.88-4.1a8.75,8.75,0,0,1,6.2,1c2.56,1.4,4.06,3.1,4.6,5.2s.12,4.51-1.35,7.19a13.74,13.74,0,0,1-5.54,5.66,28.91,28.91,0,0,1-8.66,3c-6.19,1-10.58,2.23-13.43,3.84s-5.84,5-8.72,10.22h0a2.16,2.16,0,0,0,.86,3l15,8.16a2.16,2.16,0,0,0,2.94-.86h0A19.36,19.36,0,0,1,653,98.52a11.9,11.9,0,0,1,5.56-2.12l.17,0A41.19,41.19,0,0,0,674,92.09,25.93,25.93,0,0,0,685.35,81.2C689.29,74,690,66.84,687.59,60Z"/><rect class="cls-4" x="621.9" y="103.05" width="18.98" height="21.56" rx="2.17" transform="translate(229.12 613.61) rotate(-61.39)"/><path class="cls-4" d="M663.85-10,642.79,28.13a.54.54,0,0,0,.22.74.48.48,0,0,0,.26.07.53.53,0,0,0,.47-.28L665.09-10Z"/><path class="cls-4" d="M660.29-10l-22.1,40a.54.54,0,0,0,.21.74.58.58,0,0,0,.26.06.56.56,0,0,0,.48-.27L661.53-10Z"/><path class="cls-4" d="M639.89-10,623.07,20.45a.55.55,0,0,0,.21.74.68.68,0,0,0,.27.07A.53.53,0,0,0,624,21L641.12-10Z"/><path class="cls-4" d="M694.45-10,677.43,21a.53.53,0,0,0,.22.73.48.48,0,0,0,.26.07.53.53,0,0,0,.47-.28L695.68-10Z"/><path class="cls-4" d="M595.05,150.14l11.85-21.53a.54.54,0,0,0-.21-.74.56.56,0,0,0-.74.22l-12.14,22Z"/><path class="cls-4" d="M601,150.14l11.85-21.53a.54.54,0,0,0-.21-.74.56.56,0,0,0-.74.22l-12.14,22Z"/><path class="cls-4" d="M628.32,150.14l6.48-11.78a.53.53,0,0,0-.21-.73.54.54,0,0,0-.74.21l-6.77,12.3Z"/><path class="cls-4" d="M650.66,146.72a.51.51,0,0,0,.26.07.55.55,0,0,0,.48-.28L668.77,115a.54.54,0,0,0-.22-.73.53.53,0,0,0-.73.21L650.45,146A.53.53,0,0,0,650.66,146.72Z"/><path class="cls-4" d="M702.65-10,678.76,33.2a1.62,1.62,0,0,0,.63,2.21,1.6,1.6,0,0,0,.79.2,1.63,1.63,0,0,0,1.42-.83L706.37-10Z"/><path class="cls-4" d="M699.64-10,676.25,32.23a.53.53,0,0,0,.21.73.48.48,0,0,0,.26.07.52.52,0,0,0,.47-.28L700.88-10Z"/><path class="cls-4" d="M708.15-10,682.86,35.66a.54.54,0,0,0,.21.74.59.59,0,0,0,.26.07.53.53,0,0,0,.47-.28L709.39-10Z"/><path class="cls-4" d="M550.37,150.14,567,120.2a1.62,1.62,0,0,0-2.84-1.58l-17.46,31.52Z"/><path class="cls-4" d="M545,150.14l18.85-34a.54.54,0,0,0-.21-.74.53.53,0,0,0-.73.22l-19.14,34.51Z"/><path class="cls-4" d="M553.44,150.14l16.19-29.2a.54.54,0,0,0-.21-.74.55.55,0,0,0-.74.21L552.2,150.14Z"/><path class="cls-4" d="M711-3.19,699.62,17.48a.55.55,0,0,0,.21.74.68.68,0,0,0,.26.07.57.57,0,0,0,.48-.28L711-.94Z"/><path class="cls-4" d="M578.24,52.64a.58.58,0,0,1-.26-.06.54.54,0,0,1-.21-.74l17.37-31.55a.54.54,0,0,1,.73-.21.55.55,0,0,1,.22.74L578.72,52.36A.55.55,0,0,1,578.24,52.64Z"/><path class="cls-4" d="M587.45,49.94a.59.59,0,0,1-.26-.07.54.54,0,0,1-.21-.74l17.37-31.54a.53.53,0,0,1,.73-.22.54.54,0,0,1,.21.74L587.93,49.66A.57.57,0,0,1,587.45,49.94Z"/><path class="cls-4" d="M540.43,150.14,550,132.69a.55.55,0,0,0-.22-.74.54.54,0,0,0-.73.21l-9.9,18Z"/><path class="cls-4" d="M597.74,16.89a.58.58,0,0,1-.26-.06.54.54,0,0,1-.21-.74l6.25-11.25a.54.54,0,1,1,.94.53l-6.24,11.25A.56.56,0,0,1,597.74,16.89Z"/><path class="cls-4" d="M619.59-10,609.81,7.86a.53.53,0,0,0,.21.73.48.48,0,0,0,.26.07.55.55,0,0,0,.48-.28L620.82-10Z"/><path class="cls-4" d="M559.82,150.14l12.41-22.61a.54.54,0,0,0-.21-.74.55.55,0,0,0-.74.21l-12.7,23.14Z"/><rect class="cls-4" x="29.92" y="182" width="692.17" height="1127" rx="60.17"/><rect class="cls-5" x="29.92" y="182" width="692.17" height="1127" rx="60.17"/><text class="cls-6" transform="translate(70.83 259.84)">LOREM IPSUM DOLOR SIT AMET<tspan class="cls-7"><tspan x="0" y="40">Consectetuer</tspan><tspan class="cls-8" x="182.03" y="40"> </tspan><tspan x="213.28" y="40">adipiscing</tspan><tspan class="cls-8" x="352.14" y="40"> </tspan><tspan x="383.39" y="40">elit,</tspan><tspan class="cls-8" x="426.83" y="40"> </tspan><tspan x="458.08" y="40">sed</tspan><tspan class="cls-8" x="506.86" y="40"> </tspan><tspan x="538.11" y="40">diam </tspan><tspan x="0" y="80">nonummy</tspan><tspan class="cls-9" x="138.51" y="80"> </tspan><tspan x="149.55" y="80">nibh</tspan><tspan class="cls-10" x="208.14" y="80"> </tspan><tspan x="219.18" y="80">euismod</tspan><tspan class="cls-9" x="336.17" y="80"> </tspan><tspan x="347.21" y="80">tincidunt</tspan><tspan class="cls-10" x="464.84" y="80"> </tspan><tspan x="475.88" y="80">ut</tspan><tspan class="cls-9" x="502.58" y="80"> </tspan><tspan x="513.62" y="80">laoreet </tspan><tspan x="0" y="120">dolore</tspan><tspan class="cls-11" x="85.64" y="120"> </tspan><tspan x="96.58" y="120">magna</tspan><tspan class="cls-11" x="195.94" y="120"> </tspan><tspan x="206.88" y="120">aliquam</tspan><tspan class="cls-11" x="318.61" y="120"> </tspan><tspan x="329.55" y="120">erat</tspan><tspan class="cls-11" x="383.95" y="120"> </tspan><tspan x="394.9" y="120">volutpat.</tspan><tspan class="cls-11" x="510.86" y="120"> </tspan><tspan x="521.8" y="120">Ut</tspan><tspan class="cls-11" x="549.26" y="120"> </tspan><tspan x="560.2" y="120">wisi </tspan><tspan x="0" y="160">enim</tspan><tspan class="cls-12" x="67.66" y="160"> </tspan><tspan x="80.59" y="160">ad</tspan><tspan class="cls-13" x="117.04" y="160"> </tspan><tspan x="129.97" y="160">minim</tspan><tspan class="cls-12" x="214.61" y="160"> </tspan><tspan x="227.54" y="160">veniam,</tspan><tspan class="cls-13" x="332.87" y="160"> </tspan><tspan x="345.8" y="160">quis</tspan><tspan class="cls-12" x="401.07" y="160"> </tspan><tspan x="414" y="160">nostrud</tspan><tspan class="cls-13" x="516.89" y="160"> </tspan><tspan x="529.82" y="160">exerci </tspan><tspan x="0" y="200">tation</tspan><tspan class="cls-14" x="78.05" y="200"> </tspan><tspan x="97.42" y="200">ullamcorper</tspan><tspan class="cls-15" x="261.15" y="200"> </tspan><tspan x="280.51" y="200">suscipit</tspan><tspan class="cls-14" x="381.9" y="200"> </tspan><tspan x="401.26" y="200">lobortis</tspan><tspan class="cls-15" x="499.68" y="200"> </tspan><tspan x="519.04" y="200">nisl</tspan><tspan class="cls-14" x="562.27" y="200"> </tspan><tspan x="581.63" y="200">ut </tspan><tspan x="0" y="240">aliquip</tspan><tspan class="cls-16" x="90.31" y="240"> </tspan><tspan x="111.54" y="240">ex</tspan><tspan class="cls-16" x="140.75" y="240"> </tspan><tspan x="161.97" y="240">ea</tspan><tspan class="cls-16" x="196.99" y="240"> </tspan><tspan x="218.22" y="240">commodo</tspan><tspan class="cls-16" x="360.18" y="240"> </tspan><tspan x="381.4" y="240">consequat.</tspan><tspan class="cls-16" x="531.01" y="240"> </tspan><tspan x="552.23" y="240">Duis </tspan><tspan x="0" y="280">autem</tspan><tspan class="cls-17" x="89.31" y="280"> </tspan><tspan x="106.07" y="280">vel</tspan><tspan class="cls-18" x="143.81" y="280"> </tspan><tspan x="160.56" y="280">eum</tspan><tspan class="cls-17" x="222.04" y="280"> </tspan><tspan x="238.8" y="280">iriure</tspan><tspan class="cls-17" x="304.59" y="280"> </tspan><tspan x="321.35" y="280">dolor</tspan><tspan class="cls-18" x="390.2" y="280"> </tspan><tspan x="406.95" y="280">in</tspan><tspan class="cls-17" x="430.22" y="280"> </tspan><tspan x="446.98" y="280">hendrerit</tspan><tspan class="cls-17" x="568.31" y="280"> </tspan><tspan x="585.07" y="280">in </tspan><tspan x="0" y="320">vulputate</tspan><tspan class="cls-19" x="127.6" y="320"> </tspan><tspan x="140.54" y="320">velit</tspan><tspan class="cls-19" x="194.08" y="320"> </tspan><tspan x="207.02" y="320">esse</tspan><tspan class="cls-19" x="268.15" y="320"> </tspan><tspan x="281.09" y="320">molestie</tspan><tspan class="cls-19" x="395.35" y="320"> </tspan><tspan x="408.29" y="320">consequat,</tspan><tspan class="cls-19" x="557.65" y="320"> </tspan><tspan x="570.59" y="320">vel </tspan><tspan x="0" y="360">illum</tspan><tspan class="cls-20" x="63.23" y="360"> </tspan><tspan x="75.17" y="360">dolore</tspan><tspan class="cls-20" x="160.82" y="360"> </tspan><tspan x="172.75" y="360">eu</tspan><tspan class="cls-21" x="206.64" y="360"> </tspan><tspan x="218.58" y="360">feugiat</tspan><tspan class="cls-20" x="313.48" y="360"> </tspan><tspan x="325.42" y="360">nulla</tspan><tspan class="cls-20" x="390.19" y="360"> </tspan><tspan x="402.13" y="360">facilisis</tspan><tspan class="cls-20" x="497.95" y="360"> </tspan><tspan x="509.89" y="360">at</tspan><tspan class="cls-20" x="537.73" y="360"> </tspan><tspan class="cls-22" x="549.67" y="360">vero </tspan><tspan x="0" y="400">eros</tspan><tspan class="cls-23" x="57.67" y="400"> </tspan><tspan x="66.38" y="400">et</tspan><tspan class="cls-23" x="92.79" y="400"> </tspan><tspan x="101.5" y="400">accumsan</tspan><tspan class="cls-23" x="246.59" y="400"> </tspan><tspan x="255.31" y="400">et</tspan><tspan class="cls-23" x="281.71" y="400"> </tspan><tspan x="290.42" y="400">iusto</tspan><tspan class="cls-23" x="354.41" y="400"> </tspan><tspan x="363.12" y="400">odio</tspan><tspan class="cls-23" x="422.2" y="400"> </tspan><tspan x="430.91" y="400">dignissim</tspan><tspan class="cls-24" x="558.13" y="400"> </tspan><tspan x="566.84" y="400">qui </tspan><tspan x="0" y="440">blandit</tspan><tspan class="cls-25" x="93.74" y="440"> </tspan><tspan x="103.03" y="440">praesent</tspan><tspan class="cls-25" x="223.31" y="440"> </tspan><tspan x="232.59" y="440">luptatum</tspan><tspan class="cls-26" x="356.22" y="440"> </tspan><tspan x="365.51" y="440">zzril</tspan><tspan class="cls-25" x="411.46" y="440"> </tspan><tspan x="420.75" y="440">delenit</tspan><tspan class="cls-25" x="511.63" y="440"> </tspan><tspan x="520.92" y="440">augue </tspan><tspan x="0" y="480">duis dolore te feugait nulla facilisi. </tspan></tspan><tspan x="0" y="560">LoREM IPSUM DOLOR SIT AMET</tspan><tspan class="cls-7"><tspan x="0" y="600">CONS</tspan><tspan class="cls-27" x="69.01" y="600"> </tspan><tspan x="94.01" y="600">ectetuer</tspan><tspan class="cls-28" x="207.03" y="600"> </tspan><tspan x="232.03" y="600">adipiscing</tspan><tspan class="cls-27" x="370.89" y="600"> </tspan><tspan x="395.88" y="600">elit,</tspan><tspan class="cls-27" x="439.33" y="600"> </tspan><tspan x="464.32" y="600">sed</tspan><tspan class="cls-28" x="513.11" y="600"> </tspan><tspan x="538.11" y="600">diam </tspan><tspan x="0" y="640">nonummy</tspan><tspan class="cls-10" x="138.51" y="640"> </tspan><tspan x="149.55" y="640">nibh</tspan><tspan class="cls-9" x="208.14" y="640"> </tspan><tspan x="219.18" y="640">euismod</tspan><tspan class="cls-10" x="336.17" y="640"> </tspan><tspan x="347.21" y="640">tincidunt</tspan><tspan class="cls-9" x="464.84" y="640"> </tspan><tspan x="475.88" y="640">ut</tspan><tspan class="cls-10" x="502.58" y="640"> </tspan><tspan x="513.62" y="640">laoreet </tspan><tspan x="0" y="680">dolore</tspan><tspan class="cls-11" x="85.64" y="680"> </tspan><tspan x="96.58" y="680">magna</tspan><tspan class="cls-11" x="195.94" y="680"> </tspan><tspan x="206.88" y="680">aliquam</tspan><tspan class="cls-11" x="318.61" y="680"> </tspan><tspan x="329.55" y="680">erat</tspan><tspan class="cls-11" x="383.95" y="680"> </tspan><tspan x="394.9" y="680">volutpat.</tspan><tspan class="cls-11" x="510.86" y="680"> </tspan><tspan x="521.8" y="680">Ut</tspan><tspan class="cls-11" x="549.26" y="680"> </tspan><tspan x="560.2" y="680">wisi </tspan><tspan x="0" y="720">enim</tspan><tspan class="cls-12" x="67.66" y="720"> </tspan><tspan x="80.59" y="720">ad</tspan><tspan class="cls-13" x="117.04" y="720"> </tspan><tspan x="129.97" y="720">minim</tspan><tspan class="cls-12" x="214.61" y="720"> </tspan><tspan x="227.54" y="720">veniam,</tspan><tspan class="cls-13" x="332.87" y="720"> </tspan><tspan x="345.8" y="720">quis</tspan><tspan class="cls-12" x="401.07" y="720"> </tspan><tspan x="414" y="720">nostrud</tspan><tspan class="cls-13" x="516.89" y="720"> </tspan><tspan x="529.82" y="720">exerci </tspan><tspan x="0" y="760">tation</tspan><tspan class="cls-14" x="78.05" y="760"> </tspan><tspan x="97.42" y="760">ullamcorper</tspan><tspan class="cls-15" x="261.15" y="760"> </tspan><tspan x="280.51" y="760">suscipit</tspan><tspan class="cls-14" x="381.9" y="760"> </tspan><tspan x="401.26" y="760">lobortis</tspan><tspan class="cls-15" x="499.68" y="760"> </tspan><tspan x="519.04" y="760">nisl</tspan><tspan class="cls-14" x="562.27" y="760"> </tspan><tspan x="581.63" y="760">ut </tspan><tspan x="0" y="800">aliquip ex ea commodo consequat.</tspan><tspan x="0" y="880">Lorem</tspan><tspan class="cls-29" x="82.86" y="880"> </tspan><tspan x="100.77" y="880">ipsum</tspan><tspan class="cls-29" x="183.63" y="880"> </tspan><tspan x="201.54" y="880">dolor</tspan><tspan class="cls-29" x="270.39" y="880"> </tspan><tspan x="288.3" y="880">sit</tspan><tspan class="cls-29" x="317.86" y="880"> </tspan><tspan x="335.77" y="880">amet,</tspan><tspan class="cls-29" x="412.67" y="880"> </tspan><tspan x="430.57" y="880">consectetuer </tspan><tspan x="0" y="920">adipiscing</tspan><tspan class="cls-30" x="138.86" y="920"> </tspan><tspan x="160.84" y="920">elit,</tspan><tspan class="cls-30" x="204.28" y="920"> </tspan><tspan x="226.27" y="920">sed</tspan><tspan class="cls-30" x="275.06" y="920"> </tspan><tspan x="297.04" y="920">diam</tspan><tspan class="cls-30" x="367.27" y="920"> </tspan><tspan x="389.25" y="920">nonummy</tspan><tspan class="cls-30" x="527.76" y="920"> </tspan><tspan x="549.75" y="920">nibh </tspan><tspan x="0" y="960">euismod tincidunt ut </tspan></tspan></text></svg>